<svg id="svg" version="1.1" xmlns="http://www.w3.org/2000/svg" xmlns:xlink="http://www.w3.org/1999/xlink" width="400" height="400" viewBox="0, 0, 400,400"><g id="svgg"><path id="path0" d="M202.400 72.776 C 202.400 81.751,202.249 81.907,189.427 86.186 C 180.362 89.211,179.675 89.519,178.258 91.204 C 175.992 93.897,175.999 96.923,178.281 100.696 C 182.080 106.978,182.219 108.273,180.429 120.800 C 180.225 122.230,179.683 126.092,179.225 129.383 C 177.811 139.538,175.400 141.586,167.938 138.970 C 166.322 138.403,164.460 137.793,163.800 137.614 C 163.140 137.435,160.620 136.595,158.200 135.747 C 148.979 132.518,145.617 133.285,135.353 140.961 C 126.555 147.540,127.993 147.361,109.200 144.220 C 96.963 142.175,96.553 141.960,90.214 134.255 C 86.797 130.102,86.627 130.042,85.263 132.507 C 81.027 140.164,77.544 147.514,75.268 153.600 C 74.816 154.810,74.052 157.060,73.570 158.600 C 73.089 160.140,72.552 161.760,72.378 162.200 C 72.203 162.640,71.973 163.450,71.867 164.000 C 71.697 164.884,71.269 166.638,70.014 171.600 C 69.262 174.574,68.328 180.313,67.584 186.530 C 67.033 191.138,67.040 209.117,67.595 213.321 C 67.833 215.124,68.214 218.040,68.441 219.800 C 68.845 222.926,69.329 225.578,70.011 228.400 C 70.197 229.170,70.558 230.700,70.813 231.800 C 71.068 232.900,71.418 234.250,71.592 234.800 C 71.765 235.350,72.134 236.610,72.410 237.600 C 73.228 240.523,75.214 246.505,75.797 247.800 C 76.094 248.460,76.693 249.900,77.128 251.000 C 80.327 259.090,88.596 273.740,93.000 279.121 C 93.305 279.495,95.071 281.690,96.922 284.000 C 98.774 286.310,101.765 289.730,103.569 291.600 L 106.848 295.000 106.637 286.200 C 106.438 277.903,105.757 271.768,104.405 266.100 C 104.182 265.165,103.799 263.545,103.554 262.500 C 102.597 258.421,99.770 249.915,97.617 244.635 C 94.157 236.147,94.811 229.804,99.712 224.322 C 105.298 218.076,111.747 218.672,119.659 226.164 C 121.496 227.905,124.440 230.688,126.200 232.350 C 127.960 234.012,131.020 236.910,133.000 238.791 C 141.194 246.575,150.741 255.567,152.800 257.441 C 161.140 265.031,168.897 269.816,178.600 273.356 C 187.947 276.767,190.919 279.664,191.486 285.919 C 192.241 294.238,178.149 311.746,164.800 319.076 C 152.827 325.649,153.442 325.150,156.300 325.971 C 157.345 326.271,158.380 326.646,158.600 326.804 C 158.820 326.963,159.450 327.194,160.000 327.318 C 160.550 327.443,161.630 327.724,162.400 327.945 C 169.410 329.949,173.267 330.775,181.400 332.017 C 190.499 333.406,208.110 333.603,216.100 332.405 C 217.585 332.182,220.105 331.807,221.700 331.572 C 223.295 331.337,225.230 330.993,226.000 330.809 C 226.770 330.625,229.110 330.082,231.200 329.602 C 233.290 329.122,235.540 328.567,236.200 328.369 C 238.831 327.579,245.047 325.537,245.800 325.215 C 246.240 325.027,247.860 324.395,249.400 323.810 C 250.940 323.225,253.401 322.198,254.868 321.529 L 257.536 320.311 266.706 308.056 C 276.881 294.458,276.926 294.388,277.601 290.959 C 278.815 284.784,274.940 278.905,268.369 276.954 C 265.674 276.153,265.030 276.244,253.908 278.987 C 239.925 282.434,236.751 281.794,228.522 273.869 C 220.406 266.052,218.095 261.419,219.966 256.719 C 220.623 255.068,222.693 249.560,226.023 240.600 C 233.351 220.886,230.639 223.936,255.400 207.554 C 278.844 192.044,277.941 192.339,291.400 195.798 C 294.480 196.589,298.530 197.576,300.400 197.991 C 302.270 198.407,304.880 199.008,306.200 199.327 C 312.584 200.874,317.815 201.220,322.069 200.379 C 327.103 199.383,328.244 199.126,329.000 198.818 C 329.440 198.638,330.565 198.262,331.500 197.982 L 333.200 197.472 333.180 195.036 C 333.133 189.400,331.842 178.719,330.444 172.400 C 329.751 169.267,329.224 167.047,328.806 165.500 C 328.583 164.675,328.241 163.415,328.047 162.700 C 327.642 161.205,326.549 157.898,325.940 156.325 C 325.539 155.288,325.478 155.270,324.262 155.803 C 323.568 156.108,319.869 157.369,316.041 158.607 C 304.611 162.302,298.570 161.604,291.661 155.790 C 284.593 149.843,278.350 151.285,268.656 161.106 C 258.593 171.302,256.132 172.788,248.800 173.099 C 243.426 173.326,241.399 172.902,239.374 171.124 C 234.383 166.742,235.876 158.353,242.000 156.371 C 248.722 154.196,252.513 150.750,256.074 143.580 C 260.314 135.042,260.290 131.610,255.943 124.951 C 251.928 118.801,251.502 116.675,252.788 109.200 C 253.261 106.450,253.804 103.120,253.994 101.800 C 255.439 91.772,257.915 89.488,266.117 90.619 C 268.517 90.950,273.106 88.791,271.968 87.866 C 271.201 87.243,268.000 85.200,267.790 85.200 C 267.643 85.200,267.042 84.857,266.453 84.438 C 265.410 83.695,257.602 79.712,254.000 78.084 C 250.259 76.394,245.715 74.690,243.400 74.109 C 242.080 73.777,240.829 73.347,240.620 73.153 C 240.411 72.959,239.747 72.800,239.144 72.800 C 238.541 72.800,237.949 72.641,237.829 72.446 C 237.708 72.251,237.113 71.993,236.505 71.871 C 235.897 71.749,234.590 71.448,233.600 71.203 C 224.028 68.828,216.715 67.723,208.100 67.348 L 202.400 67.099 202.400 72.776 M134.725 162.175 C 139.320 163.398,140.320 164.692,147.196 178.320 C 155.185 194.153,158.622 198.605,165.316 201.788 C 174.400 206.108,167.978 218.821,156.725 218.791 C 151.214 218.777,148.691 216.914,137.782 204.797 C 134.673 201.344,111.487 172.296,110.899 171.119 C 109.422 168.157,110.954 163.999,114.096 162.444 C 116.258 161.374,130.994 161.182,134.725 162.175 " stroke="none" fill="#1fa2fb" fill-rule="evenodd"></path><path id="path1" d="M192.600 67.216 C 184.002 67.642,178.395 68.432,169.600 70.456 C 165.573 71.382,163.296 71.979,162.200 72.395 C 161.760 72.561,159.600 73.269,157.400 73.967 C 155.200 74.665,153.040 75.390,152.600 75.578 C 152.160 75.766,150.947 76.298,149.904 76.760 C 148.862 77.222,147.899 77.600,147.766 77.600 C 147.284 77.600,138.534 81.902,135.600 83.582 C 133.950 84.527,132.006 85.639,131.281 86.054 C 116.742 94.366,99.898 110.415,89.645 125.724 L 86.749 130.049 89.075 132.901 C 96.446 141.942,96.622 142.044,108.311 144.044 C 127.972 147.408,126.508 147.575,135.353 140.961 C 145.617 133.285,148.979 132.518,158.200 135.747 C 160.620 136.595,163.140 137.435,163.800 137.614 C 164.460 137.793,166.322 138.403,167.938 138.970 C 175.400 141.586,177.811 139.538,179.225 129.383 C 179.683 126.092,180.225 122.230,180.429 120.800 C 182.219 108.273,182.080 106.978,178.281 100.696 C 175.999 96.923,175.992 93.897,178.258 91.204 C 179.675 89.519,180.362 89.211,189.427 86.186 C 202.418 81.851,202.515 81.748,202.315 72.400 L 202.200 67.000 200.400 66.959 C 199.410 66.937,195.900 67.052,192.600 67.216 M271.219 88.980 C 269.868 90.418,268.303 90.920,266.117 90.619 C 257.915 89.488,255.439 91.772,253.994 101.800 C 253.804 103.120,253.261 106.450,252.788 109.200 C 251.502 116.675,251.928 118.801,255.943 124.951 C 260.290 131.610,260.314 135.042,256.074 143.580 C 252.513 150.750,248.722 154.196,242.000 156.371 C 235.876 158.353,234.383 166.742,239.374 171.124 C 241.399 172.902,243.426 173.326,248.800 173.099 C 256.132 172.788,258.593 171.302,268.656 161.106 C 278.350 151.285,284.593 149.843,291.661 155.790 C 298.575 161.608,304.620 162.304,316.041 158.598 C 326.212 155.298,325.935 155.433,325.260 154.116 C 325.058 153.722,324.711 152.950,324.487 152.400 C 324.264 151.850,323.808 150.770,323.474 150.000 C 323.139 149.230,322.548 147.790,322.160 146.800 C 313.935 125.830,291.418 99.266,272.558 88.282 C 272.315 88.140,271.712 88.455,271.219 88.980 M114.096 162.444 C 110.954 163.999,109.422 168.157,110.899 171.119 C 111.487 172.296,134.673 201.344,137.782 204.797 C 148.691 216.914,151.214 218.777,156.725 218.791 C 167.978 218.821,174.400 206.108,165.316 201.788 C 158.622 198.605,155.185 194.153,147.196 178.320 C 138.671 161.425,138.930 161.613,124.200 161.605 C 116.456 161.601,115.667 161.667,114.096 162.444 M276.549 194.580 C 273.778 195.362,274.059 195.189,255.000 207.809 C 236.274 220.208,234.987 221.169,232.845 224.357 C 231.190 226.822,230.793 227.766,226.023 240.600 C 222.693 249.560,220.623 255.068,219.966 256.719 C 218.095 261.419,220.406 266.052,228.522 273.869 C 236.751 281.794,239.925 282.434,253.908 278.987 C 265.030 276.244,265.674 276.153,268.369 276.954 C 274.940 278.905,278.815 284.784,277.601 290.959 C 276.927 294.381,276.847 294.507,267.209 307.400 C 262.440 313.780,258.393 319.246,258.217 319.546 C 257.539 320.700,267.404 315.219,274.200 310.665 C 295.298 296.529,313.516 274.565,322.531 252.398 C 323.417 250.219,323.880 249.088,324.374 247.900 C 324.579 247.405,324.977 246.280,325.257 245.400 C 325.537 244.520,325.877 243.620,326.011 243.400 C 326.146 243.180,326.486 242.190,326.767 241.200 C 327.048 240.210,327.440 239.087,327.639 238.705 C 327.838 238.323,328.000 237.569,328.000 237.029 C 328.000 236.489,328.160 235.948,328.356 235.827 C 328.551 235.706,328.808 235.021,328.927 234.304 C 329.045 233.587,329.345 232.190,329.593 231.200 C 332.095 221.208,334.439 197.600,332.928 197.600 C 332.615 197.600,330.175 198.362,329.000 198.828 C 328.243 199.127,327.067 199.390,322.069 200.379 C 317.815 201.220,312.584 200.874,306.200 199.327 C 304.880 199.008,302.270 198.407,300.400 197.991 C 298.530 197.576,294.480 196.585,291.400 195.789 C 284.829 194.091,279.751 193.677,276.549 194.580 M106.034 220.434 C 96.918 222.223,93.033 233.391,97.617 244.635 C 98.506 246.816,99.947 250.760,100.819 253.400 C 102.975 259.928,102.849 259.481,104.433 266.200 C 105.753 271.796,106.446 278.014,106.677 286.353 L 106.926 295.306 108.131 296.353 C 108.793 296.929,110.430 298.366,111.768 299.546 C 122.581 309.084,134.250 316.685,145.600 321.584 C 151.180 323.992,151.338 324.062,152.095 324.447 C 153.279 325.049,154.425 324.844,156.551 323.648 C 158.822 322.372,161.475 320.901,164.800 319.076 C 173.313 314.402,178.061 309.955,185.274 299.901 C 191.032 291.877,191.858 290.017,191.486 285.919 C 190.919 279.664,187.947 276.767,178.600 273.356 C 168.897 269.816,161.140 265.031,152.800 257.441 C 150.741 255.567,141.194 246.575,133.000 238.791 C 131.020 236.910,127.960 234.012,126.200 232.350 C 124.440 230.688,121.496 227.905,119.659 226.164 C 115.448 222.176,113.513 220.914,110.826 220.405 C 108.443 219.953,108.488 219.953,106.034 220.434 " stroke="none" fill="#06e09a" fill-rule="evenodd"></path><path id="path2" d="M186.333 23.000 C 186.198 23.135,184.223 23.427,181.944 23.649 C 176.589 24.169,172.791 24.653,169.800 25.196 C 168.480 25.435,166.680 25.724,165.800 25.838 C 164.920 25.952,163.840 26.203,163.400 26.395 C 162.960 26.588,162.060 26.840,161.400 26.955 C 159.423 27.300,156.689 27.914,155.200 28.347 C 153.729 28.775,151.419 29.422,149.400 29.971 C 146.282 30.819,136.988 34.081,133.400 35.588 C 131.200 36.511,129.051 37.371,128.625 37.500 C 124.163 38.841,101.060 52.099,96.163 56.128 C 95.743 56.473,94.230 57.620,92.800 58.676 C 91.370 59.732,89.750 60.979,89.200 61.446 C 76.934 71.866,69.207 79.520,62.597 87.800 C 61.718 88.900,60.904 89.890,60.788 90.000 C 60.671 90.110,59.716 91.370,58.665 92.800 C 57.615 94.230,56.523 95.685,56.239 96.033 C 52.041 101.179,38.858 124.106,37.500 128.625 C 37.371 129.051,36.510 131.200,35.586 133.400 C 34.047 137.062,30.833 146.420,29.610 150.800 C 29.333 151.790,28.969 153.050,28.800 153.600 C 28.631 154.150,28.306 155.320,28.078 156.200 C 27.850 157.080,27.469 158.541,27.232 159.446 C 26.994 160.352,26.800 161.556,26.800 162.123 C 26.800 162.689,26.643 163.250,26.452 163.368 C 26.260 163.486,25.990 164.442,25.852 165.492 C 25.714 166.541,25.412 168.480,25.182 169.800 C 23.480 179.568,23.036 185.784,23.039 199.800 C 23.042 212.380,23.268 216.624,24.383 225.000 C 24.588 226.540,24.878 228.838,25.028 230.107 C 25.178 231.376,25.458 232.512,25.650 232.631 C 25.843 232.750,26.000 233.636,26.000 234.600 C 26.000 235.564,26.161 236.452,26.358 236.574 C 26.555 236.695,26.813 237.471,26.932 238.297 C 27.051 239.124,27.326 240.610,27.544 241.600 C 27.910 243.264,28.151 244.163,29.177 247.700 C 29.385 248.415,29.722 249.630,29.926 250.400 C 30.845 253.871,33.757 262.238,35.432 266.225 C 36.443 268.631,37.377 270.960,37.507 271.400 C 37.764 272.268,44.141 284.916,45.474 287.200 C 45.923 287.970,46.976 289.770,47.814 291.200 C 52.079 298.478,60.340 309.934,65.400 315.586 C 74.602 325.864,83.829 334.613,91.800 340.620 C 92.900 341.449,93.860 342.279,93.933 342.464 C 94.007 342.649,94.288 342.800,94.558 342.800 C 94.828 342.800,95.404 343.131,95.838 343.535 C 96.876 344.502,106.961 351.246,109.004 352.340 C 109.882 352.810,111.500 353.729,112.600 354.382 C 116.253 356.550,130.365 363.417,133.200 364.406 C 133.970 364.674,135.215 365.165,135.966 365.497 C 137.923 366.361,147.266 369.480,150.800 370.449 C 152.450 370.901,154.430 371.447,155.200 371.662 C 158.111 372.475,162.966 373.579,165.600 374.028 C 166.810 374.235,168.790 374.594,170.000 374.826 C 172.291 375.267,174.920 375.629,182.000 376.479 C 187.568 377.147,212.281 377.152,218.200 376.487 C 222.545 375.998,226.474 375.470,229.200 375.009 C 234.201 374.163,235.553 373.915,236.800 373.612 C 237.570 373.426,239.190 373.058,240.400 372.795 C 246.090 371.559,258.048 367.877,264.400 365.404 C 268.075 363.974,268.861 363.639,273.600 361.486 C 274.810 360.936,276.520 360.161,277.400 359.764 C 278.280 359.367,279.090 358.942,279.200 358.821 C 279.310 358.699,280.480 358.076,281.800 357.436 C 284.228 356.259,291.760 352.025,293.600 350.804 C 294.150 350.439,295.439 349.568,296.465 348.870 C 297.491 348.171,298.511 347.600,298.732 347.600 C 298.953 347.600,299.193 347.453,299.267 347.272 C 299.340 347.092,300.570 346.159,302.000 345.200 C 303.430 344.241,304.660 343.308,304.733 343.128 C 304.807 342.947,305.107 342.800,305.400 342.800 C 305.693 342.800,305.993 342.649,306.067 342.465 C 306.140 342.280,307.640 341.032,309.400 339.691 C 311.160 338.350,312.961 336.926,313.402 336.526 C 313.843 336.127,315.643 334.543,317.402 333.007 C 320.943 329.915,330.355 320.589,332.144 318.400 C 332.773 317.630,333.943 316.280,334.744 315.399 C 336.355 313.628,338.382 311.140,340.641 308.160 C 341.458 307.082,342.279 306.140,342.464 306.067 C 342.649 305.993,342.800 305.693,342.800 305.400 C 342.800 305.107,342.947 304.807,343.128 304.733 C 343.308 304.660,344.241 303.430,345.200 302.000 C 346.159 300.570,347.092 299.340,347.272 299.267 C 347.453 299.193,347.600 298.967,347.600 298.763 C 347.600 298.559,348.561 296.909,349.735 295.096 C 350.909 293.283,352.284 291.080,352.789 290.200 C 353.295 289.320,354.071 287.970,354.515 287.200 C 356.804 283.221,359.608 277.765,361.401 273.800 C 361.997 272.480,362.812 270.680,363.212 269.800 C 365.201 265.418,368.906 254.896,370.395 249.400 C 370.812 247.860,371.351 245.970,371.592 245.200 C 371.833 244.430,372.222 242.900,372.456 241.800 C 372.689 240.700,373.054 239.080,373.265 238.200 C 374.360 233.646,375.519 226.437,376.479 218.200 C 377.154 212.412,377.159 187.776,376.487 181.800 C 375.347 171.665,373.655 162.339,371.662 155.200 C 371.447 154.430,370.904 152.450,370.454 150.800 C 368.898 145.090,365.271 134.764,363.219 130.200 C 361.513 126.405,359.794 122.784,358.284 119.800 C 356.724 116.717,356.067 115.501,354.449 112.700 C 354.036 111.985,353.080 110.320,352.325 109.000 C 351.570 107.680,349.253 104.099,347.176 101.042 C 345.099 97.986,343.220 95.203,343.000 94.859 C 342.780 94.515,342.372 93.986,342.094 93.682 C 341.816 93.379,341.096 92.475,340.494 91.673 C 335.107 84.496,324.677 73.350,317.400 66.995 C 315.640 65.458,314.110 64.107,314.000 63.994 C 313.890 63.881,312.657 62.891,311.259 61.794 C 309.862 60.697,307.792 59.067,306.659 58.171 C 303.320 55.528,294.969 49.972,290.100 47.153 C 289.385 46.739,288.125 46.008,287.300 45.528 C 277.749 39.979,262.440 33.423,252.000 30.411 C 251.010 30.126,249.570 29.711,248.800 29.490 C 248.030 29.269,246.950 28.954,246.400 28.791 C 245.850 28.627,244.680 28.306,243.800 28.078 C 242.920 27.850,241.459 27.469,240.554 27.232 C 239.648 26.994,238.469 26.800,237.934 26.800 C 237.398 26.800,236.789 26.638,236.580 26.441 C 236.371 26.244,235.480 25.981,234.600 25.857 C 233.720 25.733,231.920 25.444,230.600 25.215 C 227.775 24.726,223.143 24.091,218.400 23.544 C 214.530 23.097,186.708 22.626,186.333 23.000 M209.600 66.607 C 212.350 66.736,215.680 67.016,217.000 67.230 C 223.518 68.285,224.818 68.513,227.600 69.092 C 229.250 69.436,231.187 69.801,231.904 69.903 C 232.621 70.005,233.306 70.249,233.427 70.444 C 233.548 70.640,234.029 70.800,234.495 70.800 C 235.396 70.800,237.739 71.465,238.895 72.049 C 239.277 72.242,239.941 72.400,240.371 72.400 C 240.801 72.400,241.264 72.580,241.400 72.800 C 241.536 73.020,242.166 73.200,242.800 73.200 C 243.434 73.200,244.064 73.380,244.200 73.600 C 244.336 73.820,244.887 74.000,245.424 74.000 C 245.961 74.000,246.400 74.180,246.400 74.400 C 246.400 74.620,246.762 74.800,247.205 74.800 C 247.983 74.800,248.369 74.942,250.295 75.938 C 250.787 76.192,251.462 76.400,251.795 76.400 C 252.128 76.400,252.400 76.580,252.400 76.800 C 252.400 77.020,252.610 77.200,252.866 77.200 C 253.885 77.200,266.177 83.227,268.462 84.847 C 269.046 85.261,269.721 85.600,269.962 85.600 C 270.203 85.600,270.400 85.758,270.400 85.951 C 270.400 86.145,270.940 86.527,271.600 86.800 C 272.260 87.073,272.800 87.433,272.800 87.600 C 272.800 87.767,273.340 88.127,274.000 88.400 C 274.660 88.673,275.200 89.013,275.200 89.154 C 275.200 89.295,275.920 89.856,276.800 90.400 C 277.680 90.944,278.400 91.526,278.400 91.694 C 278.400 91.862,278.636 92.000,278.925 92.000 C 279.213 92.000,279.798 92.321,280.225 92.714 C 280.651 93.107,281.377 93.692,281.837 94.014 C 289.409 99.314,303.139 113.655,309.205 122.600 C 309.952 123.700,310.784 124.826,311.055 125.102 C 311.326 125.379,311.662 125.964,311.801 126.402 C 311.940 126.841,312.222 127.200,312.427 127.200 C 312.632 127.200,312.800 127.436,312.800 127.725 C 312.800 128.013,313.160 128.636,313.600 129.108 C 314.040 129.580,314.400 130.067,314.400 130.191 C 314.400 130.314,315.114 131.590,315.987 133.026 C 317.370 135.304,321.483 143.516,322.383 145.800 C 322.802 146.862,324.395 150.420,324.844 151.295 C 325.040 151.677,325.200 152.264,325.200 152.600 C 325.200 152.936,325.380 153.568,325.600 154.005 C 325.820 154.442,326.180 155.158,326.400 155.595 C 326.620 156.032,326.800 156.741,326.800 157.171 C 326.800 157.601,326.980 158.064,327.200 158.200 C 327.420 158.336,327.600 158.876,327.600 159.400 C 327.600 159.924,327.780 160.464,328.000 160.600 C 328.220 160.736,328.400 161.366,328.400 162.000 C 328.400 162.634,328.580 163.264,328.800 163.400 C 329.020 163.536,329.200 164.166,329.200 164.800 C 329.200 165.434,329.380 166.064,329.600 166.200 C 329.820 166.336,330.000 167.056,330.000 167.800 C 330.000 168.544,330.180 169.264,330.400 169.400 C 330.620 169.536,330.800 170.321,330.800 171.144 C 330.800 171.967,330.963 172.811,331.161 173.020 C 331.360 173.229,331.625 174.210,331.750 175.200 C 331.875 176.190,332.167 178.260,332.399 179.800 C 334.269 192.222,334.269 207.746,332.398 220.200 C 332.167 221.740,331.875 223.810,331.750 224.800 C 331.625 225.790,331.360 226.771,331.161 226.980 C 330.963 227.189,330.800 228.033,330.800 228.856 C 330.800 229.679,330.620 230.464,330.400 230.600 C 330.180 230.736,330.000 231.456,330.000 232.200 C 330.000 232.944,329.820 233.664,329.600 233.800 C 329.380 233.936,329.200 234.566,329.200 235.200 C 329.200 235.834,329.020 236.464,328.800 236.600 C 328.580 236.736,328.400 237.366,328.400 238.000 C 328.400 238.634,328.220 239.264,328.000 239.400 C 327.780 239.536,327.600 240.076,327.600 240.600 C 327.600 241.124,327.420 241.664,327.200 241.800 C 326.980 241.936,326.800 242.476,326.800 243.000 C 326.800 243.524,326.620 244.064,326.400 244.200 C 326.180 244.336,326.000 244.887,326.000 245.424 C 326.000 245.961,325.820 246.400,325.600 246.400 C 325.380 246.400,325.200 246.762,325.200 247.205 C 325.200 247.648,325.020 248.368,324.800 248.805 C 324.580 249.242,324.220 249.958,324.000 250.395 C 323.780 250.832,323.600 251.462,323.600 251.795 C 323.600 252.128,323.420 252.400,323.200 252.400 C 322.980 252.400,322.800 252.672,322.800 253.005 C 322.800 253.338,322.631 253.923,322.425 254.305 C 322.219 254.687,320.959 257.250,319.625 260.000 C 318.291 262.750,316.651 265.900,315.982 267.000 C 315.312 268.100,314.662 269.315,314.536 269.700 C 314.410 270.085,314.170 270.400,314.002 270.400 C 313.834 270.400,313.473 270.940,313.200 271.600 C 312.927 272.260,312.545 272.800,312.351 272.800 C 312.158 272.800,312.000 273.025,311.999 273.300 C 311.999 273.575,311.459 274.430,310.800 275.200 C 310.141 275.970,309.601 276.825,309.601 277.100 C 309.600 277.375,309.459 277.600,309.286 277.600 C 309.114 277.600,308.675 278.095,308.311 278.700 C 306.560 281.612,300.097 289.111,294.604 294.604 C 289.111 300.097,281.612 306.560,278.700 308.311 C 278.095 308.675,277.600 309.114,277.600 309.286 C 277.600 309.459,277.375 309.600,277.100 309.601 C 276.825 309.601,275.970 310.141,275.200 310.800 C 274.430 311.459,273.575 311.999,273.300 311.999 C 273.025 312.000,272.800 312.180,272.800 312.400 C 272.800 312.620,272.564 312.800,272.275 312.800 C 271.987 312.800,271.364 313.160,270.892 313.600 C 270.420 314.040,269.923 314.400,269.789 314.400 C 269.654 314.400,268.792 314.912,267.872 315.537 C 266.435 316.514,254.933 322.271,252.600 323.181 C 251.102 323.765,249.402 324.493,248.705 324.847 C 248.323 325.041,247.648 325.200,247.205 325.200 C 246.762 325.200,246.400 325.380,246.400 325.600 C 246.400 325.820,245.961 326.000,245.424 326.000 C 244.887 326.000,244.336 326.180,244.200 326.400 C 244.064 326.620,243.524 326.800,243.000 326.800 C 242.476 326.800,241.936 326.980,241.800 327.200 C 241.664 327.420,241.124 327.600,240.600 327.600 C 240.076 327.600,239.536 327.780,239.400 328.000 C 239.264 328.220,238.623 328.400,237.976 328.400 C 237.329 328.400,236.800 328.580,236.800 328.800 C 236.800 329.020,236.181 329.200,235.424 329.200 C 234.667 329.200,233.936 329.380,233.800 329.600 C 233.664 329.820,232.944 330.000,232.200 330.000 C 231.456 330.000,230.736 330.180,230.600 330.400 C 230.464 330.620,229.654 330.800,228.800 330.800 C 227.946 330.800,227.136 330.980,227.000 331.200 C 226.864 331.420,225.989 331.600,225.056 331.600 C 224.123 331.600,223.189 331.765,222.980 331.966 C 222.771 332.168,221.520 332.433,220.200 332.555 C 218.880 332.678,215.820 332.990,213.400 333.250 C 204.425 334.212,188.453 333.805,179.600 332.387 C 178.170 332.158,176.190 331.870,175.200 331.746 C 174.210 331.623,173.229 331.360,173.020 331.161 C 172.811 330.963,171.967 330.800,171.144 330.800 C 170.321 330.800,169.536 330.620,169.400 330.400 C 169.264 330.180,168.544 330.000,167.800 330.000 C 167.056 330.000,166.336 329.820,166.200 329.600 C 166.064 329.380,165.333 329.200,164.576 329.200 C 163.819 329.200,163.200 329.020,163.200 328.800 C 163.200 328.580,162.671 328.400,162.024 328.400 C 161.377 328.400,160.736 328.220,160.600 328.000 C 160.464 327.780,159.924 327.600,159.400 327.600 C 158.876 327.600,158.336 327.420,158.200 327.200 C 158.064 326.980,157.524 326.800,157.000 326.800 C 156.476 326.800,155.936 326.620,155.800 326.400 C 155.664 326.180,155.113 326.000,154.576 326.000 C 154.039 326.000,153.600 325.864,153.600 325.697 C 153.600 325.531,152.869 325.167,151.975 324.887 C 151.081 324.608,149.596 324.043,148.675 323.631 C 147.754 323.219,146.014 322.458,144.809 321.941 C 141.523 320.530,134.939 317.138,132.000 315.341 C 130.570 314.467,128.957 313.492,128.415 313.176 C 127.874 312.859,127.192 312.381,126.901 312.114 C 126.609 311.847,125.837 311.313,125.185 310.928 C 124.533 310.543,124.000 310.086,124.000 309.914 C 124.000 309.741,123.764 309.600,123.475 309.600 C 123.187 309.600,122.601 309.285,122.174 308.900 C 121.747 308.515,120.318 307.390,119.000 306.400 C 112.620 301.610,104.474 294.069,99.800 288.627 C 98.700 287.346,97.530 285.985,97.200 285.602 C 96.870 285.220,96.150 284.314,95.600 283.590 C 95.050 282.866,94.414 282.077,94.187 281.837 C 93.960 281.596,93.334 280.770,92.798 280.000 C 92.261 279.230,91.502 278.251,91.111 277.825 C 90.720 277.398,90.400 276.828,90.400 276.558 C 90.400 276.288,90.251 276.007,90.070 275.933 C 89.743 275.801,85.600 269.801,85.600 269.459 C 85.600 269.361,84.906 268.138,84.058 266.741 C 82.087 263.493,78.000 255.268,78.000 254.549 C 78.000 254.247,77.820 254.000,77.600 254.000 C 77.380 254.000,77.200 253.728,77.200 253.395 C 77.200 253.062,77.041 252.477,76.847 252.095 C 76.652 251.713,76.316 250.950,76.100 250.400 C 75.411 248.646,74.717 247.021,74.353 246.305 C 74.159 245.923,74.000 245.259,74.000 244.829 C 74.000 244.399,73.820 243.936,73.600 243.800 C 73.380 243.664,73.200 243.124,73.200 242.600 C 73.200 242.076,73.020 241.536,72.800 241.400 C 72.580 241.264,72.400 240.801,72.400 240.371 C 72.400 239.941,72.242 239.277,72.049 238.895 C 71.465 237.739,70.800 235.396,70.800 234.495 C 70.800 234.029,70.639 233.548,70.442 233.426 C 70.245 233.305,69.995 232.529,69.885 231.703 C 69.775 230.876,69.395 228.850,69.040 227.200 C 67.410 219.609,66.810 214.831,66.479 206.800 C 65.836 191.231,66.992 180.165,70.843 165.000 C 71.066 164.120,71.349 162.903,71.471 162.295 C 71.593 161.687,71.851 161.092,72.046 160.971 C 72.241 160.851,72.400 160.324,72.400 159.800 C 72.400 159.276,72.580 158.736,72.800 158.600 C 73.020 158.464,73.200 157.924,73.200 157.400 C 73.200 156.876,73.380 156.336,73.600 156.200 C 73.820 156.064,74.000 155.601,74.000 155.171 C 74.000 154.741,74.159 154.077,74.353 153.695 C 74.717 152.979,75.411 151.354,76.100 149.600 C 76.316 149.050,76.652 148.287,76.847 147.905 C 77.041 147.523,77.200 146.938,77.200 146.605 C 77.200 146.272,77.380 146.000,77.600 146.000 C 77.820 146.000,78.000 145.754,78.000 145.453 C 78.000 144.800,81.304 138.048,83.409 134.400 C 84.234 132.970,85.278 131.125,85.729 130.300 C 86.180 129.475,86.695 128.800,86.874 128.800 C 87.053 128.800,87.200 128.607,87.200 128.372 C 87.200 127.865,89.609 124.259,90.077 124.067 C 90.255 123.993,90.400 123.770,90.400 123.570 C 90.400 123.370,91.046 122.350,91.835 121.303 C 92.624 120.257,93.659 118.876,94.135 118.237 C 94.611 117.597,95.181 116.877,95.402 116.637 C 95.623 116.396,96.610 115.210,97.596 114.000 C 101.822 108.812,108.847 101.788,114.000 97.599 C 115.210 96.616,116.290 95.718,116.400 95.604 C 116.510 95.491,117.679 94.588,118.998 93.599 C 120.318 92.610,121.747 91.485,122.174 91.100 C 122.601 90.715,123.172 90.400,123.442 90.400 C 123.712 90.400,123.993 90.255,124.067 90.077 C 124.259 89.609,127.865 87.200,128.372 87.200 C 128.607 87.200,128.800 87.053,128.800 86.874 C 128.800 86.695,129.475 86.180,130.300 85.729 C 131.125 85.278,132.970 84.234,134.400 83.409 C 138.048 81.304,144.800 78.000,145.453 78.000 C 145.754 78.000,146.000 77.820,146.000 77.600 C 146.000 77.380,146.272 77.200,146.605 77.200 C 146.938 77.200,147.523 77.041,147.905 76.847 C 148.287 76.652,149.140 76.271,149.800 76.000 C 150.460 75.729,151.313 75.348,151.695 75.153 C 152.077 74.959,152.752 74.800,153.195 74.800 C 153.638 74.800,154.000 74.620,154.000 74.400 C 154.000 74.180,154.439 74.000,154.976 74.000 C 155.513 74.000,156.064 73.820,156.200 73.600 C 156.336 73.380,156.876 73.200,157.400 73.200 C 157.924 73.200,158.464 73.020,158.600 72.800 C 158.736 72.580,159.276 72.400,159.800 72.400 C 160.324 72.400,160.851 72.241,160.971 72.046 C 161.092 71.851,161.687 71.593,162.295 71.471 C 163.348 71.260,165.332 70.785,168.400 70.010 C 172.035 69.091,177.421 68.063,183.200 67.185 C 186.422 66.695,200.361 66.033,203.000 66.244 C 203.880 66.315,206.850 66.478,209.600 66.607 " stroke="none" fill="#e3effb" fill-rule="evenodd"></path><path id="path3" d="M178.500 0.275 C 176.465 0.360,174.800 0.603,174.800 0.815 C 174.800 1.027,173.540 1.200,172.000 1.200 C 170.400 1.200,169.200 1.371,169.200 1.600 C 169.200 1.820,168.210 2.000,167.000 2.000 C 165.790 2.000,164.800 2.163,164.800 2.363 C 164.800 2.563,163.855 2.825,162.700 2.945 C 158.842 3.347,157.003 3.679,156.620 4.041 C 156.411 4.238,155.556 4.400,154.720 4.400 C 153.884 4.400,153.200 4.580,153.200 4.800 C 153.200 5.020,152.480 5.200,151.600 5.200 C 150.720 5.200,150.000 5.380,150.000 5.600 C 150.000 5.820,149.381 6.000,148.624 6.000 C 147.867 6.000,147.136 6.180,147.000 6.400 C 146.864 6.620,146.234 6.800,145.600 6.800 C 144.966 6.800,144.336 6.980,144.200 7.200 C 144.064 7.420,143.434 7.600,142.800 7.600 C 142.166 7.600,141.536 7.780,141.400 8.000 C 141.264 8.220,140.623 8.400,139.976 8.400 C 139.329 8.400,138.800 8.580,138.800 8.800 C 138.800 9.020,138.395 9.201,137.900 9.203 C 136.957 9.206,130.581 11.286,130.128 11.738 C 129.984 11.882,129.447 12.000,128.933 12.000 C 128.420 12.000,128.000 12.180,128.000 12.400 C 128.000 12.620,127.728 12.800,127.396 12.800 C 127.063 12.800,125.938 13.178,124.896 13.640 C 123.853 14.102,122.550 14.663,122.000 14.887 C 121.450 15.110,120.687 15.452,120.305 15.647 C 119.923 15.841,119.338 16.000,119.005 16.000 C 118.672 16.000,118.400 16.136,118.400 16.302 C 118.400 16.469,117.815 16.842,117.100 17.133 C 116.385 17.423,115.108 18.007,114.262 18.430 C 113.416 18.854,112.471 19.200,112.162 19.200 C 111.853 19.200,111.600 19.380,111.600 19.600 C 111.600 19.820,111.240 20.000,110.800 20.000 C 110.360 20.000,110.000 20.180,110.000 20.400 C 110.000 20.620,109.640 20.800,109.200 20.800 C 108.760 20.800,108.400 20.980,108.400 21.200 C 108.400 21.420,108.164 21.600,107.875 21.600 C 107.587 21.600,107.002 21.925,106.575 22.322 C 106.149 22.720,105.659 23.067,105.488 23.094 C 104.732 23.214,102.800 24.223,102.800 24.498 C 102.800 24.664,102.440 24.800,102.000 24.800 C 101.560 24.800,101.200 24.980,101.200 25.200 C 101.200 25.420,100.862 25.600,100.449 25.600 C 100.036 25.600,99.474 25.870,99.200 26.200 C 98.926 26.530,98.553 26.800,98.371 26.800 C 98.189 26.800,97.240 27.340,96.262 28.000 C 95.284 28.660,94.274 29.200,94.018 29.200 C 93.762 29.200,93.664 29.380,93.800 29.600 C 93.936 29.820,93.767 30.000,93.424 30.000 C 93.081 30.000,92.800 30.191,92.800 30.424 C 92.800 30.657,92.635 30.745,92.432 30.620 C 92.230 30.495,91.825 30.619,91.532 30.896 C 91.240 31.173,90.505 31.655,89.900 31.968 C 89.295 32.280,88.800 32.685,88.800 32.868 C 88.800 33.050,88.528 33.200,88.196 33.200 C 87.864 33.200,87.028 33.740,86.337 34.400 C 85.646 35.060,84.878 35.600,84.629 35.600 C 84.380 35.600,83.917 35.960,83.600 36.400 C 83.283 36.840,82.821 37.200,82.574 37.200 C 82.326 37.200,81.798 37.560,81.400 38.000 C 81.002 38.440,80.522 38.800,80.335 38.800 C 80.032 38.800,78.435 40.083,76.973 41.500 C 76.689 41.775,76.279 42.000,76.062 42.000 C 75.845 42.000,75.607 42.141,75.533 42.313 C 75.460 42.486,74.230 43.514,72.800 44.599 C 71.370 45.683,69.747 47.027,69.194 47.585 C 68.641 48.143,67.021 49.584,65.594 50.787 C 64.167 51.990,62.190 53.859,61.200 54.940 C 60.210 56.022,58.612 57.648,57.648 58.553 C 53.828 62.145,52.124 63.892,50.400 65.990 C 49.410 67.194,47.958 68.847,47.173 69.663 C 46.389 70.478,45.220 71.923,44.577 72.873 C 43.933 73.823,43.090 74.891,42.703 75.247 C 42.317 75.603,42.000 76.009,42.000 76.150 C 42.000 76.383,40.574 78.113,39.300 79.427 C 39.025 79.711,38.800 80.108,38.800 80.309 C 38.800 80.511,38.440 81.002,38.000 81.400 C 37.560 81.798,37.200 82.326,37.200 82.574 C 37.200 82.821,36.840 83.283,36.400 83.600 C 35.960 83.917,35.600 84.380,35.600 84.629 C 35.600 84.878,35.060 85.646,34.400 86.337 C 33.740 87.028,33.200 87.782,33.200 88.013 C 33.200 88.244,32.840 88.820,32.400 89.292 C 31.960 89.764,31.600 90.387,31.600 90.675 C 31.600 90.964,31.442 91.200,31.249 91.200 C 31.055 91.200,30.673 91.740,30.400 92.400 C 30.127 93.060,29.745 93.600,29.551 93.600 C 29.358 93.600,29.200 93.793,29.200 94.028 C 29.200 94.263,28.667 95.230,28.016 96.177 C 27.364 97.124,26.944 98.011,27.082 98.149 C 27.220 98.287,27.123 98.400,26.867 98.400 C 26.610 98.400,26.400 98.670,26.400 99.000 C 26.400 99.330,26.220 99.600,26.000 99.600 C 25.780 99.600,25.600 99.960,25.600 100.400 C 25.600 100.840,25.420 101.200,25.200 101.200 C 24.980 101.200,24.800 101.560,24.800 102.000 C 24.800 102.440,24.665 102.803,24.500 102.806 C 24.335 102.810,23.760 103.710,23.221 104.806 C 22.683 105.903,22.098 106.800,21.921 106.800 C 21.745 106.800,21.600 107.160,21.600 107.600 C 21.600 108.040,21.420 108.400,21.200 108.400 C 20.980 108.400,20.800 108.760,20.800 109.200 C 20.800 109.640,20.620 110.000,20.400 110.000 C 20.180 110.000,20.000 110.360,20.000 110.800 C 20.000 111.240,19.820 111.600,19.600 111.600 C 19.380 111.600,19.200 111.853,19.200 112.162 C 19.200 112.471,18.854 113.416,18.430 114.262 C 18.007 115.108,17.423 116.385,17.133 117.100 C 16.842 117.815,16.469 118.400,16.302 118.400 C 16.136 118.400,16.000 118.672,16.000 119.005 C 16.000 119.593,15.833 120.018,14.862 121.895 C 14.608 122.387,14.400 123.062,14.400 123.395 C 14.400 123.728,14.253 124.000,14.072 124.000 C 13.892 124.000,13.500 124.900,13.200 126.000 C 12.900 127.100,12.508 128.000,12.328 128.000 C 12.147 128.000,12.000 128.362,12.000 128.805 C 12.000 129.248,11.825 129.923,11.611 130.305 C 10.945 131.495,8.400 139.426,8.400 140.312 C 8.400 140.774,8.220 141.264,8.000 141.400 C 7.780 141.536,7.600 142.166,7.600 142.800 C 7.600 143.434,7.420 144.064,7.200 144.200 C 6.980 144.336,6.800 144.966,6.800 145.600 C 6.800 146.234,6.620 146.864,6.400 147.000 C 6.180 147.136,6.000 147.867,6.000 148.624 C 6.000 149.381,5.820 150.000,5.600 150.000 C 5.380 150.000,5.200 150.720,5.200 151.600 C 5.200 152.480,5.020 153.200,4.800 153.200 C 4.580 153.200,4.400 154.010,4.400 155.000 C 4.400 155.990,4.220 156.800,4.000 156.800 C 3.780 156.800,3.600 157.509,3.600 158.376 C 3.600 159.243,3.420 160.064,3.200 160.200 C 2.980 160.336,2.800 161.337,2.800 162.424 C 2.800 163.511,2.620 164.400,2.400 164.400 C 2.178 164.400,2.000 165.467,2.000 166.800 C 2.000 168.133,1.822 169.200,1.600 169.200 C 1.372 169.200,1.200 170.389,1.200 171.967 C 1.200 173.824,1.036 174.788,0.700 174.900 C -0.032 175.144,-0.032 224.856,0.700 225.100 C 1.036 225.212,1.200 226.176,1.200 228.033 C 1.200 229.611,1.372 230.800,1.600 230.800 C 1.822 230.800,2.000 231.867,2.000 233.200 C 2.000 234.533,2.178 235.600,2.400 235.600 C 2.620 235.600,2.800 236.489,2.800 237.576 C 2.800 238.663,2.980 239.664,3.200 239.800 C 3.420 239.936,3.600 240.757,3.600 241.624 C 3.600 242.491,3.780 243.200,4.000 243.200 C 4.220 243.200,4.400 243.999,4.400 244.976 C 4.400 245.953,4.580 246.864,4.800 247.000 C 5.020 247.136,5.200 247.867,5.200 248.624 C 5.200 249.381,5.380 250.000,5.600 250.000 C 5.820 250.000,6.000 250.720,6.000 251.600 C 6.000 252.480,6.180 253.200,6.400 253.200 C 6.620 253.200,6.800 253.729,6.800 254.376 C 6.800 255.023,6.980 255.664,7.200 255.800 C 7.420 255.936,7.600 256.566,7.600 257.200 C 7.600 257.834,7.780 258.464,8.000 258.600 C 8.220 258.736,8.409 259.242,8.420 259.724 C 8.431 260.206,9.062 262.400,9.821 264.600 C 10.580 266.800,11.256 268.820,11.323 269.088 C 11.389 269.357,11.569 269.702,11.722 269.855 C 11.875 270.008,12.000 270.553,12.000 271.067 C 12.000 271.580,12.147 272.000,12.328 272.000 C 12.508 272.000,12.900 272.900,13.200 274.000 C 13.500 275.100,13.892 276.000,14.072 276.000 C 14.253 276.000,14.400 276.272,14.400 276.605 C 14.400 276.938,14.580 277.568,14.800 278.005 C 15.020 278.442,15.380 279.158,15.600 279.595 C 15.820 280.032,16.000 280.662,16.000 280.995 C 16.000 281.328,16.180 281.600,16.400 281.600 C 16.620 281.600,16.800 281.960,16.800 282.400 C 16.800 282.840,16.980 283.200,17.200 283.200 C 17.420 283.200,17.600 283.465,17.600 283.788 C 17.600 284.111,17.960 285.017,18.400 285.800 C 18.840 286.583,19.200 287.489,19.200 287.812 C 19.200 288.135,19.380 288.400,19.600 288.400 C 19.820 288.400,20.000 288.760,20.000 289.200 C 20.000 289.640,20.180 290.000,20.400 290.000 C 20.620 290.000,20.800 290.360,20.800 290.800 C 20.800 291.240,20.980 291.600,21.200 291.600 C 21.420 291.600,21.600 291.960,21.600 292.400 C 21.600 292.840,21.780 293.200,22.000 293.200 C 22.220 293.200,22.400 293.470,22.400 293.800 C 22.400 294.130,22.546 294.400,22.725 294.400 C 22.904 294.400,23.298 295.030,23.600 295.800 C 23.902 296.570,24.296 297.200,24.475 297.200 C 24.654 297.200,24.800 297.560,24.800 298.000 C 24.800 298.440,24.941 298.800,25.112 298.800 C 25.284 298.800,25.648 299.295,25.920 299.900 C 27.223 302.789,29.776 306.833,30.488 307.134 C 30.662 307.208,30.712 307.418,30.599 307.602 C 30.485 307.785,30.619 308.175,30.896 308.468 C 31.173 308.760,31.655 309.495,31.968 310.100 C 32.280 310.705,32.685 311.200,32.868 311.200 C 33.050 311.200,33.200 311.520,33.200 311.912 C 33.200 312.303,33.560 312.883,34.000 313.200 C 34.440 313.517,34.800 313.980,34.800 314.229 C 34.800 314.478,35.340 315.246,36.000 315.937 C 36.660 316.628,37.200 317.425,37.200 317.708 C 37.200 317.991,37.560 318.483,38.000 318.800 C 38.440 319.117,38.800 319.515,38.800 319.684 C 38.800 320.024,39.723 321.207,41.100 322.632 C 41.595 323.144,42.000 323.737,42.000 323.948 C 42.000 324.160,42.141 324.393,42.313 324.467 C 42.486 324.540,43.455 325.680,44.467 327.000 C 45.478 328.320,46.822 329.946,47.453 330.612 C 48.084 331.279,49.320 332.715,50.200 333.804 C 51.557 335.483,53.986 337.964,58.490 342.271 C 58.990 342.749,60.675 344.459,62.233 346.071 C 63.792 347.682,65.665 349.450,66.396 350.000 C 67.128 350.550,68.443 351.685,69.319 352.522 C 70.195 353.359,71.561 354.529,72.356 355.122 C 73.150 355.715,74.248 356.605,74.796 357.100 C 75.344 357.595,76.019 358.000,76.296 358.000 C 76.573 358.000,76.800 358.180,76.800 358.400 C 76.800 358.620,76.978 358.800,77.197 358.800 C 77.415 358.800,78.109 359.340,78.740 360.000 C 79.371 360.660,80.092 361.200,80.343 361.200 C 80.594 361.200,80.800 361.350,80.800 361.532 C 80.800 361.715,81.295 362.119,81.900 362.430 C 82.505 362.740,83.291 363.311,83.647 363.697 C 84.003 364.084,84.498 364.400,84.747 364.400 C 84.996 364.400,85.200 364.580,85.200 364.800 C 85.200 365.020,85.430 365.200,85.712 365.200 C 85.993 365.200,86.483 365.560,86.800 366.000 C 87.117 366.440,87.697 366.800,88.088 366.800 C 88.480 366.800,88.800 366.950,88.800 367.132 C 88.800 367.315,89.295 367.720,89.900 368.032 C 90.505 368.345,91.349 368.915,91.775 369.300 C 92.202 369.685,92.787 370.000,93.075 370.000 C 93.364 370.000,93.600 370.180,93.600 370.400 C 93.600 370.620,93.793 370.800,94.028 370.800 C 94.263 370.800,95.241 371.340,96.200 372.000 C 97.159 372.660,98.056 373.200,98.193 373.200 C 98.330 373.200,99.105 373.650,99.914 374.200 C 100.723 374.750,101.704 375.200,102.093 375.200 C 102.482 375.200,102.801 375.335,102.803 375.500 C 102.805 375.665,103.210 375.999,103.703 376.241 C 104.196 376.484,105.653 377.249,106.941 377.941 C 108.228 378.634,109.544 379.200,109.864 379.200 C 110.185 379.200,110.336 379.380,110.200 379.600 C 110.064 379.820,110.323 380.000,110.776 380.000 C 111.229 380.000,111.600 380.180,111.600 380.400 C 111.600 380.620,111.949 380.800,112.376 380.800 C 112.803 380.800,113.264 380.980,113.400 381.200 C 113.536 381.420,113.997 381.600,114.424 381.600 C 114.851 381.600,115.200 381.780,115.200 382.000 C 115.200 382.220,115.560 382.400,116.000 382.400 C 116.440 382.400,116.800 382.580,116.800 382.800 C 116.800 383.020,117.160 383.200,117.600 383.200 C 118.040 383.200,118.400 383.410,118.400 383.667 C 118.400 383.923,118.515 384.018,118.656 383.877 C 118.797 383.736,119.472 383.912,120.156 384.268 C 122.461 385.466,122.787 385.600,123.395 385.600 C 123.728 385.600,124.000 385.780,124.000 386.000 C 124.000 386.220,124.135 386.357,124.300 386.305 C 124.578 386.217,125.950 386.681,128.400 387.694 C 132.488 389.383,137.771 391.100,138.300 390.911 C 138.575 390.813,138.800 390.928,138.800 391.167 C 138.800 391.405,139.419 391.600,140.176 391.600 C 140.933 391.600,141.664 391.780,141.800 392.000 C 141.936 392.220,142.577 392.400,143.224 392.400 C 143.871 392.400,144.400 392.580,144.400 392.800 C 144.400 393.020,144.929 393.200,145.576 393.200 C 146.223 393.200,146.864 393.380,147.000 393.600 C 147.136 393.820,147.867 394.000,148.624 394.000 C 149.381 394.000,150.000 394.180,150.000 394.400 C 150.000 394.620,150.619 394.800,151.376 394.800 C 152.133 394.800,152.864 394.980,153.000 395.200 C 153.136 395.420,154.047 395.600,155.024 395.600 C 156.001 395.600,156.800 395.780,156.800 396.000 C 156.800 396.220,157.509 396.400,158.376 396.400 C 159.243 396.400,160.064 396.580,160.200 396.800 C 160.336 397.020,161.326 397.200,162.400 397.200 C 163.474 397.200,164.464 397.380,164.600 397.600 C 164.736 397.820,165.827 398.000,167.024 398.000 C 168.221 398.000,169.200 398.180,169.200 398.400 C 169.200 398.627,170.373 398.800,171.920 398.800 C 173.563 398.800,174.838 398.998,175.140 399.300 C 175.529 399.689,181.103 399.800,200.287 399.800 C 219.648 399.800,224.969 399.693,225.100 399.300 C 225.212 398.964,226.176 398.800,228.033 398.800 C 229.611 398.800,230.800 398.628,230.800 398.400 C 230.800 398.178,231.867 398.000,233.200 398.000 C 234.533 398.000,235.600 397.822,235.600 397.600 C 235.600 397.380,236.489 397.200,237.576 397.200 C 238.663 397.200,239.664 397.020,239.800 396.800 C 239.936 396.580,240.757 396.400,241.624 396.400 C 242.491 396.400,243.200 396.220,243.200 396.000 C 243.200 395.780,243.999 395.600,244.976 395.600 C 245.953 395.600,246.864 395.420,247.000 395.200 C 247.136 394.980,247.856 394.800,248.600 394.800 C 249.344 394.800,250.064 394.620,250.200 394.400 C 250.336 394.180,250.966 394.000,251.600 394.000 C 252.234 394.000,252.864 393.820,253.000 393.600 C 253.136 393.380,253.766 393.200,254.400 393.200 C 255.034 393.200,255.664 393.020,255.800 392.800 C 255.936 392.580,256.577 392.400,257.224 392.400 C 257.871 392.400,258.400 392.243,258.400 392.052 C 258.400 391.860,259.255 391.587,260.300 391.445 C 262.269 391.178,264.981 390.352,265.459 389.874 C 265.610 389.723,266.153 389.600,266.667 389.600 C 267.180 389.600,267.600 389.420,267.600 389.200 C 267.600 388.980,267.962 388.800,268.405 388.800 C 269.183 388.800,269.569 388.658,271.495 387.662 C 271.987 387.408,272.762 387.200,273.218 387.200 C 273.674 387.200,273.936 387.020,273.800 386.800 C 273.656 386.567,274.063 386.400,274.776 386.400 C 275.449 386.400,276.000 386.220,276.000 386.000 C 276.000 385.780,276.272 385.600,276.605 385.600 C 276.938 385.600,277.568 385.420,278.005 385.200 C 278.442 384.980,279.158 384.620,279.595 384.400 C 280.032 384.180,280.662 384.000,280.995 384.000 C 281.328 384.000,281.600 383.820,281.600 383.600 C 281.600 383.380,281.960 383.200,282.400 383.200 C 282.840 383.200,283.200 383.020,283.200 382.800 C 283.200 382.580,283.549 382.400,283.976 382.400 C 284.403 382.400,284.864 382.220,285.000 382.000 C 285.136 381.780,285.597 381.600,286.024 381.600 C 286.451 381.600,286.800 381.420,286.800 381.200 C 286.800 380.980,287.160 380.800,287.600 380.800 C 288.040 380.800,288.400 380.620,288.400 380.400 C 288.400 380.180,288.760 380.000,289.200 380.000 C 289.640 380.000,290.000 379.820,290.000 379.600 C 290.000 379.380,290.345 379.200,290.767 379.200 C 291.188 379.200,291.593 379.065,291.667 378.900 C 291.740 378.735,292.655 378.167,293.700 377.637 C 294.745 377.108,295.600 376.523,295.600 376.337 C 295.600 376.152,295.960 376.000,296.400 376.000 C 296.840 376.000,297.200 375.820,297.200 375.600 C 297.200 375.380,297.560 375.200,298.000 375.200 C 298.440 375.200,298.800 374.990,298.800 374.733 C 298.800 374.477,298.915 374.381,299.055 374.522 C 299.195 374.662,299.780 374.454,300.355 374.059 C 300.930 373.665,302.050 373.043,302.845 372.678 C 303.640 372.313,304.517 371.741,304.794 371.407 C 305.071 371.073,305.463 370.800,305.666 370.800 C 305.868 370.800,306.420 370.440,306.892 370.000 C 307.364 369.560,307.987 369.200,308.275 369.200 C 308.564 369.200,308.800 369.042,308.800 368.849 C 308.800 368.655,309.340 368.273,310.000 368.000 C 310.660 367.727,311.200 367.345,311.200 367.151 C 311.200 366.958,311.436 366.800,311.725 366.800 C 312.013 366.800,312.636 366.440,313.108 366.000 C 313.580 365.560,314.127 365.200,314.324 365.200 C 314.521 365.200,315.246 364.660,315.937 364.000 C 316.628 363.340,317.425 362.800,317.708 362.800 C 317.991 362.800,318.483 362.440,318.800 362.000 C 319.117 361.560,319.607 361.200,319.888 361.200 C 320.170 361.200,320.400 361.020,320.400 360.800 C 320.400 360.580,320.598 360.400,320.840 360.400 C 321.081 360.400,321.783 359.860,322.400 359.200 C 323.017 358.540,323.636 358.000,323.777 358.000 C 324.060 358.000,324.737 357.469,326.201 356.100 C 326.730 355.605,327.307 355.199,327.482 355.198 C 327.657 355.197,328.889 354.155,330.219 352.883 C 331.550 351.611,333.246 350.137,333.988 349.609 C 335.453 348.566,340.539 343.600,340.142 343.600 C 340.009 343.600,340.466 343.105,341.159 342.500 C 343.915 340.094,349.088 334.892,350.211 333.397 C 350.865 332.527,352.165 331.041,353.100 330.097 C 354.035 329.152,354.800 328.223,354.800 328.032 C 354.800 327.841,355.295 327.143,355.900 326.482 C 356.505 325.820,357.349 324.800,357.775 324.214 C 358.201 323.628,358.831 322.816,359.175 322.408 C 359.519 322.001,360.115 321.290,360.500 320.829 C 360.885 320.368,361.200 319.813,361.200 319.595 C 361.200 319.378,361.380 319.200,361.600 319.200 C 361.820 319.200,362.000 318.930,362.000 318.600 C 362.000 318.270,362.180 318.000,362.400 318.000 C 362.620 318.000,362.800 317.770,362.800 317.488 C 362.800 317.207,363.160 316.717,363.600 316.400 C 364.040 316.083,364.400 315.638,364.401 315.412 C 364.401 315.185,364.941 314.370,365.600 313.600 C 366.259 312.830,366.799 312.057,366.799 311.883 C 366.800 311.709,367.160 311.180,367.600 310.708 C 368.040 310.236,368.400 309.613,368.400 309.325 C 368.400 309.036,368.580 308.800,368.800 308.800 C 369.020 308.800,369.200 308.530,369.200 308.200 C 369.200 307.870,369.380 307.600,369.600 307.600 C 369.820 307.600,370.000 307.330,370.000 307.000 C 370.000 306.670,370.180 306.400,370.400 306.400 C 370.620 306.400,370.800 306.229,370.800 306.020 C 370.800 305.811,371.340 304.840,372.000 303.862 C 372.660 302.884,373.200 301.958,373.200 301.804 C 373.200 301.650,373.555 301.025,373.988 300.417 C 374.422 299.808,374.662 299.195,374.522 299.055 C 374.381 298.915,374.477 298.800,374.733 298.800 C 374.990 298.800,375.200 298.440,375.200 298.000 C 375.200 297.560,375.346 297.200,375.525 297.200 C 375.704 297.200,376.098 296.570,376.400 295.800 C 376.702 295.030,377.060 294.400,377.194 294.400 C 377.329 294.400,377.667 293.770,377.946 293.000 C 378.224 292.230,378.620 291.600,378.826 291.600 C 379.032 291.600,379.200 291.240,379.200 290.800 C 379.200 290.360,379.380 290.000,379.600 290.000 C 379.820 290.000,380.000 289.640,380.000 289.200 C 380.000 288.760,380.180 288.400,380.400 288.400 C 380.620 288.400,380.800 288.040,380.800 287.600 C 380.800 287.160,380.980 286.800,381.200 286.800 C 381.420 286.800,381.600 286.350,381.600 285.800 C 381.600 285.250,381.780 284.800,382.000 284.800 C 382.220 284.800,382.400 284.440,382.400 284.000 C 382.400 283.560,382.580 283.200,382.800 283.200 C 383.020 283.200,383.200 282.840,383.200 282.400 C 383.200 281.960,383.380 281.600,383.600 281.600 C 383.820 281.600,384.000 281.328,384.000 280.995 C 384.000 280.662,384.180 280.032,384.400 279.595 C 384.620 279.158,384.980 278.442,385.200 278.005 C 385.420 277.568,385.600 276.938,385.600 276.605 C 385.600 276.272,385.780 276.000,386.000 276.000 C 386.220 276.000,386.400 275.449,386.400 274.776 C 386.400 274.063,386.567 273.656,386.800 273.800 C 387.020 273.936,387.200 273.668,387.200 273.204 C 387.200 272.741,387.560 271.616,388.000 270.706 C 388.440 269.795,388.800 268.760,388.800 268.405 C 388.800 268.050,388.959 267.589,389.153 267.380 C 389.759 266.729,391.263 262.026,391.002 261.603 C 390.865 261.381,390.943 261.200,391.176 261.200 C 391.409 261.200,391.600 260.570,391.600 259.800 C 391.600 259.030,391.780 258.400,392.000 258.400 C 392.220 258.400,392.400 257.871,392.400 257.224 C 392.400 256.577,392.580 255.936,392.800 255.800 C 393.020 255.664,393.200 255.034,393.200 254.400 C 393.200 253.766,393.380 253.136,393.600 253.000 C 393.820 252.864,394.000 252.234,394.000 251.600 C 394.000 250.966,394.180 250.336,394.400 250.200 C 394.620 250.064,394.800 249.344,394.800 248.600 C 394.800 247.856,394.980 247.136,395.200 247.000 C 395.420 246.864,395.600 245.953,395.600 244.976 C 395.600 243.999,395.780 243.200,396.000 243.200 C 396.220 243.200,396.400 242.491,396.400 241.624 C 396.400 240.757,396.580 239.936,396.800 239.800 C 397.020 239.664,397.200 238.663,397.200 237.576 C 397.200 236.489,397.380 235.600,397.600 235.600 C 397.822 235.600,398.000 234.533,398.000 233.200 C 398.000 231.867,398.178 230.800,398.400 230.800 C 398.628 230.800,398.800 229.611,398.800 228.033 C 398.800 226.176,398.964 225.212,399.300 225.100 C 400.031 224.857,400.031 175.871,399.300 175.140 C 398.998 174.838,398.800 173.563,398.800 171.920 C 398.800 170.373,398.627 169.200,398.400 169.200 C 398.180 169.200,398.000 168.210,398.000 167.000 C 398.000 165.790,397.820 164.800,397.600 164.800 C 397.380 164.800,397.200 163.821,397.200 162.624 C 397.200 161.427,397.020 160.336,396.800 160.200 C 396.580 160.064,396.400 159.243,396.400 158.376 C 396.400 157.509,396.220 156.800,396.000 156.800 C 395.780 156.800,395.600 156.001,395.600 155.024 C 395.600 154.047,395.420 153.136,395.200 153.000 C 394.980 152.864,394.800 152.144,394.800 151.400 C 394.800 150.656,394.620 149.936,394.400 149.800 C 394.180 149.664,394.000 149.034,394.000 148.400 C 394.000 147.766,393.820 147.136,393.600 147.000 C 393.380 146.864,393.200 146.223,393.200 145.576 C 393.200 144.929,393.020 144.400,392.800 144.400 C 392.580 144.400,392.400 143.781,392.400 143.024 C 392.400 142.267,392.220 141.536,392.000 141.400 C 391.780 141.264,391.600 140.731,391.600 140.215 C 391.600 139.264,389.113 131.580,388.393 130.305 C 388.177 129.923,388.000 129.248,388.000 128.805 C 388.000 128.362,387.820 128.000,387.600 128.000 C 387.380 128.000,387.200 127.728,387.200 127.396 C 387.200 127.063,386.822 125.938,386.360 124.896 C 385.898 123.853,385.337 122.550,385.113 122.000 C 384.890 121.450,384.548 120.687,384.353 120.305 C 384.159 119.923,384.000 119.338,384.000 119.005 C 384.000 118.672,383.820 118.400,383.600 118.400 C 383.380 118.400,383.200 118.040,383.200 117.600 C 383.200 117.160,383.020 116.800,382.800 116.800 C 382.580 116.800,382.400 116.451,382.400 116.024 C 382.400 115.597,382.220 115.136,382.000 115.000 C 381.780 114.864,381.600 114.403,381.600 113.976 C 381.600 113.549,381.465 113.199,381.300 113.197 C 380.941 113.193,380.000 111.256,380.000 110.520 C 380.000 110.234,379.820 110.000,379.600 110.000 C 379.380 110.000,379.200 109.640,379.200 109.200 C 379.200 108.760,379.020 108.400,378.800 108.400 C 378.580 108.400,378.400 108.040,378.400 107.600 C 378.400 107.160,378.248 106.800,378.063 106.800 C 377.877 106.800,377.295 105.945,376.768 104.900 C 376.242 103.855,375.698 102.910,375.559 102.800 C 375.421 102.690,375.170 102.150,375.001 101.600 C 374.833 101.050,374.359 100.122,373.948 99.538 C 373.536 98.954,373.200 98.357,373.200 98.210 C 373.200 98.064,372.660 97.159,372.000 96.200 C 371.340 95.241,370.800 94.263,370.800 94.028 C 370.800 93.793,370.620 93.600,370.400 93.600 C 370.180 93.600,370.000 93.364,370.000 93.075 C 370.000 92.787,369.640 92.164,369.200 91.692 C 368.760 91.220,368.400 90.596,368.400 90.305 C 368.400 90.014,368.040 89.517,367.600 89.200 C 367.160 88.883,366.800 88.343,366.800 88.000 C 366.800 87.657,366.440 87.117,366.000 86.800 C 365.560 86.483,365.200 85.993,365.200 85.712 C 365.200 85.430,365.020 85.200,364.800 85.200 C 364.580 85.200,364.400 84.970,364.400 84.688 C 364.400 84.407,364.040 83.917,363.600 83.600 C 363.160 83.283,362.800 82.743,362.800 82.400 C 362.800 82.057,362.440 81.517,362.000 81.200 C 361.560 80.883,361.200 80.433,361.200 80.200 C 361.200 79.967,360.840 79.517,360.400 79.200 C 359.960 78.883,359.600 78.393,359.600 78.112 C 359.600 77.830,359.451 77.600,359.270 77.600 C 359.088 77.600,358.233 76.614,357.370 75.409 C 356.506 74.203,355.665 73.213,355.500 73.209 C 355.335 73.204,355.200 72.954,355.200 72.654 C 355.200 72.353,354.255 71.112,353.100 69.896 C 350.666 67.333,349.600 66.078,349.600 65.777 C 349.600 65.340,347.676 63.658,347.442 63.891 C 347.309 64.024,347.200 63.961,347.200 63.750 C 347.200 63.539,346.570 62.699,345.800 61.882 C 345.030 61.066,344.400 60.483,344.400 60.588 C 344.400 60.692,343.725 60.061,342.900 59.185 C 339.282 55.346,334.363 50.400,334.162 50.400 C 334.041 50.400,333.698 50.175,333.399 49.900 C 333.099 49.625,332.028 48.680,331.017 47.800 C 330.007 46.920,328.626 45.705,327.948 45.100 C 327.270 44.495,326.563 44.000,326.376 44.000 C 326.189 44.000,325.586 43.550,325.036 43.000 C 324.486 42.450,323.930 42.000,323.800 42.000 C 323.670 42.000,323.144 41.595,322.632 41.100 C 321.207 39.723,320.024 38.800,319.684 38.800 C 319.515 38.800,319.117 38.440,318.800 38.000 C 318.483 37.560,317.985 37.200,317.694 37.200 C 317.402 37.200,316.714 36.750,316.164 36.200 C 315.614 35.650,315.000 35.200,314.800 35.200 C 314.600 35.200,313.986 34.750,313.436 34.200 C 312.886 33.650,312.158 33.200,311.818 33.200 C 311.478 33.200,311.200 33.050,311.200 32.868 C 311.200 32.685,310.705 32.280,310.100 31.968 C 309.495 31.655,308.651 31.085,308.225 30.700 C 307.798 30.315,307.213 30.000,306.925 30.000 C 306.636 30.000,306.400 29.820,306.400 29.600 C 306.400 29.380,306.189 29.200,305.931 29.200 C 305.674 29.200,305.179 28.957,304.831 28.660 C 304.484 28.363,303.030 27.508,301.600 26.760 C 300.170 26.012,298.940 25.265,298.867 25.100 C 298.793 24.935,298.403 24.800,298.000 24.800 C 297.597 24.800,297.207 24.665,297.133 24.500 C 296.966 24.124,294.836 22.825,293.900 22.529 C 293.515 22.407,293.200 22.148,293.200 21.953 C 293.200 21.759,292.840 21.600,292.400 21.600 C 291.960 21.600,291.600 21.420,291.600 21.200 C 291.600 20.980,291.240 20.800,290.800 20.800 C 290.360 20.800,290.000 20.620,290.000 20.400 C 290.000 20.180,289.640 20.000,289.200 20.000 C 288.760 20.000,288.400 19.820,288.400 19.600 C 288.400 19.380,288.040 19.200,287.600 19.200 C 287.160 19.200,286.800 19.020,286.800 18.800 C 286.800 18.580,286.451 18.400,286.024 18.400 C 285.597 18.400,285.136 18.220,285.000 18.000 C 284.864 17.780,284.403 17.600,283.976 17.600 C 283.549 17.600,283.200 17.420,283.200 17.200 C 283.200 16.980,282.840 16.800,282.400 16.800 C 281.960 16.800,281.600 16.620,281.600 16.400 C 281.600 16.180,281.328 16.000,280.995 16.000 C 280.662 16.000,280.032 15.820,279.595 15.600 C 279.158 15.380,278.442 15.020,278.005 14.800 C 277.568 14.580,276.938 14.400,276.605 14.400 C 276.272 14.400,276.000 14.220,276.000 14.000 C 276.000 13.780,275.721 13.600,275.381 13.600 C 275.040 13.600,274.016 13.240,273.106 12.800 C 272.195 12.360,271.134 12.000,270.748 12.000 C 270.363 12.000,269.936 11.820,269.800 11.600 C 269.664 11.380,269.128 11.200,268.610 11.200 C 268.091 11.200,267.607 11.057,267.533 10.883 C 267.376 10.508,261.971 8.779,260.096 8.503 C 259.379 8.398,258.694 8.151,258.573 7.956 C 258.452 7.760,257.834 7.600,257.200 7.600 C 256.566 7.600,255.936 7.420,255.800 7.200 C 255.664 6.980,255.023 6.800,254.376 6.800 C 253.729 6.800,253.200 6.620,253.200 6.400 C 253.200 6.180,252.581 6.000,251.824 6.000 C 251.067 6.000,250.336 5.820,250.200 5.600 C 250.064 5.380,249.344 5.200,248.600 5.200 C 247.856 5.200,247.136 5.020,247.000 4.800 C 246.864 4.580,245.953 4.400,244.976 4.400 C 243.999 4.400,243.200 4.220,243.200 4.000 C 243.200 3.780,242.491 3.600,241.624 3.600 C 240.757 3.600,239.936 3.420,239.800 3.200 C 239.664 2.980,238.663 2.800,237.576 2.800 C 236.489 2.800,235.600 2.620,235.600 2.400 C 235.600 2.178,234.533 2.000,233.200 2.000 C 231.867 2.000,230.800 1.822,230.800 1.600 C 230.800 1.373,229.627 1.200,228.080 1.200 C 226.463 1.200,225.161 1.001,224.869 0.709 C 224.384 0.224,187.869 -0.118,178.500 0.275 M218.400 23.544 C 223.143 24.091,227.775 24.726,230.600 25.215 C 231.920 25.444,233.720 25.733,234.600 25.857 C 235.480 25.981,236.371 26.244,236.580 26.441 C 236.789 26.638,237.398 26.800,237.934 26.800 C 238.469 26.800,239.648 26.994,240.554 27.232 C 241.459 27.469,242.920 27.850,243.800 28.078 C 244.680 28.306,245.850 28.627,246.400 28.791 C 246.950 28.954,248.030 29.269,248.800 29.490 C 249.570 29.711,251.010 30.126,252.000 30.411 C 262.440 33.423,277.749 39.979,287.300 45.528 C 288.125 46.008,289.385 46.739,290.100 47.153 C 294.969 49.972,303.320 55.528,306.659 58.171 C 307.792 59.067,309.862 60.697,311.259 61.794 C 312.657 62.891,313.890 63.881,314.000 63.994 C 314.110 64.107,315.640 65.458,317.400 66.995 C 322.090 71.091,330.906 80.050,334.743 84.619 C 338.820 89.474,339.119 89.842,340.494 91.673 C 341.096 92.475,341.816 93.379,342.094 93.682 C 342.372 93.986,342.780 94.515,343.000 94.859 C 343.220 95.203,345.099 97.986,347.176 101.042 C 349.253 104.099,351.570 107.680,352.325 109.000 C 353.080 110.320,354.036 111.985,354.449 112.700 C 357.301 117.636,359.918 122.859,363.219 130.200 C 365.271 134.764,368.898 145.090,370.454 150.800 C 370.904 152.450,371.447 154.430,371.662 155.200 C 372.372 157.743,373.531 162.748,374.025 165.400 C 376.551 178.983,376.981 184.001,376.987 200.000 C 376.992 212.965,376.783 216.764,375.602 225.200 C 375.028 229.302,373.912 235.511,373.265 238.200 C 373.054 239.080,372.689 240.700,372.456 241.800 C 372.222 242.900,371.833 244.430,371.592 245.200 C 371.351 245.970,370.812 247.860,370.395 249.400 C 368.906 254.896,365.201 265.418,363.212 269.800 C 362.812 270.680,361.997 272.480,361.401 273.800 C 359.608 277.765,356.804 283.221,354.515 287.200 C 354.071 287.970,353.295 289.320,352.789 290.200 C 352.284 291.080,350.909 293.283,349.735 295.096 C 348.561 296.909,347.600 298.559,347.600 298.763 C 347.600 298.967,347.453 299.193,347.272 299.267 C 347.092 299.340,346.159 300.570,345.200 302.000 C 344.241 303.430,343.308 304.660,343.128 304.733 C 342.947 304.807,342.800 305.107,342.800 305.400 C 342.800 305.693,342.649 305.993,342.464 306.067 C 342.279 306.140,341.458 307.082,340.641 308.160 C 338.382 311.140,336.355 313.628,334.744 315.399 C 333.943 316.280,332.773 317.630,332.144 318.400 C 330.355 320.589,320.943 329.915,317.402 333.007 C 315.643 334.543,313.843 336.127,313.402 336.526 C 312.961 336.926,311.160 338.350,309.400 339.691 C 307.640 341.032,306.140 342.280,306.067 342.465 C 305.993 342.649,305.693 342.800,305.400 342.800 C 305.107 342.800,304.807 342.947,304.733 343.128 C 304.660 343.308,303.430 344.241,302.000 345.200 C 300.570 346.159,299.340 347.092,299.267 347.272 C 299.193 347.453,298.953 347.600,298.732 347.600 C 298.511 347.600,297.491 348.171,296.465 348.870 C 295.439 349.568,294.150 350.439,293.600 350.804 C 291.760 352.025,284.228 356.259,281.800 357.436 C 280.480 358.076,279.310 358.699,279.200 358.821 C 279.090 358.942,278.280 359.367,277.400 359.764 C 276.520 360.161,274.810 360.936,273.600 361.486 C 268.861 363.639,268.075 363.974,264.400 365.404 C 258.048 367.877,246.090 371.559,240.400 372.795 C 239.190 373.058,237.570 373.426,236.800 373.612 C 235.553 373.915,234.201 374.163,229.200 375.009 C 226.474 375.470,222.545 375.998,218.200 376.487 C 212.281 377.152,187.568 377.147,182.000 376.479 C 174.920 375.629,172.291 375.267,170.000 374.826 C 168.790 374.594,166.810 374.235,165.600 374.028 C 162.966 373.579,158.111 372.475,155.200 371.662 C 154.430 371.447,152.450 370.901,150.800 370.449 C 147.266 369.480,137.923 366.361,135.966 365.497 C 135.215 365.165,133.970 364.674,133.200 364.406 C 130.365 363.417,116.253 356.550,112.600 354.382 C 111.500 353.729,109.882 352.810,109.004 352.340 C 106.961 351.246,96.876 344.502,95.838 343.535 C 95.404 343.131,94.828 342.800,94.558 342.800 C 94.288 342.800,94.007 342.649,93.933 342.464 C 93.860 342.279,92.900 341.449,91.800 340.620 C 83.829 334.613,74.602 325.864,65.400 315.586 C 60.340 309.934,52.079 298.478,47.814 291.200 C 46.976 289.770,45.923 287.970,45.474 287.200 C 44.141 284.916,37.764 272.268,37.507 271.400 C 37.377 270.960,36.443 268.631,35.432 266.225 C 33.757 262.238,30.845 253.871,29.926 250.400 C 29.722 249.630,29.385 248.415,29.177 247.700 C 28.151 244.163,27.910 243.264,27.544 241.600 C 27.326 240.610,27.051 239.124,26.932 238.297 C 26.813 237.471,26.555 236.695,26.358 236.574 C 26.161 236.452,26.000 235.564,26.000 234.600 C 26.000 233.636,25.843 232.750,25.650 232.631 C 25.458 232.512,25.178 231.376,25.028 230.107 C 24.878 228.838,24.588 226.540,24.383 225.000 C 23.268 216.624,23.042 212.380,23.039 199.800 C 23.036 185.784,23.480 179.568,25.182 169.800 C 25.412 168.480,25.714 166.541,25.852 165.492 C 25.990 164.442,26.260 163.486,26.452 163.368 C 26.643 163.250,26.800 162.689,26.800 162.123 C 26.800 161.556,26.994 160.352,27.232 159.446 C 27.469 158.541,27.850 157.080,28.078 156.200 C 28.306 155.320,28.631 154.150,28.800 153.600 C 28.969 153.050,29.333 151.790,29.610 150.800 C 30.833 146.420,34.047 137.062,35.586 133.400 C 36.510 131.200,37.371 129.051,37.500 128.625 C 38.858 124.106,52.041 101.179,56.239 96.033 C 56.523 95.685,57.615 94.230,58.665 92.800 C 59.716 91.370,60.671 90.110,60.788 90.000 C 60.904 89.890,61.718 88.900,62.597 87.800 C 69.207 79.520,76.934 71.866,89.200 61.446 C 89.750 60.979,91.370 59.732,92.800 58.676 C 94.230 57.620,95.743 56.473,96.163 56.128 C 101.060 52.099,124.163 38.841,128.625 37.500 C 129.051 37.371,131.200 36.511,133.400 35.588 C 136.988 34.081,146.282 30.819,149.400 29.971 C 151.419 29.422,153.729 28.775,155.200 28.347 C 156.689 27.914,159.423 27.300,161.400 26.955 C 162.060 26.840,162.960 26.588,163.400 26.395 C 163.840 26.203,164.920 25.952,165.800 25.838 C 166.680 25.724,168.480 25.435,169.800 25.196 C 172.791 24.653,176.589 24.169,181.944 23.649 C 184.223 23.427,186.198 23.135,186.333 23.000 C 186.708 22.626,214.530 23.097,218.400 23.544 M190.905 66.687 C 191.514 66.779,192.414 66.777,192.905 66.682 C 193.397 66.587,192.900 66.511,191.800 66.514 C 190.700 66.517,190.297 66.595,190.905 66.687 M209.400 66.974 C 212.920 67.267,216.610 67.625,217.600 67.770 C 222.194 68.445,227.710 69.457,229.800 70.009 C 232.035 70.599,233.641 70.790,233.424 70.438 C 233.305 70.246,232.621 70.005,231.904 69.903 C 231.187 69.801,229.250 69.436,227.600 69.092 C 225.950 68.749,223.430 68.277,222.000 68.043 C 220.570 67.809,218.320 67.439,217.000 67.220 C 215.680 67.002,211.990 66.737,208.800 66.632 L 203.000 66.442 209.400 66.974 M185.500 67.089 C 186.215 67.178,187.385 67.178,188.100 67.089 C 188.815 67.001,188.230 66.928,186.800 66.928 C 185.370 66.928,184.785 67.001,185.500 67.089 M179.505 67.883 C 180.002 67.979,180.722 67.975,181.105 67.875 C 181.487 67.775,181.080 67.696,180.200 67.701 C 179.320 67.705,179.007 67.787,179.505 67.883 M174.900 68.676 C 175.285 68.776,175.915 68.776,176.300 68.676 C 176.685 68.575,176.370 68.493,175.600 68.493 C 174.830 68.493,174.515 68.575,174.900 68.676 M170.000 69.606 C 169.578 69.882,169.815 69.923,170.800 69.742 C 172.525 69.425,172.851 69.198,171.567 69.206 C 171.035 69.209,170.330 69.389,170.000 69.606 M166.800 70.418 C 166.362 70.715,166.524 70.752,167.400 70.556 C 168.871 70.227,169.190 69.998,168.167 70.006 C 167.745 70.009,167.130 70.195,166.800 70.418 M236.377 71.621 C 237.794 72.038,239.034 72.299,239.134 72.200 C 239.233 72.100,239.064 71.950,238.757 71.866 C 238.451 71.782,237.557 71.508,236.772 71.256 C 235.986 71.005,234.996 70.814,234.572 70.831 C 234.147 70.847,234.959 71.203,236.377 71.621 M240.200 72.800 C 241.301 73.273,241.692 73.273,241.400 72.800 C 241.264 72.580,240.758 72.413,240.276 72.428 C 239.431 72.455,239.429 72.469,240.200 72.800 M242.033 73.344 C 242.505 73.750,244.443 73.993,244.210 73.616 C 244.068 73.387,243.483 73.200,242.910 73.200 C 242.336 73.200,241.942 73.265,242.033 73.344 M256.800 78.971 C 256.800 79.247,259.314 80.420,259.502 80.231 C 259.597 80.136,259.127 79.776,258.457 79.429 C 257.209 78.784,256.800 78.671,256.800 78.971 M137.100 81.829 C 135.605 82.640,135.696 82.978,137.200 82.200 C 137.860 81.859,138.400 81.494,138.400 81.390 C 138.400 81.132,138.357 81.147,137.100 81.829 M261.600 81.360 C 261.600 81.447,262.365 81.915,263.300 82.398 C 264.235 82.882,266.673 84.272,268.717 85.488 C 270.762 86.704,272.530 87.603,272.648 87.486 C 272.765 87.369,272.488 87.155,272.033 87.010 C 271.577 86.866,270.972 86.534,270.687 86.274 C 270.097 85.734,269.431 85.335,265.095 82.926 C 262.061 81.240,261.600 81.033,261.600 81.360 M132.500 84.446 C 131.137 85.319,130.695 85.906,131.900 85.243 C 132.818 84.739,134.256 83.627,134.000 83.619 C 133.890 83.616,133.215 83.988,132.500 84.446 M126.800 88.036 C 126.136 88.579,126.069 88.715,126.600 88.440 C 127.905 87.766,128.628 87.212,128.200 87.215 C 127.980 87.217,127.350 87.586,126.800 88.036 M273.200 88.163 C 273.200 88.243,273.650 88.603,274.200 88.963 C 274.750 89.324,275.200 89.463,275.200 89.273 C 275.200 89.084,274.750 88.723,274.200 88.473 C 273.650 88.222,273.200 88.083,273.200 88.163 M285.200 96.918 C 285.200 97.020,286.047 97.797,287.081 98.645 C 288.116 99.493,288.834 99.978,288.676 99.723 C 288.340 99.179,285.200 96.645,285.200 96.918 M112.654 98.633 C 112.023 99.187,111.587 99.720,111.683 99.816 C 111.779 99.913,112.374 99.454,113.004 98.796 C 114.396 97.343,114.216 97.259,112.654 98.633 M108.930 102.009 C 107.791 103.104,106.988 104.000,107.145 104.000 C 107.302 104.000,108.317 103.100,109.400 102.000 C 111.944 99.418,111.617 99.424,108.930 102.009 M105.286 105.424 C 104.783 105.961,104.527 106.400,104.716 106.400 C 104.906 106.400,105.483 105.950,106.000 105.400 C 106.517 104.850,106.773 104.411,106.570 104.424 C 106.366 104.438,105.789 104.888,105.286 105.424 M101.818 109.182 L 99.836 111.400 101.999 109.314 C 103.189 108.167,104.080 107.169,103.981 107.097 C 103.881 107.024,102.908 107.963,101.818 109.182 M298.400 109.532 C 298.400 109.736,298.700 110.149,299.066 110.451 C 299.432 110.753,300.602 112.044,301.666 113.321 C 302.730 114.597,303.599 115.497,303.597 115.321 C 303.595 115.144,302.425 113.687,300.997 112.081 C 299.569 110.476,298.400 109.329,298.400 109.532 M98.426 112.922 L 97.451 114.200 98.726 113.025 C 100.051 111.803,100.203 111.585,99.700 111.622 C 99.535 111.634,98.962 112.219,98.426 112.922 M87.814 127.035 C 87.441 127.604,87.205 128.138,87.289 128.222 C 87.373 128.307,87.758 127.841,88.144 127.188 C 89.006 125.728,88.748 125.609,87.814 127.035 M85.726 130.305 C 85.277 131.127,84.236 132.970,83.414 134.400 C 81.204 138.244,78.723 143.257,78.929 143.463 C 79.028 143.562,79.798 142.238,80.639 140.521 C 81.479 138.805,82.696 136.500,83.342 135.400 C 85.643 131.484,86.872 129.139,86.709 128.975 C 86.618 128.884,86.175 129.483,85.726 130.305 M317.033 135.492 C 317.647 136.643,318.214 137.519,318.294 137.439 C 318.467 137.266,316.898 134.371,316.321 133.800 C 316.099 133.580,316.419 134.342,317.033 135.492 M74.267 153.867 C 74.120 154.013,74.011 154.508,74.025 154.967 C 74.049 155.733,74.082 155.723,74.434 154.842 C 74.826 153.863,74.744 153.389,74.267 153.867 M73.467 156.267 C 73.320 156.413,73.211 156.908,73.225 157.367 C 73.249 158.133,73.282 158.123,73.634 157.242 C 74.026 156.263,73.944 155.789,73.467 156.267 M72.667 158.667 C 72.520 158.813,72.400 159.266,72.400 159.672 C 72.400 160.078,72.238 160.723,72.039 161.105 C 71.367 162.398,70.701 165.104,70.920 165.654 C 71.089 166.081,71.144 166.068,71.168 165.595 C 71.186 165.262,71.651 163.569,72.203 161.831 C 73.155 158.830,73.267 158.066,72.667 158.667 M327.628 160.676 C 327.718 161.715,328.344 162.596,328.372 161.724 C 328.387 161.242,328.220 160.736,328.000 160.600 C 327.780 160.464,327.613 160.498,327.628 160.676 M329.463 167.280 C 329.800 169.049,330.000 169.201,330.000 167.690 C 330.000 167.007,329.823 166.338,329.606 166.204 C 329.360 166.052,329.306 166.455,329.463 167.280 M70.200 167.453 C 70.068 168.084,69.797 169.230,69.598 170.000 C 69.124 171.831,68.548 174.772,68.033 178.000 C 67.805 179.430,67.434 181.680,67.210 183.000 C 66.985 184.320,66.722 188.460,66.626 192.200 L 66.451 199.000 66.796 193.200 C 67.335 184.146,68.253 177.762,70.211 169.462 C 70.566 167.956,70.763 166.629,70.648 166.514 C 70.533 166.400,70.331 166.822,70.200 167.453 M330.280 170.691 C 330.590 172.700,330.800 172.861,330.800 171.090 C 330.800 170.297,330.631 169.543,330.424 169.415 C 330.199 169.276,330.141 169.791,330.280 170.691 M331.008 174.013 C 331.131 174.776,331.404 176.300,331.616 177.400 C 331.828 178.500,332.074 179.940,332.162 180.600 C 332.251 181.260,332.256 180.810,332.175 179.600 C 331.925 175.901,331.541 173.419,331.154 173.013 C 330.927 172.774,330.871 173.160,331.008 174.013 M332.689 185.071 C 332.921 189.263,333.131 189.676,333.162 186.000 C 333.176 184.350,333.037 182.762,332.852 182.471 C 332.662 182.171,332.592 183.302,332.689 185.071 M333.510 197.800 C 333.576 202.640,333.686 207.050,333.755 207.600 C 333.824 208.150,333.886 204.730,333.893 200.000 C 333.900 195.270,333.789 190.860,333.648 190.200 C 333.506 189.540,333.444 192.960,333.510 197.800 M66.630 207.600 C 66.728 211.450,66.975 215.590,67.179 216.800 C 67.383 218.010,67.769 220.350,68.037 222.000 C 68.305 223.650,68.783 226.170,69.098 227.600 C 69.413 229.030,69.758 230.740,69.865 231.400 C 70.138 233.086,70.383 233.750,70.638 233.496 C 70.758 233.375,70.586 232.134,70.256 230.738 C 68.350 222.681,67.321 215.486,66.801 206.600 L 66.451 200.600 66.630 207.600 M332.877 214.267 C 332.835 215.624,332.696 217.064,332.570 217.467 C 332.355 218.150,332.370 218.153,332.789 217.501 C 333.044 217.104,333.177 215.724,333.096 214.301 L 332.954 211.800 332.877 214.267 M332.067 220.467 C 332.030 221.274,331.896 222.264,331.770 222.667 C 331.553 223.357,331.566 223.359,331.994 222.693 C 332.243 222.304,332.377 221.314,332.291 220.493 L 332.134 219.000 332.067 220.467 M331.180 225.490 C 331.071 226.419,331.133 227.027,331.320 226.840 C 331.506 226.654,331.596 225.894,331.519 225.151 C 331.383 223.833,331.375 223.842,331.180 225.490 M70.832 234.572 C 70.798 235.385,71.456 237.721,72.049 238.895 C 72.242 239.277,72.400 239.941,72.400 240.371 C 72.400 240.801,72.599 241.276,72.843 241.426 C 73.146 241.614,73.196 241.400,73.000 240.750 C 72.297 238.414,71.121 234.564,70.998 234.200 C 70.924 233.980,70.849 234.147,70.832 234.572 M73.228 242.676 C 73.213 243.158,73.380 243.664,73.600 243.800 C 74.073 244.092,74.073 243.701,73.600 242.600 C 73.269 241.829,73.255 241.831,73.228 242.676 M74.028 245.076 C 74.013 245.558,74.180 246.064,74.400 246.200 C 74.873 246.492,74.873 246.101,74.400 245.000 C 74.069 244.229,74.055 244.231,74.028 245.076 M78.800 256.613 C 78.800 257.068,80.863 260.870,81.023 260.710 C 81.116 260.617,80.728 259.609,80.160 258.471 C 79.228 256.600,78.800 256.015,78.800 256.613 M81.203 261.476 C 81.205 261.654,82.039 263.240,83.057 265.000 C 84.075 266.760,85.112 268.575,85.362 269.034 C 86.436 271.005,89.825 275.990,90.094 275.995 C 90.255 275.998,89.584 274.785,88.601 273.300 C 86.372 269.931,82.000 262.436,82.000 261.984 C 82.000 261.799,81.820 261.536,81.600 261.400 C 81.380 261.264,81.201 261.298,81.203 261.476 M317.262 264.062 C 316.777 264.970,316.442 265.776,316.518 265.852 C 316.595 265.928,317.054 265.247,317.538 264.338 C 318.023 263.430,318.358 262.624,318.282 262.548 C 318.205 262.472,317.746 263.153,317.262 264.062 M315.053 268.100 L 314.333 269.400 315.158 268.400 C 315.889 267.513,316.214 266.800,315.886 266.800 C 315.824 266.800,315.449 267.385,315.053 268.100 M311.232 273.939 C 310.579 275.160,310.714 275.500,311.441 274.463 C 311.793 273.960,311.988 273.454,311.873 273.340 C 311.759 273.225,311.470 273.495,311.232 273.939 M90.400 276.725 C 90.400 276.903,90.720 277.398,91.111 277.825 C 91.502 278.251,92.261 279.230,92.798 280.000 C 93.334 280.770,93.960 281.596,94.187 281.837 C 94.414 282.077,95.050 282.866,95.600 283.590 C 96.150 284.314,96.870 285.220,97.200 285.602 C 97.530 285.985,98.636 287.266,99.657 288.449 C 102.254 291.457,106.413 295.722,106.580 295.546 C 106.656 295.466,105.122 293.722,103.170 291.672 C 99.609 287.931,95.031 282.421,92.227 278.500 C 90.742 276.424,90.400 276.092,90.400 276.725 M107.600 296.523 C 107.600 296.810,110.788 299.813,112.800 301.421 C 114.409 302.706,113.652 301.917,110.100 298.608 C 108.725 297.327,107.600 296.388,107.600 296.523 M115.371 303.497 C 116.015 304.209,116.630 304.704,116.738 304.596 C 116.845 304.488,116.858 304.355,116.767 304.300 C 116.675 304.245,116.060 303.751,115.400 303.201 L 114.200 302.203 115.371 303.497 M130.800 314.579 C 130.800 314.689,131.340 315.059,132.000 315.400 C 132.660 315.741,133.200 315.931,133.200 315.821 C 133.200 315.711,132.660 315.341,132.000 315.000 C 131.340 314.659,130.800 314.469,130.800 314.579 M265.103 316.698 C 263.620 317.491,262.469 318.203,262.546 318.279 C 262.712 318.445,267.237 316.106,267.780 315.573 C 268.370 314.994,268.002 315.149,265.103 316.698 M138.000 318.583 C 138.000 318.763,140.402 320.000,140.750 320.000 C 141.097 320.000,139.494 318.967,138.700 318.679 C 138.315 318.539,138.000 318.496,138.000 318.583 M160.600 328.000 C 160.736 328.220,161.242 328.387,161.724 328.372 C 162.569 328.345,162.571 328.331,161.800 328.000 C 160.699 327.527,160.308 327.527,160.600 328.000 M235.600 328.800 L 234.600 329.120 235.700 329.160 C 236.305 329.182,236.800 329.020,236.800 328.800 C 236.800 328.580,236.755 328.418,236.700 328.440 C 236.645 328.462,236.150 328.624,235.600 328.800 M166.204 329.606 C 166.338 329.823,167.007 330.000,167.690 330.000 C 169.201 330.000,169.049 329.800,167.280 329.463 C 166.455 329.306,166.052 329.360,166.204 329.606 M232.400 329.600 L 231.400 329.920 232.476 329.960 C 233.068 329.982,233.664 329.820,233.800 329.600 C 234.081 329.145,233.820 329.145,232.400 329.600 M169.415 330.424 C 169.543 330.631,170.297 330.800,171.090 330.800 C 172.861 330.800,172.700 330.590,170.691 330.280 C 169.791 330.141,169.276 330.199,169.415 330.424 M229.000 330.400 L 227.400 330.686 228.876 330.743 C 229.688 330.774,230.464 330.620,230.600 330.400 C 230.736 330.180,230.792 330.026,230.724 330.057 C 230.656 330.088,229.880 330.242,229.000 330.400 M173.013 331.154 C 173.226 331.357,174.210 331.623,175.200 331.746 C 176.190 331.870,178.170 332.164,179.600 332.400 C 181.030 332.637,183.640 332.888,185.400 332.957 C 187.160 333.027,187.790 333.025,186.800 332.951 C 184.954 332.815,180.948 332.236,177.400 331.593 C 173.306 330.852,172.623 330.783,173.013 331.154 M225.000 331.200 L 223.400 331.486 225.076 331.543 C 225.998 331.574,226.864 331.420,227.000 331.200 C 227.136 330.980,227.102 330.826,226.924 330.857 C 226.746 330.888,225.880 331.042,225.000 331.200 M220.000 332.062 C 218.570 332.249,215.870 332.560,214.000 332.754 L 210.600 333.105 214.000 332.966 C 219.135 332.755,222.557 332.374,222.980 331.966 C 223.220 331.735,223.220 331.622,222.980 331.661 C 222.771 331.695,221.430 331.875,220.000 332.062 M190.219 333.653 C 191.782 333.987,208.341 333.993,209.520 333.660 C 210.026 333.517,205.625 333.400,199.739 333.400 C 193.854 333.400,189.570 333.514,190.219 333.653 " stroke="none" fill="#c3e4fb" fill-rule="evenodd"></path><path id="path4" d="M191.400 66.787 C 190.080 66.925,193.590 67.036,199.200 67.032 C 206.068 67.027,208.224 66.936,205.800 66.755 C 201.442 66.428,194.671 66.443,191.400 66.787 M182.800 67.600 L 181.400 67.895 183.000 67.918 C 183.880 67.930,185.410 67.797,186.400 67.620 L 188.200 67.300 186.200 67.303 C 185.100 67.304,183.570 67.438,182.800 67.600 M213.400 67.623 C 214.280 67.805,215.540 67.944,216.200 67.931 C 217.244 67.911,217.192 67.865,215.800 67.577 C 214.920 67.395,213.660 67.256,213.000 67.269 C 211.956 67.289,212.008 67.335,213.400 67.623 M177.600 68.400 C 176.201 68.848,178.439 68.848,180.200 68.400 L 181.400 68.095 180.000 68.087 C 179.230 68.083,178.150 68.224,177.600 68.400 M219.600 68.400 C 220.150 68.576,221.050 68.720,221.600 68.720 L 222.600 68.720 221.600 68.400 C 221.050 68.224,220.150 68.080,219.600 68.080 L 218.600 68.080 219.600 68.400 M173.200 69.200 C 172.225 69.512,172.230 69.521,173.400 69.532 C 174.060 69.538,174.960 69.389,175.400 69.200 C 176.494 68.730,174.667 68.730,173.200 69.200 M224.600 69.200 C 225.040 69.389,225.760 69.544,226.200 69.544 L 227.000 69.544 226.200 69.200 C 225.760 69.011,225.040 68.856,224.600 68.856 L 223.800 68.856 224.600 69.200 M166.908 70.617 C 161.281 72.054,152.995 74.812,149.031 76.567 C 148.244 76.915,146.925 77.496,146.100 77.859 C 138.010 81.412,127.682 87.328,121.702 91.836 C 120.656 92.624,119.276 93.659,118.637 94.135 C 117.997 94.611,117.276 95.180,117.035 95.400 C 116.794 95.620,115.337 96.853,113.798 98.141 C 108.039 102.959,99.331 111.877,95.906 116.465 C 95.304 117.271,94.584 118.171,94.305 118.465 C 93.674 119.130,89.328 125.239,87.949 127.400 C 86.307 129.974,85.927 130.800,86.386 130.800 C 86.614 130.800,86.800 130.614,86.800 130.387 C 86.800 129.628,92.494 121.459,96.550 116.400 C 105.533 105.194,120.167 92.408,131.281 86.054 C 132.006 85.639,133.950 84.527,135.600 83.582 C 138.534 81.902,147.284 77.600,147.766 77.600 C 147.899 77.600,148.862 77.222,149.904 76.760 C 150.947 76.298,152.160 75.766,152.600 75.578 C 153.040 75.390,155.200 74.665,157.400 73.967 C 159.600 73.269,161.760 72.561,162.200 72.395 C 163.317 71.971,165.700 71.336,169.100 70.557 C 171.904 69.914,172.750 69.560,171.300 69.637 C 170.915 69.658,168.939 70.099,166.908 70.617 M228.400 70.000 C 228.730 70.213,229.360 70.378,229.800 70.366 L 230.600 70.344 229.800 70.000 C 228.604 69.486,227.605 69.486,228.400 70.000 M232.000 70.800 C 232.330 71.013,232.960 71.178,233.400 71.166 L 234.200 71.144 233.400 70.800 C 232.204 70.286,231.205 70.286,232.000 70.800 M237.800 72.400 C 237.936 72.620,238.442 72.787,238.924 72.772 C 239.769 72.745,239.771 72.731,239.000 72.400 C 237.899 71.927,237.508 71.927,237.800 72.400 M243.000 74.000 C 243.440 74.189,244.160 74.338,244.600 74.332 C 245.243 74.323,245.204 74.257,244.400 74.000 C 243.032 73.562,241.981 73.562,243.000 74.000 M271.000 87.087 C 271.220 87.309,272.840 88.451,274.600 89.625 C 290.613 100.303,306.466 117.290,315.379 133.321 C 316.211 134.817,316.975 135.958,317.076 135.857 C 317.680 135.254,307.370 119.906,302.814 114.625 C 296.891 107.761,291.217 102.012,286.800 98.402 C 285.590 97.413,284.404 96.423,284.163 96.202 C 283.923 95.981,283.130 95.350,282.400 94.800 C 281.670 94.250,280.877 93.611,280.637 93.381 C 279.591 92.378,270.104 86.181,271.000 87.087 M83.028 135.861 C 82.456 136.884,82.069 137.802,82.167 137.901 C 82.266 137.999,82.811 137.162,83.380 136.040 C 84.673 133.488,84.425 133.362,83.028 135.861 M317.200 136.425 C 317.200 136.869,320.380 142.552,320.389 142.125 C 320.395 141.863,319.836 140.603,319.146 139.325 C 317.973 137.149,317.200 135.998,317.200 136.425 M78.777 144.300 C 77.122 147.858,75.851 151.101,76.307 150.600 C 76.508 150.380,76.913 149.570,77.207 148.800 C 77.502 148.030,78.217 146.403,78.796 145.184 C 80.082 142.480,80.428 141.600,80.204 141.600 C 80.110 141.600,79.468 142.815,78.777 144.300 M320.675 143.500 C 320.812 143.885,321.048 144.380,321.199 144.600 C 321.350 144.820,321.787 145.810,322.170 146.800 C 322.552 147.790,323.139 149.230,323.474 150.000 C 323.808 150.770,324.219 151.760,324.387 152.200 C 324.555 152.640,324.884 153.450,325.117 154.000 C 325.351 154.550,325.630 155.270,325.739 155.600 C 325.864 155.979,325.948 155.877,325.968 155.324 C 325.986 154.842,325.856 154.358,325.679 154.249 C 325.503 154.140,325.110 153.139,324.807 152.025 C 324.504 150.911,324.108 150.000,323.928 150.000 C 323.747 150.000,323.600 149.728,323.600 149.395 C 323.600 149.062,323.436 148.477,323.235 148.095 C 323.034 147.713,322.391 146.365,321.805 145.100 C 320.798 142.922,320.134 141.983,320.675 143.500 M75.077 153.077 C 74.700 154.093,74.458 154.991,74.538 155.072 C 74.619 155.152,75.000 154.393,75.385 153.385 C 75.770 152.376,76.012 151.479,75.923 151.390 C 75.835 151.301,75.454 152.060,75.077 153.077 M71.429 164.229 C 71.281 164.815,71.251 165.384,71.361 165.494 C 71.471 165.604,71.681 165.215,71.829 164.629 C 71.976 164.042,72.006 163.473,71.896 163.363 C 71.786 163.253,71.576 163.642,71.429 164.229 M70.650 167.250 C 70.317 168.917,70.640 169.240,71.000 167.600 C 71.152 166.909,71.193 166.259,71.091 166.158 C 70.989 166.056,70.791 166.547,70.650 167.250 M69.829 170.629 C 69.681 171.215,69.651 171.784,69.761 171.894 C 69.871 172.004,70.081 171.615,70.229 171.029 C 70.376 170.442,70.406 169.873,70.296 169.763 C 70.186 169.653,69.976 170.042,69.829 170.629 M69.000 174.400 C 68.848 175.091,68.814 175.747,68.924 175.857 C 69.034 175.967,69.248 175.491,69.400 174.800 C 69.552 174.109,69.586 173.453,69.476 173.343 C 69.366 173.233,69.152 173.709,69.000 174.400 M331.256 177.200 C 331.256 177.530,331.411 178.160,331.600 178.600 C 331.817 179.104,331.944 179.178,331.944 178.800 C 331.944 178.470,331.789 177.840,331.600 177.400 C 331.383 176.896,331.256 176.822,331.256 177.200 M68.200 179.200 C 68.046 180.110,68.011 180.944,68.121 181.054 C 68.231 181.164,68.446 180.510,68.600 179.600 C 68.754 178.690,68.789 177.856,68.679 177.746 C 68.569 177.636,68.354 178.290,68.200 179.200 M332.087 182.200 C 332.091 182.640,332.232 183.540,332.400 184.200 C 332.674 185.278,332.706 185.298,332.713 184.400 C 332.717 183.850,332.576 182.950,332.400 182.400 C 332.149 181.616,332.081 181.573,332.087 182.200 M67.387 185.387 C 67.231 186.844,67.189 188.123,67.295 188.228 C 67.401 188.334,67.610 187.223,67.760 185.760 C 67.910 184.297,67.951 183.018,67.852 182.918 C 67.752 182.819,67.543 183.929,67.387 185.387 M332.893 190.000 C 332.893 190.770,332.975 191.085,333.076 190.700 C 333.176 190.315,333.176 189.685,333.076 189.300 C 332.975 188.915,332.893 189.230,332.893 190.000 M66.749 195.500 C 66.667 198.085,66.697 202.180,66.816 204.600 C 66.976 207.867,67.048 206.656,67.096 199.900 C 67.166 190.103,66.991 187.885,66.749 195.500 M333.289 198.400 C 333.238 202.250,333.111 206.930,333.009 208.800 C 332.846 211.770,332.872 211.961,333.219 210.308 C 333.437 209.267,333.564 204.587,333.500 199.908 L 333.383 191.400 333.289 198.400 M67.297 213.000 C 67.296 213.880,67.432 215.140,67.600 215.800 C 68.040 217.530,68.055 215.643,67.620 213.200 L 67.300 211.400 67.297 213.000 M332.185 216.585 C 332.030 217.823,332.000 218.934,332.119 219.052 C 332.237 219.170,332.461 218.254,332.615 217.015 C 332.770 215.777,332.800 214.666,332.681 214.548 C 332.563 214.430,332.339 215.346,332.185 216.585 M68.040 219.433 C 68.062 220.075,68.233 221.050,68.420 221.600 C 68.649 222.274,68.684 221.949,68.528 220.600 C 68.269 218.350,67.979 217.659,68.040 219.433 M331.400 222.000 C 331.246 222.910,331.211 223.744,331.321 223.854 C 331.431 223.964,331.646 223.310,331.800 222.400 C 331.954 221.490,331.989 220.656,331.879 220.546 C 331.769 220.436,331.554 221.090,331.400 222.000 M68.868 224.400 C 68.888 225.439,69.518 227.146,69.532 226.200 C 69.538 225.760,69.389 225.040,69.200 224.600 C 68.989 224.110,68.861 224.032,68.868 224.400 M330.600 226.700 C 330.354 228.268,329.806 230.542,329.173 232.628 C 328.968 233.304,328.800 234.238,328.800 234.705 C 328.800 235.171,328.620 235.664,328.400 235.800 C 328.180 235.936,328.000 236.489,328.000 237.029 C 328.000 237.569,327.838 238.323,327.639 238.705 C 327.440 239.087,327.048 240.210,326.767 241.200 C 326.486 242.190,326.146 243.180,326.011 243.400 C 325.877 243.620,325.537 244.520,325.257 245.400 C 324.662 247.268,324.200 248.452,322.683 252.000 C 321.346 255.127,320.220 257.557,318.726 260.538 C 317.860 262.264,317.320 263.573,317.524 263.447 C 317.892 263.220,319.687 259.663,321.788 255.000 C 322.383 253.680,323.034 252.287,323.235 251.905 C 323.436 251.523,323.600 250.938,323.600 250.605 C 323.600 250.272,323.741 250.000,323.913 250.000 C 324.085 250.000,324.475 249.145,324.780 248.100 C 325.085 247.055,325.463 245.930,325.621 245.600 C 326.393 243.980,327.543 240.596,328.408 237.400 C 330.536 229.536,331.476 225.200,331.053 225.200 C 330.934 225.200,330.730 225.875,330.600 226.700 M69.634 228.400 C 69.646 228.730,69.811 229.360,70.000 229.800 L 70.344 230.600 70.366 229.800 C 70.378 229.360,70.213 228.730,70.000 228.400 C 69.655 227.867,69.615 227.867,69.634 228.400 M70.468 231.600 C 70.488 232.639,71.118 234.346,71.132 233.400 C 71.138 232.960,70.989 232.240,70.800 231.800 C 70.589 231.310,70.461 231.232,70.468 231.600 M71.234 234.800 C 71.246 235.130,71.411 235.760,71.600 236.200 L 71.944 237.000 71.966 236.200 C 71.978 235.760,71.813 235.130,71.600 234.800 C 71.255 234.267,71.215 234.267,71.234 234.800 M72.012 237.600 C 72.012 237.930,72.187 238.470,72.400 238.800 C 72.745 239.333,72.788 239.333,72.788 238.800 C 72.788 238.470,72.613 237.930,72.400 237.600 C 72.055 237.067,72.012 237.067,72.012 237.600 M75.534 248.000 C 77.308 252.615,79.905 258.400,80.204 258.400 C 80.428 258.400,80.081 257.517,78.795 254.816 C 78.214 253.597,77.320 251.520,76.807 250.200 C 76.295 248.880,75.712 247.620,75.512 247.400 C 75.313 247.180,75.323 247.450,75.534 248.000 M82.000 262.150 C 82.000 262.441,84.071 266.000,84.241 266.000 C 84.336 266.000,83.957 265.100,83.400 264.000 C 82.531 262.286,82.000 261.583,82.000 262.150 M314.958 267.469 C 304.334 285.908,285.922 304.320,267.469 314.957 C 266.406 315.570,265.622 316.155,265.725 316.258 C 265.930 316.463,269.088 314.609,272.096 312.518 C 273.139 311.793,274.146 311.200,274.334 311.200 C 274.522 311.200,275.002 310.840,275.400 310.400 C 275.798 309.960,276.366 309.600,276.662 309.600 C 276.958 309.600,277.200 309.459,277.200 309.286 C 277.200 309.114,277.695 308.675,278.300 308.311 C 278.905 307.947,279.926 307.233,280.569 306.725 C 290.767 298.658,298.511 290.928,306.544 280.800 C 308.908 277.819,316.526 265.993,316.256 265.723 C 316.154 265.621,315.570 266.406,314.958 267.469 M85.000 267.600 C 85.341 268.260,85.711 268.800,85.821 268.800 C 85.931 268.800,85.741 268.260,85.400 267.600 C 85.059 266.940,84.689 266.400,84.579 266.400 C 84.469 266.400,84.659 266.940,85.000 267.600 M87.846 272.100 C 88.686 273.532,91.255 277.200,91.418 277.200 C 91.522 277.200,90.769 275.940,89.745 274.400 C 88.720 272.860,87.808 271.600,87.718 271.600 C 87.627 271.600,87.685 271.825,87.846 272.100 M94.444 281.500 C 100.606 289.376,107.832 296.970,114.000 302.051 C 115.430 303.230,116.796 304.375,117.037 304.597 C 117.277 304.819,117.997 305.389,118.637 305.865 C 119.276 306.341,120.610 307.333,121.600 308.071 C 125.138 310.705,127.444 312.276,130.400 314.065 C 134.412 316.494,138.642 318.802,139.060 318.791 C 139.247 318.786,138.410 318.222,137.200 317.538 C 129.037 312.921,124.380 309.806,117.800 304.561 C 108.166 296.882,94.753 283.048,93.307 279.300 C 93.201 279.025,92.938 278.800,92.723 278.800 C 92.507 278.800,93.282 280.015,94.444 281.500 M260.400 318.800 C 258.750 319.658,257.607 320.369,257.859 320.380 C 258.371 320.402,262.784 318.158,263.380 317.573 C 263.985 316.979,263.584 317.144,260.400 318.800 M139.600 318.996 C 139.600 319.270,142.049 320.484,142.232 320.301 C 142.319 320.214,141.762 319.844,140.995 319.478 C 140.228 319.112,139.600 318.895,139.600 318.996 M142.800 320.565 C 142.800 320.736,146.578 322.571,148.200 323.188 C 148.640 323.356,149.540 323.721,150.200 324.000 C 153.508 325.398,154.400 325.650,154.400 325.187 C 154.400 324.974,154.038 324.800,153.595 324.800 C 153.152 324.800,152.477 324.635,152.095 324.434 C 151.713 324.232,150.770 323.799,150.000 323.472 C 149.230 323.144,147.925 322.589,147.100 322.238 C 146.275 321.887,144.970 321.328,144.200 320.995 C 143.430 320.662,142.800 320.468,142.800 320.565 M236.000 328.418 C 235.562 328.715,235.724 328.752,236.600 328.556 C 238.071 328.227,238.390 327.998,237.367 328.006 C 236.945 328.009,236.330 328.195,236.000 328.418 M229.800 330.000 C 229.296 330.217,229.222 330.344,229.600 330.344 C 229.930 330.344,230.560 330.189,231.000 330.000 C 231.504 329.783,231.578 329.656,231.200 329.656 C 230.870 329.656,230.240 329.811,229.800 330.000 M177.400 331.600 C 177.840 331.789,178.470 331.944,178.800 331.944 C 179.178 331.944,179.104 331.817,178.600 331.600 C 178.160 331.411,177.530 331.256,177.200 331.256 C 176.822 331.256,176.896 331.383,177.400 331.600 M221.600 331.600 C 220.796 331.857,220.757 331.923,221.400 331.932 C 221.840 331.938,222.560 331.789,223.000 331.600 C 224.019 331.162,222.968 331.162,221.600 331.600 M182.400 332.400 C 182.950 332.576,183.850 332.717,184.400 332.713 C 185.298 332.706,185.278 332.674,184.200 332.400 C 182.508 331.969,181.056 331.969,182.400 332.400 M216.000 332.400 C 215.196 332.657,215.157 332.723,215.800 332.732 C 216.240 332.738,216.960 332.589,217.400 332.400 C 218.419 331.962,217.368 331.962,216.000 332.400 M189.505 333.083 C 190.002 333.179,190.722 333.175,191.105 333.075 C 191.487 332.975,191.080 332.896,190.200 332.901 C 189.320 332.905,189.007 332.987,189.505 333.083 M193.712 333.495 C 194.764 333.577,196.384 333.576,197.312 333.492 C 198.240 333.408,197.380 333.341,195.400 333.342 C 193.420 333.343,192.660 333.412,193.712 333.495 M202.713 333.495 C 203.876 333.576,205.676 333.576,206.713 333.493 C 207.751 333.411,206.800 333.345,204.600 333.346 C 202.400 333.347,201.551 333.414,202.713 333.495 " stroke="none" fill="#76dade" fill-rule="evenodd"></path></g></svg>