<svg id="svg" version="1.1" xmlns="http://www.w3.org/2000/svg" xmlns:xlink="http://www.w3.org/1999/xlink" width="400" height="400" viewBox="0, 0, 400,400"><g id="svgg"><path id="path0" d="M197.800 27.059 C 174.469 29.764,154.009 39.522,138.163 55.503 C 133.886 59.816,132.677 60.343,130.600 58.798 C 130.380 58.634,129.660 58.400,129.000 58.276 C 128.340 58.153,126.900 57.846,125.800 57.595 C 124.700 57.343,122.810 56.989,121.600 56.807 C 120.390 56.625,118.950 56.338,118.400 56.169 C 117.520 55.898,117.462 55.937,117.920 56.496 C 118.235 56.880,119.342 57.216,120.720 57.345 C 124.520 57.703,126.580 58.063,126.980 58.441 C 127.189 58.638,127.716 58.800,128.152 58.800 C 129.004 58.800,131.367 59.480,132.495 60.049 C 132.877 60.242,133.567 60.400,134.030 60.400 C 137.169 60.400,149.053 67.501,154.759 72.786 C 156.997 74.859,156.988 74.863,151.993 74.142 C 116.854 69.067,79.589 88.561,68.345 117.900 C 68.155 118.395,67.832 119.205,67.626 119.700 C 66.243 123.031,64.404 129.855,63.610 134.600 C 63.353 136.140,62.975 138.375,62.771 139.567 C 62.567 140.758,62.400 144.879,62.400 148.724 L 62.400 155.715 61.077 153.958 C 59.179 151.438,56.779 147.102,55.231 143.400 C 53.464 139.174,53.391 138.976,52.603 136.301 C 51.758 133.429,51.742 133.421,49.144 134.488 C 30.959 141.957,15.305 158.608,9.178 177.000 C 8.665 178.540,7.920 180.172,7.523 180.626 C 6.768 181.489,6.504 183.430,7.200 183.000 C 7.445 182.849,7.600 183.470,7.600 184.600 C 7.600 185.730,7.755 186.351,8.000 186.200 C 8.238 186.053,8.400 186.529,8.400 187.376 C 8.400 188.159,8.570 188.800,8.777 188.800 C 8.984 188.800,9.085 189.156,9.002 189.592 C 8.918 190.027,9.018 190.488,9.225 190.615 C 9.431 190.743,9.600 191.104,9.600 191.417 C 9.600 191.731,10.140 193.102,10.800 194.465 C 11.460 195.827,12.000 197.103,12.000 197.299 C 12.000 197.496,12.279 197.936,12.620 198.277 C 12.960 198.618,13.342 199.412,13.468 200.042 C 13.594 200.672,13.855 201.089,14.049 200.970 C 14.242 200.850,14.400 201.011,14.400 201.327 C 14.400 201.643,14.668 202.124,14.996 202.396 C 15.323 202.668,15.493 203.050,15.372 203.245 C 15.251 203.440,15.343 203.600,15.576 203.600 C 15.809 203.600,16.000 203.881,16.000 204.224 C 16.000 204.567,16.180 204.736,16.400 204.600 C 16.620 204.464,16.800 204.633,16.800 204.976 C 16.800 205.319,16.935 205.601,17.100 205.603 C 17.265 205.604,17.850 206.279,18.400 207.103 C 18.950 207.926,20.030 209.230,20.800 210.000 C 21.570 210.770,22.714 212.087,23.341 212.927 C 23.969 213.767,24.908 214.649,25.429 214.886 C 25.949 215.123,26.297 215.444,26.201 215.598 C 26.106 215.753,26.468 216.115,27.007 216.404 C 27.546 216.692,28.093 217.262,28.222 217.670 C 28.352 218.078,28.625 218.308,28.829 218.182 C 29.033 218.056,29.200 218.134,29.200 218.355 C 29.200 218.576,29.617 218.991,30.126 219.278 C 32.361 220.539,34.000 221.706,34.000 222.040 C 34.000 222.238,34.349 222.400,34.776 222.400 C 35.203 222.400,35.652 222.560,35.773 222.756 C 36.096 223.279,39.884 225.200,40.593 225.200 C 40.927 225.200,41.201 225.335,41.203 225.500 C 41.207 225.859,43.144 226.800,43.880 226.800 C 44.166 226.800,44.400 226.980,44.400 227.200 C 44.400 227.420,44.850 227.600,45.400 227.600 C 45.950 227.600,46.400 227.780,46.400 228.000 C 46.400 228.220,46.929 228.400,47.576 228.400 C 48.223 228.400,48.864 228.580,49.000 228.800 C 49.136 229.020,49.787 229.200,50.447 229.200 C 51.107 229.200,51.547 229.362,51.425 229.560 C 51.217 229.896,52.125 230.077,56.900 230.649 C 57.945 230.775,58.700 231.039,58.578 231.236 C 58.447 231.448,113.885 231.597,193.778 231.599 C 302.014 231.602,329.201 231.502,329.206 231.101 C 329.210 230.766,329.340 230.798,329.600 231.200 C 329.858 231.600,329.990 231.633,329.994 231.300 C 329.998 230.978,330.614 230.800,331.720 230.800 C 332.666 230.800,333.611 230.630,333.820 230.422 C 334.029 230.215,335.045 230.002,336.078 229.949 C 337.111 229.896,337.865 229.706,337.755 229.526 C 337.644 229.347,338.183 229.200,338.953 229.200 C 339.723 229.200,340.464 229.020,340.600 228.800 C 340.736 228.580,341.362 228.400,341.990 228.400 C 342.619 228.400,343.193 228.222,343.267 228.003 C 343.340 227.785,343.882 227.567,344.471 227.519 C 345.060 227.470,345.455 227.288,345.348 227.115 C 345.240 226.942,345.613 226.800,346.176 226.800 C 346.739 226.800,347.200 226.620,347.200 226.400 C 347.200 226.180,347.751 226.000,348.424 226.000 C 349.137 226.000,349.544 225.833,349.400 225.600 C 349.264 225.380,349.526 225.200,349.982 225.200 C 350.739 225.200,352.311 224.519,352.800 223.979 C 353.060 223.692,355.838 222.400,356.195 222.400 C 356.566 222.400,360.166 219.877,360.333 219.500 C 360.407 219.335,360.688 219.200,360.958 219.200 C 361.228 219.200,361.831 218.844,362.299 218.409 C 362.766 217.973,363.370 217.568,363.642 217.509 C 363.914 217.449,364.847 216.725,365.716 215.900 C 366.585 215.075,367.436 214.400,367.606 214.400 C 368.000 214.400,376.158 206.134,377.081 204.800 C 377.461 204.250,378.093 203.451,378.486 203.025 C 378.879 202.598,379.203 201.968,379.206 201.625 C 379.212 201.075,379.259 201.072,379.600 201.600 C 379.920 202.096,379.989 202.059,379.994 201.388 C 379.997 200.942,380.360 200.317,380.800 200.000 C 381.240 199.683,381.600 199.143,381.600 198.800 C 381.600 198.457,381.960 197.917,382.400 197.600 C 382.840 197.283,383.200 196.703,383.200 196.312 C 383.200 195.920,383.345 195.600,383.521 195.600 C 383.698 195.600,384.283 194.703,384.821 193.606 C 385.360 192.510,385.946 191.610,386.124 191.606 C 386.302 191.603,386.345 191.435,386.220 191.232 C 386.095 191.030,386.229 190.625,386.519 190.332 C 387.117 189.727,387.650 188.573,387.872 187.400 C 387.955 186.960,388.198 186.540,388.412 186.467 C 388.625 186.393,388.800 185.988,388.800 185.567 C 388.800 185.145,388.999 184.800,389.243 184.800 C 389.486 184.800,389.590 184.552,389.474 184.249 C 389.358 183.946,389.423 183.537,389.620 183.340 C 389.816 183.144,390.036 182.627,390.108 182.191 C 390.180 181.756,390.452 181.013,390.712 180.540 C 390.973 180.066,391.298 178.716,391.435 177.540 C 391.572 176.363,391.845 175.229,392.042 175.020 C 392.239 174.811,392.400 173.945,392.400 173.096 C 392.400 172.169,392.560 171.652,392.800 171.800 C 393.038 171.947,393.200 171.471,393.200 170.624 C 393.200 169.841,393.049 169.200,392.865 169.200 C 392.681 169.200,391.852 167.085,391.023 164.500 C 388.934 157.988,386.403 152.139,383.625 147.400 C 382.851 146.080,381.944 144.508,381.609 143.906 C 377.019 135.660,365.545 124.209,355.024 117.374 C 350.234 114.262,340.631 109.550,340.191 110.096 C 340.145 110.153,339.386 111.751,338.504 113.648 C 334.837 121.533,328.309 129.208,320.877 134.369 C 319.121 135.588,318.968 135.293,319.920 132.526 C 320.636 130.447,321.265 128.028,322.396 123.000 C 323.834 116.611,323.747 105.727,322.204 99.085 C 314.778 67.104,275.641 50.502,245.927 66.727 C 242.301 68.706,242.046 67.973,244.883 63.728 C 245.497 62.808,246.000 61.954,246.000 61.830 C 246.000 60.729,253.329 52.526,257.100 49.405 C 258.806 47.993,258.741 47.702,256.281 45.739 C 239.928 32.687,215.783 24.974,197.800 27.059 M102.200 56.400 C 102.064 56.620,102.313 56.800,102.753 56.800 C 103.193 56.800,103.664 56.620,103.800 56.400 C 103.936 56.180,103.687 56.000,103.247 56.000 C 102.807 56.000,102.336 56.180,102.200 56.400 M98.200 57.200 C 98.336 57.420,98.707 57.600,99.024 57.600 C 99.341 57.600,99.600 57.420,99.600 57.200 C 99.600 56.980,99.229 56.800,98.776 56.800 C 98.323 56.800,98.064 56.980,98.200 57.200 M87.341 60.397 C 86.543 60.719,85.683 61.600,86.167 61.600 C 86.284 61.600,86.970 61.241,87.690 60.801 C 89.036 59.981,88.864 59.783,87.341 60.397 M78.456 65.213 C 77.229 66.235,77.892 66.223,79.200 65.200 C 79.750 64.770,80.020 64.420,79.800 64.422 C 79.580 64.425,78.975 64.781,78.456 65.213 M72.060 69.868 C 71.319 70.669,71.809 71.048,72.584 70.273 C 72.926 69.931,73.070 69.568,72.903 69.467 C 72.736 69.367,72.357 69.547,72.060 69.868 M62.691 79.175 C 62.551 79.711,62.657 79.876,63.045 79.727 C 63.675 79.486,63.772 78.954,63.245 78.628 C 63.050 78.508,62.801 78.754,62.691 79.175 M61.200 81.424 C 61.200 81.767,61.039 81.948,60.842 81.826 C 60.645 81.704,60.381 81.874,60.254 82.202 C 60.008 82.845,60.336 82.968,61.029 82.494 C 61.633 82.081,62.055 80.800,61.587 80.800 C 61.374 80.800,61.200 81.081,61.200 81.424 M205.200 94.187 C 231.077 95.900,252.451 116.850,255.801 143.783 C 256.459 149.071,256.168 150.005,254.697 147.319 C 253.568 145.256,253.593 145.292,250.078 140.800 C 229.607 114.639,192.339 108.683,164.835 127.177 C 159.948 130.462,160.076 130.356,155.187 135.200 C 150.905 139.442,149.208 141.502,145.797 146.600 L 143.923 149.400 144.159 145.400 C 145.742 118.487,168.408 96.024,196.000 94.024 C 198.090 93.872,200.250 93.796,200.800 93.855 C 201.350 93.914,203.330 94.063,205.200 94.187 M43.200 110.633 C 42.644 110.942,42.467 111.185,42.800 111.180 C 43.130 111.175,43.850 110.914,44.400 110.600 C 44.950 110.286,45.130 110.040,44.800 110.053 C 44.470 110.067,43.750 110.328,43.200 110.633 M29.400 118.800 C 29.536 119.020,29.356 119.200,29.000 119.200 C 28.644 119.200,28.455 119.365,28.579 119.566 C 28.703 119.767,28.579 120.012,28.302 120.111 C 28.026 120.210,27.903 120.403,28.029 120.541 C 28.155 120.679,28.774 120.254,29.404 119.596 C 30.331 118.629,30.416 118.400,29.851 118.400 C 29.467 118.400,29.264 118.580,29.400 118.800 M23.813 123.813 C 22.971 124.585,22.375 125.308,22.488 125.421 C 22.601 125.534,23.353 124.967,24.160 124.160 C 26.063 122.257,25.800 121.993,23.813 123.813 M9.056 146.678 C 8.605 147.128,8.781 147.600,9.400 147.600 C 9.730 147.600,10.000 147.431,10.000 147.224 C 10.000 146.719,9.375 146.358,9.056 146.678 M361.849 157.716 C 368.045 160.880,370.067 167.032,367.530 175.000 C 361.877 192.756,346.543 206.721,328.200 210.822 C 321.253 212.375,320.808 212.385,262.800 212.393 L 206.600 212.399 204.184 211.256 C 194.690 206.765,194.691 193.338,204.185 188.807 L 206.714 187.600 260.692 187.600 C 319.693 187.600,318.694 187.636,326.274 185.268 C 333.833 182.908,341.138 175.377,343.606 167.400 C 344.750 163.703,345.403 162.296,346.676 160.782 C 350.220 156.571,356.946 155.212,361.849 157.716 M6.300 158.631 C 6.135 158.797,6.000 159.299,6.000 159.747 C 6.000 160.335,6.121 160.439,6.438 160.122 C 6.678 159.882,6.813 159.380,6.738 159.007 C 6.662 158.633,6.465 158.464,6.300 158.631 M5.309 169.209 C 5.277 169.636,5.420 170.089,5.627 170.216 C 5.833 170.344,5.947 170.082,5.878 169.635 C 5.707 168.515,5.380 168.270,5.309 169.209 M6.065 177.741 C 6.117 178.515,6.304 179.059,6.480 178.951 C 6.944 178.664,6.873 176.892,6.385 176.591 C 6.123 176.429,6.005 176.852,6.065 177.741 M153.693 187.414 C 168.937 187.665,171.882 187.925,174.489 189.249 C 183.358 193.753,183.506 206.559,174.746 211.412 L 172.600 212.600 156.000 212.487 C 146.870 212.424,138.072 212.198,136.448 211.983 C 121.614 210.025,121.117 189.682,135.843 187.223 C 136.919 187.043,138.022 186.958,138.293 187.033 C 138.563 187.108,145.493 187.279,153.693 187.414 " stroke="none" fill="#83dceb" fill-rule="evenodd"></path><path id="path1" d="M190.626 6.357 C 190.476 6.601,189.283 6.800,187.976 6.800 C 186.659 6.800,185.600 6.978,185.600 7.200 C 185.600 7.420,184.801 7.600,183.824 7.600 C 182.847 7.600,181.952 7.754,181.835 7.943 C 181.719 8.131,180.587 8.393,179.321 8.523 C 177.802 8.680,176.844 8.998,176.509 9.457 C 176.229 9.840,176.000 9.963,176.000 9.732 C 176.000 9.247,174.099 9.517,173.770 10.048 C 173.651 10.241,173.034 10.400,172.400 10.400 C 171.766 10.400,171.136 10.580,171.000 10.800 C 170.864 11.020,170.401 11.200,169.971 11.200 C 169.541 11.200,168.877 11.359,168.495 11.553 C 168.113 11.748,167.350 12.086,166.800 12.304 C 164.694 13.142,160.194 15.410,160.067 15.698 C 159.993 15.864,159.714 16.000,159.446 16.000 C 158.737 16.000,156.807 16.949,156.803 17.300 C 156.801 17.465,156.440 17.600,156.000 17.600 C 155.560 17.600,155.200 17.780,155.200 18.000 C 155.200 18.220,154.880 18.400,154.488 18.400 C 154.097 18.400,153.524 18.750,153.215 19.179 C 152.907 19.607,152.522 19.875,152.359 19.775 C 152.197 19.675,151.825 19.819,151.532 20.096 C 151.240 20.373,150.505 20.855,149.900 21.168 C 149.295 21.480,148.800 21.885,148.800 22.068 C 148.800 22.250,148.530 22.400,148.200 22.400 C 147.870 22.400,147.600 22.580,147.600 22.800 C 147.600 23.020,147.422 23.200,147.205 23.200 C 146.783 23.200,145.648 24.043,144.130 25.482 C 143.619 25.967,143.200 26.267,143.200 26.148 C 143.200 25.804,139.937 28.449,138.331 30.095 C 137.524 30.923,136.704 31.600,136.510 31.600 C 135.886 31.600,133.575 34.241,133.893 34.590 C 134.062 34.776,134.003 34.816,133.761 34.678 C 133.520 34.541,132.811 34.962,132.186 35.614 C 131.562 36.266,131.179 36.800,131.336 36.800 C 131.493 36.800,130.851 37.578,129.911 38.528 C 127.814 40.646,126.156 42.643,125.285 44.100 C 124.923 44.705,124.486 45.200,124.314 45.200 C 124.141 45.200,124.000 45.470,124.000 45.800 C 124.000 46.130,123.850 46.400,123.668 46.400 C 123.485 46.400,123.081 46.895,122.770 47.500 C 122.460 48.105,121.889 48.891,121.503 49.247 C 121.116 49.603,120.800 50.188,120.800 50.547 C 120.800 50.906,120.620 51.200,120.400 51.200 C 120.180 51.200,120.000 51.436,120.000 51.725 C 120.000 52.013,119.640 52.636,119.200 53.108 C 118.760 53.580,118.400 54.244,118.400 54.583 C 118.400 54.922,118.220 55.200,118.000 55.200 C 117.780 55.200,117.600 55.344,117.600 55.520 C 117.600 55.948,120.014 56.800,121.229 56.800 C 121.763 56.800,123.460 57.086,125.000 57.435 C 126.540 57.785,128.340 58.167,129.000 58.286 C 129.660 58.404,130.380 58.634,130.600 58.798 C 132.677 60.343,133.886 59.816,138.163 55.503 C 171.589 21.792,221.145 17.695,256.281 45.739 C 258.741 47.702,258.806 47.993,257.100 49.405 C 253.329 52.526,246.000 60.729,246.000 61.830 C 246.000 61.954,245.497 62.808,244.883 63.728 C 242.046 67.973,242.301 68.706,245.927 66.727 C 275.641 50.502,314.778 67.104,322.204 99.085 C 323.747 105.727,323.834 116.611,322.396 123.000 C 321.265 128.028,320.636 130.447,319.920 132.526 C 318.968 135.293,319.121 135.588,320.877 134.369 C 328.309 129.208,334.837 121.533,338.504 113.648 C 339.386 111.751,340.145 110.153,340.191 110.096 C 340.631 109.550,350.234 114.262,355.024 117.374 C 365.545 124.209,377.019 135.660,381.609 143.906 C 381.944 144.508,382.851 146.080,383.625 147.400 C 386.403 152.139,388.934 157.988,391.023 164.500 C 392.531 169.204,393.200 170.272,393.200 167.976 C 393.200 167.263,393.367 166.856,393.600 167.000 C 393.863 167.163,394.000 163.471,394.000 156.224 C 394.000 149.141,393.857 145.200,393.600 145.200 C 393.378 145.200,393.200 144.133,393.200 142.800 C 393.200 141.467,393.022 140.400,392.800 140.400 C 392.580 140.400,392.400 139.680,392.400 138.800 C 392.400 137.920,392.243 137.200,392.052 137.200 C 391.861 137.200,391.600 136.435,391.472 135.500 C 391.143 133.088,390.995 132.461,390.678 132.145 C 390.525 131.992,390.400 131.618,390.400 131.314 C 390.400 131.010,390.040 130.016,389.600 129.106 C 389.160 128.195,388.800 127.306,388.800 127.131 C 388.800 126.956,388.260 125.698,387.600 124.335 C 386.940 122.973,386.400 121.635,386.400 121.362 C 386.400 121.090,386.265 120.807,386.100 120.733 C 385.724 120.566,384.425 118.436,384.129 117.500 C 384.007 117.115,383.748 116.800,383.553 116.800 C 383.359 116.800,383.200 116.564,383.200 116.275 C 383.200 115.987,382.885 115.402,382.500 114.975 C 382.115 114.549,381.545 113.705,381.232 113.100 C 380.920 112.495,380.515 112.000,380.332 112.000 C 380.150 112.000,380.000 111.745,380.000 111.433 C 380.000 111.122,379.865 110.807,379.700 110.733 C 379.421 110.609,378.859 109.946,376.075 106.451 C 374.683 104.704,368.334 98.400,367.967 98.400 C 367.812 98.400,367.085 97.840,366.351 97.154 C 364.527 95.450,357.870 91.071,356.300 90.542 C 355.915 90.413,355.600 90.148,355.600 89.953 C 355.600 89.759,355.330 89.600,355.000 89.600 C 354.670 89.600,354.400 89.420,354.400 89.200 C 354.400 88.980,354.135 88.800,353.812 88.800 C 353.489 88.800,352.583 88.440,351.800 88.000 C 351.017 87.560,350.111 87.200,349.788 87.200 C 349.465 87.200,349.200 87.020,349.200 86.800 C 349.200 86.580,348.750 86.400,348.200 86.400 C 347.650 86.400,347.200 86.220,347.200 86.000 C 347.200 85.780,346.966 85.600,346.680 85.600 C 344.670 85.600,343.654 84.137,343.970 81.700 C 344.006 81.425,343.847 81.200,343.618 81.200 C 343.388 81.200,343.200 80.581,343.200 79.824 C 343.200 79.067,343.020 78.336,342.800 78.200 C 342.580 78.064,342.400 77.243,342.400 76.376 C 342.400 75.509,342.220 74.800,342.000 74.800 C 341.780 74.800,341.600 74.260,341.600 73.600 C 341.600 72.940,341.465 72.400,341.300 72.400 C 341.135 72.400,340.976 71.985,340.947 71.478 C 340.883 70.352,337.307 62.898,336.316 61.825 C 335.922 61.398,335.600 60.853,335.600 60.613 C 335.600 60.373,335.240 59.917,334.800 59.600 C 334.360 59.283,334.000 58.802,334.000 58.532 C 334.000 57.691,324.340 48.217,321.591 46.361 C 317.521 43.614,314.537 42.006,313.500 42.002 C 313.115 42.001,312.800 41.820,312.800 41.600 C 312.800 41.380,312.440 41.200,312.000 41.200 C 311.560 41.200,311.200 41.020,311.200 40.800 C 311.200 40.580,310.660 40.400,310.000 40.400 C 309.340 40.400,308.800 40.220,308.800 40.000 C 308.800 39.780,308.361 39.600,307.824 39.600 C 307.287 39.600,306.736 39.420,306.600 39.200 C 306.464 38.980,305.834 38.800,305.200 38.800 C 304.566 38.800,303.936 38.620,303.800 38.400 C 303.664 38.180,302.764 38.000,301.800 38.000 C 300.836 38.000,299.936 37.820,299.800 37.600 C 299.662 37.377,297.804 37.200,295.600 37.200 C 293.389 37.200,291.538 37.023,291.399 36.799 C 291.234 36.531,290.903 36.531,290.402 36.799 C 289.990 37.020,287.751 37.200,285.426 37.200 C 282.875 37.200,281.200 37.359,281.200 37.600 C 281.200 37.820,280.390 38.000,279.400 38.000 C 278.410 38.000,277.600 38.180,277.600 38.400 C 277.600 39.143,276.181 38.807,275.588 37.923 C 275.265 37.441,274.603 36.631,274.118 36.123 C 273.633 35.615,273.331 35.200,273.447 35.200 C 273.562 35.200,273.387 34.930,273.057 34.600 C 272.727 34.270,272.234 34.000,271.962 34.000 C 271.690 34.000,271.571 33.896,271.699 33.768 C 271.827 33.640,271.189 32.875,270.283 32.068 C 269.376 31.261,267.907 29.921,267.017 29.091 C 266.128 28.261,264.680 27.091,263.800 26.491 C 262.920 25.891,261.851 25.085,261.425 24.700 C 260.998 24.315,260.453 24.000,260.213 24.000 C 259.973 24.000,259.517 23.640,259.200 23.200 C 258.883 22.760,258.343 22.400,258.000 22.400 C 257.657 22.400,257.117 22.040,256.800 21.600 C 256.483 21.160,255.993 20.800,255.712 20.800 C 255.430 20.800,255.200 20.620,255.200 20.400 C 255.200 20.180,254.930 20.000,254.600 20.000 C 254.270 20.000,254.000 19.854,254.000 19.675 C 254.000 19.496,253.370 19.102,252.600 18.800 C 251.830 18.498,251.200 18.104,251.200 17.925 C 251.200 17.746,250.840 17.600,250.400 17.600 C 249.960 17.600,249.600 17.420,249.600 17.200 C 249.600 16.980,249.240 16.800,248.800 16.800 C 248.360 16.800,247.999 16.665,247.997 16.500 C 247.993 16.141,246.056 15.200,245.320 15.200 C 245.034 15.200,244.800 15.020,244.800 14.800 C 244.800 14.580,244.440 14.400,244.000 14.400 C 243.560 14.400,243.200 14.220,243.200 14.000 C 243.200 13.780,242.840 13.600,242.400 13.600 C 241.960 13.600,241.600 13.459,241.600 13.287 C 241.600 12.961,238.023 11.762,237.500 11.913 C 237.335 11.961,237.200 11.820,237.200 11.600 C 237.200 11.380,236.838 11.200,236.395 11.200 C 235.952 11.200,235.277 11.024,234.895 10.809 C 233.528 10.039,228.959 8.768,226.700 8.529 C 225.435 8.395,224.400 8.132,224.400 7.943 C 224.400 7.754,223.601 7.600,222.624 7.600 C 221.647 7.600,220.736 7.420,220.600 7.200 C 220.464 6.980,219.294 6.800,218.000 6.800 C 216.706 6.800,215.536 6.620,215.400 6.400 C 215.007 5.764,191.602 5.862,191.594 6.500 C 191.589 6.868,191.497 6.857,191.244 6.457 C 191.004 6.079,190.817 6.049,190.626 6.357 M352.356 156.964 C 347.524 158.822,345.520 161.213,343.606 167.400 C 341.138 175.377,333.833 182.908,326.274 185.268 C 318.694 187.636,319.693 187.600,260.692 187.600 L 206.714 187.600 204.185 188.807 C 194.691 193.338,194.690 206.765,204.184 211.256 L 206.600 212.399 262.800 212.393 C 325.822 212.385,323.765 212.474,333.400 209.331 C 351.304 203.490,368.817 183.498,368.802 168.915 C 368.794 160.731,359.714 154.133,352.356 156.964 M135.843 187.223 C 121.117 189.682,121.614 210.025,136.448 211.983 C 138.072 212.198,146.870 212.424,156.000 212.487 L 172.600 212.600 174.746 211.412 C 183.506 206.559,183.358 193.753,174.489 189.249 C 171.882 187.925,168.937 187.665,153.693 187.414 C 145.493 187.279,138.563 187.108,138.293 187.033 C 138.022 186.958,136.919 187.043,135.843 187.223 M93.300 262.267 C 93.025 262.377,92.800 262.722,92.800 263.033 C 92.800 263.345,92.620 263.600,92.400 263.600 C 92.180 263.600,92.000 263.870,92.000 264.200 C 92.000 264.530,91.854 264.800,91.675 264.800 C 91.496 264.800,91.102 265.430,90.800 266.200 C 90.498 266.970,90.104 267.600,89.925 267.600 C 89.746 267.600,89.600 267.960,89.600 268.400 C 89.600 268.840,89.465 269.201,89.300 269.203 C 89.135 269.205,88.813 269.610,88.583 270.103 C 87.997 271.365,86.240 274.560,86.000 274.800 C 85.604 275.196,84.346 277.415,84.129 278.100 C 84.007 278.485,83.748 278.800,83.553 278.800 C 83.359 278.800,83.200 279.160,83.200 279.600 C 83.200 280.040,83.065 280.403,82.900 280.406 C 82.735 280.410,82.160 281.310,81.621 282.406 C 81.083 283.503,80.487 284.400,80.298 284.400 C 80.108 284.400,80.065 284.581,80.202 284.803 C 80.339 285.024,80.169 285.314,79.825 285.446 C 79.481 285.578,79.200 285.932,79.200 286.234 C 79.200 286.535,78.672 287.758,78.027 288.951 C 77.381 290.144,76.948 291.215,77.064 291.331 C 77.180 291.447,76.968 293.087,76.593 294.977 C 73.271 311.719,93.878 322.651,106.157 310.659 C 110.204 306.706,112.018 300.998,111.006 295.400 C 110.688 293.640,110.422 291.615,110.414 290.900 C 110.406 290.185,110.220 289.600,110.000 289.600 C 109.780 289.600,109.600 289.229,109.600 288.776 C 109.600 288.323,109.458 288.040,109.285 288.148 C 109.112 288.255,108.721 287.770,108.417 287.071 C 108.113 286.372,107.760 285.710,107.632 285.600 C 107.108 285.149,105.573 282.000,105.874 281.994 C 106.053 281.991,105.996 281.856,105.746 281.694 C 105.210 281.347,103.600 278.554,103.600 277.971 C 103.600 277.749,103.240 277.180,102.800 276.708 C 102.360 276.236,102.000 275.613,102.000 275.325 C 102.000 275.036,101.820 274.800,101.600 274.800 C 101.380 274.800,101.200 274.628,101.200 274.418 C 101.200 274.207,100.632 273.082,99.938 271.918 C 99.244 270.753,98.192 268.900,97.601 267.800 C 94.540 262.111,94.338 261.852,93.300 262.267 M199.037 262.297 C 198.906 262.427,198.800 262.848,198.800 263.233 C 198.800 263.618,198.658 263.993,198.485 264.067 C 198.139 264.213,196.411 267.089,194.800 270.200 C 194.230 271.300,193.457 272.664,193.081 273.232 C 192.705 273.799,192.518 274.384,192.665 274.532 C 192.813 274.679,192.723 274.800,192.467 274.800 C 192.210 274.800,192.000 274.993,192.000 275.228 C 192.000 275.463,191.499 276.408,190.888 277.328 C 190.276 278.248,189.517 279.540,189.200 280.200 C 188.883 280.860,188.124 282.152,187.512 283.072 C 186.901 283.992,186.400 284.937,186.400 285.172 C 186.400 285.407,186.220 285.600,186.000 285.600 C 185.780 285.600,185.600 285.945,185.600 286.367 C 185.600 286.788,185.459 287.193,185.287 287.267 C 183.471 288.040,181.848 297.238,182.757 301.600 C 184.510 310.006,191.400 315.600,200.000 315.600 C 209.030 315.600,216.326 309.331,217.412 300.640 C 217.997 295.956,216.129 287.723,213.999 285.600 C 213.889 285.490,213.544 284.905,213.232 284.300 C 212.920 283.695,212.515 283.200,212.332 283.200 C 212.150 283.200,212.000 282.840,212.000 282.400 C 212.000 281.960,211.820 281.600,211.600 281.600 C 211.380 281.600,211.200 281.330,211.200 281.000 C 211.200 280.670,211.020 280.400,210.800 280.400 C 210.580 280.400,210.396 280.085,210.391 279.700 C 210.386 279.315,210.030 278.550,209.600 278.000 C 209.170 277.450,208.814 276.713,208.809 276.362 C 208.804 276.011,208.440 275.398,208.000 275.000 C 207.560 274.602,207.200 274.147,207.200 273.989 C 207.200 273.832,206.185 271.924,204.944 269.751 C 203.151 266.610,201.572 263.730,200.963 262.487 C 200.839 262.234,199.256 262.077,199.037 262.297 M305.095 263.100 C 304.784 263.705,304.141 264.875,303.665 265.700 C 302.822 267.163,301.826 268.913,300.738 270.845 C 300.442 271.370,300.110 271.890,299.999 272.000 C 299.889 272.110,299.529 272.740,299.200 273.400 C 298.871 274.060,298.511 274.690,298.400 274.800 C 298.289 274.910,297.929 275.540,297.600 276.200 C 297.271 276.860,296.910 277.490,296.798 277.600 C 296.686 277.710,296.074 278.790,295.439 280.000 C 294.803 281.210,294.012 282.515,293.680 282.900 C 293.348 283.285,293.206 283.600,293.365 283.600 C 293.524 283.600,293.282 284.123,292.827 284.762 C 292.372 285.401,292.000 286.211,292.000 286.562 C 292.000 286.913,291.848 287.200,291.663 287.200 C 289.146 287.200,288.030 300.577,290.152 305.294 C 298.332 323.469,326.968 315.526,323.596 296.016 C 323.309 294.357,323.040 292.437,322.998 291.748 C 322.956 291.060,322.199 289.170,321.316 287.548 C 320.432 285.927,319.370 283.970,318.955 283.200 C 318.540 282.430,318.096 281.710,317.968 281.600 C 317.840 281.490,317.481 280.815,317.170 280.100 C 316.859 279.385,316.469 278.800,316.302 278.800 C 316.136 278.800,316.000 278.530,316.000 278.200 C 316.000 277.870,315.854 277.600,315.675 277.600 C 315.496 277.600,315.102 276.970,314.800 276.200 C 314.498 275.430,314.104 274.800,313.925 274.800 C 313.746 274.800,313.600 274.440,313.600 274.000 C 313.600 273.560,313.441 273.200,313.247 273.200 C 313.052 273.200,312.793 272.885,312.671 272.500 C 312.434 271.753,311.154 269.533,310.768 269.200 C 310.640 269.090,310.281 268.415,309.970 267.700 C 309.659 266.985,309.288 266.400,309.146 266.400 C 309.003 266.400,308.769 265.932,308.626 265.360 C 307.913 262.521,306.015 261.306,305.095 263.100 " stroke="none" fill="#4db5d1" fill-rule="evenodd"></path><path id="path2" d="M74.832 296.888 C 74.520 297.610,74.160 298.290,74.032 298.400 C 73.558 298.808,71.387 302.969,70.797 304.600 C 70.637 305.040,70.307 305.850,70.063 306.400 C 69.819 306.950,69.570 308.210,69.510 309.200 C 69.438 310.383,69.229 310.966,68.900 310.900 C 68.616 310.843,68.400 311.197,68.400 311.720 C 68.400 312.226,68.205 312.835,67.967 313.073 C 67.397 313.643,68.330 315.202,69.071 314.917 C 69.470 314.764,69.600 315.258,69.600 316.934 C 69.600 318.154,69.780 319.264,70.000 319.400 C 70.220 319.536,70.400 319.980,70.400 320.386 C 70.400 321.184,72.009 324.515,72.500 324.733 C 72.665 324.807,72.803 325.077,72.807 325.333 C 72.816 325.922,74.587 328.134,76.349 329.757 C 79.969 333.092,80.594 333.600,81.078 333.600 C 81.365 333.600,81.600 333.780,81.600 334.000 C 81.600 334.220,81.960 334.400,82.400 334.400 C 82.840 334.400,83.200 334.580,83.200 334.800 C 83.200 335.020,83.639 335.200,84.176 335.200 C 84.713 335.200,85.266 335.383,85.404 335.607 C 85.542 335.830,85.808 335.918,85.995 335.803 C 86.182 335.687,86.575 335.826,86.868 336.112 C 87.160 336.398,88.120 336.630,89.000 336.629 C 91.151 336.627,92.400 337.102,91.589 337.615 C 91.190 337.867,91.840 337.988,93.600 337.988 C 95.205 337.988,95.992 337.856,95.657 337.644 C 94.782 337.090,95.858 336.666,98.067 336.695 C 99.130 336.709,100.000 336.558,100.000 336.360 C 100.000 336.162,100.362 336.000,100.805 336.000 C 101.248 336.000,101.968 335.820,102.405 335.600 C 102.842 335.380,103.558 335.020,103.995 334.800 C 104.432 334.580,105.062 334.400,105.395 334.400 C 105.728 334.400,106.000 334.242,106.000 334.049 C 106.000 333.855,106.500 333.490,107.110 333.237 C 108.290 332.749,114.400 326.730,114.400 326.056 C 114.400 325.837,114.625 325.419,114.900 325.129 C 115.795 324.183,117.200 321.148,117.200 320.162 C 117.200 319.633,117.391 319.200,117.625 319.200 C 117.859 319.200,118.018 318.885,117.979 318.500 C 117.752 316.266,118.035 314.400,118.600 314.400 C 119.033 314.400,119.200 313.956,119.200 312.800 C 119.200 311.644,119.033 311.200,118.600 311.200 C 118.063 311.200,117.703 309.244,117.979 307.822 C 118.019 307.614,117.836 306.984,117.572 306.422 C 117.309 305.860,116.913 304.950,116.693 304.400 C 116.014 302.703,115.411 301.409,115.200 301.200 C 115.089 301.090,114.729 300.460,114.400 299.800 C 114.071 299.140,113.703 298.510,113.584 298.400 C 113.464 298.290,113.063 297.570,112.692 296.800 L 112.018 295.400 112.009 298.876 C 112.004 300.788,111.820 302.464,111.600 302.600 C 111.380 302.736,111.200 303.276,111.200 303.800 C 111.200 304.324,111.020 304.864,110.800 305.000 C 110.580 305.136,110.400 305.519,110.400 305.852 C 110.400 307.290,106.723 311.692,104.351 313.093 C 103.718 313.467,103.200 313.914,103.200 314.086 C 103.200 314.259,102.928 314.400,102.595 314.400 C 102.262 314.400,101.677 314.559,101.295 314.753 C 99.794 315.517,98.540 315.956,97.200 316.187 C 96.430 316.320,95.283 316.536,94.652 316.667 C 92.671 317.078,84.400 314.847,84.400 313.902 C 84.400 313.736,84.222 313.600,84.005 313.600 C 83.595 313.600,82.699 312.921,80.838 311.200 C 79.407 309.876,77.200 306.618,77.200 305.828 C 77.200 305.483,77.020 305.200,76.800 305.200 C 76.580 305.200,76.400 304.696,76.400 304.080 C 76.400 303.464,76.228 302.788,76.018 302.578 C 75.808 302.368,75.583 300.706,75.518 298.886 C 75.402 295.638,75.390 295.601,74.832 296.888 M218.402 298.372 C 218.400 301.885,217.174 305.955,215.400 308.338 C 214.049 310.154,211.407 312.800,210.945 312.800 C 210.645 312.800,210.400 312.952,210.400 313.137 C 210.400 313.437,207.977 314.747,205.800 315.623 C 202.901 316.791,197.148 316.788,194.200 315.619 C 192.084 314.779,189.600 313.439,189.600 313.137 C 189.600 312.952,189.355 312.800,189.055 312.800 C 188.597 312.800,186.090 310.296,184.587 308.338 C 183.086 306.382,181.969 302.903,181.655 299.200 L 181.400 296.200 180.200 298.499 C 179.540 299.764,178.865 300.799,178.700 300.799 C 178.535 300.800,178.400 301.065,178.400 301.388 C 178.400 301.711,178.040 302.617,177.600 303.400 C 177.160 304.183,176.800 305.168,176.800 305.589 C 176.800 306.009,176.620 306.464,176.400 306.600 C 176.180 306.736,176.000 307.634,176.000 308.595 C 176.000 309.615,175.750 310.593,175.400 310.943 C 175.070 311.273,174.800 311.926,174.800 312.395 C 174.800 312.864,174.620 313.136,174.400 313.000 C 174.180 312.864,174.000 313.123,174.000 313.576 C 174.000 314.029,174.167 314.400,174.371 314.400 C 175.269 314.400,176.000 315.749,176.000 317.405 C 176.000 318.366,176.180 319.264,176.400 319.400 C 176.620 319.536,176.800 319.950,176.800 320.320 C 176.800 325.106,187.065 335.242,192.493 335.817 C 192.874 335.857,193.414 336.078,193.693 336.307 C 193.972 336.536,194.743 336.677,195.407 336.619 C 197.111 336.470,198.781 337.114,197.990 337.614 C 197.590 337.868,198.235 337.988,200.000 337.988 C 201.752 337.988,202.409 337.867,202.014 337.617 C 201.143 337.066,203.452 336.283,205.059 336.585 C 205.766 336.717,206.386 336.646,206.463 336.423 C 206.538 336.203,206.960 335.964,207.400 335.892 C 207.840 335.820,208.581 335.551,209.047 335.295 C 209.513 335.038,210.022 334.955,210.177 335.111 C 210.333 335.266,210.631 335.087,210.841 334.713 C 211.051 334.337,211.484 334.134,211.811 334.259 C 212.135 334.384,212.400 334.325,212.400 334.129 C 212.400 333.933,212.985 333.433,213.700 333.018 C 215.425 332.016,220.800 326.532,220.800 325.773 C 220.800 325.444,221.073 325.070,221.407 324.942 C 221.741 324.814,221.982 324.504,221.943 324.254 C 221.835 323.564,222.730 321.600,223.153 321.600 C 223.358 321.600,223.438 321.267,223.331 320.860 C 223.225 320.452,223.377 319.867,223.669 319.560 C 223.970 319.243,224.209 318.058,224.221 316.826 C 224.234 315.511,224.431 314.590,224.721 314.493 C 225.404 314.265,225.315 311.657,224.600 310.943 C 224.250 310.593,224.000 309.615,224.000 308.595 C 224.000 307.634,223.820 306.736,223.600 306.600 C 223.380 306.464,223.200 306.001,223.200 305.571 C 223.200 304.829,223.038 304.414,221.927 302.300 C 221.666 301.805,220.767 300.050,219.929 298.400 L 218.403 295.400 218.402 298.372 M286.823 297.739 C 286.285 298.873,285.721 299.890,285.569 300.000 C 285.072 300.360,283.600 303.210,283.600 303.812 C 283.600 304.135,283.390 304.400,283.133 304.400 C 282.877 304.400,282.775 304.509,282.908 304.641 C 283.040 304.774,282.954 305.359,282.716 305.941 C 282.313 306.926,282.228 307.447,282.062 309.943 C 282.021 310.574,281.814 310.814,281.438 310.670 C 281.017 310.508,280.836 310.924,280.715 312.327 C 280.518 314.608,280.759 315.914,281.234 315.145 C 281.752 314.307,282.046 314.970,282.125 317.159 C 282.166 318.281,282.335 319.200,282.500 319.200 C 282.665 319.200,282.800 319.740,282.800 320.400 C 282.800 321.060,282.980 321.600,283.200 321.600 C 283.420 321.600,283.600 321.849,283.600 322.154 C 283.600 322.745,284.143 323.859,285.377 325.800 C 286.519 327.596,292.297 333.200,293.007 333.200 C 293.347 333.200,293.728 333.469,293.854 333.798 C 293.981 334.126,294.230 334.305,294.410 334.194 C 294.589 334.083,295.010 334.268,295.346 334.603 C 295.682 334.939,296.102 335.170,296.279 335.115 C 296.455 335.061,297.410 335.362,298.400 335.785 C 300.107 336.514,300.630 336.615,303.343 336.745 C 304.183 336.785,304.425 336.959,304.255 337.400 C 304.065 337.896,304.458 337.995,306.513 337.968 C 307.881 337.951,308.774 337.846,308.498 337.734 C 307.500 337.332,308.486 336.800,310.229 336.800 C 311.209 336.800,312.323 336.641,312.705 336.447 C 314.216 335.678,315.462 335.148,316.017 335.037 C 317.355 334.770,318.533 334.100,321.360 332.000 C 322.925 330.837,326.800 326.631,327.052 325.820 C 327.193 325.369,327.419 324.910,327.554 324.800 C 328.154 324.313,329.600 321.034,329.600 320.162 C 329.600 319.633,329.780 319.200,330.000 319.200 C 330.220 319.200,330.400 318.405,330.400 317.433 C 330.400 315.512,330.722 314.305,331.162 314.576 C 331.748 314.938,331.610 311.953,331.014 311.356 C 330.630 310.973,330.400 310.012,330.400 308.795 C 330.400 307.724,330.220 306.736,330.000 306.600 C 329.780 306.464,329.600 305.913,329.600 305.376 C 329.600 304.839,329.420 304.400,329.200 304.400 C 328.980 304.400,328.800 303.950,328.800 303.400 C 328.800 302.850,328.641 302.400,328.447 302.400 C 328.252 302.400,327.993 302.085,327.871 301.700 C 327.643 300.982,326.371 298.758,325.983 298.400 C 325.864 298.290,325.463 297.570,325.092 296.800 L 324.418 295.400 324.409 298.572 C 324.392 304.525,321.994 309.223,316.984 313.121 C 315.924 313.946,314.665 314.601,312.200 315.609 C 310.045 316.491,305.661 316.775,302.800 316.218 C 301.493 315.964,301.014 315.794,298.400 314.659 C 295.594 313.440,291.200 309.715,291.200 308.555 C 291.200 308.286,291.065 308.007,290.900 307.933 C 290.427 307.723,288.800 304.398,288.800 303.642 C 288.800 303.267,288.628 302.788,288.418 302.578 C 288.208 302.368,287.983 300.729,287.918 298.937 L 287.800 295.678 286.823 297.739 M175.079 305.757 C 174.915 306.174,174.875 306.609,174.991 306.724 C 175.355 307.089,175.676 306.491,175.524 305.731 C 175.383 305.035,175.362 305.036,175.079 305.757 M223.300 323.493 C 222.588 325.011,222.684 325.633,223.413 324.233 C 223.748 323.591,223.972 322.922,223.911 322.746 C 223.850 322.570,223.575 322.906,223.300 323.493 M145.443 331.433 C 145.059 332.433,145.182 332.658,145.723 331.947 C 145.996 331.587,146.575 331.203,147.010 331.093 C 147.628 330.937,147.569 330.883,146.743 330.846 C 146.115 330.819,145.587 331.057,145.443 331.433 M144.028 334.300 C 144.053 335.275,144.095 335.309,144.400 334.600 C 144.869 333.507,144.869 333.200,144.400 333.200 C 144.180 333.200,144.013 333.695,144.028 334.300 M255.200 333.440 C 255.200 333.884,257.797 337.977,258.087 337.989 C 258.432 338.002,256.759 335.056,256.313 334.867 C 256.141 334.793,256.000 334.388,256.000 333.967 C 256.000 333.545,255.820 333.200,255.600 333.200 C 255.380 333.200,255.200 333.308,255.200 333.440 M152.400 339.047 C 152.400 339.267,152.664 339.796,152.987 340.224 C 153.310 340.651,153.575 340.820,153.575 340.600 C 153.575 340.380,153.310 339.851,152.987 339.424 C 152.664 338.996,152.400 338.827,152.400 339.047 M247.158 339.500 C 246.226 340.651,245.131 342.800,245.477 342.797 C 245.655 342.795,246.275 341.895,246.857 340.797 C 247.990 338.655,248.050 338.397,247.158 339.500 M155.679 344.772 C 156.175 345.700,156.657 346.230,156.750 345.950 C 156.844 345.669,156.713 345.371,156.460 345.287 C 156.207 345.202,156.000 344.900,156.000 344.616 C 156.000 344.331,155.725 343.870,155.389 343.591 C 154.992 343.262,155.094 343.675,155.679 344.772 M244.327 344.200 C 244.077 344.750,243.720 345.200,243.536 345.200 C 243.351 345.200,243.200 345.391,243.200 345.624 C 243.200 345.857,243.381 345.935,243.603 345.798 C 244.079 345.504,245.320 343.200,245.002 343.200 C 244.881 343.200,244.578 343.650,244.327 344.200 M261.522 343.811 C 261.379 344.037,261.604 344.667,262.022 345.211 C 262.639 346.014,262.784 346.068,262.791 345.500 C 262.796 345.115,262.633 344.800,262.429 344.800 C 262.225 344.800,261.996 344.485,261.920 344.100 C 261.841 343.704,261.669 343.579,261.522 343.811 M157.212 347.200 C 157.218 347.863,158.778 350.040,158.788 349.400 C 158.792 349.180,158.437 348.460,158.000 347.800 C 157.563 347.140,157.208 346.870,157.212 347.200 M135.454 348.573 C 134.519 350.000,134.646 350.304,135.646 349.033 C 136.111 348.442,136.405 347.872,136.300 347.766 C 136.195 347.661,135.814 348.024,135.454 348.573 M131.600 355.112 C 131.600 355.503,131.240 356.083,130.800 356.400 C 130.360 356.717,130.000 357.297,130.000 357.688 C 130.000 358.080,129.820 358.400,129.600 358.400 C 129.380 358.400,129.200 358.648,129.200 358.951 C 129.200 359.254,128.928 359.728,128.595 360.004 C 127.873 360.603,125.867 364.747,125.198 367.020 C 124.173 370.505,124.819 379.844,126.281 382.671 C 128.597 387.150,132.381 390.911,135.100 391.437 C 135.815 391.576,136.400 391.849,136.400 392.045 C 136.400 392.240,136.760 392.400,137.200 392.400 C 137.640 392.400,138.000 392.580,138.000 392.800 C 138.000 393.020,138.540 393.200,139.200 393.200 C 139.860 393.200,140.400 393.380,140.400 393.600 C 140.400 393.851,142.867 394.000,147.000 394.000 C 151.133 394.000,153.600 393.851,153.600 393.600 C 153.600 393.380,154.140 393.200,154.800 393.200 C 155.460 393.200,156.000 393.020,156.000 392.800 C 156.000 392.580,156.360 392.400,156.800 392.400 C 157.240 392.400,157.600 392.234,157.600 392.032 C 157.600 391.829,158.125 391.548,158.766 391.407 C 159.408 391.267,160.471 390.636,161.130 390.006 C 161.789 389.377,162.405 388.938,162.499 389.032 C 162.711 389.244,165.200 386.541,165.200 386.099 C 165.200 385.922,165.560 385.517,166.000 385.200 C 166.440 384.883,166.800 384.303,166.800 383.912 C 166.800 383.520,166.980 383.200,167.200 383.200 C 167.420 383.200,167.600 382.840,167.600 382.400 C 167.600 381.960,167.780 381.600,168.000 381.600 C 168.220 381.600,168.400 381.060,168.400 380.400 C 168.400 379.740,168.580 379.200,168.800 379.200 C 169.048 379.200,169.200 377.000,169.200 373.400 C 169.200 369.800,169.048 367.600,168.800 367.600 C 168.580 367.600,168.400 367.060,168.400 366.400 C 168.400 365.740,168.220 365.200,168.000 365.200 C 167.780 365.200,167.600 364.840,167.600 364.400 C 167.600 363.960,167.420 363.600,167.200 363.600 C 166.980 363.600,166.800 363.240,166.800 362.800 C 166.800 362.360,166.620 362.000,166.400 362.000 C 166.180 362.000,166.000 361.758,166.000 361.462 C 166.000 361.166,165.640 360.598,165.200 360.200 C 164.760 359.802,164.400 359.234,164.400 358.938 C 164.400 358.642,164.220 358.400,164.000 358.400 C 163.780 358.400,163.600 358.080,163.600 357.688 C 163.600 357.297,163.240 356.717,162.800 356.400 C 162.360 356.083,162.000 355.503,162.000 355.112 C 162.000 354.720,161.841 354.400,161.647 354.400 C 161.148 354.400,160.799 355.952,161.238 356.223 C 161.437 356.346,161.600 356.968,161.600 357.605 C 161.600 358.241,161.809 359.221,162.064 359.781 C 164.076 364.196,156.536 374.800,151.386 374.800 C 150.870 374.800,150.336 374.980,150.200 375.200 C 150.064 375.420,148.534 375.600,146.800 375.600 C 145.066 375.600,143.536 375.420,143.400 375.200 C 143.264 374.980,142.623 374.800,141.976 374.800 C 141.329 374.800,140.800 374.620,140.800 374.400 C 140.800 374.180,140.440 374.000,140.000 374.000 C 139.560 374.000,139.200 373.820,139.200 373.600 C 139.200 373.380,138.937 373.200,138.616 373.200 C 137.693 373.200,134.286 369.580,133.345 367.600 C 131.523 363.765,131.273 361.696,132.200 358.135 C 132.792 355.864,132.703 354.400,131.973 354.400 C 131.768 354.400,131.600 354.720,131.600 355.112 M238.000 355.112 C 238.000 355.503,237.640 356.083,237.200 356.400 C 236.760 356.717,236.400 357.297,236.400 357.688 C 236.400 358.080,236.220 358.400,236.000 358.400 C 235.780 358.400,235.600 358.642,235.600 358.938 C 235.600 359.234,235.240 359.802,234.800 360.200 C 234.360 360.598,234.000 361.166,234.000 361.462 C 234.000 361.758,233.820 362.000,233.600 362.000 C 233.380 362.000,233.200 362.360,233.200 362.800 C 233.200 363.240,233.020 363.600,232.800 363.600 C 232.580 363.600,232.400 363.960,232.400 364.400 C 232.400 364.840,232.220 365.200,232.000 365.200 C 231.780 365.200,231.600 365.740,231.600 366.400 C 231.600 367.060,231.420 367.600,231.200 367.600 C 230.952 367.600,230.800 369.800,230.800 373.400 C 230.800 377.000,230.952 379.200,231.200 379.200 C 231.420 379.200,231.600 379.740,231.600 380.400 C 231.600 381.060,231.780 381.600,232.000 381.600 C 232.220 381.600,232.400 381.960,232.400 382.400 C 232.400 382.840,232.580 383.200,232.800 383.200 C 233.020 383.200,233.200 383.467,233.200 383.793 C 233.200 385.313,239.184 390.946,241.300 391.418 C 241.905 391.553,242.400 391.829,242.400 392.032 C 242.400 392.234,242.760 392.400,243.200 392.400 C 243.640 392.400,244.000 392.580,244.000 392.800 C 244.000 393.020,244.540 393.200,245.200 393.200 C 245.860 393.200,246.400 393.380,246.400 393.600 C 246.400 393.851,248.867 394.000,253.000 394.000 C 257.133 394.000,259.600 393.851,259.600 393.600 C 259.600 393.380,260.140 393.200,260.800 393.200 C 261.460 393.200,262.000 393.020,262.000 392.800 C 262.000 392.580,262.360 392.400,262.800 392.400 C 263.240 392.400,263.600 392.240,263.600 392.045 C 263.600 391.849,264.185 391.576,264.900 391.437 C 267.194 390.993,273.168 385.420,273.193 383.700 C 273.197 383.425,273.380 383.200,273.600 383.200 C 273.820 383.200,274.000 382.876,274.000 382.480 C 274.000 382.084,274.225 381.535,274.500 381.260 C 274.862 380.898,275.000 378.811,275.000 373.680 L 275.000 366.600 273.482 363.534 C 272.647 361.848,271.702 360.251,271.382 359.985 C 271.062 359.719,270.800 359.254,270.800 358.951 C 270.800 358.648,270.620 358.400,270.400 358.400 C 270.180 358.400,270.000 358.080,270.000 357.688 C 270.000 357.297,269.640 356.717,269.200 356.400 C 268.760 356.083,268.400 355.503,268.400 355.112 C 268.400 354.720,268.239 354.400,268.043 354.400 C 267.292 354.400,267.240 355.724,267.887 358.418 C 268.648 361.589,268.257 364.727,266.719 367.778 C 265.807 369.589,262.241 373.200,261.366 373.200 C 261.055 373.200,260.800 373.380,260.800 373.600 C 260.800 373.820,260.440 374.000,260.000 374.000 C 259.560 374.000,259.200 374.180,259.200 374.400 C 259.200 374.620,258.671 374.800,258.024 374.800 C 257.377 374.800,256.736 374.980,256.600 375.200 C 256.464 375.420,254.934 375.600,253.200 375.600 C 251.466 375.600,249.936 375.420,249.800 375.200 C 249.664 374.980,249.130 374.800,248.614 374.800 C 246.046 374.800,240.822 370.479,239.185 367.000 C 238.142 364.785,237.780 357.260,238.673 356.367 C 239.153 355.887,238.911 354.400,238.353 354.400 C 238.159 354.400,238.000 354.720,238.000 355.112 " stroke="none" fill="#268cc4" fill-rule="evenodd"></path><path id="path3" d="M103.800 56.400 C 103.664 56.620,102.663 56.800,101.576 56.800 C 100.489 56.800,99.600 56.959,99.600 57.153 C 99.600 57.347,98.852 57.516,97.939 57.529 C 97.025 57.541,96.170 57.722,96.039 57.930 C 95.907 58.138,94.900 58.414,93.800 58.543 C 90.861 58.888,90.859 58.889,91.075 59.452 C 91.219 59.827,90.931 59.928,90.037 59.815 C 89.357 59.729,88.799 59.780,88.797 59.929 C 88.793 60.376,86.358 61.621,85.965 61.378 C 85.764 61.254,85.600 61.354,85.600 61.600 C 85.600 61.846,85.440 61.949,85.245 61.828 C 85.050 61.707,84.668 61.877,84.396 62.204 C 84.124 62.532,83.575 62.800,83.175 62.800 C 82.775 62.800,82.336 62.980,82.200 63.200 C 82.064 63.420,81.680 63.600,81.346 63.600 C 81.012 63.600,80.198 64.140,79.538 64.800 C 78.878 65.460,77.982 66.000,77.546 66.000 C 77.110 66.000,76.864 66.180,77.000 66.400 C 77.136 66.620,76.956 66.800,76.600 66.800 C 76.244 66.800,76.064 66.980,76.200 67.200 C 76.417 67.551,76.164 67.664,75.370 67.574 C 75.243 67.559,74.807 67.931,74.400 68.400 C 73.993 68.869,73.557 69.241,73.430 69.226 C 73.304 69.212,73.245 69.258,73.300 69.329 C 73.474 69.553,72.075 70.800,71.649 70.800 C 71.424 70.800,70.059 71.970,68.615 73.400 C 67.171 74.830,65.833 76.000,65.643 76.000 C 65.453 76.000,65.068 76.552,64.789 77.227 C 64.420 78.118,64.189 78.310,63.946 77.927 C 63.604 77.386,63.422 77.927,63.563 79.070 C 63.595 79.328,63.269 79.651,62.838 79.788 C 62.398 79.927,61.944 80.546,61.800 81.200 C 61.658 81.847,61.202 82.473,60.772 82.609 C 60.347 82.744,60.000 83.093,60.000 83.384 C 60.000 83.676,59.711 84.025,59.358 84.161 C 58.999 84.299,58.816 84.664,58.942 84.992 C 59.071 85.329,58.795 85.838,58.294 86.189 C 57.815 86.525,57.562 86.800,57.734 86.800 C 57.905 86.800,57.787 87.295,57.471 87.900 C 57.156 88.505,56.651 89.540,56.349 90.200 C 56.047 90.860,55.573 91.640,55.296 91.932 C 55.019 92.225,54.902 92.642,55.036 92.859 C 55.170 93.076,54.963 93.485,54.575 93.769 C 54.138 94.088,53.969 94.542,54.130 94.963 C 54.285 95.365,54.229 95.542,53.995 95.397 C 53.778 95.263,53.600 95.526,53.600 95.982 C 53.600 96.868,52.858 98.410,52.200 98.894 C 51.963 99.068,52.036 99.190,52.380 99.194 C 52.831 99.199,52.853 99.307,52.480 99.680 C 52.216 99.944,52.000 100.574,52.000 101.080 C 52.000 101.586,51.850 102.000,51.667 102.000 C 51.323 102.000,51.300 102.107,51.161 104.286 C 51.116 104.994,50.926 105.478,50.740 105.363 C 50.553 105.247,50.400 105.806,50.400 106.605 C 50.400 108.127,49.542 109.382,48.696 109.097 C 48.423 109.004,47.660 109.147,47.000 109.413 C 46.340 109.678,45.550 109.806,45.244 109.696 C 44.939 109.586,44.798 109.673,44.932 109.890 C 45.224 110.362,43.520 111.200,42.269 111.200 C 41.778 111.200,41.117 111.560,40.800 112.000 C 40.483 112.440,39.813 112.800,39.312 112.800 C 38.810 112.800,38.400 112.980,38.400 113.200 C 38.400 113.420,38.145 113.600,37.833 113.600 C 37.522 113.600,37.207 113.766,37.133 113.970 C 37.060 114.173,36.737 114.398,36.416 114.470 C 36.094 114.541,35.644 114.746,35.416 114.924 C 35.187 115.102,34.460 115.594,33.800 116.018 C 33.140 116.442,32.251 117.016,31.825 117.294 C 31.399 117.572,30.617 118.295,30.088 118.901 C 29.560 119.507,28.959 119.898,28.754 119.771 C 28.548 119.644,28.430 119.771,28.490 120.052 C 28.551 120.333,28.420 120.573,28.200 120.585 C 27.750 120.608,25.673 122.000,26.087 122.000 C 26.233 122.000,25.418 122.956,24.276 124.124 C 23.134 125.292,22.065 126.181,21.900 126.100 C 21.735 126.019,21.600 126.214,21.600 126.534 C 21.600 126.853,21.304 127.228,20.943 127.367 C 20.581 127.505,20.389 127.723,20.516 127.849 C 20.643 127.976,19.681 129.187,18.379 130.540 C 17.077 131.893,16.009 133.210,16.006 133.467 C 16.003 133.723,15.775 134.024,15.500 134.135 C 15.112 134.292,15.116 134.344,15.518 134.368 C 15.826 134.387,15.619 134.817,15.011 135.426 C 14.446 135.990,14.089 136.620,14.216 136.826 C 14.343 137.032,14.257 137.200,14.024 137.200 C 13.791 137.200,13.600 137.560,13.600 138.000 C 13.600 138.440,13.420 138.800,13.200 138.800 C 12.980 138.800,12.800 139.160,12.800 139.600 C 12.800 140.040,12.620 140.400,12.400 140.400 C 12.180 140.400,12.000 140.760,12.000 141.200 C 12.000 141.640,11.820 142.000,11.600 142.000 C 11.380 142.000,11.200 142.270,11.200 142.600 C 11.200 142.930,11.020 143.200,10.800 143.200 C 10.580 143.200,10.400 143.661,10.400 144.224 C 10.400 144.805,10.227 145.140,9.999 145.000 C 9.749 144.845,9.667 145.285,9.781 146.176 C 9.920 147.264,9.820 147.600,9.355 147.600 C 8.923 147.600,8.822 147.839,9.006 148.419 C 9.149 148.870,9.071 149.473,8.833 149.760 C 8.596 150.046,8.361 150.758,8.313 151.340 C 8.265 151.923,8.085 152.400,7.913 152.400 C 7.741 152.400,7.600 152.839,7.600 153.376 C 7.600 153.913,7.420 154.464,7.200 154.600 C 6.980 154.736,6.800 155.996,6.800 157.400 C 6.800 158.804,6.620 160.064,6.400 160.200 C 5.837 160.548,5.862 176.268,6.426 176.616 C 6.660 176.761,6.821 177.356,6.784 177.940 C 6.506 182.241,7.582 181.819,9.181 177.000 C 15.274 158.640,30.956 141.958,49.144 134.488 C 51.742 133.421,51.758 133.429,52.603 136.301 C 53.391 138.976,53.464 139.174,55.231 143.400 C 56.779 147.102,59.179 151.438,61.077 153.958 L 62.400 155.715 62.400 148.724 C 62.400 144.879,62.567 140.758,62.771 139.567 C 62.975 138.375,63.353 136.140,63.610 134.600 C 64.404 129.855,66.243 123.031,67.626 119.700 C 67.832 119.205,68.155 118.395,68.345 117.900 C 79.589 88.561,116.854 69.067,151.993 74.142 C 156.988 74.863,156.997 74.859,154.759 72.786 C 149.053 67.501,137.169 60.400,134.030 60.400 C 133.567 60.400,132.877 60.242,132.495 60.049 C 131.367 59.480,129.004 58.800,128.152 58.800 C 127.716 58.800,127.189 58.638,126.980 58.441 C 126.580 58.063,124.520 57.703,120.720 57.345 C 119.467 57.227,118.229 56.877,117.971 56.565 C 117.401 55.879,104.217 55.725,103.800 56.400 M196.000 94.024 C 168.408 96.024,145.742 118.487,144.159 145.400 L 143.923 149.400 145.797 146.600 C 149.208 141.502,150.905 139.442,155.187 135.200 C 160.076 130.356,159.948 130.462,164.835 127.177 C 175.441 120.045,187.413 116.364,200.000 116.364 C 220.994 116.364,238.670 125.775,253.036 144.600 C 253.372 145.040,254.119 146.263,254.697 147.319 C 257.875 153.123,255.694 138.088,252.010 128.800 C 244.426 109.677,225.275 95.516,205.200 94.187 C 203.330 94.063,201.350 93.914,200.800 93.855 C 200.250 93.796,198.090 93.872,196.000 94.024 " stroke="none" fill="#bbfbfb" fill-rule="evenodd"></path><path id="path4" d="M322.930 291.800 C 323.027 292.460,323.333 294.357,323.612 296.016 C 325.709 308.523,312.795 319.044,300.627 314.742 C 291.581 311.544,287.690 304.170,289.314 293.300 C 289.520 291.918,289.486 291.200,289.214 291.200 C 288.986 291.200,288.800 291.470,288.800 291.800 C 288.800 292.130,288.654 292.400,288.475 292.400 C 288.296 292.400,287.902 293.030,287.600 293.800 C 287.298 294.570,286.948 295.200,286.823 295.200 C 286.698 295.200,286.342 295.785,286.032 296.500 C 285.723 297.215,284.999 298.520,284.423 299.400 C 283.847 300.280,283.132 301.540,282.834 302.200 C 282.537 302.860,282.113 303.793,281.893 304.274 C 281.673 304.754,281.590 305.519,281.709 305.974 C 281.852 306.520,281.734 306.800,281.363 306.800 C 280.681 306.800,280.560 310.204,281.227 310.616 C 281.862 311.009,282.038 310.663,282.182 308.741 C 282.254 307.783,282.500 306.524,282.731 305.941 C 282.961 305.359,283.040 304.774,282.908 304.641 C 282.775 304.509,282.877 304.400,283.133 304.400 C 283.390 304.400,283.600 304.135,283.600 303.812 C 283.600 303.217,285.066 300.368,285.562 300.000 C 285.710 299.890,286.317 298.810,286.910 297.600 L 287.990 295.400 287.995 298.876 C 287.998 300.788,288.180 302.464,288.400 302.600 C 288.620 302.736,288.800 303.180,288.800 303.586 C 288.800 304.384,290.409 307.715,290.900 307.933 C 291.065 308.007,291.200 308.286,291.200 308.555 C 291.200 310.587,298.441 315.370,302.800 316.218 C 305.661 316.775,310.045 316.491,312.200 315.609 C 314.665 314.601,315.924 313.946,316.984 313.121 C 321.994 309.223,324.392 304.525,324.409 298.572 L 324.418 295.400 325.092 296.800 C 325.463 297.570,325.864 298.290,325.983 298.400 C 326.371 298.758,327.643 300.982,327.871 301.700 C 327.993 302.085,328.252 302.400,328.447 302.400 C 328.641 302.400,328.800 302.850,328.800 303.400 C 328.800 303.950,328.980 304.400,329.200 304.400 C 329.420 304.400,329.600 304.839,329.600 305.376 C 329.600 305.913,329.780 306.464,330.000 306.600 C 330.220 306.736,330.400 307.632,330.400 308.591 C 330.400 310.525,330.701 311.600,331.243 311.600 C 331.439 311.600,331.600 310.520,331.600 309.200 C 331.600 307.867,331.422 306.800,331.200 306.800 C 330.980 306.800,330.800 306.170,330.800 305.400 C 330.800 304.630,330.620 304.000,330.400 304.000 C 330.180 304.000,330.000 303.550,330.000 303.000 C 330.000 302.450,329.862 302.000,329.694 302.000 C 329.526 302.000,329.087 301.304,328.718 300.453 C 328.350 299.601,327.804 298.656,327.507 298.353 C 327.209 298.049,326.380 296.579,325.665 295.088 C 324.860 293.410,324.194 292.480,323.920 292.649 C 323.675 292.801,323.588 292.743,323.725 292.521 C 323.862 292.299,323.700 291.776,323.364 291.359 C 322.788 290.643,322.764 290.668,322.930 291.800 M76.200 291.600 C 76.064 291.820,76.060 292.000,76.192 292.000 C 76.324 292.000,76.064 292.394,75.616 292.875 C 75.167 293.357,74.800 294.077,74.800 294.475 C 74.800 294.874,74.664 295.200,74.498 295.200 C 74.331 295.200,73.941 295.785,73.630 296.500 C 73.319 297.215,72.960 297.890,72.832 298.000 C 72.446 298.333,71.166 300.553,70.929 301.300 C 70.807 301.685,70.548 302.000,70.353 302.000 C 70.159 302.000,70.000 302.540,70.000 303.200 C 70.000 303.860,69.820 304.400,69.600 304.400 C 69.380 304.400,69.200 304.940,69.200 305.600 C 69.200 306.260,69.011 306.800,68.779 306.800 C 68.238 306.800,68.452 310.775,69.000 310.905 C 69.220 310.957,69.449 310.190,69.510 309.200 C 69.570 308.210,69.771 307.040,69.956 306.600 C 70.141 306.160,70.471 305.350,70.690 304.800 C 71.482 302.803,73.545 298.835,74.017 298.400 C 74.136 298.290,74.537 297.570,74.908 296.800 L 75.582 295.400 75.591 298.876 C 75.596 300.788,75.780 302.464,76.000 302.600 C 76.220 302.736,76.400 303.377,76.400 304.024 C 76.400 304.671,76.580 305.200,76.800 305.200 C 77.020 305.200,77.200 305.483,77.200 305.828 C 77.200 306.618,79.407 309.876,80.838 311.200 C 82.699 312.921,83.595 313.600,84.005 313.600 C 84.222 313.600,84.400 313.736,84.400 313.902 C 84.400 314.874,92.677 317.072,94.752 316.652 C 95.438 316.514,96.585 316.298,97.300 316.173 C 98.551 315.954,99.823 315.502,101.295 314.753 C 101.677 314.559,102.262 314.400,102.595 314.400 C 102.928 314.400,103.200 314.259,103.200 314.086 C 103.200 313.914,103.718 313.467,104.351 313.093 C 106.723 311.692,110.400 307.290,110.400 305.852 C 110.400 305.519,110.580 305.136,110.800 305.000 C 111.020 304.864,111.200 304.324,111.200 303.800 C 111.200 303.276,111.380 302.736,111.600 302.600 C 111.820 302.464,112.004 300.788,112.009 298.876 L 112.018 295.400 112.692 296.800 C 113.063 297.570,113.464 298.290,113.584 298.400 C 113.703 298.510,114.071 299.140,114.400 299.800 C 114.729 300.460,115.089 301.090,115.200 301.200 C 115.406 301.405,115.941 302.547,116.746 304.500 C 116.996 305.105,117.392 306.015,117.626 306.522 C 117.860 307.029,118.019 307.614,117.979 307.822 C 117.703 309.244,118.063 311.200,118.600 311.200 C 119.301 311.200,119.481 307.421,118.800 307.000 C 118.580 306.864,118.400 306.234,118.400 305.600 C 118.400 304.966,118.220 304.336,118.000 304.200 C 117.780 304.064,117.600 303.513,117.600 302.976 C 117.600 302.439,117.420 302.000,117.200 302.000 C 116.980 302.000,116.800 301.629,116.800 301.176 C 116.800 300.723,116.620 300.464,116.400 300.600 C 116.180 300.736,116.000 300.477,116.000 300.024 C 116.000 299.571,115.820 299.200,115.600 299.200 C 115.380 299.200,115.200 298.930,115.200 298.600 C 115.200 298.270,115.020 298.000,114.800 298.000 C 114.580 298.000,114.400 297.640,114.400 297.200 C 114.400 296.760,114.220 296.400,114.000 296.400 C 113.780 296.400,113.600 296.130,113.600 295.800 C 113.600 295.470,113.465 295.197,113.300 295.194 C 113.135 295.190,112.560 294.290,112.021 293.194 C 110.366 289.821,110.102 290.395,111.006 295.400 C 112.937 306.087,104.835 315.600,93.800 315.600 C 82.606 315.600,74.340 305.780,76.558 295.117 C 77.359 291.271,77.224 289.944,76.200 291.600 M182.400 291.607 C 182.400 291.831,181.680 293.200,180.800 294.648 C 179.920 296.097,179.200 297.443,179.200 297.641 C 179.200 297.838,179.059 298.000,178.888 298.000 C 178.716 298.000,178.352 298.495,178.080 299.100 C 177.807 299.705,177.295 300.721,176.942 301.359 C 176.589 301.996,176.300 302.941,176.300 303.459 C 176.300 303.976,176.143 304.400,175.950 304.400 C 175.758 304.400,175.600 304.940,175.600 305.600 C 175.600 306.260,175.420 306.800,175.200 306.800 C 174.980 306.800,174.800 307.790,174.800 309.000 C 174.800 310.210,174.961 311.200,175.157 311.200 C 175.682 311.200,176.000 310.141,176.000 308.391 C 176.000 307.542,176.180 306.736,176.400 306.600 C 176.620 306.464,176.800 306.009,176.800 305.589 C 176.800 305.168,177.160 304.183,177.600 303.400 C 178.040 302.617,178.400 301.711,178.400 301.388 C 178.400 301.065,178.535 300.800,178.700 300.799 C 178.865 300.799,179.540 299.764,180.200 298.499 L 181.400 296.200 181.655 299.200 C 181.969 302.903,183.086 306.382,184.587 308.338 C 186.090 310.296,188.597 312.800,189.055 312.800 C 189.355 312.800,189.600 312.952,189.600 313.137 C 189.600 313.439,192.084 314.779,194.200 315.619 C 197.148 316.788,202.901 316.791,205.800 315.623 C 207.977 314.747,210.400 313.437,210.400 313.137 C 210.400 312.952,210.645 312.800,210.945 312.800 C 211.407 312.800,214.049 310.154,215.400 308.338 C 217.174 305.955,218.400 301.885,218.402 298.372 L 218.403 295.400 219.929 298.400 C 220.767 300.050,221.666 301.805,221.927 302.300 C 223.038 304.414,223.200 304.829,223.200 305.571 C 223.200 306.001,223.380 306.464,223.600 306.600 C 223.820 306.736,224.000 307.542,224.000 308.391 C 224.000 310.141,224.318 311.200,224.843 311.200 C 225.260 311.200,225.333 307.066,224.923 306.656 C 224.771 306.504,224.589 305.979,224.518 305.490 C 224.448 305.000,224.276 304.330,224.135 304.000 C 223.994 303.670,223.826 303.133,223.761 302.807 C 223.697 302.481,223.454 302.151,223.222 302.074 C 222.990 301.997,222.800 301.693,222.800 301.399 C 222.800 300.777,221.625 298.483,220.901 297.690 C 220.626 297.390,220.291 296.707,220.157 296.172 C 220.023 295.637,219.753 295.200,219.557 295.200 C 219.360 295.200,219.200 294.829,219.200 294.376 C 219.200 293.923,219.050 293.645,218.868 293.758 C 218.685 293.871,218.291 293.342,217.993 292.582 C 217.160 290.460,216.702 290.916,217.071 293.500 C 218.119 300.829,216.957 305.755,213.245 309.725 C 201.577 322.203,181.115 313.588,182.567 296.808 C 182.710 295.153,182.931 293.215,183.058 292.500 C 183.205 291.675,183.127 291.200,182.845 291.200 C 182.600 291.200,182.400 291.383,182.400 291.607 M330.814 314.774 C 330.586 315.199,330.400 316.369,330.400 317.374 C 330.400 318.378,330.220 319.200,330.000 319.200 C 329.780 319.200,329.600 319.633,329.600 320.162 C 329.600 321.034,328.154 324.313,327.554 324.800 C 327.419 324.910,327.193 325.369,327.052 325.820 C 326.800 326.631,322.925 330.837,321.360 332.000 C 318.533 334.100,317.355 334.770,316.017 335.037 C 315.462 335.148,314.216 335.678,312.705 336.447 C 312.323 336.641,311.209 336.800,310.229 336.800 C 308.397 336.800,307.517 337.329,308.635 337.758 C 309.642 338.145,312.330 338.038,312.600 337.600 C 312.736 337.380,313.199 337.200,313.629 337.200 C 314.384 337.200,314.774 337.056,316.695 336.062 C 317.187 335.808,317.862 335.600,318.195 335.600 C 318.528 335.600,318.800 335.449,318.800 335.264 C 318.800 335.080,319.263 334.717,319.830 334.459 C 321.707 333.604,326.000 329.932,326.000 329.182 C 326.000 328.972,326.180 328.800,326.400 328.800 C 326.620 328.800,326.800 328.570,326.800 328.288 C 326.800 328.007,327.160 327.517,327.600 327.200 C 328.040 326.883,328.400 326.303,328.400 325.912 C 328.400 325.520,328.580 325.200,328.800 325.200 C 329.020 325.200,329.200 324.840,329.200 324.400 C 329.200 323.960,329.380 323.600,329.600 323.600 C 329.820 323.600,330.000 323.251,330.000 322.824 C 330.000 322.397,330.180 321.936,330.400 321.800 C 330.620 321.664,330.800 321.023,330.800 320.376 C 330.800 319.729,330.990 319.200,331.221 319.200 C 331.481 319.200,331.610 318.207,331.558 316.600 C 331.466 313.750,331.421 313.640,330.814 314.774 M117.954 316.100 C 117.929 317.035,117.940 318.115,117.979 318.500 C 118.018 318.885,117.859 319.200,117.625 319.200 C 117.391 319.200,117.200 319.633,117.200 320.162 C 117.200 321.148,115.795 324.183,114.900 325.129 C 114.625 325.419,114.400 325.837,114.400 326.056 C 114.400 326.730,108.290 332.749,107.110 333.237 C 106.500 333.490,106.000 333.855,106.000 334.049 C 106.000 334.242,105.728 334.400,105.395 334.400 C 105.062 334.400,104.432 334.580,103.995 334.800 C 103.558 335.020,102.842 335.380,102.405 335.600 C 101.968 335.820,101.248 336.000,100.805 336.000 C 100.362 336.000,100.000 336.162,100.000 336.360 C 100.000 336.558,99.094 336.708,97.986 336.694 C 95.656 336.664,94.456 337.398,96.143 337.821 C 96.726 337.968,97.787 337.986,98.501 337.863 C 101.624 337.323,102.614 337.068,102.817 336.755 C 102.937 336.571,103.387 336.353,103.817 336.270 C 105.049 336.034,106.134 335.501,106.975 334.720 C 107.402 334.324,107.896 334.000,108.072 334.000 C 108.249 334.000,108.800 333.647,109.297 333.215 C 109.794 332.783,110.380 332.395,110.600 332.353 C 111.091 332.259,114.390 328.723,114.396 328.283 C 114.398 328.109,114.760 327.580,115.200 327.108 C 115.640 326.636,116.000 326.013,116.000 325.725 C 116.000 325.436,116.180 325.200,116.400 325.200 C 116.620 325.200,116.800 324.840,116.800 324.400 C 116.800 323.960,116.980 323.600,117.200 323.600 C 117.420 323.600,117.600 323.251,117.600 322.824 C 117.600 322.397,117.780 321.936,118.000 321.800 C 118.220 321.664,118.400 321.124,118.400 320.600 C 118.400 320.076,118.580 319.536,118.800 319.400 C 119.487 318.975,119.304 314.400,118.600 314.400 C 118.168 314.400,117.987 314.876,117.954 316.100 M224.173 315.806 C 224.028 316.579,223.988 317.623,224.084 318.127 C 224.180 318.630,224.005 319.279,223.695 319.569 C 223.385 319.858,223.220 320.434,223.328 320.848 C 223.437 321.261,223.358 321.600,223.153 321.600 C 222.730 321.600,221.835 323.564,221.943 324.254 C 221.982 324.504,221.741 324.814,221.407 324.942 C 221.073 325.070,220.800 325.444,220.800 325.773 C 220.800 326.532,215.425 332.016,213.700 333.018 C 212.985 333.433,212.400 333.933,212.400 334.129 C 212.400 334.325,212.135 334.384,211.811 334.259 C 211.484 334.134,211.051 334.337,210.841 334.713 C 210.631 335.087,210.333 335.266,210.177 335.111 C 210.022 334.955,209.513 335.038,209.047 335.295 C 208.581 335.551,207.840 335.820,207.400 335.892 C 206.960 335.964,206.538 336.203,206.463 336.423 C 206.386 336.646,205.766 336.717,205.059 336.585 C 203.452 336.283,201.143 337.066,202.014 337.617 C 202.800 338.114,205.890 338.102,206.200 337.600 C 206.336 337.380,206.977 337.200,207.624 337.200 C 208.326 337.200,208.800 336.989,208.800 336.677 C 208.800 336.344,209.236 336.184,210.000 336.237 C 210.660 336.283,211.200 336.158,211.200 335.960 C 211.200 335.762,211.436 335.600,211.725 335.600 C 212.013 335.600,212.636 335.240,213.108 334.800 C 213.580 334.360,214.204 334.000,214.495 334.000 C 214.786 334.000,215.283 333.640,215.600 333.200 C 215.917 332.760,216.407 332.400,216.688 332.400 C 216.970 332.400,217.200 332.220,217.200 332.000 C 217.200 331.780,217.425 331.599,217.700 331.597 C 217.975 331.596,218.650 330.921,219.200 330.097 C 219.750 329.274,220.535 328.240,220.945 327.800 C 222.849 325.756,224.803 320.702,225.082 317.100 C 225.306 314.194,224.650 313.260,224.173 315.806 M68.667 315.067 C 68.240 315.494,68.359 319.200,68.800 319.200 C 69.020 319.200,69.200 319.830,69.200 320.600 C 69.200 321.370,69.380 322.000,69.600 322.000 C 69.820 322.000,70.000 322.360,70.000 322.800 C 70.000 323.240,70.180 323.600,70.400 323.600 C 70.620 323.600,70.800 323.960,70.800 324.400 C 70.800 324.840,70.980 325.200,71.200 325.200 C 71.420 325.200,71.600 325.478,71.600 325.818 C 71.600 326.158,72.050 326.886,72.600 327.436 C 73.150 327.986,73.600 328.563,73.600 328.718 C 73.600 329.133,76.649 332.397,77.054 332.416 C 77.244 332.425,78.023 332.965,78.785 333.616 C 79.547 334.267,80.402 334.800,80.685 334.800 C 80.968 334.800,81.201 334.935,81.203 335.100 C 81.207 335.501,83.181 336.400,84.056 336.400 C 84.439 336.400,84.864 336.580,85.000 336.800 C 85.136 337.020,85.676 337.200,86.200 337.200 C 86.724 337.200,87.264 337.380,87.400 337.600 C 87.711 338.103,90.800 338.114,91.589 337.615 C 92.400 337.102,91.151 336.627,89.000 336.629 C 88.120 336.630,87.160 336.398,86.868 336.112 C 86.575 335.826,86.182 335.687,85.995 335.803 C 85.808 335.918,85.542 335.830,85.404 335.607 C 85.266 335.383,84.713 335.200,84.176 335.200 C 83.639 335.200,83.200 335.020,83.200 334.800 C 83.200 334.580,82.840 334.400,82.400 334.400 C 81.960 334.400,81.600 334.220,81.600 334.000 C 81.600 333.780,81.365 333.600,81.078 333.600 C 80.594 333.600,79.969 333.092,76.349 329.757 C 74.587 328.134,72.816 325.922,72.807 325.333 C 72.803 325.077,72.665 324.807,72.500 324.733 C 72.009 324.515,70.400 321.184,70.400 320.386 C 70.400 319.980,70.220 319.536,70.000 319.400 C 69.780 319.264,69.600 318.173,69.600 316.976 C 69.600 314.960,69.329 314.405,68.667 315.067 M174.800 316.672 C 174.800 318.399,175.068 319.598,176.104 322.500 C 176.320 323.105,176.650 323.600,176.836 323.600 C 177.022 323.600,177.063 323.892,176.926 324.250 C 176.776 324.640,176.940 325.047,177.338 325.269 C 177.702 325.473,178.000 325.858,178.000 326.124 C 178.000 326.390,178.450 327.093,179.000 327.687 C 179.550 328.280,180.000 328.848,180.000 328.950 C 180.000 329.335,182.949 332.400,183.319 332.400 C 183.532 332.400,183.999 332.715,184.357 333.100 C 184.716 333.485,185.436 334.042,185.959 334.338 C 186.482 334.633,187.520 335.218,188.267 335.638 C 189.014 336.057,189.968 336.400,190.389 336.400 C 190.809 336.400,191.264 336.580,191.400 336.800 C 191.750 337.366,193.094 337.297,193.335 336.700 C 193.462 336.384,193.548 336.442,193.568 336.857 C 193.621 337.954,196.636 338.471,197.990 337.614 C 198.781 337.114,197.111 336.470,195.407 336.619 C 194.743 336.677,193.972 336.536,193.693 336.307 C 193.414 336.078,192.874 335.857,192.493 335.817 C 187.065 335.242,176.800 325.106,176.800 320.320 C 176.800 319.950,176.620 319.536,176.400 319.400 C 176.180 319.264,176.000 318.458,176.000 317.609 C 176.000 316.760,175.891 315.781,175.757 315.433 C 175.284 314.199,174.800 314.826,174.800 316.672 M281.043 315.433 C 280.650 316.456,280.765 319.200,281.200 319.200 C 281.420 319.200,281.600 319.645,281.600 320.188 C 281.600 320.731,281.960 321.817,282.400 322.600 C 282.840 323.383,283.200 324.289,283.200 324.612 C 283.200 324.935,283.380 325.200,283.600 325.200 C 283.820 325.200,284.000 325.494,284.000 325.853 C 284.000 326.212,284.324 326.797,284.719 327.153 C 285.114 327.509,285.878 328.430,286.416 329.200 C 287.445 330.674,289.190 332.366,289.704 332.387 C 289.871 332.394,290.572 332.940,291.263 333.600 C 291.954 334.260,292.717 334.804,292.959 334.809 C 293.202 334.814,293.850 335.170,294.400 335.600 C 294.950 336.030,295.794 336.386,296.276 336.391 C 296.758 336.396,297.264 336.580,297.400 336.800 C 297.536 337.020,298.166 337.200,298.800 337.200 C 299.434 337.200,300.064 337.380,300.200 337.600 C 300.531 338.136,303.883 338.113,304.216 337.573 C 304.615 336.928,304.279 336.777,302.150 336.645 C 301.077 336.579,299.390 336.185,298.400 335.771 C 297.410 335.356,296.455 335.061,296.279 335.115 C 296.102 335.170,295.682 334.939,295.346 334.603 C 295.010 334.268,294.589 334.083,294.410 334.194 C 294.230 334.305,293.981 334.126,293.854 333.798 C 293.728 333.469,293.347 333.200,293.007 333.200 C 292.297 333.200,286.519 327.596,285.377 325.800 C 284.143 323.859,283.600 322.745,283.600 322.154 C 283.600 321.849,283.420 321.600,283.200 321.600 C 282.980 321.600,282.800 321.060,282.800 320.400 C 282.800 319.740,282.656 319.200,282.480 319.200 C 282.305 319.200,282.144 318.615,282.123 317.900 C 282.044 315.151,281.989 314.800,281.643 314.800 C 281.446 314.800,281.176 315.085,281.043 315.433 M147.064 331.125 C 145.967 331.345,144.917 332.559,144.608 333.963 C 144.458 334.647,144.200 335.124,144.035 335.022 C 143.870 334.920,143.491 335.458,143.193 336.218 C 142.895 336.978,142.538 337.600,142.400 337.600 C 142.262 337.600,141.902 338.230,141.600 339.000 C 141.298 339.770,140.904 340.400,140.725 340.400 C 140.546 340.400,140.400 340.636,140.400 340.925 C 140.400 341.213,140.040 341.836,139.600 342.308 C 139.160 342.780,138.800 343.444,138.800 343.783 C 138.800 344.122,138.620 344.400,138.400 344.400 C 138.180 344.400,138.000 344.636,138.000 344.925 C 138.000 345.213,137.640 345.836,137.200 346.308 C 136.760 346.780,136.400 347.373,136.400 347.626 C 136.400 347.878,135.889 348.741,135.264 349.542 C 134.639 350.344,133.875 351.585,133.567 352.300 C 133.258 353.015,132.846 353.600,132.652 353.600 C 132.459 353.600,132.406 354.128,132.535 354.774 C 132.664 355.420,132.506 356.959,132.185 358.194 C 131.274 361.692,131.532 363.783,133.345 367.600 C 134.286 369.580,137.693 373.200,138.616 373.200 C 138.937 373.200,139.200 373.380,139.200 373.600 C 139.200 373.820,139.560 374.000,140.000 374.000 C 140.440 374.000,140.800 374.180,140.800 374.400 C 140.800 374.620,141.329 374.800,141.976 374.800 C 142.623 374.800,143.264 374.980,143.400 375.200 C 143.536 375.420,145.066 375.600,146.800 375.600 C 148.534 375.600,150.064 375.420,150.200 375.200 C 150.336 374.980,150.870 374.800,151.386 374.800 C 156.536 374.800,164.076 364.196,162.064 359.781 C 161.809 359.221,161.600 358.241,161.600 357.605 C 161.600 356.968,161.450 356.355,161.267 356.241 C 161.083 356.128,161.014 355.487,161.112 354.818 C 161.220 354.083,161.114 353.600,160.845 353.600 C 160.600 353.600,160.400 353.240,160.400 352.800 C 160.400 352.360,160.220 352.000,160.000 352.000 C 159.780 352.000,159.600 351.807,159.600 351.572 C 159.600 351.337,159.060 350.359,158.400 349.400 C 157.740 348.441,157.200 347.373,157.200 347.028 C 157.200 346.683,157.041 346.400,156.846 346.400 C 156.541 346.400,155.077 343.773,155.062 343.200 C 155.059 343.090,154.819 342.762,154.529 342.472 C 154.238 342.181,153.521 341.101,152.935 340.072 C 152.349 339.042,151.439 337.615,150.914 336.900 C 150.389 336.185,150.067 335.600,150.199 335.600 C 150.331 335.600,149.911 334.834,149.267 333.898 C 148.623 332.962,148.030 331.922,147.948 331.587 C 147.864 331.239,147.484 331.041,147.064 331.125 M252.000 331.401 C 252.000 331.761,251.460 332.841,250.800 333.800 C 250.140 334.759,249.600 335.709,249.600 335.910 C 249.600 336.111,249.240 336.602,248.800 337.000 C 248.360 337.398,248.000 337.918,248.000 338.156 C 248.000 339.022,245.785 342.798,245.276 342.799 C 244.988 342.800,244.851 342.959,244.971 343.153 C 245.091 343.347,244.747 344.157,244.206 344.953 C 243.666 345.749,243.354 346.403,243.512 346.406 C 243.670 346.409,243.618 346.544,243.395 346.706 C 243.172 346.868,242.561 347.850,242.038 348.888 C 241.514 349.927,240.932 350.681,240.743 350.565 C 240.554 350.448,240.400 350.723,240.400 351.176 C 240.400 351.629,240.220 352.000,240.000 352.000 C 239.780 352.000,239.600 352.360,239.600 352.800 C 239.600 353.240,239.406 353.600,239.170 353.600 C 238.933 353.600,238.792 354.095,238.855 354.700 C 238.919 355.305,238.806 356.067,238.605 356.393 C 237.790 357.710,238.182 364.869,239.185 367.000 C 240.822 370.479,246.046 374.800,248.614 374.800 C 249.130 374.800,249.664 374.980,249.800 375.200 C 249.936 375.420,251.466 375.600,253.200 375.600 C 254.934 375.600,256.464 375.420,256.600 375.200 C 256.736 374.980,257.377 374.800,258.024 374.800 C 258.671 374.800,259.200 374.620,259.200 374.400 C 259.200 374.180,259.560 374.000,260.000 374.000 C 260.440 374.000,260.800 373.820,260.800 373.600 C 260.800 373.380,261.055 373.200,261.366 373.200 C 262.241 373.200,265.807 369.589,266.719 367.778 C 268.257 364.727,268.648 361.589,267.887 358.418 C 267.518 356.881,267.321 355.350,267.449 355.017 C 267.577 354.683,267.220 353.621,266.655 352.658 C 266.090 351.694,265.712 350.792,265.814 350.653 C 265.916 350.514,265.883 350.487,265.739 350.594 C 265.596 350.701,265.268 350.386,265.010 349.894 C 264.196 348.341,263.408 347.007,263.181 346.800 C 262.488 346.168,261.200 343.982,261.200 343.438 C 261.200 343.087,261.020 342.800,260.800 342.800 C 260.580 342.800,260.400 342.564,260.400 342.275 C 260.400 341.987,260.076 341.402,259.680 340.975 C 258.967 340.208,258.517 339.331,258.485 338.645 C 258.476 338.449,258.312 338.179,258.121 338.045 C 257.492 337.602,255.200 333.743,255.200 333.127 C 255.200 332.388,254.109 331.389,252.900 331.020 C 252.221 330.814,252.000 330.907,252.000 331.401 " stroke="none" fill="#3ba4d4" fill-rule="evenodd"></path></g></svg>