<svg id="svg" version="1.1" xmlns="http://www.w3.org/2000/svg" xmlns:xlink="http://www.w3.org/1999/xlink" width="400" height="400" viewBox="0, 0, 400,400"><g id="svgg"><path id="path0" d="M195.829 19.646 C 195.949 19.841,195.599 20.000,195.051 20.000 C 194.405 20.000,193.964 20.282,193.800 20.800 C 193.660 21.240,193.275 21.600,192.944 21.600 C 192.159 21.600,191.200 22.574,191.200 23.371 C 191.200 23.717,191.042 24.000,190.849 24.000 C 190.655 24.000,190.271 24.546,189.995 25.213 C 189.718 25.880,189.405 26.338,189.299 26.232 C 189.031 25.964,188.000 27.041,188.000 27.588 C 188.000 28.032,187.630 28.563,186.300 30.029 C 185.915 30.453,185.600 31.051,185.600 31.357 C 185.600 31.664,185.304 32.028,184.943 32.167 C 184.581 32.305,184.387 32.520,184.510 32.644 C 184.634 32.767,184.396 33.258,183.982 33.734 C 183.568 34.210,183.235 34.749,183.241 34.930 C 183.247 35.112,182.881 35.583,182.426 35.977 C 181.972 36.371,181.600 36.908,181.600 37.171 C 181.600 37.433,181.420 37.536,181.200 37.400 C 180.980 37.264,180.800 37.523,180.800 37.976 C 180.800 38.429,180.632 38.800,180.427 38.800 C 180.222 38.800,179.938 39.166,179.796 39.613 C 179.654 40.060,179.147 40.833,178.669 41.331 C 178.191 41.829,177.744 42.487,177.675 42.793 C 177.606 43.099,177.185 43.666,176.738 44.053 C 176.267 44.462,176.052 44.960,176.225 45.241 C 176.400 45.523,176.356 45.620,176.119 45.474 C 175.896 45.336,175.221 46.131,174.617 47.240 C 174.013 48.349,173.268 49.353,172.960 49.471 C 172.652 49.589,172.400 49.998,172.400 50.381 C 172.400 50.763,172.040 51.402,171.600 51.800 C 171.160 52.198,170.800 52.766,170.800 53.062 C 170.800 53.358,170.650 53.600,170.468 53.600 C 170.285 53.600,169.881 54.095,169.570 54.700 C 169.260 55.305,168.689 56.091,168.303 56.447 C 167.916 56.803,167.600 57.307,167.600 57.569 C 167.600 57.830,167.061 58.619,166.402 59.322 C 165.743 60.025,165.203 60.727,165.202 60.882 C 165.199 61.317,163.212 64.146,162.676 64.477 C 162.414 64.638,162.200 64.964,162.200 65.200 C 162.200 65.436,162.020 65.758,161.800 65.915 C 160.969 66.508,160.133 67.788,160.800 67.446 C 161.130 67.277,160.975 67.513,160.456 67.970 C 159.936 68.426,159.634 68.800,159.784 68.800 C 159.934 68.800,159.773 69.085,159.425 69.432 C 159.077 69.780,158.895 70.230,159.020 70.432 C 159.145 70.635,159.087 70.800,158.891 70.800 C 158.695 70.800,158.280 71.295,157.968 71.900 C 157.655 72.505,157.026 73.383,156.568 73.850 C 156.110 74.318,155.237 75.308,154.627 76.050 C 154.018 76.793,153.658 77.130,153.828 76.800 C 153.999 76.470,153.633 76.695,153.015 77.300 C 151.984 78.309,151.682 78.464,150.945 78.366 C 150.804 78.347,150.572 78.523,150.427 78.756 C 150.283 78.989,149.813 79.235,149.383 79.301 C 148.952 79.368,148.362 79.572,148.071 79.753 C 147.400 80.171,140.411 80.095,139.832 79.663 C 139.595 79.486,138.590 79.293,137.600 79.234 C 136.610 79.175,135.620 78.995,135.400 78.834 C 135.180 78.673,134.190 78.492,133.200 78.433 C 132.210 78.373,131.306 78.171,131.190 77.984 C 131.075 77.797,130.625 77.698,130.190 77.763 C 129.756 77.828,128.860 77.711,128.200 77.502 C 127.540 77.293,126.194 77.034,125.209 76.926 C 124.224 76.819,123.095 76.558,122.701 76.347 C 122.306 76.136,121.838 76.053,121.660 76.163 C 121.481 76.273,120.366 76.108,119.182 75.795 C 117.997 75.483,116.436 75.303,115.714 75.395 C 114.991 75.488,114.400 75.392,114.400 75.182 C 114.400 74.972,113.500 74.800,112.400 74.800 C 111.300 74.800,110.400 74.620,110.400 74.400 C 110.400 74.180,109.601 74.000,108.624 74.000 C 107.647 74.000,106.736 73.820,106.600 73.600 C 106.464 73.380,105.564 73.200,104.600 73.200 C 103.636 73.200,102.736 73.020,102.600 72.800 C 102.464 72.580,101.384 72.400,100.200 72.400 C 99.016 72.400,97.936 72.220,97.800 72.000 C 97.664 71.780,96.753 71.600,95.776 71.600 C 94.799 71.600,94.000 71.420,94.000 71.200 C 94.000 70.978,92.933 70.800,91.600 70.800 C 90.267 70.800,89.200 70.622,89.200 70.400 C 89.200 70.180,88.390 70.000,87.400 70.000 C 86.410 70.000,85.600 69.820,85.600 69.600 C 85.600 69.374,84.459 69.200,82.976 69.200 C 81.419 69.200,80.448 69.045,80.588 68.820 C 80.820 68.444,79.466 68.523,77.000 69.027 C 75.165 69.403,73.313 70.328,73.056 70.998 C 72.929 71.329,72.549 71.600,72.213 71.600 C 71.876 71.600,71.600 71.876,71.600 72.213 C 71.600 72.549,71.329 72.929,70.998 73.056 C 70.328 73.313,69.403 75.165,69.027 77.000 C 68.523 79.466,68.444 80.820,68.820 80.588 C 69.045 80.448,69.200 81.419,69.200 82.976 C 69.200 84.459,69.374 85.600,69.600 85.600 C 69.820 85.600,70.000 86.410,70.000 87.400 C 70.000 88.390,70.180 89.200,70.400 89.200 C 70.622 89.200,70.800 90.267,70.800 91.600 C 70.800 92.933,70.978 94.000,71.200 94.000 C 71.420 94.000,71.600 94.799,71.600 95.776 C 71.600 96.753,71.780 97.664,72.000 97.800 C 72.220 97.936,72.400 99.016,72.400 100.200 C 72.400 101.384,72.580 102.464,72.800 102.600 C 73.020 102.736,73.200 103.636,73.200 104.600 C 73.200 105.564,73.380 106.464,73.600 106.600 C 73.820 106.736,74.000 107.647,74.000 108.624 C 74.000 109.601,74.180 110.400,74.400 110.400 C 74.620 110.400,74.800 111.300,74.800 112.400 C 74.800 113.500,74.972 114.400,75.182 114.400 C 75.392 114.400,75.488 114.991,75.395 115.714 C 75.303 116.436,75.483 117.997,75.795 119.182 C 76.108 120.366,76.273 121.481,76.163 121.660 C 76.053 121.838,76.136 122.306,76.347 122.701 C 76.558 123.095,76.819 124.224,76.926 125.209 C 77.034 126.194,77.293 127.540,77.502 128.200 C 77.711 128.860,77.828 129.756,77.763 130.190 C 77.698 130.625,77.797 131.075,77.984 131.190 C 78.171 131.306,78.373 132.210,78.433 133.200 C 78.492 134.190,78.673 135.180,78.834 135.400 C 78.995 135.620,79.175 136.610,79.234 137.600 C 79.293 138.590,79.486 139.595,79.663 139.832 C 80.095 140.411,80.171 147.400,79.753 148.071 C 79.572 148.362,79.368 148.952,79.301 149.383 C 79.235 149.813,78.989 150.283,78.756 150.427 C 78.523 150.572,78.347 150.804,78.366 150.945 C 78.464 151.682,78.309 151.984,77.300 153.015 C 76.695 153.633,76.470 153.999,76.800 153.828 C 77.130 153.658,76.793 154.018,76.050 154.627 C 75.308 155.237,74.318 156.110,73.850 156.568 C 73.383 157.026,72.505 157.655,71.900 157.968 C 71.295 158.280,70.800 158.695,70.800 158.891 C 70.800 159.087,70.635 159.145,70.432 159.020 C 70.230 158.895,69.780 159.077,69.432 159.425 C 69.085 159.773,68.800 159.934,68.800 159.784 C 68.800 159.634,68.426 159.936,67.970 160.456 C 67.513 160.975,67.277 161.130,67.446 160.800 C 67.788 160.133,66.508 160.969,65.915 161.800 C 65.758 162.020,65.436 162.200,65.200 162.200 C 64.964 162.200,64.638 162.414,64.477 162.676 C 64.146 163.212,61.317 165.199,60.882 165.202 C 60.727 165.203,60.025 165.743,59.322 166.402 C 58.619 167.061,57.830 167.600,57.569 167.600 C 57.307 167.600,56.803 167.916,56.447 168.303 C 56.091 168.689,55.305 169.260,54.700 169.570 C 54.095 169.881,53.600 170.285,53.600 170.468 C 53.600 170.650,53.358 170.800,53.062 170.800 C 52.766 170.800,52.198 171.160,51.800 171.600 C 51.402 172.040,50.763 172.400,50.381 172.400 C 49.998 172.400,49.589 172.652,49.471 172.960 C 49.353 173.268,48.349 174.013,47.240 174.617 C 46.131 175.221,45.336 175.896,45.474 176.119 C 45.620 176.356,45.523 176.400,45.241 176.225 C 44.960 176.052,44.462 176.267,44.053 176.738 C 43.666 177.185,43.099 177.606,42.793 177.675 C 42.487 177.744,41.829 178.191,41.331 178.669 C 40.833 179.147,40.060 179.654,39.613 179.796 C 39.166 179.938,38.800 180.222,38.800 180.427 C 38.800 180.632,38.429 180.800,37.976 180.800 C 37.523 180.800,37.264 180.980,37.400 181.200 C 37.536 181.420,37.433 181.600,37.171 181.600 C 36.908 181.600,36.371 181.972,35.977 182.426 C 35.583 182.881,35.141 183.222,34.995 183.185 C 34.848 183.148,34.310 183.482,33.799 183.927 C 33.287 184.371,32.767 184.634,32.644 184.510 C 32.520 184.387,32.305 184.581,32.167 184.943 C 32.028 185.304,31.664 185.600,31.357 185.600 C 31.051 185.600,30.453 185.915,30.029 186.300 C 28.563 187.630,28.032 188.000,27.588 188.000 C 27.041 188.000,25.964 189.031,26.232 189.299 C 26.338 189.405,25.880 189.718,25.213 189.995 C 24.546 190.271,24.000 190.655,24.000 190.849 C 24.000 191.042,23.717 191.200,23.371 191.200 C 22.574 191.200,21.600 192.159,21.600 192.944 C 21.600 193.275,21.240 193.660,20.800 193.800 C 20.282 193.964,20.000 194.405,20.000 195.051 C 20.000 195.599,19.841 195.949,19.646 195.829 C 19.451 195.708,19.263 197.594,19.227 200.041 C 19.182 203.045,19.296 204.388,19.581 204.212 C 19.830 204.058,20.000 204.356,20.000 204.949 C 20.000 205.595,20.282 206.036,20.800 206.200 C 21.240 206.340,21.600 206.725,21.600 207.056 C 21.600 207.760,22.547 208.800,23.188 208.800 C 23.433 208.800,24.020 209.160,24.492 209.600 C 24.964 210.040,25.617 210.400,25.942 210.400 C 26.267 210.400,26.422 210.511,26.286 210.648 C 25.983 210.950,26.978 212.000,27.567 212.000 C 27.963 212.000,28.990 212.737,30.216 213.900 C 30.506 214.175,30.982 214.400,31.275 214.400 C 31.568 214.400,32.032 214.760,32.307 215.200 C 32.582 215.640,33.053 216.000,33.354 216.000 C 33.656 216.000,34.124 216.268,34.396 216.596 C 34.668 216.923,35.050 217.093,35.245 216.972 C 35.440 216.851,35.600 216.913,35.600 217.109 C 35.600 217.305,36.095 217.720,36.700 218.032 C 37.305 218.345,38.252 219.050,38.804 219.600 C 39.356 220.150,40.076 220.653,40.404 220.717 C 40.732 220.781,41.276 221.141,41.614 221.517 C 41.952 221.893,42.434 222.241,42.687 222.291 C 42.939 222.341,43.600 222.836,44.155 223.391 C 44.710 223.946,45.427 224.400,45.748 224.400 C 46.070 224.400,46.393 224.567,46.467 224.770 C 46.540 224.974,46.870 225.199,47.200 225.270 C 47.530 225.342,48.297 225.895,48.903 226.500 C 49.510 227.105,50.241 227.600,50.528 227.600 C 50.815 227.600,51.436 227.960,51.908 228.400 C 52.380 228.840,52.926 229.200,53.121 229.200 C 53.316 229.200,53.802 229.560,54.200 230.000 C 54.598 230.440,55.166 230.800,55.462 230.800 C 55.758 230.800,56.000 230.980,56.000 231.200 C 56.000 231.420,56.281 231.600,56.624 231.600 C 56.967 231.600,57.136 231.780,57.000 232.000 C 56.864 232.220,57.035 232.400,57.380 232.400 C 57.725 232.400,58.572 232.940,59.263 233.600 C 59.954 234.260,60.773 234.800,61.083 234.800 C 61.393 234.800,61.536 234.980,61.400 235.200 C 61.264 235.420,61.523 235.600,61.976 235.600 C 62.429 235.600,62.800 235.780,62.800 236.000 C 62.800 236.220,63.081 236.400,63.424 236.400 C 63.767 236.400,63.936 236.580,63.800 236.800 C 63.664 237.020,63.833 237.200,64.176 237.200 C 64.519 237.200,64.800 237.391,64.800 237.624 C 64.800 237.857,64.981 237.935,65.203 237.798 C 65.424 237.661,65.714 237.831,65.846 238.175 C 65.978 238.519,66.336 238.800,66.643 238.800 C 66.949 238.800,67.200 238.991,67.200 239.224 C 67.200 239.457,67.369 239.543,67.575 239.415 C 67.782 239.288,68.113 239.473,68.311 239.827 C 68.510 240.182,68.836 240.478,69.036 240.487 C 69.727 240.515,70.602 240.962,71.375 241.680 C 71.802 242.076,72.311 242.400,72.507 242.400 C 72.703 242.400,73.554 243.120,74.400 244.000 C 75.246 244.880,76.121 245.600,76.345 245.600 C 76.569 245.600,76.881 245.808,77.038 246.062 C 77.231 246.374,77.141 246.416,76.762 246.193 C 76.453 246.011,76.695 246.367,77.300 246.985 C 77.905 247.603,78.400 248.445,78.400 248.855 C 78.400 249.265,78.580 249.600,78.800 249.600 C 79.020 249.600,79.200 250.014,79.200 250.520 C 79.200 251.026,79.399 251.639,79.643 251.883 C 80.122 252.362,80.182 259.382,79.713 260.140 C 79.563 260.383,79.380 261.306,79.307 262.191 C 79.233 263.076,78.999 264.322,78.786 264.960 C 78.574 265.598,78.400 266.622,78.400 267.236 C 78.400 267.850,78.223 268.462,78.006 268.597 C 77.789 268.731,77.672 269.236,77.747 269.720 C 77.822 270.204,77.714 271.140,77.507 271.800 C 77.300 272.460,77.056 273.630,76.964 274.400 C 76.872 275.170,76.678 276.250,76.532 276.800 C 76.387 277.350,76.225 278.250,76.173 278.800 C 76.121 279.350,75.947 280.340,75.786 281.000 C 75.625 281.660,75.472 282.950,75.446 283.867 C 75.420 284.784,75.264 285.669,75.099 285.834 C 74.935 285.999,74.800 286.898,74.800 287.833 C 74.800 288.768,74.630 289.593,74.422 289.667 C 74.214 289.740,74.002 290.745,73.951 291.900 C 73.899 293.055,73.727 294.000,73.569 294.000 C 73.282 294.000,72.974 295.817,72.552 300.000 C 72.430 301.210,72.165 302.371,71.965 302.580 C 71.764 302.789,71.600 303.633,71.600 304.456 C 71.600 305.279,71.420 306.064,71.200 306.200 C 70.980 306.336,70.800 307.347,70.800 308.447 C 70.800 309.547,70.652 310.356,70.471 310.244 C 70.289 310.132,70.099 310.976,70.048 312.120 C 69.997 313.264,69.786 314.260,69.578 314.333 C 69.370 314.407,69.200 315.532,69.200 316.833 C 69.200 318.144,69.022 319.200,68.800 319.200 C 68.580 319.200,68.400 319.391,68.400 319.624 C 68.400 319.857,68.625 319.912,68.900 319.747 C 69.282 319.517,69.294 319.582,68.951 320.023 C 68.705 320.340,68.566 320.870,68.644 321.200 C 68.722 321.530,68.895 322.340,69.029 323.000 C 69.395 324.803,70.388 326.820,71.030 327.067 C 71.344 327.187,71.600 327.536,71.600 327.843 C 71.600 328.149,71.876 328.400,72.213 328.400 C 72.549 328.400,72.929 328.671,73.056 329.002 C 73.342 329.746,75.279 330.640,77.400 331.006 C 78.280 331.157,79.419 331.359,79.932 331.454 C 80.507 331.561,80.766 331.469,80.608 331.214 C 80.443 330.946,81.209 330.800,82.776 330.800 C 84.125 330.800,85.200 330.623,85.200 330.400 C 85.200 330.180,86.190 330.000,87.400 330.000 C 88.610 330.000,89.600 329.820,89.600 329.600 C 89.600 329.380,90.590 329.200,91.800 329.200 C 93.010 329.200,94.000 329.020,94.000 328.800 C 94.000 328.580,94.911 328.400,96.024 328.400 C 97.271 328.400,97.952 328.247,97.800 328.000 C 97.646 327.751,98.436 327.600,99.896 327.600 C 101.185 327.600,102.411 327.438,102.620 327.241 C 102.986 326.895,104.463 326.620,108.500 326.146 C 109.545 326.023,110.400 325.760,110.400 325.561 C 110.400 325.363,111.199 325.200,112.176 325.200 C 113.153 325.200,114.036 325.065,114.138 324.900 C 114.240 324.735,115.241 324.610,116.362 324.622 C 117.483 324.635,118.400 324.530,118.400 324.389 C 118.400 324.248,118.625 324.122,118.900 324.109 C 120.184 324.046,122.922 323.572,123.280 323.351 C 123.500 323.215,124.426 323.034,125.340 322.949 C 129.770 322.534,131.200 322.293,131.200 321.961 C 131.200 321.763,132.089 321.600,133.176 321.600 C 134.263 321.600,135.264 321.420,135.400 321.200 C 135.536 320.980,136.501 320.800,137.544 320.800 C 138.587 320.800,139.617 320.623,139.833 320.407 C 140.389 319.851,147.568 319.808,148.117 320.357 C 148.361 320.601,148.974 320.800,149.480 320.800 C 149.986 320.800,150.400 320.980,150.400 321.200 C 150.400 321.420,150.735 321.600,151.145 321.600 C 151.555 321.600,152.397 322.095,153.015 322.700 C 153.633 323.305,153.989 323.547,153.807 323.238 C 153.584 322.859,153.626 322.769,153.938 322.962 C 154.192 323.119,154.400 323.431,154.400 323.655 C 154.400 323.879,155.120 324.754,156.000 325.600 C 156.880 326.446,157.600 327.382,157.600 327.680 C 157.600 327.979,157.950 328.476,158.379 328.785 C 158.807 329.093,159.075 329.478,158.975 329.641 C 158.875 329.803,159.056 330.199,159.377 330.520 C 159.699 330.842,159.850 331.216,159.714 331.352 C 159.578 331.489,159.782 331.600,160.167 331.600 C 160.552 331.600,160.797 331.809,160.712 332.064 C 160.627 332.320,160.968 332.972,161.471 333.515 C 161.974 334.057,162.287 334.659,162.167 334.853 C 162.047 335.047,162.230 335.313,162.572 335.445 C 162.915 335.576,163.107 335.826,163.000 336.000 C 162.893 336.174,163.068 336.417,163.389 336.540 C 163.710 336.664,164.545 337.778,165.244 339.017 C 165.944 340.256,166.760 341.363,167.058 341.478 C 167.356 341.592,167.600 341.902,167.600 342.167 C 167.600 342.432,167.960 343.036,168.400 343.508 C 168.840 343.980,169.200 344.526,169.200 344.721 C 169.200 344.916,169.560 345.402,170.000 345.800 C 170.440 346.198,170.800 346.684,170.800 346.879 C 170.800 347.074,171.160 347.620,171.600 348.092 C 172.040 348.564,172.400 349.288,172.400 349.699 C 172.400 350.111,172.580 350.336,172.800 350.200 C 173.020 350.064,173.200 350.167,173.200 350.429 C 173.200 350.692,173.588 351.242,174.061 351.653 C 174.535 352.064,174.795 352.400,174.639 352.400 C 174.482 352.400,174.668 352.930,175.051 353.578 C 175.434 354.226,175.922 354.648,176.135 354.516 C 176.349 354.384,176.400 354.476,176.249 354.721 C 176.098 354.965,176.385 355.637,176.887 356.214 C 177.389 356.792,177.743 357.353,177.674 357.462 C 177.604 357.571,177.908 357.973,178.349 358.356 C 178.790 358.738,179.206 359.309,179.275 359.625 C 179.344 359.941,179.715 360.435,180.100 360.723 C 180.485 361.010,180.800 361.523,180.800 361.862 C 180.800 362.201,181.340 362.983,182.000 363.600 C 182.660 364.217,183.200 364.885,183.200 365.085 C 183.200 365.285,183.515 365.798,183.900 366.225 C 184.285 366.651,184.869 367.540,185.197 368.200 C 185.526 368.860,186.111 369.691,186.497 370.047 C 186.884 370.403,187.200 370.898,187.200 371.147 C 187.200 371.396,187.380 371.600,187.600 371.600 C 187.820 371.600,188.000 371.948,188.000 372.373 C 188.000 372.798,188.360 373.260,188.800 373.400 C 189.240 373.540,189.600 373.878,189.600 374.152 C 189.600 374.425,189.960 375.036,190.400 375.508 C 190.840 375.980,191.200 376.567,191.200 376.812 C 191.200 377.425,192.228 378.400,192.875 378.400 C 193.168 378.400,193.632 378.760,193.907 379.200 C 194.182 379.640,194.776 380.000,195.227 380.000 C 195.678 380.000,195.936 380.180,195.800 380.400 C 195.641 380.657,197.063 380.800,199.776 380.800 C 202.325 380.800,204.000 380.641,204.000 380.400 C 204.000 380.180,204.338 380.000,204.751 380.000 C 205.164 380.000,205.724 379.732,205.996 379.404 C 206.268 379.077,206.678 378.925,206.907 379.066 C 207.148 379.215,207.204 379.130,207.039 378.864 C 206.869 378.589,207.167 378.216,207.777 377.937 C 208.340 377.681,208.800 377.223,208.800 376.919 C 208.800 376.615,209.160 375.980,209.600 375.508 C 210.040 375.036,210.400 374.383,210.400 374.058 C 210.400 373.733,210.511 373.578,210.648 373.714 C 211.003 374.069,212.000 372.974,212.000 372.229 C 212.000 371.883,212.180 371.600,212.400 371.600 C 212.620 371.600,212.800 371.370,212.800 371.088 C 212.800 370.807,213.160 370.317,213.600 370.000 C 214.040 369.683,214.400 369.122,214.400 368.754 C 214.400 368.387,214.656 367.987,214.970 367.867 C 215.283 367.747,215.860 366.962,216.253 366.124 C 216.645 365.286,217.468 364.123,218.083 363.540 C 218.697 362.956,219.200 362.231,219.200 361.928 C 219.200 361.625,219.550 361.124,219.979 360.815 C 220.407 360.507,220.673 360.119,220.571 359.953 C 220.469 359.787,220.793 359.227,221.292 358.708 C 221.792 358.188,222.241 357.559,222.291 357.309 C 222.341 357.059,222.836 356.400,223.391 355.845 C 223.946 355.290,224.400 354.558,224.400 354.218 C 224.400 353.878,224.568 353.600,224.773 353.600 C 224.978 353.600,225.262 353.234,225.404 352.787 C 225.546 352.340,226.053 351.567,226.531 351.069 C 227.009 350.571,227.449 349.935,227.509 349.656 C 227.568 349.376,227.973 348.766,228.409 348.299 C 228.844 347.831,229.200 347.213,229.200 346.925 C 229.200 346.636,229.358 346.400,229.551 346.400 C 229.745 346.400,230.127 345.860,230.400 345.200 C 230.673 344.540,231.055 344.000,231.249 344.000 C 231.442 344.000,231.600 343.719,231.600 343.376 C 231.600 343.007,231.788 342.869,232.062 343.038 C 232.344 343.212,232.415 343.148,232.245 342.873 C 232.092 342.626,232.411 342.037,232.954 341.565 C 233.497 341.093,234.156 340.190,234.417 339.558 C 234.679 338.927,235.052 338.509,235.246 338.629 C 235.441 338.749,235.600 338.521,235.600 338.122 C 235.600 337.724,236.141 336.887,236.802 336.263 C 237.463 335.639,237.918 334.991,237.814 334.823 C 237.710 334.654,238.064 334.104,238.600 333.600 C 239.136 333.096,239.479 332.529,239.362 332.339 C 239.245 332.149,239.430 331.887,239.772 331.755 C 240.115 331.624,240.296 331.355,240.174 331.158 C 240.052 330.961,240.154 330.800,240.400 330.800 C 240.646 330.800,240.743 330.632,240.616 330.426 C 240.489 330.220,240.838 329.598,241.392 329.044 C 241.947 328.490,242.400 327.830,242.400 327.579 C 242.400 327.327,242.908 326.644,243.529 326.060 C 244.150 325.477,244.985 324.499,245.383 323.888 C 245.782 323.276,246.193 322.860,246.297 322.963 C 246.400 323.067,246.860 322.803,247.318 322.376 C 247.776 321.949,248.462 321.600,248.842 321.600 C 249.222 321.600,249.593 321.427,249.667 321.216 C 250.132 319.874,256.072 319.669,262.600 320.769 C 263.920 320.991,265.720 321.291,266.600 321.434 C 267.480 321.577,268.380 321.820,268.600 321.973 C 268.820 322.126,269.720 322.302,270.600 322.365 C 271.479 322.427,272.469 322.618,272.800 322.789 C 273.130 322.960,273.940 323.072,274.600 323.038 C 275.260 323.003,276.128 323.129,276.530 323.318 C 277.150 323.609,279.262 323.969,281.100 324.098 C 281.375 324.118,281.600 324.262,281.600 324.420 C 281.600 324.577,282.185 324.717,282.900 324.731 C 285.672 324.784,289.600 325.326,289.600 325.655 C 289.600 325.845,290.399 326.000,291.376 326.000 C 292.353 326.000,293.264 326.180,293.400 326.400 C 293.536 326.620,294.411 326.800,295.344 326.800 C 296.277 326.800,297.211 326.964,297.420 327.165 C 297.629 327.365,298.790 327.631,300.000 327.756 C 305.201 328.290,306.387 328.498,306.176 328.839 C 306.053 329.037,306.964 329.200,308.200 329.200 C 309.436 329.200,310.355 329.350,310.242 329.532 C 310.129 329.715,311.063 329.905,312.318 329.955 C 313.573 330.005,314.771 330.216,314.980 330.423 C 315.189 330.630,316.209 330.800,317.247 330.800 C 318.361 330.800,319.199 330.997,319.294 331.281 C 319.417 331.652,320.001 331.636,321.827 331.213 C 324.737 330.540,327.672 329.240,327.374 328.757 C 327.252 328.561,327.433 328.400,327.776 328.400 C 328.119 328.400,328.400 328.119,328.400 327.776 C 328.400 327.433,328.561 327.252,328.757 327.374 C 329.240 327.672,330.540 324.737,331.213 321.827 C 331.636 320.001,331.652 319.417,331.281 319.294 C 330.997 319.199,330.800 318.361,330.800 317.247 C 330.800 316.209,330.630 315.189,330.423 314.980 C 330.216 314.771,330.005 313.573,329.955 312.318 C 329.905 311.063,329.715 310.129,329.532 310.242 C 329.350 310.355,329.200 309.436,329.200 308.200 C 329.200 306.964,329.037 306.053,328.839 306.176 C 328.498 306.387,328.290 305.201,327.756 300.000 C 327.631 298.790,327.365 297.629,327.165 297.420 C 326.964 297.211,326.800 296.277,326.800 295.344 C 326.800 294.411,326.620 293.536,326.400 293.400 C 326.180 293.264,326.000 292.353,326.000 291.376 C 326.000 290.399,325.845 289.600,325.655 289.600 C 325.326 289.600,324.784 285.672,324.731 282.900 C 324.717 282.185,324.577 281.600,324.420 281.600 C 324.262 281.600,324.118 281.375,324.098 281.100 C 323.969 279.262,323.609 277.150,323.318 276.530 C 323.129 276.128,323.003 275.260,323.038 274.600 C 323.072 273.940,322.960 273.130,322.789 272.800 C 322.618 272.469,322.427 271.479,322.365 270.600 C 322.302 269.720,322.126 268.820,321.973 268.600 C 321.820 268.380,321.577 267.480,321.434 266.600 C 321.291 265.720,320.991 263.920,320.769 262.600 C 319.669 256.072,319.874 250.132,321.216 249.667 C 321.427 249.593,321.600 249.222,321.600 248.842 C 321.600 248.462,321.949 247.776,322.376 247.318 C 322.803 246.860,323.067 246.400,322.963 246.297 C 322.860 246.193,323.276 245.782,323.888 245.383 C 324.499 244.985,325.477 244.150,326.060 243.529 C 326.644 242.908,327.327 242.400,327.579 242.400 C 327.830 242.400,328.490 241.947,329.044 241.392 C 329.598 240.838,330.220 240.489,330.426 240.616 C 330.632 240.743,330.800 240.646,330.800 240.400 C 330.800 240.154,330.961 240.052,331.158 240.174 C 331.355 240.296,331.624 240.115,331.755 239.772 C 331.887 239.430,332.149 239.245,332.339 239.362 C 332.529 239.479,333.096 239.136,333.600 238.600 C 334.104 238.064,334.654 237.710,334.823 237.814 C 334.991 237.918,335.639 237.463,336.263 236.802 C 336.887 236.141,337.724 235.600,338.122 235.600 C 338.521 235.600,338.749 235.441,338.629 235.246 C 338.509 235.052,338.927 234.679,339.558 234.417 C 340.190 234.156,341.093 233.497,341.565 232.954 C 342.037 232.411,342.626 232.092,342.873 232.245 C 343.148 232.415,343.212 232.344,343.038 232.062 C 342.869 231.788,343.007 231.600,343.376 231.600 C 343.719 231.600,344.000 231.442,344.000 231.249 C 344.000 231.055,344.540 230.673,345.200 230.400 C 345.860 230.127,346.400 229.745,346.400 229.551 C 346.400 229.358,346.636 229.200,346.925 229.200 C 347.213 229.200,347.831 228.844,348.299 228.409 C 348.766 227.973,349.376 227.568,349.656 227.509 C 349.935 227.449,350.571 227.009,351.069 226.531 C 351.567 226.053,352.340 225.546,352.787 225.404 C 353.234 225.262,353.600 224.978,353.600 224.773 C 353.600 224.568,353.878 224.400,354.218 224.400 C 354.558 224.400,355.290 223.946,355.845 223.391 C 356.400 222.836,357.059 222.341,357.309 222.291 C 357.559 222.241,358.188 221.792,358.708 221.292 C 359.227 220.793,359.787 220.469,359.953 220.571 C 360.119 220.673,360.507 220.407,360.815 219.979 C 361.124 219.550,361.625 219.200,361.928 219.200 C 362.231 219.200,362.956 218.697,363.540 218.083 C 364.123 217.468,365.286 216.645,366.124 216.253 C 366.962 215.860,367.747 215.283,367.867 214.970 C 367.987 214.656,368.387 214.400,368.754 214.400 C 369.122 214.400,369.683 214.040,370.000 213.600 C 370.317 213.160,370.807 212.800,371.088 212.800 C 371.370 212.800,371.600 212.620,371.600 212.400 C 371.600 212.180,371.883 212.000,372.229 212.000 C 372.974 212.000,374.069 211.003,373.714 210.648 C 373.578 210.511,373.733 210.400,374.058 210.400 C 374.383 210.400,375.036 210.040,375.508 209.600 C 375.980 209.160,376.615 208.800,376.919 208.800 C 377.223 208.800,377.694 208.313,377.965 207.717 C 378.236 207.122,378.805 206.392,379.229 206.095 C 379.653 205.798,380.000 205.205,380.000 204.777 C 380.000 204.350,380.180 204.000,380.400 204.000 C 380.641 204.000,380.800 202.325,380.800 199.776 C 380.800 197.063,380.657 195.641,380.400 195.800 C 380.180 195.936,380.000 195.678,380.000 195.227 C 380.000 194.776,379.640 194.182,379.200 193.907 C 378.760 193.632,378.400 193.168,378.400 192.875 C 378.400 192.228,377.425 191.200,376.812 191.200 C 376.567 191.200,375.980 190.840,375.508 190.400 C 375.036 189.960,374.425 189.600,374.152 189.600 C 373.878 189.600,373.540 189.240,373.400 188.800 C 373.260 188.360,372.798 188.000,372.373 188.000 C 371.948 188.000,371.600 187.820,371.600 187.600 C 371.600 187.380,371.345 187.200,371.033 187.200 C 370.722 187.200,370.407 187.065,370.333 186.900 C 370.175 186.544,366.938 184.000,366.644 184.000 C 366.179 184.000,362.800 181.514,362.800 181.172 C 362.800 180.967,362.442 180.800,362.003 180.800 C 361.565 180.800,360.982 180.440,360.707 180.000 C 360.432 179.560,359.931 179.200,359.592 179.200 C 359.254 179.200,358.724 178.850,358.415 178.421 C 358.107 177.993,357.722 177.725,357.559 177.825 C 357.397 177.925,356.980 177.723,356.632 177.375 C 356.285 177.027,356.000 176.866,356.000 177.016 C 356.000 177.166,355.626 176.864,355.170 176.344 C 354.713 175.825,354.451 175.670,354.588 176.000 C 354.725 176.330,354.537 176.195,354.170 175.700 C 353.803 175.205,353.237 174.800,352.912 174.800 C 352.587 174.800,351.842 174.305,351.257 173.700 C 350.671 173.095,349.935 172.544,349.622 172.475 C 349.308 172.406,348.748 172.001,348.378 171.575 C 348.009 171.149,347.412 170.800,347.053 170.800 C 346.694 170.800,346.400 170.620,346.400 170.400 C 346.400 170.180,346.130 170.000,345.800 170.000 C 345.470 170.000,345.200 169.820,345.200 169.600 C 345.200 169.380,344.930 169.200,344.600 169.200 C 344.270 169.200,344.000 169.020,344.000 168.800 C 344.000 168.580,343.730 168.400,343.400 168.400 C 343.070 168.400,342.800 168.220,342.800 168.000 C 342.800 167.780,342.620 167.600,342.400 167.600 C 342.180 167.600,341.653 167.285,341.229 166.900 C 339.937 165.727,339.245 165.200,339.000 165.200 C 338.871 165.200,338.549 165.023,338.283 164.806 C 335.889 162.854,335.198 162.376,335.187 162.664 C 335.179 162.849,334.858 162.640,334.473 162.200 C 334.087 161.760,333.508 161.347,333.186 161.283 C 332.864 161.219,332.330 160.850,332.000 160.464 C 331.492 159.869,330.051 159.069,329.692 159.183 C 329.633 159.201,329.194 158.853,328.717 158.408 C 328.240 157.964,327.695 157.600,327.506 157.600 C 327.318 157.600,326.744 157.181,326.232 156.668 C 325.719 156.155,324.692 155.237,323.950 154.627 C 323.207 154.018,322.870 153.658,323.200 153.828 C 323.530 153.999,323.305 153.633,322.700 153.015 C 322.095 152.397,321.600 151.555,321.600 151.145 C 321.600 150.735,321.420 150.400,321.200 150.400 C 320.980 150.400,320.800 149.986,320.800 149.480 C 320.800 148.974,320.601 148.361,320.357 148.117 C 319.846 147.606,319.833 140.504,320.342 139.832 C 320.522 139.595,320.708 138.590,320.756 137.600 C 320.804 136.610,321.013 135.629,321.221 135.420 C 321.430 135.211,321.600 134.277,321.600 133.344 C 321.600 132.411,321.751 131.554,321.936 131.440 C 322.121 131.325,322.305 130.287,322.346 129.133 C 322.387 127.979,322.572 126.937,322.756 126.817 C 322.941 126.698,323.064 126.060,323.030 125.400 C 322.997 124.740,323.185 123.630,323.450 122.933 C 323.715 122.236,323.860 121.594,323.773 121.506 C 323.685 121.419,323.804 120.729,324.037 119.974 C 324.514 118.428,324.788 116.557,325.073 112.900 C 325.180 111.525,325.433 110.400,325.634 110.400 C 325.835 110.400,326.000 109.536,326.000 108.480 C 326.000 107.424,326.162 106.389,326.359 106.180 C 326.697 105.822,326.916 104.666,327.451 100.400 C 327.576 99.410,327.840 98.429,328.039 98.220 C 328.237 98.011,328.400 96.976,328.400 95.920 C 328.400 94.864,328.546 94.000,328.725 94.000 C 328.904 94.000,329.094 93.145,329.147 92.100 C 329.200 91.055,329.413 90.140,329.621 90.067 C 329.830 89.993,330.000 89.059,330.000 87.990 C 330.000 86.922,330.180 85.936,330.400 85.800 C 330.620 85.664,330.800 84.318,330.800 82.810 C 330.800 81.237,330.980 80.007,331.223 79.926 C 332.097 79.634,330.106 73.480,329.002 73.056 C 328.671 72.929,328.400 72.549,328.400 72.213 C 328.400 71.876,328.149 71.600,327.843 71.600 C 327.536 71.600,327.187 71.344,327.067 71.030 C 326.820 70.388,324.803 69.395,323.000 69.029 C 322.340 68.895,321.530 68.722,321.200 68.644 C 320.870 68.566,320.340 68.705,320.023 68.951 C 319.582 69.294,319.517 69.282,319.747 68.900 C 319.912 68.625,319.857 68.400,319.624 68.400 C 319.391 68.400,319.200 68.580,319.200 68.800 C 319.200 69.022,318.144 69.200,316.833 69.200 C 315.532 69.200,314.407 69.370,314.333 69.578 C 314.260 69.786,313.264 69.997,312.120 70.048 C 310.976 70.099,310.132 70.289,310.244 70.471 C 310.356 70.652,309.547 70.800,308.447 70.800 C 307.347 70.800,306.336 70.980,306.200 71.200 C 306.064 71.420,305.279 71.600,304.456 71.600 C 303.633 71.600,302.789 71.764,302.580 71.965 C 302.371 72.165,301.210 72.430,300.000 72.552 C 295.817 72.974,294.000 73.282,294.000 73.569 C 294.000 73.727,293.055 73.899,291.900 73.951 C 290.745 74.002,289.740 74.214,289.667 74.422 C 289.593 74.630,288.768 74.800,287.833 74.800 C 286.898 74.800,285.999 74.935,285.834 75.099 C 285.669 75.264,284.784 75.420,283.867 75.446 C 282.950 75.472,281.660 75.625,281.000 75.786 C 280.340 75.947,279.350 76.121,278.800 76.173 C 278.250 76.225,277.350 76.387,276.800 76.532 C 276.250 76.678,275.170 76.872,274.400 76.964 C 273.630 77.056,272.460 77.300,271.800 77.507 C 271.140 77.714,270.204 77.822,269.720 77.747 C 269.236 77.672,268.731 77.789,268.597 78.006 C 268.462 78.223,267.850 78.400,267.236 78.400 C 266.622 78.400,265.598 78.574,264.960 78.786 C 264.322 78.999,263.076 79.233,262.191 79.307 C 261.306 79.380,260.383 79.563,260.140 79.713 C 259.382 80.182,252.362 80.122,251.883 79.643 C 251.639 79.399,251.026 79.200,250.520 79.200 C 250.014 79.200,249.600 79.020,249.600 78.800 C 249.600 78.580,249.265 78.400,248.855 78.400 C 248.445 78.400,247.603 77.905,246.985 77.300 C 246.367 76.695,246.011 76.453,246.193 76.762 C 246.416 77.141,246.374 77.231,246.062 77.038 C 245.808 76.881,245.600 76.590,245.600 76.392 C 245.600 76.193,244.880 75.318,244.000 74.447 C 243.120 73.576,242.400 72.618,242.400 72.320 C 242.400 72.021,242.050 71.524,241.621 71.215 C 241.193 70.907,240.934 70.507,241.045 70.327 C 241.156 70.147,241.057 70.000,240.824 70.000 C 240.591 70.000,240.400 69.764,240.400 69.475 C 240.400 69.187,240.040 68.564,239.600 68.092 C 239.160 67.620,238.800 66.945,238.800 66.593 C 238.800 66.241,238.620 66.064,238.400 66.200 C 238.180 66.336,238.000 66.167,238.000 65.824 C 238.000 65.481,237.790 65.200,237.533 65.200 C 237.277 65.200,237.168 65.099,237.291 64.975 C 237.415 64.852,237.085 64.285,236.558 63.717 C 236.031 63.148,235.600 62.439,235.600 62.142 C 235.600 61.844,235.420 61.600,235.200 61.600 C 234.980 61.600,234.800 61.422,234.800 61.205 C 234.800 60.837,234.556 60.500,232.712 58.319 C 232.333 57.871,231.916 57.166,231.785 56.752 C 231.654 56.339,231.378 56.000,231.173 56.000 C 230.968 56.000,230.800 55.722,230.800 55.382 C 230.800 55.042,230.350 54.314,229.800 53.764 C 229.250 53.214,228.800 52.605,228.800 52.410 C 228.800 52.216,228.536 51.794,228.214 51.471 C 227.892 51.149,227.577 50.643,227.514 50.347 C 227.451 50.050,226.905 49.329,226.300 48.743 C 225.695 48.158,225.200 47.411,225.200 47.082 C 225.200 46.754,224.919 46.378,224.575 46.246 C 224.231 46.114,224.060 45.826,224.196 45.606 C 224.332 45.386,223.979 44.743,223.412 44.176 C 222.846 43.609,222.341 42.933,222.291 42.673 C 222.241 42.413,221.896 41.919,221.525 41.575 C 221.154 41.231,220.794 40.708,220.725 40.413 C 220.656 40.119,220.145 39.410,219.590 38.839 C 219.034 38.267,218.227 37.123,217.796 36.295 C 217.365 35.467,216.601 34.346,216.098 33.803 C 215.594 33.260,215.164 32.678,215.142 32.508 C 215.080 32.042,212.693 28.619,212.323 28.467 C 212.145 28.393,212.000 28.065,212.000 27.738 C 212.000 27.019,210.995 25.939,210.648 26.286 C 210.511 26.422,210.400 26.267,210.400 25.942 C 210.400 25.617,210.040 24.964,209.600 24.492 C 209.160 24.020,208.800 23.433,208.800 23.188 C 208.800 22.622,207.791 21.600,207.232 21.600 C 206.998 21.600,206.582 21.240,206.307 20.800 C 206.032 20.360,205.390 20.000,204.880 20.000 C 204.335 20.000,204.060 19.827,204.212 19.581 C 204.388 19.296,203.045 19.182,200.041 19.227 C 197.594 19.263,195.708 19.451,195.829 19.646 M216.200 90.831 C 217.740 91.055,219.869 91.410,220.931 91.619 C 221.992 91.829,223.330 92.000,223.902 92.000 C 224.475 92.000,225.496 92.168,226.172 92.373 C 226.847 92.578,228.120 92.923,229.000 93.140 C 240.062 95.865,250.819 100.274,259.761 105.749 C 262.143 107.207,264.159 108.400,264.241 108.400 C 264.324 108.400,264.708 108.660,265.095 108.978 C 265.483 109.295,266.970 110.415,268.400 111.465 C 269.830 112.516,271.090 113.486,271.200 113.622 C 271.310 113.757,271.693 114.033,272.052 114.234 C 272.810 114.660,278.630 119.858,280.986 122.214 C 290.925 132.154,300.474 146.522,305.300 158.800 C 305.516 159.350,305.852 160.113,306.047 160.495 C 306.241 160.877,306.400 161.464,306.400 161.800 C 306.400 162.136,306.559 162.723,306.753 163.105 C 307.616 164.802,308.395 166.943,308.824 168.800 C 309.001 169.570,309.351 170.920,309.600 171.800 C 313.677 186.195,314.301 205.172,311.224 221.200 C 310.240 226.327,308.632 232.457,307.604 235.000 C 307.426 235.440,307.064 236.430,306.800 237.200 C 306.536 237.970,306.157 239.005,305.960 239.500 C 305.762 239.995,305.439 240.805,305.241 241.300 C 304.797 242.415,303.154 246.050,301.715 249.100 C 300.361 251.970,295.127 260.819,293.638 262.755 C 293.027 263.550,291.508 265.581,290.264 267.269 C 289.020 268.957,286.786 271.630,285.301 273.209 C 283.815 274.788,282.545 276.227,282.477 276.409 C 282.053 277.543,265.100 291.600,264.155 291.600 C 264.039 291.600,263.192 292.118,262.272 292.750 C 258.561 295.302,249.819 299.867,245.400 301.559 C 244.080 302.064,242.640 302.622,242.200 302.799 C 241.760 302.975,240.770 303.336,240.000 303.600 C 239.230 303.864,238.240 304.226,237.800 304.404 C 236.254 305.029,235.385 305.304,233.800 305.668 C 231.820 306.124,229.886 306.613,227.800 307.186 C 217.236 310.088,197.645 310.827,184.400 308.822 C 182.970 308.606,180.760 308.307,179.489 308.158 C 178.217 308.009,177.082 307.732,176.965 307.543 C 176.848 307.355,176.371 307.200,175.905 307.200 C 175.438 307.200,174.504 307.032,173.828 306.827 C 173.153 306.622,171.835 306.262,170.900 306.027 C 167.704 305.224,165.800 304.656,165.400 304.386 C 165.180 304.237,164.640 304.017,164.200 303.897 C 160.042 302.763,148.149 297.366,144.941 295.159 C 144.014 294.522,143.141 294.000,143.000 294.000 C 142.859 294.000,141.959 293.460,141.000 292.800 C 140.041 292.140,139.134 291.600,138.986 291.600 C 138.837 291.600,138.227 291.195,137.629 290.700 C 137.031 290.205,136.016 289.409,135.371 288.931 C 130.941 285.644,129.761 284.697,126.985 282.200 C 122.409 278.083,116.060 271.443,114.459 269.097 C 114.122 268.604,113.737 268.110,113.604 268.000 C 113.471 267.890,112.929 267.170,112.400 266.400 C 111.871 265.630,111.326 264.910,111.189 264.800 C 110.083 263.912,103.226 252.579,101.374 248.578 C 98.137 241.580,97.600 240.366,97.600 240.043 C 97.600 239.656,96.107 235.741,95.564 234.705 C 95.364 234.323,95.200 233.659,95.200 233.229 C 95.200 232.799,95.040 232.348,94.844 232.227 C 94.649 232.106,94.392 231.421,94.273 230.704 C 94.155 229.987,93.873 228.680,93.647 227.800 C 93.421 226.920,93.124 225.660,92.988 225.000 C 92.851 224.340,92.586 223.440,92.398 223.000 C 92.209 222.560,91.943 221.210,91.805 220.000 C 91.667 218.790,91.380 216.720,91.167 215.400 C 90.070 208.597,89.880 193.549,90.811 187.100 C 92.067 178.389,92.009 178.705,93.233 173.900 C 94.183 170.170,94.560 168.856,95.671 165.400 C 96.307 163.420,97.002 161.487,97.214 161.105 C 97.426 160.723,97.600 160.217,97.600 159.980 C 97.600 159.743,98.125 158.436,98.767 157.075 C 99.410 155.714,100.549 153.250,101.299 151.600 C 102.049 149.950,103.413 147.367,104.331 145.859 C 105.249 144.352,106.000 143.040,106.000 142.944 C 106.000 142.714,110.858 135.459,111.186 135.200 C 111.325 135.090,111.875 134.370,112.408 133.600 C 112.942 132.830,113.710 131.840,114.116 131.400 C 114.522 130.960,115.426 129.847,116.127 128.926 C 118.138 126.280,127.065 117.588,130.800 114.639 C 132.670 113.162,134.494 111.713,134.854 111.420 C 135.903 110.564,141.364 106.921,143.053 105.950 C 147.376 103.464,153.040 100.414,153.346 100.408 C 153.537 100.403,155.038 99.770,156.682 99.000 C 158.326 98.230,159.889 97.600,160.156 97.600 C 160.422 97.600,160.811 97.451,161.020 97.270 C 161.229 97.088,162.210 96.710,163.200 96.431 C 164.190 96.151,165.313 95.760,165.695 95.561 C 166.077 95.362,166.741 95.200,167.171 95.200 C 167.601 95.200,168.064 95.020,168.200 94.800 C 168.336 94.580,168.876 94.400,169.400 94.400 C 169.924 94.400,170.452 94.239,170.574 94.042 C 170.695 93.845,171.471 93.587,172.297 93.468 C 173.124 93.349,174.610 93.068,175.600 92.843 C 182.887 91.190,186.033 90.796,193.800 90.565 C 197.540 90.454,200.780 90.295,201.000 90.211 C 201.715 89.938,213.322 90.411,216.200 90.831 " stroke="none" fill="#f4db8b" fill-rule="evenodd"></path><path id="path1" d="M116.900 0.264 C 116.405 0.369,116.000 0.611,116.000 0.801 C 116.000 0.991,115.623 1.266,115.162 1.412 C 113.241 2.022,109.099 7.665,109.772 8.755 C 109.900 8.962,109.806 9.198,109.562 9.279 C 108.183 9.739,109.109 17.766,111.003 21.770 C 111.551 22.929,112.000 24.175,112.000 24.539 C 112.000 24.902,112.180 25.200,112.400 25.200 C 112.620 25.200,112.800 25.472,112.800 25.804 C 112.800 26.137,113.178 27.262,113.640 28.304 C 114.102 29.347,114.663 30.650,114.887 31.200 C 115.110 31.750,115.452 32.513,115.647 32.895 C 115.841 33.277,116.000 33.862,116.000 34.195 C 116.000 34.528,116.180 34.800,116.400 34.800 C 116.620 34.800,116.800 35.072,116.800 35.404 C 116.800 35.956,117.933 38.793,118.833 40.495 C 119.035 40.877,119.200 41.462,119.200 41.795 C 119.200 42.128,119.380 42.400,119.600 42.400 C 119.820 42.400,120.000 42.760,120.000 43.200 C 120.000 43.640,120.180 44.000,120.400 44.000 C 120.620 44.000,120.800 44.500,120.800 45.112 C 120.800 45.765,121.130 46.461,121.600 46.800 C 122.040 47.117,122.400 47.697,122.400 48.088 C 122.400 48.480,122.580 48.800,122.800 48.800 C 123.020 48.800,123.200 49.076,123.200 49.413 C 123.200 49.749,123.515 50.143,123.900 50.288 C 124.285 50.433,125.050 51.012,125.600 51.575 C 127.939 53.972,138.400 55.953,138.400 54.000 C 138.400 53.780,138.672 53.600,139.005 53.600 C 139.714 53.600,141.030 52.889,142.155 51.900 C 142.593 51.515,143.156 51.200,143.408 51.200 C 143.659 51.200,144.119 50.705,144.430 50.100 C 144.740 49.495,145.311 48.709,145.697 48.353 C 146.084 47.997,146.400 47.412,146.400 47.053 C 146.400 46.694,146.580 46.400,146.800 46.400 C 147.020 46.400,147.200 45.871,147.200 45.224 C 147.200 44.577,147.380 43.936,147.600 43.800 C 147.820 43.664,148.000 42.314,148.000 40.800 C 148.000 39.286,147.820 37.936,147.600 37.800 C 147.380 37.664,147.200 36.933,147.200 36.176 C 147.200 35.419,147.020 34.800,146.800 34.800 C 146.580 34.800,146.400 34.440,146.400 34.000 C 146.400 33.560,146.220 33.200,146.000 33.200 C 145.780 33.200,145.600 32.750,145.600 32.200 C 145.600 31.650,145.420 31.200,145.200 31.200 C 144.980 31.200,144.800 30.750,144.800 30.200 C 144.800 29.650,144.620 29.200,144.400 29.200 C 144.180 29.200,144.000 28.840,144.000 28.400 C 144.000 27.960,143.820 27.600,143.600 27.600 C 143.380 27.600,143.200 27.150,143.200 26.600 C 143.200 26.050,143.020 25.600,142.800 25.600 C 142.580 25.600,142.400 25.240,142.400 24.800 C 142.400 24.360,142.220 24.000,142.000 24.000 C 141.780 24.000,141.600 23.490,141.600 22.867 C 141.600 22.243,141.465 21.598,141.300 21.433 C 141.135 21.268,140.985 21.013,140.966 20.867 C 140.930 20.580,140.319 19.060,139.333 16.806 C 138.995 16.033,138.575 15.040,138.399 14.600 C 138.223 14.160,137.702 12.947,137.240 11.904 C 136.778 10.862,136.400 9.922,136.400 9.816 C 136.400 7.955,131.272 1.200,129.859 1.200 C 129.533 1.200,129.192 0.975,129.100 0.700 C 128.932 0.194,118.913 -0.164,116.900 0.264 M270.686 0.954 C 267.712 2.495,265.352 5.337,263.839 9.200 C 263.451 10.190,262.861 11.630,262.526 12.400 C 262.192 13.170,261.775 14.160,261.599 14.600 C 261.423 15.040,260.895 16.268,260.424 17.329 C 259.953 18.391,259.463 19.786,259.334 20.429 C 259.205 21.073,258.943 21.600,258.750 21.600 C 258.558 21.600,258.400 22.140,258.400 22.800 C 258.400 23.460,258.220 24.000,258.000 24.000 C 257.780 24.000,257.600 24.360,257.600 24.800 C 257.600 25.240,257.420 25.600,257.200 25.600 C 256.980 25.600,256.800 26.050,256.800 26.600 C 256.800 27.150,256.620 27.600,256.400 27.600 C 256.180 27.600,256.000 27.960,256.000 28.400 C 256.000 28.840,255.820 29.200,255.600 29.200 C 255.380 29.200,255.200 29.650,255.200 30.200 C 255.200 30.750,255.020 31.200,254.800 31.200 C 254.580 31.200,254.400 31.650,254.400 32.200 C 254.400 32.750,254.220 33.200,254.000 33.200 C 253.780 33.200,253.600 33.549,253.600 33.976 C 253.600 34.403,253.420 34.864,253.200 35.000 C 252.980 35.136,252.800 35.766,252.800 36.400 C 252.800 37.034,252.620 37.664,252.400 37.800 C 252.180 37.936,252.000 39.286,252.000 40.800 C 252.000 42.314,252.180 43.664,252.400 43.800 C 252.620 43.936,252.800 44.577,252.800 45.224 C 252.800 45.871,252.980 46.400,253.200 46.400 C 253.420 46.400,253.600 46.720,253.600 47.112 C 253.600 47.503,253.960 48.083,254.400 48.400 C 254.840 48.717,255.200 49.187,255.200 49.443 C 255.200 49.700,255.756 50.335,256.435 50.855 C 257.114 51.375,257.886 51.980,258.150 52.200 C 259.036 52.937,260.383 53.600,260.995 53.600 C 261.328 53.600,261.600 53.780,261.600 54.000 C 261.600 54.241,263.254 54.400,265.762 54.400 C 270.393 54.400,272.081 53.822,274.800 51.303 C 275.570 50.590,276.335 50.005,276.500 50.003 C 276.665 50.002,276.800 49.730,276.800 49.400 C 276.800 49.070,276.980 48.800,277.200 48.800 C 277.420 48.800,277.600 48.530,277.600 48.200 C 277.600 47.870,277.780 47.600,278.000 47.600 C 278.220 47.600,278.400 47.330,278.400 47.000 C 278.400 46.670,278.580 46.400,278.800 46.400 C 279.020 46.400,279.200 45.860,279.200 45.200 C 279.200 44.540,279.380 44.000,279.600 44.000 C 279.820 44.000,280.000 43.640,280.000 43.200 C 280.000 42.760,280.180 42.400,280.400 42.400 C 280.620 42.400,280.800 42.128,280.800 41.795 C 280.800 41.462,280.965 40.877,281.167 40.495 C 282.067 38.793,283.200 35.956,283.200 35.404 C 283.200 35.072,283.380 34.800,283.600 34.800 C 283.820 34.800,284.000 34.440,284.000 34.000 C 284.000 33.560,284.180 33.200,284.400 33.200 C 284.620 33.200,284.800 32.838,284.800 32.395 C 284.800 31.952,284.965 31.277,285.167 30.895 C 286.067 29.193,287.200 26.356,287.200 25.804 C 287.200 25.472,287.341 25.200,287.513 25.200 C 287.685 25.200,288.074 24.345,288.378 23.300 C 288.682 22.255,289.045 21.310,289.185 21.200 C 290.566 20.114,292.011 9.200,290.773 9.200 C 290.568 9.200,290.400 8.836,290.400 8.392 C 290.400 6.730,285.929 1.200,284.585 1.200 C 284.300 1.200,283.992 0.975,283.900 0.700 C 283.537 -0.391,272.888 -0.186,270.686 0.954 M187.600 91.256 C 186.610 91.420,184.360 91.754,182.600 92.000 C 180.840 92.245,178.860 92.595,178.200 92.777 C 177.540 92.959,175.920 93.326,174.600 93.592 C 134.881 101.603,99.327 139.042,92.354 180.200 C 91.313 186.349,91.114 188.876,90.923 198.400 C 90.683 210.398,91.128 214.603,93.865 226.200 C 96.547 237.563,106.227 259.341,109.956 262.400 C 110.090 262.510,111.274 264.040,112.586 265.800 C 120.990 277.070,132.684 287.444,145.398 294.906 C 146.059 295.294,149.120 296.855,152.200 298.375 C 157.515 300.999,158.741 301.507,165.400 303.847 C 169.362 305.239,178.386 307.432,182.400 307.978 C 184.270 308.233,186.688 308.637,187.774 308.876 C 190.370 309.449,211.829 309.454,215.000 308.883 C 216.320 308.645,218.750 308.237,220.400 307.977 C 224.438 307.338,232.755 305.341,236.200 304.183 C 240.840 302.623,243.188 301.745,243.468 301.465 C 243.614 301.319,243.999 301.200,244.324 301.200 C 245.149 301.200,256.989 295.383,259.050 293.966 C 259.982 293.325,260.937 292.800,261.172 292.800 C 261.407 292.800,261.600 292.620,261.600 292.400 C 261.600 292.180,261.793 292.000,262.028 292.000 C 262.414 292.000,265.912 289.780,266.400 289.225 C 266.510 289.100,267.680 288.191,269.000 287.205 C 276.429 281.654,284.629 273.717,288.587 268.242 C 289.240 267.339,289.879 266.510,290.007 266.400 C 290.134 266.290,290.671 265.570,291.200 264.800 C 291.729 264.030,292.441 263.128,292.781 262.796 C 293.121 262.463,293.660 261.743,293.978 261.196 C 294.297 260.648,295.536 258.580,296.733 256.600 C 297.931 254.620,300.160 250.390,301.688 247.200 C 303.216 244.010,304.631 241.087,304.833 240.705 C 305.035 240.323,305.200 239.736,305.200 239.400 C 305.200 239.064,305.359 238.477,305.553 238.095 C 306.702 235.837,308.400 230.827,308.400 229.697 C 308.400 229.230,308.580 228.736,308.800 228.600 C 309.020 228.464,309.200 227.744,309.200 227.000 C 309.200 226.256,309.360 225.548,309.556 225.427 C 309.912 225.207,310.100 224.354,310.816 219.700 C 311.027 218.325,311.404 215.985,311.653 214.500 C 312.264 210.858,312.251 189.068,311.636 185.400 C 311.378 183.860,311.069 181.610,310.948 180.400 C 310.828 179.190,310.565 178.029,310.365 177.820 C 310.164 177.611,310.000 176.857,310.000 176.144 C 310.000 175.431,309.820 174.736,309.600 174.600 C 309.380 174.464,309.200 173.971,309.200 173.505 C 309.200 173.038,309.032 172.104,308.827 171.428 C 308.622 170.753,308.231 169.390,307.958 168.400 C 307.684 167.410,307.312 166.429,307.130 166.220 C 306.949 166.011,306.800 165.514,306.800 165.115 C 306.800 164.716,306.620 164.032,306.400 163.595 C 306.180 163.158,305.820 162.442,305.600 162.005 C 305.380 161.568,305.200 160.936,305.200 160.600 C 305.200 160.264,305.034 159.677,304.831 159.295 C 304.629 158.913,303.354 156.260,301.999 153.400 C 298.915 146.890,293.671 137.811,292.411 136.800 C 292.274 136.690,291.723 135.970,291.186 135.200 C 290.650 134.430,289.991 133.530,289.723 133.200 C 289.454 132.870,288.690 131.905,288.025 131.055 C 287.360 130.205,285.957 128.568,284.908 127.418 C 283.859 126.267,282.447 124.713,281.771 123.963 C 279.539 121.488,273.019 115.783,269.000 112.788 C 267.680 111.805,266.362 110.775,266.072 110.500 C 265.781 110.225,264.701 109.514,263.672 108.919 C 262.642 108.325,261.710 107.740,261.600 107.619 C 261.490 107.499,260.590 106.963,259.600 106.430 C 258.610 105.896,257.710 105.332,257.600 105.176 C 257.247 104.676,245.941 99.361,243.200 98.407 C 241.476 97.807,240.020 97.219,239.105 96.753 C 238.723 96.559,238.136 96.400,237.800 96.400 C 237.464 96.400,236.877 96.242,236.495 96.049 C 235.339 95.465,232.996 94.800,232.095 94.800 C 231.629 94.800,231.136 94.620,231.000 94.400 C 230.864 94.180,230.144 94.000,229.400 94.000 C 228.656 94.000,227.948 93.839,227.826 93.642 C 227.705 93.445,226.839 93.171,225.903 93.032 C 224.966 92.894,223.030 92.599,221.600 92.378 C 212.307 90.939,200.300 90.412,194.554 91.191 C 192.288 91.499,190.623 91.549,190.154 91.323 C 189.739 91.123,188.590 91.093,187.600 91.256 M10.100 109.117 C 9.605 109.193,9.200 109.434,9.200 109.651 C 9.200 109.869,9.022 109.937,8.805 109.803 C 7.781 109.170,1.600 113.432,1.600 114.771 C 1.600 114.976,1.285 115.458,0.900 115.843 C 0.007 116.736,-0.175 128.808,0.700 129.100 C 0.975 129.192,1.200 129.533,1.200 129.859 C 1.200 131.272,7.955 136.400,9.816 136.400 C 9.922 136.400,10.862 136.778,11.904 137.240 C 12.947 137.702,14.160 138.223,14.600 138.399 C 15.040 138.575,16.033 138.995,16.806 139.333 C 19.060 140.319,20.580 140.930,20.867 140.966 C 21.013 140.985,21.268 141.135,21.433 141.300 C 21.598 141.465,22.243 141.600,22.867 141.600 C 23.490 141.600,24.000 141.780,24.000 142.000 C 24.000 142.220,24.360 142.400,24.800 142.400 C 25.240 142.400,25.600 142.580,25.600 142.800 C 25.600 143.020,26.050 143.200,26.600 143.200 C 27.150 143.200,27.600 143.380,27.600 143.600 C 27.600 143.820,27.960 144.000,28.400 144.000 C 28.840 144.000,29.200 144.180,29.200 144.400 C 29.200 144.620,29.650 144.800,30.200 144.800 C 30.750 144.800,31.200 144.980,31.200 145.200 C 31.200 145.420,31.650 145.600,32.200 145.600 C 32.750 145.600,33.200 145.780,33.200 146.000 C 33.200 146.220,33.560 146.400,34.000 146.400 C 34.440 146.400,34.800 146.580,34.800 146.800 C 34.800 147.020,35.329 147.200,35.976 147.200 C 36.623 147.200,37.264 147.380,37.400 147.600 C 37.536 147.820,38.897 148.000,40.424 148.000 C 42.008 148.000,43.200 147.828,43.200 147.600 C 43.200 147.380,43.729 147.200,44.376 147.200 C 45.023 147.200,45.664 147.020,45.800 146.800 C 45.936 146.580,46.398 146.400,46.827 146.400 C 47.256 146.400,48.172 145.860,48.863 145.200 C 49.554 144.540,50.283 144.000,50.483 144.000 C 50.683 144.000,50.736 143.820,50.600 143.600 C 50.464 143.380,50.633 143.200,50.976 143.200 C 51.319 143.200,51.600 143.033,51.600 142.829 C 51.600 142.624,51.825 142.212,52.100 141.913 C 52.882 141.063,53.600 139.670,53.600 139.005 C 53.600 138.672,53.780 138.400,54.000 138.400 C 55.716 138.400,53.939 127.762,51.922 125.953 C 51.525 125.597,51.200 125.142,51.200 124.942 C 51.200 124.572,49.766 123.200,49.379 123.200 C 49.262 123.200,48.780 122.840,48.308 122.400 C 47.836 121.960,47.213 121.600,46.925 121.600 C 46.636 121.600,46.400 121.420,46.400 121.200 C 46.400 120.980,45.860 120.800,45.200 120.800 C 44.540 120.800,44.000 120.620,44.000 120.400 C 44.000 120.180,43.640 120.000,43.200 120.000 C 42.760 120.000,42.400 119.820,42.400 119.600 C 42.400 119.380,42.128 119.200,41.795 119.200 C 41.462 119.200,40.877 119.035,40.495 118.833 C 38.793 117.933,35.956 116.800,35.404 116.800 C 35.072 116.800,34.800 116.620,34.800 116.400 C 34.800 116.180,34.528 116.000,34.195 116.000 C 33.862 116.000,33.277 115.841,32.895 115.647 C 32.513 115.452,31.750 115.110,31.200 114.887 C 30.650 114.663,29.347 114.102,28.304 113.640 C 27.262 113.178,26.137 112.800,25.804 112.800 C 25.472 112.800,25.200 112.620,25.200 112.400 C 25.200 112.180,24.878 112.000,24.485 112.000 C 24.091 112.000,23.073 111.645,22.223 111.212 C 18.715 109.423,13.716 108.559,10.100 109.117 M382.442 109.461 C 381.300 109.753,379.378 110.444,378.171 110.996 C 376.964 111.548,375.712 112.000,375.388 112.000 C 375.065 112.000,374.800 112.180,374.800 112.400 C 374.800 112.620,374.521 112.800,374.181 112.800 C 373.840 112.800,372.816 113.160,371.906 113.600 C 370.995 114.040,370.014 114.400,369.725 114.400 C 369.436 114.400,369.200 114.580,369.200 114.800 C 369.200 115.020,368.761 115.200,368.224 115.200 C 367.687 115.200,367.136 115.380,367.000 115.600 C 366.864 115.820,366.403 116.000,365.976 116.000 C 365.549 116.000,365.200 116.180,365.200 116.400 C 365.200 116.620,364.928 116.800,364.595 116.800 C 364.262 116.800,363.677 116.959,363.295 117.153 C 362.913 117.348,362.060 117.729,361.400 118.000 C 360.740 118.271,359.887 118.652,359.505 118.847 C 359.123 119.041,358.538 119.200,358.205 119.200 C 357.872 119.200,357.600 119.380,357.600 119.600 C 357.600 119.820,357.240 120.000,356.800 120.000 C 356.360 120.000,356.000 120.180,356.000 120.400 C 356.000 120.620,355.645 120.800,355.212 120.800 C 354.351 120.800,351.844 122.099,350.919 123.024 C 350.599 123.344,349.992 123.790,349.569 124.017 C 349.146 124.243,348.800 124.626,348.800 124.867 C 348.800 125.109,348.484 125.597,348.097 125.953 C 347.711 126.309,347.150 127.140,346.851 127.800 C 346.551 128.460,346.137 129.329,345.930 129.732 C 345.068 131.407,345.869 140.000,346.888 140.000 C 347.059 140.000,347.200 140.360,347.200 140.800 C 347.200 141.240,347.359 141.600,347.553 141.600 C 347.748 141.600,348.001 141.960,348.116 142.400 C 348.231 142.840,348.623 143.200,348.986 143.200 C 349.350 143.200,349.536 143.380,349.400 143.600 C 349.264 143.820,349.317 144.000,349.517 144.000 C 349.717 144.000,350.446 144.540,351.137 145.200 C 351.828 145.860,352.744 146.400,353.173 146.400 C 353.602 146.400,354.064 146.580,354.200 146.800 C 354.336 147.020,354.941 147.200,355.544 147.200 C 356.147 147.200,356.837 147.397,357.078 147.638 C 357.754 148.314,365.200 147.506,365.200 146.756 C 365.200 146.560,365.560 146.400,366.000 146.400 C 366.440 146.400,366.800 146.220,366.800 146.000 C 366.800 145.780,367.155 145.600,367.588 145.600 C 368.021 145.600,369.017 145.240,369.800 144.800 C 370.583 144.360,371.489 144.000,371.812 144.000 C 372.135 144.000,372.400 143.820,372.400 143.600 C 372.400 143.380,372.850 143.200,373.400 143.200 C 373.950 143.200,374.400 143.020,374.400 142.800 C 374.400 142.580,374.760 142.400,375.200 142.400 C 375.640 142.400,376.000 142.220,376.000 142.000 C 376.000 141.780,376.462 141.600,377.026 141.600 C 377.590 141.600,379.040 141.148,380.249 140.595 C 381.458 140.042,383.157 139.368,384.024 139.097 C 384.891 138.827,385.600 138.469,385.600 138.303 C 385.600 138.136,385.872 138.000,386.205 138.000 C 386.538 138.000,387.123 137.840,387.505 137.644 C 388.167 137.304,390.032 136.461,393.286 135.030 C 394.778 134.373,398.800 130.769,398.800 130.087 C 398.800 129.887,399.087 129.147,399.439 128.442 C 400.252 126.813,400.134 116.378,399.300 116.100 C 399.025 116.008,398.800 115.707,398.800 115.430 C 398.800 114.390,395.228 111.168,392.964 110.167 C 390.214 108.951,385.635 108.644,382.442 109.461 M183.816 151.265 C 186.573 153.150,187.419 162.665,185.100 165.705 C 183.736 167.493,183.726 167.352,185.349 169.249 C 194.095 179.466,181.172 194.085,166.031 191.102 C 144.478 186.856,148.248 162.093,170.400 162.405 C 172.270 162.431,174.025 162.441,174.300 162.426 C 174.662 162.407,174.800 161.371,174.800 158.660 C 174.800 151.254,178.892 147.899,183.816 151.265 M261.800 151.256 C 263.837 152.652,264.126 153.436,264.322 158.100 L 264.503 162.400 268.351 162.414 C 290.443 162.496,294.851 186.529,273.601 191.035 C 258.157 194.309,244.884 179.725,253.813 169.293 C 255.423 167.412,255.465 167.205,254.421 166.311 C 252.624 164.772,252.140 155.125,253.740 152.728 C 255.484 150.115,259.156 149.444,261.800 151.256 M211.073 157.228 C 211.692 157.463,213.098 158.338,214.199 159.172 C 218.080 162.113,221.214 161.996,225.516 158.748 C 229.213 155.956,233.244 156.556,234.951 160.153 C 238.528 167.690,223.532 175.929,213.284 172.057 C 204.888 168.884,201.021 162.311,205.349 158.569 C 207.321 156.865,209.052 156.459,211.073 157.228 M37.800 252.400 C 37.664 252.620,37.034 252.800,36.400 252.800 C 35.766 252.800,35.136 252.980,35.000 253.200 C 34.864 253.420,34.403 253.600,33.976 253.600 C 33.549 253.600,33.200 253.780,33.200 254.000 C 33.200 254.220,32.750 254.400,32.200 254.400 C 31.650 254.400,31.200 254.580,31.200 254.800 C 31.200 255.020,30.750 255.200,30.200 255.200 C 29.650 255.200,29.200 255.380,29.200 255.600 C 29.200 255.820,28.840 256.000,28.400 256.000 C 27.960 256.000,27.600 256.180,27.600 256.400 C 27.600 256.620,27.150 256.800,26.600 256.800 C 26.050 256.800,25.600 256.980,25.600 257.200 C 25.600 257.420,25.240 257.600,24.800 257.600 C 24.360 257.600,24.000 257.780,24.000 258.000 C 24.000 258.220,23.460 258.400,22.800 258.400 C 22.140 258.400,21.600 258.558,21.600 258.750 C 21.600 258.943,21.073 259.205,20.429 259.334 C 19.786 259.463,18.391 259.953,17.329 260.424 C 16.268 260.895,15.040 261.423,14.600 261.599 C 14.160 261.775,13.170 262.192,12.400 262.526 C 11.630 262.861,10.190 263.451,9.200 263.839 C 5.212 265.401,2.158 268.019,0.769 271.067 C -0.490 273.832,-0.264 282.922,1.100 284.385 C 1.595 284.916,2.000 285.518,2.000 285.721 C 2.000 286.433,5.018 288.863,7.277 289.970 C 10.980 291.785,19.553 291.303,21.200 289.188 C 21.310 289.047,22.255 288.682,23.300 288.378 C 24.345 288.074,25.200 287.685,25.200 287.513 C 25.200 287.341,25.472 287.200,25.804 287.200 C 26.356 287.200,29.193 286.067,30.895 285.167 C 31.277 284.965,31.952 284.800,32.395 284.800 C 32.838 284.800,33.200 284.620,33.200 284.400 C 33.200 284.180,33.560 284.000,34.000 284.000 C 34.440 284.000,34.800 283.820,34.800 283.600 C 34.800 283.380,35.072 283.200,35.404 283.200 C 35.956 283.200,38.793 282.067,40.495 281.167 C 40.877 280.965,41.462 280.800,41.795 280.800 C 42.128 280.800,42.400 280.620,42.400 280.400 C 42.400 280.180,42.760 280.000,43.200 280.000 C 43.640 280.000,44.000 279.820,44.000 279.600 C 44.000 279.380,44.540 279.200,45.200 279.200 C 45.860 279.200,46.400 279.020,46.400 278.800 C 46.400 278.580,46.771 278.400,47.224 278.400 C 47.677 278.400,47.936 278.220,47.800 278.000 C 47.664 277.780,47.833 277.600,48.176 277.600 C 48.519 277.600,48.800 277.420,48.800 277.200 C 48.800 276.980,49.027 276.800,49.304 276.800 C 49.582 276.800,50.257 276.241,50.804 275.558 C 51.352 274.875,52.025 274.078,52.300 273.787 C 52.575 273.495,52.800 273.064,52.800 272.829 C 52.800 272.593,52.980 272.400,53.200 272.400 C 53.420 272.400,53.600 271.950,53.600 271.400 C 53.600 270.850,53.780 270.400,54.000 270.400 C 54.500 270.400,54.542 262.668,54.047 261.695 C 53.852 261.313,53.447 260.460,53.147 259.800 C 52.846 259.140,52.420 258.391,52.200 258.135 C 51.980 257.879,51.375 257.114,50.855 256.435 C 50.335 255.756,49.700 255.200,49.443 255.200 C 49.187 255.200,48.717 254.840,48.400 254.400 C 48.083 253.960,47.503 253.600,47.112 253.600 C 46.720 253.600,46.400 253.420,46.400 253.200 C 46.400 252.980,45.871 252.800,45.224 252.800 C 44.577 252.800,43.936 252.620,43.800 252.400 C 43.664 252.180,42.314 252.000,40.800 252.000 C 39.286 252.000,37.936 252.180,37.800 252.400 M356.200 252.400 C 356.064 252.620,355.524 252.800,355.000 252.800 C 354.476 252.800,353.936 252.980,353.800 253.200 C 353.664 253.420,353.270 253.600,352.923 253.600 C 352.577 253.600,352.003 253.932,351.647 254.337 C 351.291 254.743,350.597 255.288,350.105 255.549 C 349.128 256.066,346.400 260.069,346.400 260.984 C 346.400 261.297,346.210 261.670,345.977 261.814 C 345.500 262.109,345.527 269.414,346.008 270.394 C 346.172 270.727,346.551 271.540,346.851 272.200 C 347.150 272.860,347.711 273.691,348.097 274.047 C 348.484 274.403,348.800 274.858,348.800 275.058 C 348.800 275.476,350.256 276.800,350.716 276.800 C 350.885 276.800,351.283 277.160,351.600 277.600 C 351.917 278.040,352.486 278.400,352.865 278.400 C 353.243 278.400,353.664 278.580,353.800 278.800 C 353.936 279.020,354.487 279.200,355.024 279.200 C 355.561 279.200,356.000 279.380,356.000 279.600 C 356.000 279.820,356.360 280.000,356.800 280.000 C 357.240 280.000,357.600 280.180,357.600 280.400 C 357.600 280.620,357.872 280.800,358.205 280.800 C 358.538 280.800,359.123 280.959,359.505 281.153 C 359.887 281.348,360.740 281.729,361.400 282.000 C 362.060 282.271,362.913 282.652,363.295 282.847 C 363.677 283.041,364.262 283.200,364.595 283.200 C 364.928 283.200,365.200 283.347,365.200 283.528 C 365.200 283.708,366.100 284.100,367.200 284.400 C 368.300 284.700,369.200 285.092,369.200 285.272 C 369.200 285.453,369.436 285.600,369.725 285.600 C 370.014 285.600,370.995 285.960,371.906 286.400 C 372.816 286.840,373.840 287.200,374.181 287.200 C 374.521 287.200,374.800 287.380,374.800 287.600 C 374.800 287.820,375.072 288.000,375.404 288.000 C 375.737 288.000,376.772 288.351,377.704 288.780 C 384.016 291.683,388.670 292.069,392.688 290.023 C 396.065 288.304,397.730 286.611,399.512 283.081 C 400.258 281.605,400.076 271.158,399.300 270.900 C 399.025 270.808,398.800 270.497,398.800 270.207 C 398.800 269.269,394.896 265.663,392.921 264.777 C 389.216 263.115,387.375 262.378,387.096 262.445 C 387.043 262.457,386.100 262.021,385.000 261.475 C 383.900 260.929,382.010 260.149,380.800 259.741 C 379.590 259.334,378.540 258.865,378.467 258.700 C 378.393 258.535,377.808 258.400,377.167 258.400 C 376.525 258.400,376.000 258.220,376.000 258.000 C 376.000 257.780,375.640 257.600,375.200 257.600 C 374.760 257.600,374.400 257.420,374.400 257.200 C 374.400 256.980,373.950 256.800,373.400 256.800 C 372.850 256.800,372.400 256.620,372.400 256.400 C 372.400 256.180,372.051 256.000,371.624 256.000 C 371.197 256.000,370.736 255.820,370.600 255.600 C 370.464 255.380,370.003 255.200,369.576 255.200 C 369.149 255.200,368.800 255.020,368.800 254.800 C 368.800 254.580,368.350 254.400,367.800 254.400 C 367.250 254.400,366.800 254.220,366.800 254.000 C 366.800 253.780,366.440 253.600,366.000 253.600 C 365.560 253.600,365.200 253.458,365.200 253.285 C 365.200 253.112,364.618 252.926,363.907 252.872 C 363.195 252.817,362.439 252.599,362.227 252.387 C 361.715 251.875,356.517 251.887,356.200 252.400 M129.600 345.967 C 129.270 346.154,128.460 346.552,127.800 346.851 C 127.140 347.150,126.309 347.711,125.953 348.097 C 125.597 348.484,125.109 348.800,124.867 348.800 C 124.626 348.800,124.243 349.146,124.017 349.569 C 123.790 349.992,123.344 350.599,123.024 350.919 C 122.099 351.844,120.800 354.351,120.800 355.212 C 120.800 355.645,120.620 356.000,120.400 356.000 C 120.180 356.000,120.000 356.360,120.000 356.800 C 120.000 357.240,119.820 357.600,119.600 357.600 C 119.380 357.600,119.200 357.872,119.200 358.205 C 119.200 358.538,119.041 359.123,118.847 359.505 C 118.652 359.887,118.271 360.740,118.000 361.400 C 117.729 362.060,117.348 362.913,117.153 363.295 C 116.959 363.677,116.800 364.262,116.800 364.595 C 116.800 364.928,116.620 365.200,116.400 365.200 C 116.180 365.200,116.000 365.549,116.000 365.976 C 116.000 366.403,115.820 366.864,115.600 367.000 C 115.380 367.136,115.200 367.687,115.200 368.224 C 115.200 368.761,115.020 369.200,114.800 369.200 C 114.580 369.200,114.400 369.436,114.400 369.725 C 114.400 370.014,114.040 370.995,113.600 371.906 C 113.160 372.816,112.800 373.840,112.800 374.181 C 112.800 374.521,112.620 374.800,112.400 374.800 C 112.180 374.800,112.000 375.065,112.000 375.388 C 112.000 375.712,111.552 376.956,111.004 378.154 C 107.691 385.396,108.487 392.717,113.056 397.032 C 114.085 398.005,115.154 398.800,115.430 398.800 C 115.707 398.800,116.008 399.025,116.100 399.300 C 116.378 400.134,126.813 400.252,128.442 399.439 C 129.147 399.087,129.880 398.800,130.072 398.800 C 130.626 398.800,134.000 395.277,134.000 394.699 C 134.000 394.412,134.360 393.917,134.800 393.600 C 135.240 393.283,135.600 392.791,135.600 392.507 C 135.600 392.224,135.978 391.138,136.440 390.096 C 136.902 389.053,137.423 387.840,137.599 387.400 C 137.775 386.960,138.228 385.880,138.607 385.000 C 138.985 384.120,139.559 382.770,139.881 382.000 C 140.203 381.230,140.722 380.009,141.033 379.286 C 141.345 378.564,141.600 377.529,141.600 376.986 C 141.600 376.444,141.780 376.000,142.000 376.000 C 142.220 376.000,142.400 375.640,142.400 375.200 C 142.400 374.760,142.580 374.400,142.800 374.400 C 143.020 374.400,143.200 374.128,143.200 373.795 C 143.200 373.462,143.380 372.832,143.600 372.395 C 143.820 371.958,144.180 371.242,144.400 370.805 C 144.620 370.368,144.800 369.738,144.800 369.405 C 144.800 369.072,144.980 368.800,145.200 368.800 C 145.420 368.800,145.600 368.350,145.600 367.800 C 145.600 367.250,145.780 366.800,146.000 366.800 C 146.220 366.800,146.400 366.440,146.400 366.000 C 146.400 365.560,146.580 365.200,146.800 365.200 C 147.020 365.200,147.200 364.570,147.200 363.800 C 147.200 363.030,147.380 362.400,147.600 362.400 C 147.831 362.400,148.000 361.141,148.000 359.424 C 148.000 357.787,147.820 356.336,147.600 356.200 C 147.380 356.064,147.200 355.423,147.200 354.776 C 147.200 354.129,147.020 353.600,146.800 353.600 C 146.580 353.600,146.400 353.280,146.400 352.888 C 146.400 352.497,146.040 351.917,145.600 351.600 C 145.160 351.283,144.800 350.802,144.800 350.532 C 144.800 350.262,144.125 349.538,143.300 348.923 C 142.475 348.308,141.710 347.704,141.600 347.580 C 140.226 346.040,131.531 344.871,129.600 345.967 M261.814 345.977 C 261.670 346.210,261.297 346.400,260.984 346.400 C 260.069 346.400,256.066 349.128,255.549 350.105 C 255.288 350.597,254.743 351.291,254.337 351.647 C 253.932 352.003,253.600 352.577,253.600 352.923 C 253.600 353.270,253.420 353.664,253.200 353.800 C 252.980 353.936,252.800 354.476,252.800 355.000 C 252.800 355.524,252.620 356.064,252.400 356.200 C 251.887 356.517,251.875 361.715,252.387 362.227 C 252.599 362.439,252.817 363.195,252.872 363.907 C 252.926 364.618,253.112 365.200,253.285 365.200 C 253.458 365.200,253.600 365.560,253.600 366.000 C 253.600 366.440,253.780 366.800,254.000 366.800 C 254.220 366.800,254.400 367.250,254.400 367.800 C 254.400 368.350,254.580 368.800,254.800 368.800 C 255.020 368.800,255.200 369.149,255.200 369.576 C 255.200 370.003,255.380 370.464,255.600 370.600 C 255.820 370.736,256.000 371.197,256.000 371.624 C 256.000 372.051,256.180 372.400,256.400 372.400 C 256.620 372.400,256.800 372.850,256.800 373.400 C 256.800 373.950,256.980 374.400,257.200 374.400 C 257.420 374.400,257.600 374.760,257.600 375.200 C 257.600 375.640,257.780 376.000,258.000 376.000 C 258.220 376.000,258.400 376.525,258.400 377.167 C 258.400 377.808,258.535 378.393,258.700 378.467 C 258.865 378.540,259.334 379.590,259.741 380.800 C 260.149 382.010,260.929 383.900,261.475 385.000 C 262.021 386.100,262.441 387.000,262.408 387.000 C 262.264 387.000,262.980 388.804,264.115 391.300 C 264.790 392.785,265.490 394.000,265.671 394.000 C 265.852 394.000,266.000 394.275,266.000 394.611 C 266.000 395.252,269.327 398.800,269.928 398.800 C 270.120 398.800,270.853 399.087,271.558 399.439 C 273.187 400.252,283.622 400.134,283.900 399.300 C 283.992 399.025,284.303 398.800,284.593 398.800 C 285.529 398.800,288.979 395.045,289.741 393.197 C 290.149 392.209,290.627 391.115,290.803 390.766 C 291.934 388.533,291.007 382.548,288.780 377.704 C 288.351 376.772,288.000 375.737,288.000 375.404 C 288.000 375.072,287.820 374.800,287.600 374.800 C 287.380 374.800,287.200 374.521,287.200 374.181 C 287.200 373.840,286.840 372.816,286.400 371.906 C 285.960 370.995,285.600 370.014,285.600 369.725 C 285.600 369.436,285.453 369.200,285.272 369.200 C 285.092 369.200,284.700 368.300,284.400 367.200 C 284.100 366.100,283.708 365.200,283.528 365.200 C 283.347 365.200,283.200 364.928,283.200 364.595 C 283.200 364.262,283.041 363.677,282.847 363.295 C 282.652 362.913,282.271 362.060,282.000 361.400 C 281.729 360.740,281.348 359.887,281.153 359.505 C 280.959 359.123,280.800 358.538,280.800 358.205 C 280.800 357.872,280.620 357.600,280.400 357.600 C 280.180 357.600,280.000 357.240,280.000 356.800 C 280.000 356.360,279.820 356.000,279.600 356.000 C 279.380 356.000,279.200 355.561,279.200 355.024 C 279.200 354.487,279.020 353.936,278.800 353.800 C 278.580 353.664,278.400 353.243,278.400 352.865 C 278.400 352.486,278.040 351.917,277.600 351.600 C 277.160 351.283,276.800 350.885,276.800 350.716 C 276.800 350.256,275.476 348.800,275.058 348.800 C 274.858 348.800,274.403 348.484,274.047 348.097 C 273.691 347.711,272.860 347.150,272.200 346.851 C 271.540 346.551,270.727 346.172,270.394 346.008 C 269.414 345.527,262.109 345.500,261.814 345.977 " stroke="none" fill="#ef976b" fill-rule="evenodd"></path><path id="path2" d="M177.749 150.975 C 173.582 153.529,173.363 164.443,177.425 167.106 C 181.150 169.548,185.638 167.236,186.220 162.576 C 187.396 153.166,183.308 147.568,177.749 150.975 M256.128 150.809 C 253.322 152.230,253.000 153.054,253.000 158.800 C 253.000 164.510,253.366 165.774,255.405 167.100 C 258.962 169.414,263.577 167.294,264.213 163.055 C 265.607 153.756,261.772 147.948,256.128 150.809 M207.741 157.077 C 203.403 157.925,202.309 163.641,205.800 167.215 C 213.142 174.731,224.976 175.021,232.674 167.874 C 239.373 161.653,232.788 153.257,225.516 158.748 C 221.214 161.996,218.080 162.113,214.199 159.172 C 211.317 156.988,210.143 156.607,207.741 157.077 " stroke="none" fill="#464d5c" fill-rule="evenodd"></path><path id="path3" d="M108.893 13.200 C 108.893 13.970,108.975 14.285,109.076 13.900 C 109.176 13.515,109.176 12.885,109.076 12.500 C 108.975 12.115,108.893 12.430,108.893 13.200 M12.500 109.076 C 12.885 109.176,13.515 109.176,13.900 109.076 C 14.285 108.975,13.970 108.893,13.200 108.893 C 12.430 108.893,12.115 108.975,12.500 109.076 M386.100 109.076 C 386.485 109.176,387.115 109.176,387.500 109.076 C 387.885 108.975,387.570 108.893,386.800 108.893 C 386.030 108.893,385.715 108.975,386.100 109.076 M164.235 163.027 C 149.476 167.104,147.023 183.092,160.210 189.263 C 172.872 195.189,187.811 188.548,187.795 177.000 C 187.789 172.345,184.630 166.010,183.085 167.555 C 181.035 169.605,174.800 166.389,174.800 163.283 C 174.800 162.290,167.537 162.115,164.235 163.027 M264.006 163.979 C 263.171 167.077,257.981 169.421,256.107 167.547 C 255.769 167.209,255.391 167.387,254.626 168.247 C 240.865 183.691,268.563 200.584,283.435 185.818 C 293.314 176.009,284.570 162.474,268.315 162.414 L 264.431 162.400 264.006 163.979 M108.893 386.800 C 108.893 387.570,108.975 387.885,109.076 387.500 C 109.176 387.115,109.176 386.485,109.076 386.100 C 108.975 385.715,108.893 386.030,108.893 386.800 " stroke="none" fill="#f47483" fill-rule="evenodd"></path><path id="path4" d="M201.000 90.211 C 200.780 90.295,197.540 90.454,193.800 90.565 C 186.033 90.796,182.887 91.190,175.600 92.843 C 174.610 93.068,173.124 93.349,172.297 93.468 C 171.471 93.587,170.695 93.845,170.574 94.042 C 170.452 94.239,169.924 94.400,169.400 94.400 C 168.876 94.400,168.336 94.580,168.200 94.800 C 168.064 95.020,167.601 95.200,167.171 95.200 C 166.741 95.200,166.077 95.362,165.695 95.561 C 165.313 95.760,164.190 96.151,163.200 96.431 C 162.210 96.710,161.229 97.088,161.020 97.270 C 160.811 97.451,160.428 97.600,160.168 97.600 C 159.432 97.600,155.123 99.656,155.361 99.894 C 155.478 100.011,156.524 99.660,157.687 99.114 C 160.407 97.837,171.485 94.220,174.600 93.592 C 175.920 93.326,177.540 92.959,178.200 92.777 C 178.860 92.595,180.840 92.248,182.600 92.005 C 184.360 91.762,186.646 91.424,187.681 91.255 C 188.739 91.081,189.851 91.109,190.225 91.318 C 190.643 91.552,192.239 91.506,194.544 91.193 C 200.300 90.412,212.299 90.937,221.600 92.378 C 223.030 92.599,224.966 92.894,225.903 93.032 C 226.839 93.171,227.705 93.445,227.826 93.642 C 227.948 93.839,228.656 94.000,229.400 94.000 C 230.144 94.000,230.864 94.180,231.000 94.400 C 231.136 94.620,231.629 94.800,232.095 94.800 C 232.996 94.800,235.339 95.465,236.495 96.049 C 236.877 96.242,237.464 96.400,237.800 96.400 C 238.136 96.400,238.723 96.559,239.105 96.753 C 240.020 97.219,241.476 97.807,243.200 98.407 C 245.941 99.361,257.247 104.676,257.600 105.176 C 257.710 105.332,258.610 105.896,259.600 106.430 C 260.590 106.963,261.490 107.499,261.600 107.619 C 261.710 107.740,262.642 108.325,263.672 108.919 C 264.701 109.514,265.781 110.225,266.072 110.500 C 266.362 110.775,267.680 111.805,269.000 112.788 C 273.019 115.783,279.539 121.488,281.771 123.963 C 282.447 124.713,283.859 126.267,284.908 127.418 C 285.957 128.568,287.360 130.205,288.025 131.055 C 288.690 131.905,289.454 132.870,289.723 133.200 C 289.991 133.530,290.650 134.430,291.186 135.200 C 291.723 135.970,292.274 136.690,292.411 136.800 C 293.671 137.811,298.915 146.890,301.999 153.400 C 303.354 156.260,304.629 158.913,304.831 159.295 C 305.034 159.677,305.200 160.264,305.200 160.600 C 305.200 160.936,305.380 161.568,305.600 162.005 C 305.820 162.442,306.180 163.158,306.400 163.595 C 306.620 164.032,306.800 164.716,306.800 165.115 C 306.800 165.514,306.949 166.011,307.130 166.220 C 307.312 166.429,307.684 167.410,307.958 168.400 C 308.231 169.390,308.622 170.753,308.827 171.428 C 309.032 172.104,309.200 173.038,309.200 173.505 C 309.200 173.971,309.380 174.464,309.600 174.600 C 309.820 174.736,310.000 175.431,310.000 176.144 C 310.000 176.857,310.164 177.611,310.365 177.820 C 310.565 178.029,310.828 179.190,310.948 180.400 C 311.069 181.610,311.378 183.860,311.636 185.400 C 312.257 189.102,312.263 210.845,311.644 214.600 C 311.391 216.140,311.014 218.480,310.807 219.800 C 310.082 224.431,309.909 225.209,309.556 225.427 C 309.360 225.548,309.200 226.256,309.200 227.000 C 309.200 227.744,309.020 228.464,308.800 228.600 C 308.580 228.736,308.400 229.230,308.400 229.697 C 308.400 230.827,306.702 235.837,305.553 238.095 C 305.359 238.477,305.200 239.064,305.200 239.400 C 305.200 239.736,305.035 240.323,304.833 240.705 C 304.631 241.087,303.216 244.010,301.688 247.200 C 300.160 250.390,297.931 254.620,296.733 256.600 C 295.536 258.580,294.297 260.648,293.978 261.196 C 293.660 261.743,293.121 262.463,292.781 262.796 C 292.441 263.128,291.729 264.030,291.200 264.800 C 290.671 265.570,290.134 266.290,290.007 266.400 C 289.879 266.510,289.240 267.339,288.587 268.242 C 284.629 273.717,276.429 281.654,269.000 287.205 C 267.680 288.191,266.510 289.100,266.400 289.225 C 265.912 289.780,262.414 292.000,262.028 292.000 C 261.793 292.000,261.600 292.180,261.600 292.400 C 261.600 292.620,261.407 292.800,261.172 292.800 C 260.937 292.800,259.982 293.325,259.050 293.966 C 256.989 295.383,245.149 301.200,244.324 301.200 C 243.999 301.200,243.614 301.319,243.468 301.465 C 243.188 301.745,240.840 302.623,236.200 304.183 C 232.755 305.341,224.438 307.338,220.400 307.977 C 218.750 308.237,216.320 308.645,215.000 308.883 C 211.829 309.454,190.370 309.449,187.774 308.876 C 186.688 308.637,184.270 308.233,182.400 307.978 C 178.386 307.432,169.362 305.239,165.400 303.847 C 158.741 301.507,157.515 300.999,152.200 298.375 C 136.029 290.394,122.832 279.541,112.586 265.800 C 111.274 264.040,110.090 262.510,109.956 262.400 C 106.227 259.341,96.547 237.563,93.865 226.200 C 91.128 214.603,90.683 210.398,90.923 198.400 C 91.166 186.279,91.670 182.066,93.937 173.200 C 95.146 168.475,97.657 160.910,99.167 157.443 C 99.636 156.367,99.939 155.405,99.839 155.306 C 99.638 155.105,97.600 159.393,97.600 160.017 C 97.600 160.234,97.426 160.723,97.214 161.105 C 97.002 161.487,96.307 163.420,95.671 165.400 C 94.560 168.856,94.183 170.170,93.233 173.900 C 92.009 178.705,92.067 178.389,90.811 187.100 C 89.880 193.549,90.070 208.597,91.167 215.400 C 91.380 216.720,91.667 218.790,91.805 220.000 C 91.943 221.210,92.209 222.560,92.398 223.000 C 92.586 223.440,92.851 224.340,92.988 225.000 C 93.124 225.660,93.421 226.920,93.647 227.800 C 93.873 228.680,94.155 229.987,94.273 230.704 C 94.392 231.421,94.649 232.106,94.844 232.227 C 95.040 232.348,95.200 232.799,95.200 233.229 C 95.200 233.659,95.364 234.323,95.564 234.705 C 96.107 235.741,97.600 239.656,97.600 240.043 C 97.600 240.366,98.137 241.580,101.374 248.578 C 103.226 252.579,110.083 263.912,111.189 264.800 C 111.326 264.910,111.871 265.630,112.400 266.400 C 112.929 267.170,113.471 267.890,113.604 268.000 C 113.737 268.110,114.122 268.604,114.459 269.097 C 116.060 271.443,122.409 278.083,126.985 282.200 C 129.761 284.697,130.941 285.644,135.371 288.931 C 136.016 289.409,137.031 290.205,137.629 290.700 C 138.227 291.195,138.837 291.600,138.986 291.600 C 139.134 291.600,140.041 292.140,141.000 292.800 C 141.959 293.460,142.859 294.000,143.000 294.000 C 143.141 294.000,144.014 294.522,144.941 295.159 C 148.149 297.366,160.042 302.763,164.200 303.897 C 164.640 304.017,165.180 304.237,165.400 304.386 C 165.800 304.656,167.704 305.224,170.900 306.027 C 171.835 306.262,173.153 306.622,173.828 306.827 C 174.504 307.032,175.438 307.200,175.905 307.200 C 176.371 307.200,176.848 307.355,176.965 307.543 C 177.082 307.732,178.217 308.009,179.489 308.158 C 180.760 308.307,182.970 308.606,184.400 308.822 C 197.645 310.827,217.236 310.088,227.800 307.186 C 229.886 306.613,231.820 306.124,233.800 305.668 C 235.385 305.304,236.254 305.029,237.800 304.404 C 238.240 304.226,239.230 303.864,240.000 303.600 C 240.770 303.336,241.760 302.975,242.200 302.799 C 242.640 302.622,244.080 302.064,245.400 301.559 C 249.819 299.867,258.561 295.302,262.272 292.750 C 263.192 292.118,264.039 291.600,264.155 291.600 C 265.100 291.600,282.053 277.543,282.477 276.409 C 282.545 276.227,283.815 274.788,285.301 273.209 C 286.786 271.630,289.020 268.957,290.264 267.269 C 291.508 265.581,293.027 263.550,293.638 262.755 C 295.127 260.819,300.361 251.970,301.715 249.100 C 303.154 246.050,304.797 242.415,305.241 241.300 C 305.439 240.805,305.762 239.995,305.960 239.500 C 306.157 239.005,306.536 237.970,306.800 237.200 C 307.064 236.430,307.426 235.440,307.604 235.000 C 308.632 232.457,310.240 226.327,311.224 221.200 C 314.301 205.172,313.677 186.195,309.600 171.800 C 309.351 170.920,309.001 169.570,308.824 168.800 C 308.395 166.943,307.616 164.802,306.753 163.105 C 306.559 162.723,306.400 162.136,306.400 161.800 C 306.400 161.464,306.241 160.877,306.047 160.495 C 305.852 160.113,305.516 159.350,305.300 158.800 C 300.474 146.522,290.925 132.154,280.986 122.214 C 278.630 119.858,272.810 114.660,272.052 114.234 C 271.693 114.033,271.310 113.757,271.200 113.622 C 271.090 113.486,269.830 112.516,268.400 111.465 C 266.970 110.415,265.483 109.295,265.095 108.978 C 264.708 108.660,264.324 108.400,264.241 108.400 C 264.159 108.400,262.143 107.207,259.761 105.749 C 250.819 100.274,240.062 95.865,229.000 93.140 C 228.120 92.923,226.847 92.578,226.172 92.373 C 225.496 92.168,224.475 92.000,223.902 92.000 C 223.330 92.000,221.992 91.829,220.931 91.619 C 215.742 90.596,202.453 89.657,201.000 90.211 M149.706 102.252 C 147.338 103.490,144.922 104.840,144.338 105.252 C 143.754 105.663,143.162 106.000,143.023 106.000 C 142.757 106.000,136.016 110.471,134.865 111.411 C 134.499 111.709,132.670 113.162,130.800 114.639 C 127.065 117.588,118.138 126.280,116.127 128.926 C 115.426 129.847,114.522 130.960,114.116 131.400 C 113.710 131.840,112.942 132.830,112.408 133.600 C 111.875 134.370,111.325 135.090,111.186 135.200 C 110.858 135.459,106.000 142.714,106.000 142.944 C 106.000 143.040,105.249 144.352,104.331 145.859 C 102.416 149.005,99.850 154.383,100.131 154.664 C 100.235 154.769,101.049 153.357,101.939 151.527 C 110.001 134.946,123.357 119.670,138.881 109.275 C 143.733 106.025,144.567 105.535,150.400 102.500 C 154.941 100.138,155.166 100.000,154.473 100.000 C 154.220 100.000,152.075 101.013,149.706 102.252 " stroke="none" fill="#f4b47c" fill-rule="evenodd"></path></g></svg>