<svg id="svg" version="1.1" xmlns="http://www.w3.org/2000/svg" xmlns:xlink="http://www.w3.org/1999/xlink" width="400" height="400" viewBox="0, 0, 400,400"><g id="svgg"><path id="path0" d="M162.604 160.519 C 160.846 162.764,155.176 169.909,150.004 176.399 C 144.832 182.888,140.386 188.468,140.125 188.799 C 139.864 189.129,136.984 192.735,133.725 196.810 C 125.664 206.893,125.788 206.736,124.025 209.039 C 123.167 210.160,122.225 211.330,121.932 211.639 C 121.640 211.948,120.886 212.887,120.259 213.727 C 119.631 214.567,118.641 215.467,118.059 215.727 C 116.895 216.247,114.400 218.566,114.400 219.127 C 114.400 219.322,113.903 220.003,113.296 220.641 C 112.688 221.278,111.752 222.430,111.215 223.200 C 110.678 223.970,110.130 224.690,109.998 224.800 C 109.866 224.910,109.228 225.720,108.580 226.600 C 107.932 227.480,106.907 228.677,106.301 229.260 C 105.696 229.844,105.200 230.497,105.200 230.712 C 105.200 230.927,104.480 231.845,103.600 232.752 C 102.600 233.783,102.000 234.776,102.000 235.400 L 102.000 236.400 129.000 236.400 C 146.733 236.400,156.000 236.537,156.000 236.800 C 156.000 237.020,155.850 237.200,155.668 237.200 C 155.485 237.200,155.080 237.694,154.768 238.297 C 154.455 238.900,153.660 239.965,153.000 240.664 C 150.974 242.807,149.833 244.149,148.800 245.604 C 148.255 246.372,147.312 247.522,146.704 248.159 C 146.097 248.797,145.600 249.490,145.600 249.699 C 145.600 249.908,145.087 250.558,144.459 251.145 C 143.832 251.731,142.995 252.835,142.600 253.600 C 142.205 254.365,141.368 255.469,140.741 256.055 C 140.113 256.642,139.600 257.282,139.600 257.479 C 139.600 257.676,138.880 258.541,138.000 259.400 C 137.120 260.259,136.400 261.106,136.400 261.281 C 136.400 261.456,135.680 262.341,134.800 263.248 C 133.920 264.155,133.200 265.055,133.200 265.248 C 133.200 265.441,132.480 266.341,131.600 267.248 C 130.720 268.155,130.000 269.061,130.000 269.262 C 130.000 269.462,129.370 270.257,128.600 271.027 C 127.830 271.797,127.200 272.573,127.200 272.752 C 127.200 272.931,126.829 273.510,126.376 274.039 C 125.922 274.567,125.202 275.406,124.776 275.903 C 124.349 276.400,124.000 276.895,124.000 277.003 C 124.000 277.111,123.280 277.941,122.400 278.848 C 121.520 279.755,120.800 280.655,120.800 280.848 C 120.800 281.041,120.080 281.941,119.200 282.848 C 118.320 283.755,117.600 284.669,117.600 284.880 C 117.600 285.090,116.880 285.954,116.000 286.800 C 115.120 287.646,114.400 288.537,114.400 288.782 C 114.400 289.027,113.815 289.822,113.100 290.549 C 111.523 292.154,109.613 294.539,108.800 295.921 C 108.470 296.482,107.525 297.651,106.700 298.519 C 105.875 299.386,105.200 300.255,105.200 300.448 C 105.200 300.641,104.480 301.541,103.600 302.448 C 102.720 303.355,102.000 304.261,102.000 304.462 C 102.000 304.662,101.415 305.431,100.700 306.170 C 99.985 306.908,98.590 308.538,97.600 309.792 C 96.610 311.045,95.575 312.312,95.300 312.607 C 94.387 313.585,94.705 314.400,96.000 314.400 C 96.660 314.400,97.200 314.220,97.200 314.000 C 97.200 313.780,97.520 313.600,97.912 313.600 C 98.303 313.600,98.883 313.240,99.200 312.800 C 99.517 312.360,100.057 312.000,100.400 312.000 C 100.743 312.000,101.283 311.640,101.600 311.200 C 101.917 310.760,102.457 310.400,102.800 310.400 C 103.143 310.400,103.683 310.040,104.000 309.600 C 104.317 309.160,104.819 308.800,105.115 308.800 C 105.663 308.800,108.490 306.846,108.733 306.300 C 108.807 306.135,109.172 306.000,109.545 306.000 C 109.918 306.000,110.483 305.640,110.800 305.200 C 111.117 304.760,111.657 304.400,112.000 304.400 C 112.343 304.400,112.883 304.040,113.200 303.600 C 113.517 303.160,114.057 302.800,114.400 302.800 C 114.743 302.800,115.283 302.440,115.600 302.000 C 115.917 301.560,116.457 301.200,116.800 301.200 C 117.143 301.200,117.683 300.840,118.000 300.400 C 118.317 299.960,118.814 299.600,119.105 299.600 C 119.396 299.600,120.020 299.240,120.492 298.800 C 120.964 298.360,121.587 298.000,121.875 298.000 C 122.164 298.000,122.400 297.820,122.400 297.600 C 122.400 297.380,122.670 297.200,123.000 297.200 C 123.330 297.200,123.600 297.020,123.600 296.800 C 123.600 296.580,123.870 296.400,124.200 296.400 C 124.530 296.400,124.800 296.220,124.800 296.000 C 124.800 295.780,125.030 295.600,125.312 295.600 C 125.593 295.600,126.083 295.240,126.400 294.800 C 126.717 294.360,127.257 294.000,127.600 294.000 C 127.943 294.000,128.483 293.640,128.800 293.200 C 129.117 292.760,129.697 292.400,130.088 292.400 C 130.480 292.400,130.800 292.247,130.800 292.061 C 130.800 291.874,131.520 291.397,132.400 291.000 C 133.280 290.603,134.000 290.126,134.000 289.939 C 134.000 289.753,134.236 289.600,134.525 289.600 C 134.813 289.600,135.398 289.285,135.825 288.900 C 136.251 288.515,137.095 287.945,137.700 287.632 C 138.305 287.320,138.800 286.915,138.800 286.732 C 138.800 286.550,139.036 286.400,139.325 286.400 C 139.613 286.400,140.236 286.040,140.708 285.600 C 141.180 285.160,141.714 284.800,141.895 284.800 C 142.076 284.800,142.483 284.440,142.800 284.000 C 143.117 283.560,143.657 283.200,144.000 283.200 C 144.343 283.200,144.883 282.840,145.200 282.400 C 145.517 281.960,146.057 281.600,146.400 281.600 C 146.743 281.600,147.283 281.240,147.600 280.800 C 147.917 280.360,148.457 280.000,148.800 280.000 C 149.143 280.000,149.683 279.640,150.000 279.200 C 150.317 278.760,150.897 278.400,151.288 278.400 C 151.680 278.400,152.000 278.220,152.000 278.000 C 152.000 277.780,152.270 277.600,152.600 277.600 C 152.930 277.600,153.200 277.420,153.200 277.200 C 153.200 276.980,153.470 276.800,153.800 276.800 C 154.130 276.800,154.400 276.620,154.400 276.400 C 154.400 276.180,154.670 276.000,155.000 276.000 C 155.330 276.000,155.600 275.840,155.600 275.643 C 155.600 275.447,156.005 275.182,156.500 275.054 C 156.995 274.926,157.917 274.371,158.549 273.822 C 159.181 273.272,160.036 272.716,160.449 272.584 C 160.862 272.453,161.200 272.178,161.200 271.973 C 161.200 271.768,161.436 271.600,161.725 271.600 C 162.013 271.600,162.636 271.240,163.108 270.800 C 163.580 270.360,164.204 270.000,164.495 270.000 C 164.786 270.000,165.283 269.640,165.600 269.200 C 165.917 268.760,166.457 268.400,166.800 268.400 C 167.143 268.400,167.683 268.040,168.000 267.600 C 168.317 267.160,168.857 266.800,169.200 266.800 C 169.543 266.800,170.083 266.440,170.400 266.000 C 170.717 265.560,171.257 265.200,171.600 265.200 C 171.943 265.200,172.483 264.840,172.800 264.400 C 173.117 263.960,173.605 263.600,173.885 263.600 C 174.164 263.600,174.618 263.240,174.893 262.800 C 175.168 262.360,175.669 262.000,176.008 262.000 C 176.346 262.000,176.883 261.640,177.200 261.200 C 177.517 260.760,178.057 260.400,178.400 260.400 C 178.743 260.400,179.283 260.040,179.600 259.600 C 179.917 259.160,180.484 258.800,180.860 258.800 C 181.235 258.800,181.788 258.575,182.087 258.300 C 182.386 258.025,183.029 257.575,183.515 257.300 C 184.002 257.025,184.796 256.575,185.280 256.300 C 185.763 256.025,186.517 255.485,186.955 255.100 C 187.393 254.715,187.904 254.400,188.092 254.400 C 188.280 254.400,188.789 254.069,189.223 253.664 C 189.658 253.259,190.505 252.675,191.107 252.367 C 191.708 252.058,192.491 251.489,192.847 251.103 C 193.203 250.716,193.748 250.400,194.059 250.400 C 194.369 250.400,194.883 250.040,195.200 249.600 C 195.517 249.160,196.057 248.800,196.400 248.800 C 196.743 248.800,197.283 248.440,197.600 248.000 C 197.917 247.560,198.457 247.200,198.800 247.200 C 199.143 247.200,199.683 246.840,200.000 246.400 C 200.317 245.960,200.857 245.600,201.200 245.600 C 201.543 245.600,202.083 245.240,202.400 244.800 C 202.717 244.360,203.257 244.000,203.600 244.000 C 203.943 244.000,204.483 243.640,204.800 243.200 C 205.117 242.760,205.697 242.400,206.088 242.400 C 206.480 242.400,206.800 242.232,206.800 242.027 C 206.800 241.822,207.205 241.526,207.700 241.370 C 208.195 241.213,208.891 240.751,209.247 240.343 C 209.603 239.934,210.148 239.600,210.459 239.600 C 210.769 239.600,211.283 239.240,211.600 238.800 C 211.917 238.360,212.414 238.000,212.705 238.000 C 212.996 238.000,213.620 237.640,214.092 237.200 C 214.564 236.760,215.187 236.400,215.475 236.400 C 215.764 236.400,216.000 236.242,216.000 236.049 C 216.000 235.855,216.540 235.473,217.200 235.200 C 217.860 234.927,218.400 234.545,218.400 234.351 C 218.400 234.158,218.670 234.000,219.000 234.000 C 219.330 234.000,219.600 233.820,219.600 233.600 C 219.600 233.380,219.870 233.200,220.200 233.200 C 220.530 233.200,220.800 233.020,220.800 232.800 C 220.800 232.580,221.070 232.400,221.400 232.400 C 221.730 232.400,222.000 232.220,222.000 232.000 C 222.000 231.780,222.270 231.600,222.600 231.600 C 222.930 231.600,223.200 231.420,223.200 231.200 C 223.200 230.980,223.430 230.800,223.712 230.800 C 223.993 230.800,224.483 230.440,224.800 230.000 C 225.117 229.560,225.657 229.200,226.000 229.200 C 226.343 229.200,226.883 228.840,227.200 228.400 C 227.517 227.960,228.057 227.600,228.400 227.600 C 228.743 227.600,229.283 227.240,229.600 226.800 C 229.917 226.360,230.497 226.000,230.888 226.000 C 231.280 226.000,231.600 225.855,231.600 225.677 C 231.600 225.499,232.320 225.036,233.200 224.648 C 234.080 224.260,234.800 223.775,234.800 223.571 C 234.800 223.367,235.036 223.200,235.325 223.200 C 235.613 223.200,236.198 222.885,236.625 222.500 C 237.051 222.115,237.895 221.545,238.500 221.232 C 239.105 220.920,239.600 220.515,239.600 220.332 C 239.600 220.150,239.868 220.000,240.197 220.000 C 240.525 220.000,241.018 219.640,241.293 219.200 C 241.568 218.760,242.069 218.400,242.408 218.400 C 242.746 218.400,243.283 218.040,243.600 217.600 C 243.917 217.160,244.497 216.800,244.888 216.800 C 245.770 216.800,245.822 216.171,244.967 215.843 C 244.619 215.709,230.759 215.600,214.167 215.600 C 190.293 215.600,184.003 215.496,184.013 215.100 C 184.024 214.697,189.495 207.585,192.695 203.815 C 193.083 203.358,193.892 202.328,194.494 201.527 C 195.096 200.725,195.816 199.824,196.094 199.525 C 196.372 199.225,197.228 198.175,197.994 197.190 C 199.704 194.995,199.709 194.990,203.071 190.797 C 204.572 188.926,206.292 186.736,206.894 185.932 C 207.496 185.127,208.216 184.229,208.494 183.935 C 208.772 183.641,209.492 182.741,210.094 181.935 C 210.696 181.129,211.416 180.229,211.694 179.935 C 211.972 179.641,212.692 178.741,213.294 177.935 C 213.896 177.129,214.616 176.224,214.894 175.925 C 215.172 175.625,216.028 174.575,216.794 173.590 C 217.561 172.606,218.411 171.530,218.683 171.200 C 218.955 170.870,220.820 168.530,222.827 166.000 C 224.834 163.470,226.774 161.039,227.138 160.599 C 227.502 160.158,228.400 159.033,229.134 158.099 L 230.467 156.400 198.134 156.419 L 165.800 156.438 162.604 160.519 M261.798 242.706 C 261.576 242.868,260.920 243.630,260.339 244.400 C 259.757 245.170,258.903 246.197,258.441 246.683 C 257.978 247.169,257.600 247.768,257.600 248.015 C 257.600 248.261,256.880 249.154,256.000 250.000 C 255.120 250.846,254.400 251.746,254.400 252.000 C 254.400 252.254,253.680 253.154,252.800 254.000 C 251.920 254.846,251.200 255.746,251.200 256.000 C 251.200 256.254,250.480 257.154,249.600 258.000 C 248.720 258.846,248.000 259.665,248.000 259.822 C 248.000 259.978,247.676 260.397,247.281 260.753 C 246.886 261.109,246.125 262.030,245.590 262.800 C 245.055 263.570,244.253 264.596,243.809 265.081 C 242.396 266.619,242.000 267.157,242.000 267.535 C 242.000 267.738,241.280 268.645,240.400 269.552 C 239.520 270.459,238.800 271.395,238.800 271.632 C 238.800 271.869,238.080 272.754,237.200 273.600 C 236.320 274.446,235.600 275.265,235.600 275.422 C 235.600 275.578,235.276 275.997,234.881 276.353 C 234.486 276.709,233.729 277.630,233.200 278.400 C 232.671 279.170,231.951 280.070,231.600 280.400 C 231.249 280.730,230.529 281.630,230.000 282.400 C 229.471 283.170,228.748 284.070,228.394 284.400 C 228.040 284.730,227.195 285.810,226.517 286.800 C 225.838 287.790,224.815 289.140,224.242 289.800 C 223.670 290.460,223.201 291.182,223.200 291.404 C 223.200 291.626,222.840 292.032,222.400 292.307 C 221.948 292.590,221.600 293.240,221.600 293.803 L 221.600 294.800 238.400 294.800 C 257.159 294.800,256.404 294.663,253.600 297.552 C 252.720 298.459,252.000 299.359,252.000 299.552 C 252.000 299.745,251.280 300.645,250.400 301.552 C 249.520 302.459,248.800 303.359,248.800 303.552 C 248.800 303.745,248.080 304.645,247.200 305.552 C 246.320 306.459,245.600 307.349,245.600 307.531 C 245.600 307.712,245.139 308.294,244.575 308.823 C 244.011 309.353,243.164 310.419,242.692 311.193 C 242.220 311.967,241.332 313.077,240.717 313.660 C 240.103 314.244,239.600 314.897,239.600 315.112 C 239.600 315.327,238.880 316.245,238.000 317.152 C 237.120 318.059,236.400 318.959,236.400 319.152 C 236.400 319.345,235.680 320.245,234.800 321.152 C 233.920 322.059,233.200 322.995,233.200 323.232 C 233.200 323.469,232.480 324.354,231.600 325.200 C 230.720 326.046,230.000 326.841,230.000 326.968 C 230.000 327.095,229.280 327.941,228.400 328.848 C 227.520 329.755,226.800 330.653,226.800 330.845 C 226.800 331.165,225.734 332.546,224.500 333.825 C 224.225 334.110,224.000 334.550,224.000 334.803 C 224.000 335.056,223.280 335.954,222.400 336.800 C 221.520 337.646,220.800 338.546,220.800 338.800 C 220.800 339.054,220.080 339.954,219.200 340.800 C 218.320 341.646,217.600 342.621,217.600 342.969 C 217.600 343.316,217.420 343.600,217.200 343.600 C 216.980 343.600,216.800 343.870,216.800 344.200 C 216.800 345.111,218.908 344.961,219.600 344.000 C 219.917 343.560,220.431 343.200,220.741 343.200 C 221.052 343.200,221.597 342.885,221.953 342.500 C 222.309 342.115,223.267 341.461,224.081 341.047 C 224.896 340.633,225.924 339.958,226.365 339.547 C 226.806 339.136,227.404 338.800,227.695 338.800 C 227.986 338.800,228.483 338.440,228.800 338.000 C 229.117 337.560,229.657 337.200,230.000 337.200 C 230.343 337.200,230.883 336.840,231.200 336.400 C 231.517 335.960,232.057 335.600,232.400 335.600 C 232.743 335.600,233.283 335.240,233.600 334.800 C 233.917 334.360,234.457 334.000,234.800 334.000 C 235.143 334.000,235.683 333.640,236.000 333.200 C 236.317 332.760,236.857 332.400,237.200 332.400 C 237.543 332.400,238.083 332.040,238.400 331.600 C 238.717 331.160,239.205 330.800,239.484 330.800 C 239.953 330.800,240.930 330.121,242.216 328.900 C 242.506 328.625,242.986 328.400,243.283 328.400 C 243.580 328.400,244.083 328.040,244.400 327.600 C 244.717 327.160,245.257 326.800,245.600 326.800 C 245.943 326.800,246.483 326.440,246.800 326.000 C 247.117 325.560,247.669 325.200,248.027 325.200 C 248.385 325.200,249.087 324.845,249.586 324.412 C 250.086 323.978,250.834 323.516,251.248 323.385 C 251.661 323.254,252.000 322.978,252.000 322.773 C 252.000 322.568,252.236 322.400,252.525 322.400 C 252.813 322.400,253.398 322.085,253.825 321.700 C 254.251 321.315,255.095 320.745,255.700 320.432 C 256.305 320.120,256.800 319.715,256.800 319.532 C 256.800 319.350,257.068 319.200,257.397 319.200 C 257.725 319.200,258.218 318.840,258.493 318.400 C 258.768 317.960,259.269 317.600,259.608 317.600 C 259.946 317.600,260.483 317.240,260.800 316.800 C 261.117 316.360,261.657 316.000,262.000 316.000 C 262.343 316.000,262.883 315.640,263.200 315.200 C 263.517 314.760,264.057 314.400,264.400 314.400 C 264.743 314.400,265.283 314.040,265.600 313.600 C 265.917 313.160,266.457 312.800,266.800 312.800 C 267.143 312.800,267.683 312.440,268.000 312.000 C 268.317 311.560,268.857 311.200,269.200 311.200 C 269.543 311.200,270.083 310.840,270.400 310.400 C 270.717 309.960,271.297 309.600,271.688 309.600 C 272.080 309.600,272.400 309.432,272.400 309.227 C 272.400 309.022,272.802 308.726,273.292 308.571 C 274.166 308.293,276.073 307.066,277.092 306.126 C 277.374 305.866,277.964 305.538,278.402 305.399 C 278.841 305.260,279.200 304.978,279.200 304.773 C 279.200 304.568,279.436 304.400,279.725 304.400 C 280.013 304.400,280.636 304.040,281.108 303.600 C 281.580 303.160,282.204 302.800,282.495 302.800 C 282.786 302.800,283.283 302.440,283.600 302.000 C 283.917 301.560,284.457 301.200,284.800 301.200 C 285.143 301.200,285.683 300.840,286.000 300.400 C 286.317 299.960,286.831 299.600,287.141 299.600 C 287.452 299.600,287.997 299.284,288.353 298.897 C 288.709 298.511,289.495 297.940,290.100 297.630 C 290.705 297.319,291.200 296.915,291.200 296.732 C 291.200 296.550,291.430 296.400,291.712 296.400 C 291.993 296.400,292.483 296.040,292.800 295.600 C 293.117 295.160,293.657 294.800,294.000 294.800 C 294.343 294.800,294.883 294.440,295.200 294.000 C 295.517 293.560,296.057 293.200,296.400 293.200 C 296.743 293.200,297.283 292.840,297.600 292.400 C 297.917 291.960,298.484 291.600,298.860 291.600 C 299.235 291.600,299.781 291.375,300.071 291.100 C 300.362 290.825,301.095 290.345,301.700 290.032 C 302.305 289.720,302.800 289.315,302.800 289.132 C 302.800 288.950,303.160 288.800,303.600 288.800 C 304.040 288.800,304.401 288.665,304.402 288.500 C 304.403 288.335,305.392 287.570,306.600 286.800 C 307.808 286.030,308.797 285.265,308.798 285.100 C 308.799 284.935,309.120 284.800,309.512 284.800 C 309.903 284.800,310.483 284.440,310.800 284.000 C 311.117 283.560,311.615 283.200,311.906 283.200 C 312.637 283.200,314.400 281.374,314.400 280.618 C 314.400 280.069,312.251 280.000,295.200 280.000 C 284.640 280.000,276.000 279.892,276.000 279.760 C 276.000 279.629,276.540 279.017,277.200 278.400 C 277.860 277.783,278.400 277.074,278.400 276.823 C 278.400 276.573,279.120 275.683,280.000 274.846 C 280.880 274.009,281.600 273.206,281.600 273.062 C 281.600 272.919,282.320 272.059,283.200 271.152 C 284.080 270.245,284.800 269.345,284.800 269.152 C 284.800 268.959,285.520 268.059,286.400 267.152 C 287.280 266.245,288.000 265.344,288.000 265.148 C 288.000 264.953,288.558 264.209,289.240 263.496 C 289.923 262.783,290.739 261.701,291.056 261.091 C 291.634 259.973,292.707 258.671,295.100 256.180 C 295.815 255.436,296.400 254.662,296.400 254.462 C 296.400 254.261,297.120 253.355,298.000 252.448 C 298.880 251.541,299.600 250.641,299.600 250.448 C 299.600 250.255,300.320 249.355,301.200 248.448 C 302.080 247.541,302.800 246.602,302.800 246.360 C 302.800 246.119,303.359 245.399,304.043 244.760 C 306.619 242.353,307.020 242.399,283.513 242.406 C 271.791 242.409,262.019 242.544,261.798 242.706 " stroke="none" fill="#f8af0d" fill-rule="evenodd"></path><path id="path1" d="M327.200 232.800 C 327.200 233.020,326.922 233.200,326.582 233.200 C 325.886 233.200,324.000 234.940,324.000 235.581 C 324.000 235.811,323.280 236.741,322.400 237.648 C 321.520 238.555,320.800 239.469,320.800 239.680 C 320.800 239.890,320.080 240.754,319.200 241.600 C 318.320 242.446,317.600 243.315,317.600 243.533 C 317.600 243.751,317.060 244.383,316.400 244.939 C 315.740 245.494,315.200 246.140,315.200 246.374 C 315.200 246.608,315.020 246.800,314.800 246.800 C 314.580 246.800,314.400 246.980,314.400 247.200 C 314.400 247.419,313.680 248.341,312.800 249.248 C 311.920 250.155,311.200 251.063,311.200 251.266 C 311.200 251.470,310.795 252.070,310.300 252.599 C 308.858 254.141,308.400 254.744,308.400 255.099 C 308.400 255.282,307.680 256.228,306.800 257.200 C 305.920 258.172,305.200 259.280,305.200 259.660 C 305.200 260.041,305.020 260.464,304.800 260.600 C 303.145 261.623,305.727 268.400,307.771 268.400 C 308.117 268.400,308.400 268.580,308.400 268.800 C 308.400 269.376,313.044 269.295,314.092 268.700 C 315.187 268.079,319.200 264.022,319.200 263.536 C 319.200 263.339,319.785 262.536,320.500 261.750 C 321.215 260.964,321.747 260.241,321.683 260.144 C 321.619 260.046,322.159 259.358,322.883 258.615 C 324.534 256.921,325.200 256.105,325.200 255.777 C 325.200 255.636,325.740 255.017,326.400 254.400 C 327.060 253.783,327.600 253.108,327.600 252.899 C 327.600 252.690,328.097 251.997,328.704 251.359 C 329.312 250.722,330.255 249.570,330.801 248.800 C 331.347 248.030,332.380 246.778,333.096 246.017 C 333.812 245.257,334.501 244.312,334.626 243.917 C 334.751 243.523,334.993 243.200,335.163 243.200 C 335.824 243.200,336.400 241.044,336.400 238.568 C 336.400 235.994,334.742 233.200,333.213 233.200 C 332.986 233.200,332.800 233.020,332.800 232.800 C 332.800 232.571,331.600 232.400,330.000 232.400 C 328.400 232.400,327.200 232.571,327.200 232.800 M101.600 250.777 C 101.270 250.959,100.505 251.339,99.900 251.621 C 99.295 251.904,98.800 252.375,98.800 252.668 C 98.800 252.960,98.620 253.200,98.400 253.200 C 98.180 253.200,98.000 253.398,98.000 253.640 C 98.000 253.881,97.441 254.601,96.758 255.240 C 96.074 255.878,95.632 256.400,95.773 256.400 C 96.055 256.400,95.886 256.620,93.798 258.978 C 93.029 259.846,92.400 260.693,92.400 260.860 C 92.400 261.027,91.950 261.614,91.400 262.164 C 90.850 262.714,90.400 263.362,90.400 263.605 C 90.400 263.848,90.220 263.936,90.000 263.800 C 89.780 263.664,89.600 263.833,89.600 264.176 C 89.600 264.519,89.420 264.800,89.200 264.800 C 88.980 264.800,88.800 264.982,88.800 265.204 C 88.800 265.426,88.260 266.172,87.600 266.863 C 86.940 267.554,86.400 268.272,86.400 268.459 C 86.400 268.646,85.680 269.541,84.800 270.448 C 83.920 271.355,83.200 272.261,83.200 272.462 C 83.200 272.662,82.615 273.418,81.900 274.141 C 81.185 274.864,80.150 276.052,79.600 276.781 C 79.050 277.510,78.330 278.444,78.000 278.857 C 77.670 279.270,77.087 280.011,76.704 280.504 C 76.321 280.997,75.571 281.922,75.039 282.561 C 74.506 283.199,73.853 284.189,73.588 284.761 C 73.323 285.332,72.948 286.113,72.753 286.495 C 72.269 287.446,72.306 290.800,72.800 290.800 C 73.020 290.800,73.200 291.078,73.200 291.418 C 73.200 292.114,74.940 294.000,75.582 294.000 C 75.812 294.000,76.000 294.180,76.000 294.400 C 76.000 294.631,77.269 294.800,79.007 294.800 L 82.015 294.800 84.607 292.207 C 86.033 290.781,87.200 289.522,87.200 289.408 C 87.200 289.295,87.830 288.534,88.600 287.718 C 89.370 286.901,90.002 286.046,90.004 285.817 C 90.007 285.587,90.817 284.524,91.804 283.453 C 92.792 282.382,93.600 281.353,93.600 281.166 C 93.600 280.979,94.230 280.197,95.000 279.427 C 95.770 278.657,96.400 277.862,96.400 277.662 C 96.400 277.461,97.120 276.555,98.000 275.648 C 98.880 274.741,99.600 273.897,99.600 273.773 C 99.600 273.648,100.228 272.884,100.997 272.073 C 101.765 271.263,102.395 270.486,102.397 270.347 C 102.398 270.208,103.208 269.218,104.196 268.147 C 105.183 267.076,105.993 266.057,105.996 265.882 C 105.998 265.707,106.405 265.130,106.900 264.601 C 108.149 263.265,108.515 262.765,109.168 261.500 C 109.480 260.895,109.885 260.400,110.068 260.400 C 110.596 260.400,110.453 254.881,109.900 253.917 C 108.209 250.966,104.089 249.408,101.600 250.777 M19.200 288.400 C 19.200 288.620,18.840 288.800,18.400 288.800 C 17.960 288.800,17.600 288.980,17.600 289.200 C 17.600 289.420,17.240 289.600,16.800 289.600 C 16.351 289.600,16.000 289.867,16.000 290.207 C 16.000 290.541,15.415 291.415,14.700 292.149 C 13.985 292.884,12.860 294.158,12.200 294.983 C 11.540 295.807,10.820 296.688,10.599 296.940 C 10.379 297.193,9.749 298.074,9.199 298.897 C 8.650 299.721,8.065 300.396,7.900 300.397 C 7.735 300.399,7.600 300.578,7.600 300.795 C 7.600 301.202,6.809 302.261,5.391 303.750 C 4.947 304.218,4.145 305.230,3.610 306.000 C 3.075 306.770,2.349 307.670,1.997 308.000 C -1.275 311.060,-0.556 320.000,2.960 320.000 C 3.312 320.000,3.600 320.180,3.600 320.400 C 3.600 320.973,7.441 320.895,8.505 320.300 C 9.615 319.680,14.000 315.281,14.000 314.788 C 14.000 314.589,14.630 313.797,15.400 313.027 C 16.170 312.257,16.800 311.441,16.800 311.213 C 16.800 310.986,16.980 310.800,17.200 310.800 C 17.420 310.800,17.600 310.612,17.600 310.382 C 17.600 310.152,18.005 309.545,18.500 309.033 C 19.775 307.714,22.891 304.042,23.584 303.043 C 23.905 302.579,24.355 301.981,24.584 301.714 C 25.457 300.695,25.818 300.165,26.368 299.100 C 26.680 298.495,27.085 298.000,27.268 298.000 C 27.450 298.000,27.600 296.554,27.600 294.787 C 27.600 291.439,26.107 288.800,24.213 288.800 C 23.876 288.800,23.600 288.620,23.600 288.400 C 23.600 288.180,22.610 288.000,21.400 288.000 C 20.190 288.000,19.200 288.180,19.200 288.400 M212.306 310.375 C 211.484 310.788,210.377 311.637,209.847 312.262 C 209.316 312.888,208.504 313.833,208.041 314.361 C 207.579 314.890,207.200 315.454,207.200 315.614 C 207.200 315.774,206.392 316.782,205.404 317.853 C 204.417 318.924,203.607 319.953,203.604 320.140 C 203.602 320.326,203.060 320.983,202.400 321.600 C 201.740 322.217,201.200 322.919,201.200 323.160 C 201.200 323.402,201.020 323.600,200.800 323.600 C 200.580 323.600,200.400 323.798,200.400 324.040 C 200.400 324.281,199.860 324.983,199.200 325.600 C 198.540 326.217,198.000 326.886,198.000 327.088 C 198.000 327.290,197.595 327.823,197.100 328.271 C 196.068 329.206,194.800 330.715,194.800 331.008 C 194.800 331.118,194.265 331.767,193.612 332.450 C 192.959 333.134,192.311 334.050,192.172 334.487 C 192.034 334.924,191.218 336.005,190.360 336.889 C 189.502 337.773,188.800 338.669,188.800 338.880 C 188.800 339.090,188.080 339.954,187.200 340.800 C 186.320 341.646,185.600 342.494,185.600 342.686 C 185.600 342.878,184.880 343.717,184.000 344.551 C 183.120 345.385,182.400 346.250,182.400 346.474 C 182.400 346.697,181.770 347.510,181.000 348.280 C 180.230 349.050,179.600 349.819,179.600 349.989 C 179.600 350.160,178.880 351.087,178.000 352.049 C 177.120 353.012,176.396 353.980,176.391 354.200 C 176.386 354.420,175.801 355.256,175.091 356.059 C 172.885 358.552,172.400 359.195,172.400 359.628 C 172.400 359.859,172.220 359.936,172.000 359.800 C 171.780 359.664,171.600 359.833,171.600 360.176 C 171.600 360.519,171.420 360.800,171.200 360.800 C 170.980 360.800,170.800 361.250,170.800 361.800 C 170.800 362.350,170.620 362.800,170.400 362.800 C 170.180 362.800,170.000 363.599,170.000 364.576 C 170.000 365.553,170.180 366.464,170.400 366.600 C 170.620 366.736,170.800 367.125,170.800 367.464 C 170.800 368.276,173.342 370.800,174.160 370.800 C 174.512 370.800,174.800 370.980,174.800 371.200 C 174.800 371.420,175.599 371.600,176.576 371.600 C 177.553 371.600,178.464 371.420,178.600 371.200 C 178.736 370.980,179.152 370.795,179.524 370.789 C 180.224 370.778,183.200 368.243,183.200 367.658 C 183.200 367.476,184.010 366.470,185.000 365.422 C 185.990 364.374,186.800 363.361,186.800 363.171 C 186.800 362.982,187.385 362.224,188.100 361.487 C 188.815 360.750,189.580 359.875,189.800 359.542 C 191.149 357.501,193.179 354.887,194.300 353.748 C 195.015 353.021,195.600 352.267,195.600 352.073 C 195.600 351.878,196.097 351.197,196.704 350.559 C 197.312 349.922,198.255 348.770,198.801 348.000 C 199.347 347.230,200.380 345.977,201.097 345.217 C 201.814 344.456,202.400 343.719,202.400 343.579 C 202.400 343.439,202.858 342.801,203.417 342.162 C 203.977 341.523,204.832 340.478,205.317 339.840 C 205.803 339.203,206.605 338.282,207.100 337.795 C 207.595 337.307,208.000 336.731,208.000 336.513 C 208.000 336.296,208.497 335.597,209.104 334.959 C 209.712 334.322,210.648 333.170,211.185 332.400 C 211.723 331.630,212.449 330.730,212.800 330.400 C 213.151 330.070,213.877 329.172,214.414 328.404 C 215.386 327.015,216.359 325.852,218.550 323.457 C 223.962 317.542,222.116 309.955,215.200 309.681 C 214.430 309.651,213.128 309.963,212.306 310.375 M153.800 317.200 C 153.936 317.420,153.841 317.600,153.589 317.600 C 153.057 317.600,148.800 321.930,148.800 322.472 C 148.800 322.672,148.395 323.258,147.900 323.774 C 146.186 325.559,143.798 328.521,143.235 329.558 C 142.924 330.131,142.159 331.077,141.535 331.660 C 140.911 332.244,140.400 332.919,140.400 333.160 C 140.400 333.402,140.220 333.600,140.000 333.600 C 139.780 333.600,139.600 333.798,139.600 334.040 C 139.600 334.281,139.060 334.983,138.400 335.600 C 137.740 336.217,137.200 336.933,137.200 337.192 C 137.200 337.451,136.480 338.354,135.600 339.200 C 134.720 340.046,134.000 340.932,134.000 341.169 C 134.000 341.407,133.325 342.322,132.500 343.203 C 129.297 346.624,128.400 347.681,128.400 348.034 C 128.400 348.235,128.220 348.400,128.000 348.400 C 127.780 348.400,127.600 348.588,127.600 348.817 C 127.600 349.047,127.167 349.702,126.638 350.272 C 126.110 350.842,125.435 351.779,125.138 352.354 C 124.842 352.929,123.925 354.061,123.100 354.869 C 122.275 355.676,121.600 356.510,121.600 356.720 C 121.600 356.931,120.880 357.845,120.000 358.752 C 119.120 359.659,118.400 360.581,118.400 360.800 C 118.400 361.020,118.220 361.200,118.000 361.200 C 117.446 361.200,117.489 367.046,118.051 368.096 C 118.791 369.479,120.309 370.800,121.158 370.800 C 121.595 370.800,122.064 370.980,122.200 371.200 C 123.382 373.112,128.660 370.189,131.590 366.000 C 132.128 365.230,133.071 364.123,133.685 363.540 C 134.298 362.956,134.800 362.316,134.800 362.118 C 134.800 361.919,135.385 361.105,136.100 360.309 C 138.793 357.310,140.618 355.050,141.161 354.042 C 141.470 353.469,142.018 352.730,142.380 352.400 C 142.742 352.070,143.478 351.170,144.016 350.400 C 144.554 349.630,145.580 348.377,146.297 347.617 C 147.014 346.856,147.600 346.113,147.600 345.967 C 147.600 345.820,148.230 345.013,149.000 344.172 C 149.770 343.331,150.400 342.513,150.400 342.353 C 150.400 342.193,151.120 341.356,152.000 340.493 C 152.880 339.631,153.600 338.727,153.600 338.485 C 153.600 338.243,153.922 337.810,154.316 337.523 C 154.710 337.235,155.467 336.370,155.997 335.600 C 156.528 334.830,157.243 333.930,157.587 333.600 C 157.930 333.270,158.715 332.221,159.332 331.269 C 159.948 330.317,160.981 328.985,161.626 328.310 C 162.272 327.634,162.800 326.838,162.800 326.541 C 162.800 326.243,162.952 326.000,163.137 326.000 C 163.322 326.000,163.512 324.830,163.558 323.400 C 163.610 321.793,163.481 320.800,163.221 320.800 C 162.990 320.800,162.800 320.522,162.800 320.182 C 162.800 319.382,161.018 317.600,160.218 317.600 C 159.878 317.600,159.600 317.420,159.600 317.200 C 159.600 316.969,158.325 316.800,156.576 316.800 C 154.663 316.800,153.644 316.947,153.800 317.200 M93.116 327.591 C 91.695 328.284,88.035 331.832,88.011 332.540 C 88.005 332.726,87.460 333.383,86.800 334.000 C 86.140 334.617,85.600 335.281,85.600 335.476 C 85.600 335.672,84.880 336.628,84.000 337.600 C 83.120 338.572,82.400 339.611,82.400 339.908 C 82.400 340.204,82.220 340.336,82.000 340.200 C 81.780 340.064,81.600 340.153,81.600 340.398 C 81.600 340.643,81.053 341.419,80.384 342.122 C 79.715 342.825,78.140 344.750,76.884 346.400 C 75.628 348.050,74.285 349.691,73.900 350.047 C 73.515 350.403,73.200 350.912,73.200 351.178 C 73.200 351.445,72.480 352.354,71.600 353.200 C 70.720 354.046,70.000 354.937,70.000 355.182 C 70.000 355.427,69.415 356.236,68.700 356.980 C 66.103 359.683,65.200 360.825,65.200 361.407 C 65.200 361.733,65.020 362.000,64.800 362.000 C 63.207 362.000,65.132 369.271,66.871 369.823 C 67.272 369.950,67.600 370.222,67.600 370.427 C 67.600 370.632,67.949 370.800,68.376 370.800 C 68.803 370.800,69.264 370.980,69.400 371.200 C 70.228 372.539,76.800 370.102,76.800 368.456 C 76.800 368.205,76.980 368.000,77.200 368.000 C 77.420 368.000,77.600 367.796,77.600 367.547 C 77.600 367.298,77.924 366.803,78.319 366.447 C 78.714 366.091,79.471 365.170,80.000 364.400 C 80.529 363.630,81.249 362.730,81.600 362.400 C 81.951 362.070,82.672 361.170,83.204 360.400 C 83.735 359.630,84.671 358.523,85.285 357.940 C 85.898 357.356,86.400 356.766,86.400 356.629 C 86.400 356.491,86.985 355.738,87.700 354.954 C 88.415 354.171,89.180 353.202,89.400 352.800 C 89.620 352.398,90.385 351.429,91.100 350.646 C 91.815 349.862,92.400 349.058,92.400 348.859 C 92.400 348.660,93.120 347.755,94.000 346.848 C 94.880 345.941,95.600 345.041,95.600 344.848 C 95.600 344.655,96.320 343.755,97.200 342.848 C 98.080 341.941,98.800 341.051,98.800 340.869 C 98.800 340.688,99.262 340.106,99.826 339.576 C 103.762 335.878,102.609 328.905,97.833 327.522 C 95.336 326.799,94.722 326.808,93.116 327.591 M302.200 329.682 C 301.325 330.182,298.400 333.243,298.400 333.658 C 298.400 333.800,297.590 334.774,296.600 335.822 C 295.610 336.870,294.800 337.891,294.800 338.090 C 294.800 338.290,294.172 339.116,293.403 339.927 C 292.635 340.737,292.005 341.535,292.003 341.700 C 292.002 341.864,291.280 342.741,290.400 343.648 C 289.520 344.555,288.800 345.473,288.800 345.688 C 288.800 345.903,288.260 346.583,287.600 347.200 C 286.940 347.817,286.400 348.519,286.400 348.760 C 286.400 349.002,286.220 349.200,286.000 349.200 C 285.780 349.200,285.600 349.386,285.600 349.613 C 285.600 349.841,284.970 350.657,284.200 351.427 C 283.430 352.197,282.800 352.982,282.800 353.171 C 282.800 353.360,282.305 354.056,281.700 354.718 C 280.043 356.528,279.200 357.583,279.200 357.844 C 279.200 357.973,278.702 358.556,278.094 359.140 C 275.147 361.964,275.353 370.000,278.371 370.000 C 278.607 370.000,278.800 370.159,278.800 370.353 C 278.800 371.156,283.732 371.957,284.183 371.228 C 284.328 370.993,284.814 370.800,285.263 370.800 C 286.231 370.800,289.293 367.679,290.430 365.534 C 290.703 365.020,291.257 364.309,291.663 363.953 C 292.068 363.597,292.400 363.092,292.400 362.829 C 292.400 362.567,292.580 362.464,292.800 362.600 C 293.020 362.736,293.200 362.561,293.200 362.210 C 293.200 361.860,293.785 360.964,294.500 360.220 C 296.454 358.186,298.000 356.409,298.000 356.198 C 298.000 355.933,299.169 354.531,300.700 352.960 C 301.415 352.227,302.000 351.441,302.000 351.213 C 302.000 350.986,302.180 350.800,302.400 350.800 C 302.620 350.800,302.800 350.620,302.800 350.401 C 302.800 350.181,303.430 349.334,304.200 348.518 C 304.970 347.701,305.600 346.914,305.600 346.767 C 305.600 346.621,306.309 345.725,307.176 344.777 C 308.042 343.829,308.741 342.952,308.728 342.827 C 308.648 342.032,308.898 341.623,309.600 341.400 C 310.040 341.260,310.400 340.888,310.400 340.573 C 310.400 340.258,310.535 339.999,310.700 339.997 C 310.865 339.995,311.225 339.509,311.500 338.917 C 312.095 337.636,312.173 333.200,311.600 333.200 C 311.380 333.200,311.200 332.922,311.200 332.582 C 311.200 331.908,309.865 330.492,308.483 329.700 C 307.398 329.078,303.277 329.066,302.200 329.682 M34.000 335.200 C 34.000 335.420,33.764 335.600,33.475 335.600 C 32.817 335.600,30.800 337.670,30.800 338.345 C 30.800 338.621,30.620 338.736,30.400 338.600 C 30.180 338.464,30.000 338.561,30.000 338.816 C 30.000 339.071,29.370 339.910,28.600 340.680 C 27.830 341.450,27.200 342.228,27.200 342.409 C 27.200 342.590,26.660 343.278,26.000 343.938 C 25.340 344.598,24.800 345.306,24.800 345.510 C 24.800 345.714,24.260 346.446,23.600 347.137 C 22.940 347.828,22.400 348.555,22.400 348.754 C 22.400 348.952,22.104 349.228,21.743 349.367 C 21.381 349.505,21.189 349.722,21.315 349.848 C 21.441 349.974,20.746 350.875,19.772 351.849 C 18.797 352.824,18.000 353.777,18.000 353.968 C 18.000 354.159,17.505 354.869,16.900 355.547 C 13.179 359.712,12.038 361.336,12.014 362.500 C 12.006 362.885,11.850 363.200,11.667 363.200 C 11.483 363.200,11.333 363.830,11.333 364.600 C 11.333 365.370,11.483 366.000,11.667 366.000 C 11.850 366.000,12.000 366.456,12.000 367.013 C 12.000 368.900,15.690 371.614,18.228 371.594 C 20.584 371.576,24.425 369.013,25.050 367.042 C 25.191 366.598,26.002 365.566,26.853 364.749 C 27.704 363.932,28.400 363.054,28.400 362.800 C 28.400 362.546,29.120 361.646,30.000 360.800 C 30.880 359.954,31.600 359.108,31.600 358.920 C 31.600 358.731,31.960 358.317,32.400 358.000 C 32.840 357.683,33.200 357.285,33.200 357.116 C 33.200 356.826,33.598 356.297,35.345 354.266 C 35.755 353.790,36.565 352.774,37.145 352.009 C 37.725 351.244,38.713 350.074,39.340 349.409 C 39.968 348.744,40.758 347.660,41.096 347.000 C 41.435 346.340,41.822 345.710,41.956 345.600 C 43.080 344.679,43.810 338.800,42.800 338.800 C 42.580 338.800,42.400 338.531,42.400 338.203 C 42.400 337.320,40.766 335.600,39.928 335.600 C 39.528 335.600,39.200 335.420,39.200 335.200 C 39.200 334.974,38.067 334.800,36.600 334.800 C 35.133 334.800,34.000 334.974,34.000 335.200 " stroke="none" fill="#bcdce4" fill-rule="evenodd"></path><path id="path2" d="M185.862 28.900 C 186.012 29.143,177.851 29.442,176.670 29.237 C 176.489 29.206,176.455 29.365,176.594 29.590 C 176.749 29.842,176.220 30.019,175.224 30.050 C 173.278 30.110,173.120 30.136,172.579 30.481 C 172.347 30.629,171.239 30.806,170.116 30.874 C 168.994 30.942,168.159 31.133,168.261 31.299 C 168.421 31.558,166.917 31.766,165.304 31.708 C 165.032 31.698,164.907 31.850,165.028 32.045 C 165.213 32.344,163.701 32.605,162.700 32.447 C 162.535 32.421,162.400 32.580,162.400 32.800 C 162.400 33.020,162.085 33.203,161.700 33.206 C 160.882 33.213,158.139 34.127,157.741 34.526 C 157.590 34.677,157.047 34.800,156.533 34.800 C 156.020 34.800,155.600 34.980,155.600 35.200 C 155.600 35.420,155.251 35.600,154.824 35.600 C 154.397 35.600,153.936 35.780,153.800 36.000 C 153.664 36.220,153.113 36.400,152.576 36.400 C 152.039 36.400,151.600 36.580,151.600 36.800 C 151.600 37.020,151.335 37.200,151.012 37.200 C 150.413 37.200,147.710 38.580,147.020 39.238 C 146.811 39.437,146.196 39.600,145.653 39.600 C 145.111 39.600,144.784 39.717,144.927 39.860 C 145.252 40.185,143.998 41.170,143.238 41.187 C 142.929 41.194,142.119 41.625,141.438 42.144 C 140.757 42.663,140.096 43.068,139.969 43.044 C 139.842 43.020,139.099 43.487,138.318 44.083 C 137.538 44.678,136.787 45.053,136.649 44.916 C 136.512 44.779,136.400 44.877,136.400 45.133 C 136.400 45.390,136.119 45.600,135.776 45.600 C 135.433 45.600,135.247 45.753,135.363 45.940 C 135.478 46.127,135.084 46.530,134.486 46.837 C 133.889 47.144,133.109 47.711,132.753 48.097 C 132.397 48.484,131.902 48.800,131.653 48.800 C 131.404 48.800,131.200 48.980,131.200 49.200 C 131.200 49.420,130.900 49.600,130.533 49.600 C 130.167 49.600,129.976 49.709,130.109 49.842 C 130.487 50.220,128.521 51.999,127.718 52.006 C 127.108 52.011,127.090 52.071,127.600 52.400 C 128.126 52.740,128.121 52.789,127.566 52.794 C 126.897 52.800,120.400 58.999,120.400 59.631 C 120.400 59.834,120.130 60.000,119.800 60.000 C 119.470 60.000,119.200 60.232,119.200 60.517 C 119.200 60.801,118.615 61.687,117.900 62.485 C 114.119 66.709,113.600 67.355,113.600 67.833 C 113.600 68.120,113.200 68.635,112.711 68.977 C 112.222 69.320,111.997 69.605,112.211 69.612 C 112.425 69.619,112.281 69.810,111.892 70.037 C 111.502 70.264,111.275 70.598,111.387 70.779 C 111.499 70.961,111.323 71.332,110.996 71.604 C 110.668 71.876,110.400 72.346,110.400 72.649 C 110.400 72.952,110.220 73.200,110.000 73.200 C 109.780 73.200,109.600 73.470,109.600 73.800 C 109.600 74.130,109.426 74.400,109.213 74.400 C 108.999 74.400,108.929 74.670,109.055 75.000 C 109.182 75.330,109.086 75.600,108.843 75.600 C 108.599 75.600,108.400 75.960,108.400 76.400 C 108.400 76.840,108.220 77.200,108.000 77.200 C 107.780 77.200,107.600 77.470,107.600 77.800 C 107.600 78.130,107.420 78.400,107.200 78.400 C 106.980 78.400,106.800 78.760,106.800 79.200 C 106.800 79.640,106.654 80.000,106.475 80.000 C 106.296 80.000,105.905 80.622,105.607 81.382 C 105.309 82.142,104.915 82.671,104.732 82.558 C 104.550 82.445,104.400 82.903,104.400 83.576 C 104.400 84.249,104.240 84.800,104.044 84.800 C 103.848 84.800,103.453 85.598,103.164 86.574 C 102.876 87.550,102.535 88.283,102.405 88.203 C 102.276 88.123,102.130 88.532,102.083 89.111 C 102.035 89.691,101.816 90.344,101.598 90.562 C 101.379 90.781,101.200 91.363,101.200 91.856 C 101.200 92.349,101.020 92.864,100.800 93.000 C 100.580 93.136,100.400 93.597,100.400 94.024 C 100.400 94.451,100.250 94.800,100.067 94.800 C 99.687 94.800,99.714 94.596,99.439 99.497 C 99.325 101.531,99.059 103.871,98.847 104.697 C 97.981 108.072,97.530 118.678,97.987 124.917 C 98.426 130.901,98.553 131.806,99.856 138.200 C 101.158 144.586,101.210 144.486,97.936 141.936 C 86.076 132.699,73.965 115.315,69.414 101.000 C 67.691 95.577,67.157 93.489,67.360 92.960 C 67.586 92.371,63.835 92.360,62.885 92.948 C 62.696 93.064,61.801 93.203,60.895 93.256 C 59.989 93.310,59.338 93.499,59.447 93.677 C 59.672 94.040,59.562 94.067,57.600 94.129 C 56.830 94.153,56.110 94.285,56.000 94.422 C 55.614 94.904,51.896 95.983,51.488 95.731 C 51.251 95.584,51.197 95.672,51.362 95.938 C 51.609 96.339,50.915 96.522,49.745 96.366 C 49.604 96.347,49.379 96.482,49.245 96.666 C 48.864 97.186,47.273 98.000,46.639 98.000 C 46.324 98.000,46.004 98.188,45.927 98.418 C 45.851 98.648,45.386 98.866,44.894 98.903 C 44.402 98.940,44.000 99.112,44.000 99.285 C 44.000 99.458,43.775 99.604,43.500 99.609 C 43.225 99.614,42.550 99.970,42.000 100.400 C 41.450 100.830,40.655 101.186,40.233 101.191 C 39.812 101.196,39.586 101.319,39.732 101.465 C 39.877 101.611,39.057 102.362,37.909 103.135 C 34.480 105.445,32.434 107.101,32.691 107.358 C 32.824 107.491,32.748 107.600,32.521 107.600 C 32.295 107.600,31.614 108.095,31.009 108.700 C 30.404 109.305,29.705 109.800,29.455 109.800 C 29.205 109.800,28.992 110.070,28.982 110.400 C 28.972 110.730,28.733 110.951,28.452 110.890 C 28.171 110.830,28.042 110.944,28.166 111.145 C 28.290 111.345,28.089 111.755,27.719 112.055 C 27.142 112.523,27.088 112.515,27.342 112.000 C 27.504 111.670,27.314 111.846,26.919 112.391 C 26.523 112.937,25.885 113.702,25.500 114.091 C 25.115 114.481,24.800 114.961,24.800 115.157 C 24.800 115.354,24.519 115.622,24.175 115.754 C 23.831 115.886,23.661 116.176,23.798 116.397 C 23.935 116.619,23.899 116.800,23.718 116.800 C 23.537 116.800,22.944 117.520,22.400 118.400 C 21.856 119.280,21.274 120.000,21.106 120.000 C 20.938 120.000,20.800 120.281,20.800 120.624 C 20.800 120.967,20.620 121.136,20.400 121.000 C 20.180 120.864,20.000 121.089,20.000 121.501 C 20.000 121.912,19.633 122.643,19.184 123.125 C 18.736 123.606,18.511 124.006,18.684 124.013 C 18.858 124.020,18.651 124.290,18.224 124.613 C 17.796 124.936,17.587 125.200,17.758 125.200 C 17.929 125.200,17.603 126.033,17.034 127.050 C 16.465 128.068,16.000 129.238,16.000 129.650 C 16.000 130.063,15.820 130.400,15.600 130.400 C 15.380 130.400,15.200 130.724,15.200 131.120 C 15.200 132.112,14.287 133.992,13.800 134.003 C 13.580 134.008,13.670 134.187,14.000 134.400 C 14.400 134.658,14.433 134.790,14.100 134.794 C 13.825 134.797,13.600 135.192,13.600 135.672 C 13.600 136.544,12.783 139.223,12.402 139.600 C 12.178 139.822,12.147 140.079,12.060 142.424 C 12.027 143.317,11.865 143.964,11.700 143.863 C 11.411 143.685,11.054 149.137,11.018 154.300 C 11.008 155.675,10.843 156.800,10.651 156.800 C 10.459 156.800,10.476 157.025,10.688 157.300 C 11.032 157.746,11.172 158.953,11.348 163.000 C 11.376 163.660,11.559 164.315,11.753 164.457 C 11.948 164.598,12.107 165.628,12.107 166.747 C 12.107 167.866,12.243 168.697,12.409 168.594 C 12.676 168.430,12.941 169.325,13.475 172.191 C 13.557 172.627,13.798 173.158,14.011 173.371 C 14.225 173.585,14.400 174.157,14.400 174.642 C 14.400 175.127,14.739 176.216,15.154 177.062 C 15.569 177.908,16.511 179.860,17.246 181.400 C 17.982 182.940,18.677 184.290,18.792 184.400 C 19.232 184.823,20.433 187.200,20.207 187.200 C 20.076 187.200,20.336 187.594,20.784 188.075 C 21.233 188.557,21.600 189.198,21.600 189.499 C 21.600 189.801,21.780 189.936,22.000 189.800 C 22.220 189.664,22.400 189.752,22.400 189.995 C 22.400 190.238,22.850 190.886,23.400 191.436 C 23.950 191.986,24.400 192.595,24.400 192.790 C 24.400 192.984,26.234 195.001,28.475 197.272 C 30.716 199.542,32.512 201.548,32.465 201.730 C 32.418 201.911,32.566 201.945,32.793 201.804 C 33.020 201.664,33.314 201.831,33.446 202.175 C 33.578 202.519,33.926 202.800,34.220 202.800 C 34.514 202.800,35.006 203.159,35.313 203.597 C 35.620 204.036,35.991 204.276,36.136 204.131 C 36.281 203.986,36.400 204.077,36.400 204.333 C 36.400 204.590,36.661 204.800,36.980 204.800 C 37.299 204.800,37.720 205.086,37.916 205.436 C 38.112 205.786,38.346 206.029,38.436 205.977 C 38.746 205.798,40.400 206.454,40.400 206.756 C 40.400 206.922,41.210 207.463,42.200 207.957 C 43.190 208.452,44.000 209.023,44.000 209.228 C 44.000 209.433,44.360 209.600,44.800 209.600 C 45.240 209.600,45.600 209.780,45.600 210.000 C 45.600 210.220,46.129 210.400,46.776 210.400 C 47.423 210.400,48.064 210.580,48.200 210.800 C 48.336 211.020,48.797 211.200,49.224 211.200 C 49.651 211.200,50.000 211.380,50.000 211.600 C 50.000 211.820,50.450 212.000,51.000 212.000 C 51.550 212.000,52.000 212.180,52.000 212.400 C 52.000 212.620,52.439 212.800,52.976 212.800 C 53.513 212.800,54.064 212.980,54.200 213.200 C 54.336 213.420,54.966 213.600,55.600 213.600 C 56.234 213.600,56.864 213.780,57.000 214.000 C 57.136 214.220,58.047 214.400,59.024 214.400 C 60.001 214.400,60.800 214.580,60.800 214.800 C 60.800 215.020,61.610 215.200,62.600 215.200 C 63.590 215.200,64.400 215.375,64.400 215.589 C 64.400 215.837,74.029 215.984,90.954 215.994 L 117.508 216.011 118.654 214.672 C 120.395 212.637,121.269 211.567,122.794 209.599 C 123.561 208.609,124.371 207.604,124.594 207.363 C 124.817 207.123,125.450 206.334,126.000 205.610 C 126.550 204.886,127.270 203.968,127.600 203.570 C 128.795 202.129,136.529 192.411,139.800 188.240 C 140.460 187.398,141.335 186.325,141.745 185.855 C 142.155 185.385,142.965 184.370,143.545 183.600 C 144.125 182.830,144.828 181.959,145.106 181.665 C 145.384 181.371,146.104 180.475,146.706 179.673 C 147.308 178.872,148.098 177.852,148.463 177.408 C 148.827 176.964,151.487 173.630,154.373 170.000 C 157.260 166.370,160.024 162.948,160.515 162.396 C 161.007 161.843,161.853 160.763,162.395 159.996 C 162.938 159.228,163.910 158.015,164.555 157.300 L 165.729 156.000 196.564 156.054 C 213.524 156.084,233.816 156.219,241.657 156.354 L 255.914 156.600 240.257 176.234 C 231.646 187.033,224.060 196.555,223.400 197.394 C 222.740 198.234,219.375 202.448,215.922 206.760 L 209.643 214.600 227.436 214.704 C 242.762 214.794,245.260 214.891,245.457 215.404 C 245.721 216.092,326.800 216.332,326.800 215.645 C 326.800 215.449,327.475 215.174,328.300 215.033 C 346.595 211.914,360.710 199.971,365.924 183.200 C 367.838 177.042,368.087 175.451,368.101 169.273 C 368.114 163.728,367.906 162.044,366.461 155.987 C 366.012 154.105,363.262 147.673,362.337 146.338 C 361.931 145.754,361.600 145.140,361.600 144.974 C 361.600 144.807,360.594 143.335,359.365 141.702 C 352.087 132.032,342.658 126.107,330.257 123.412 L 329.115 123.163 329.393 118.882 C 329.857 111.743,328.449 102.472,325.853 95.578 C 319.734 79.329,307.761 67.480,291.100 61.185 C 289.175 60.458,287.600 59.639,287.600 59.367 C 287.600 58.791,286.721 58.843,285.940 59.466 C 285.643 59.703,285.044 59.840,284.610 59.771 C 284.175 59.701,283.709 59.823,283.574 60.042 C 283.439 60.261,282.894 60.462,282.364 60.490 C 281.834 60.517,281.130 60.757,280.800 61.023 C 280.113 61.575,278.360 62.202,277.870 62.069 C 277.689 62.020,277.655 62.165,277.794 62.390 C 277.933 62.616,277.789 62.800,277.473 62.800 C 277.157 62.800,276.676 63.068,276.404 63.396 C 276.132 63.723,275.762 63.900,275.582 63.789 C 275.402 63.678,275.142 63.770,275.004 63.993 C 274.866 64.217,274.418 64.400,274.010 64.400 C 273.601 64.400,273.207 64.547,273.133 64.728 C 273.060 64.908,271.830 65.841,270.400 66.800 C 268.970 67.759,267.740 68.692,267.667 68.872 C 267.593 69.053,267.248 69.200,266.900 69.200 C 266.552 69.200,266.376 69.091,266.509 68.958 C 266.642 68.824,266.309 68.273,265.768 67.732 C 265.227 67.191,264.906 66.552,265.054 66.312 C 265.215 66.051,265.138 65.991,264.862 66.162 C 264.608 66.319,264.400 66.283,264.400 66.083 C 264.400 65.883,263.860 65.154,263.200 64.463 C 262.540 63.772,262.000 62.906,262.000 62.537 C 262.000 62.168,261.886 61.980,261.747 62.119 C 261.608 62.258,261.023 61.856,260.447 61.226 C 258.379 58.963,258.033 58.593,257.520 58.094 C 257.234 57.815,255.650 56.253,254.000 54.622 C 252.350 52.990,250.598 51.310,250.107 50.887 C 249.616 50.465,249.346 49.973,249.507 49.795 C 249.668 49.617,249.603 49.584,249.362 49.721 C 249.121 49.858,248.256 49.358,247.439 48.610 C 246.622 47.862,245.856 47.265,245.735 47.283 C 245.448 47.326,244.052 46.375,243.167 45.533 C 242.782 45.167,242.390 44.943,242.296 45.037 C 242.202 45.131,241.638 44.756,241.042 44.204 C 240.446 43.652,239.788 43.200,239.579 43.200 C 239.371 43.200,239.200 43.001,239.200 42.757 C 239.200 42.514,238.950 42.410,238.644 42.528 C 238.338 42.645,237.753 42.439,237.344 42.071 C 236.935 41.702,236.060 41.136,235.400 40.814 C 234.740 40.492,233.722 39.907,233.138 39.514 C 232.554 39.121,231.789 38.800,231.438 38.800 C 231.087 38.800,230.800 38.620,230.800 38.400 C 230.800 38.180,230.528 38.000,230.195 38.000 C 229.862 38.000,229.232 37.820,228.795 37.600 C 228.358 37.380,227.642 37.020,227.205 36.800 C 226.768 36.580,226.138 36.400,225.805 36.400 C 225.472 36.400,225.200 36.220,225.200 36.000 C 225.200 35.780,224.928 35.600,224.595 35.600 C 224.262 35.600,223.632 35.420,223.195 35.200 C 222.758 34.980,222.042 34.620,221.605 34.400 C 221.168 34.180,220.536 34.000,220.200 34.000 C 219.864 34.000,219.277 33.835,218.895 33.634 C 217.712 33.010,212.632 31.600,211.569 31.600 C 211.014 31.600,210.389 31.438,210.180 31.241 C 209.971 31.044,209.080 30.782,208.200 30.660 C 206.764 30.460,202.701 29.793,200.600 29.412 C 200.160 29.332,198.394 29.252,196.676 29.233 C 194.958 29.215,193.636 29.065,193.738 28.900 C 193.840 28.735,192.068 28.600,189.800 28.600 C 187.533 28.600,185.760 28.735,185.862 28.900 M63.600 232.712 C 63.600 233.041,61.216 234.142,60.700 234.052 C 60.535 234.023,60.400 234.270,60.400 234.600 C 60.400 234.930,60.220 235.200,60.000 235.200 C 59.780 235.200,59.645 235.339,59.700 235.508 C 59.755 235.678,59.571 236.083,59.292 236.408 C 57.603 238.377,56.801 239.436,56.800 239.700 C 56.800 239.864,56.080 240.741,55.200 241.648 C 54.320 242.555,53.600 243.461,53.600 243.662 C 53.600 244.207,50.918 246.785,50.640 246.507 C 50.508 246.375,50.400 246.576,50.400 246.955 C 50.400 247.876,48.354 250.398,47.600 250.406 C 47.067 250.412,47.067 250.455,47.600 250.800 C 48.140 251.149,47.890 251.372,47.100 251.247 C 46.935 251.221,46.845 251.350,46.900 251.533 C 46.997 251.855,45.033 254.466,43.400 256.186 C 42.960 256.649,42.256 257.639,41.835 258.386 C 40.910 260.028,38.837 262.238,38.351 262.100 C 38.158 262.045,38.021 262.135,38.047 262.300 C 38.173 263.097,37.960 263.622,37.600 263.400 C 37.380 263.264,37.200 263.447,37.200 263.808 C 37.200 264.168,36.480 265.134,35.600 265.955 C 34.720 266.775,34.000 267.661,34.000 267.923 C 34.000 268.185,33.850 268.400,33.668 268.400 C 33.485 268.400,33.080 268.895,32.768 269.500 C 32.455 270.105,31.805 271.038,31.321 271.573 C 30.838 272.108,30.534 272.693,30.645 272.873 C 30.756 273.053,30.675 273.200,30.463 273.200 C 30.061 273.200,30.140 275.686,30.613 277.900 C 30.766 278.615,31.016 279.200,31.170 279.200 C 31.324 279.200,31.807 279.515,32.245 279.900 C 32.683 280.285,33.434 280.825,33.915 281.100 C 34.988 281.713,39.600 281.775,39.600 281.176 C 39.600 280.943,39.775 280.861,39.988 280.993 C 40.202 281.125,40.731 280.820,41.165 280.316 C 43.573 277.516,43.999 276.975,44.000 276.718 C 44.000 276.252,45.934 274.467,46.176 274.709 C 46.299 274.832,46.400 274.633,46.400 274.267 C 46.400 273.900,46.580 273.600,46.800 273.600 C 47.020 273.600,47.200 273.397,47.200 273.148 C 47.200 272.476,49.888 269.626,50.232 269.934 C 50.395 270.081,50.421 270.011,50.290 269.780 C 50.022 269.308,53.276 264.984,56.318 261.770 C 56.823 261.237,57.095 260.800,56.922 260.800 C 56.750 260.800,57.056 260.358,57.604 259.819 C 59.071 258.373,59.600 257.684,59.600 257.217 C 59.600 256.988,59.780 256.800,60.000 256.800 C 60.220 256.800,60.400 256.602,60.400 256.360 C 60.400 256.119,60.940 255.417,61.600 254.800 C 62.260 254.183,62.800 253.559,62.800 253.413 C 62.800 253.266,63.428 252.484,64.197 251.673 C 64.965 250.863,65.595 250.093,65.597 249.961 C 65.600 249.731,66.159 249.039,68.228 246.703 C 68.763 246.100,69.200 245.415,69.200 245.180 C 69.200 244.945,69.380 244.864,69.600 245.000 C 69.820 245.136,70.000 244.967,70.000 244.624 C 70.000 244.281,70.158 244.000,70.351 244.000 C 70.545 244.000,70.927 243.460,71.200 242.800 C 71.473 242.140,71.844 241.600,72.023 241.600 C 72.599 241.600,72.192 237.046,71.487 235.600 C 70.404 233.381,63.600 230.890,63.600 232.712 M366.200 250.800 C 366.340 251.027,366.004 251.200,365.424 251.200 C 364.861 251.200,364.400 251.380,364.400 251.600 C 364.400 251.820,364.119 252.000,363.776 252.000 C 363.433 252.000,363.254 252.164,363.377 252.364 C 363.501 252.563,363.048 253.193,362.370 253.764 C 361.693 254.334,361.270 254.800,361.431 254.800 C 361.591 254.800,361.307 255.160,360.800 255.600 C 360.293 256.040,360.023 256.400,360.200 256.400 C 360.377 256.400,360.175 256.715,359.751 257.100 C 359.327 257.485,358.649 258.318,358.246 258.952 C 357.534 260.071,356.129 261.782,354.700 263.271 C 354.315 263.672,354.097 264.000,354.216 264.000 C 354.334 264.000,354.064 264.394,353.616 264.875 C 353.167 265.357,352.800 265.908,352.800 266.099 C 352.800 266.291,352.620 266.336,352.400 266.200 C 352.180 266.064,352.000 266.244,352.000 266.600 C 352.000 266.987,351.815 267.133,351.538 266.962 C 351.270 266.796,351.184 266.851,351.334 267.093 C 351.475 267.322,350.963 268.195,350.196 269.033 C 349.428 269.871,348.800 270.791,348.800 271.078 C 348.800 271.365,348.524 271.600,348.187 271.600 C 347.851 271.600,347.458 271.915,347.315 272.300 C 347.172 272.685,346.728 273.291,346.328 273.647 C 345.927 274.003,345.600 274.508,345.600 274.771 C 345.600 275.033,345.420 275.136,345.200 275.000 C 344.980 274.864,344.800 275.117,344.800 275.562 C 344.800 276.008,344.435 276.567,343.989 276.806 C 343.543 277.045,343.300 277.439,343.451 277.682 C 343.605 277.931,343.542 278.012,343.307 277.866 C 343.078 277.725,342.645 277.911,342.345 278.281 C 341.876 278.860,341.884 278.904,342.400 278.600 C 343.115 278.179,342.559 278.963,340.702 280.997 C 340.098 281.659,339.603 282.346,339.602 282.524 C 339.601 282.702,339.392 282.719,339.138 282.562 C 338.861 282.390,338.785 282.452,338.948 282.715 C 339.097 282.957,338.585 283.789,337.809 284.564 C 337.034 285.339,336.400 286.159,336.400 286.387 C 336.400 286.614,336.220 286.800,336.000 286.800 C 335.780 286.800,335.600 287.004,335.600 287.253 C 335.600 287.502,335.285 287.997,334.900 288.353 C 334.515 288.709,334.136 289.270,334.058 289.600 C 333.980 289.930,333.872 290.380,333.818 290.600 C 333.765 290.820,333.590 291.301,333.430 291.669 C 333.269 292.037,333.332 292.700,333.569 293.142 C 333.806 293.585,334.000 294.249,334.000 294.618 C 334.000 296.420,337.276 298.655,340.065 298.756 L 342.710 298.852 344.955 296.695 C 346.190 295.508,347.200 294.398,347.200 294.228 C 347.200 294.058,348.055 293.027,349.100 291.937 C 350.145 290.846,351.008 289.739,351.018 289.477 C 351.028 289.215,351.253 289.045,351.518 289.100 C 351.783 289.155,352.000 288.930,352.000 288.600 C 352.000 288.270,352.180 288.000,352.400 288.000 C 352.620 288.000,352.800 287.803,352.800 287.563 C 352.800 286.858,354.264 285.201,354.611 285.514 C 354.786 285.671,354.814 285.599,354.674 285.354 C 354.534 285.108,355.135 284.178,356.010 283.285 C 356.884 282.393,357.600 281.491,357.600 281.282 C 357.600 281.072,358.230 280.213,359.000 279.372 C 359.770 278.531,360.404 277.654,360.409 277.422 C 360.414 277.190,361.134 276.381,362.009 275.624 C 362.884 274.867,363.600 274.027,363.600 273.757 C 363.600 273.487,363.742 273.207,363.914 273.133 C 364.087 273.060,364.641 272.413,365.145 271.695 C 365.649 270.978,366.255 270.511,366.492 270.657 C 366.750 270.816,366.808 270.736,366.636 270.459 C 366.476 270.199,366.625 269.889,366.975 269.754 C 367.319 269.622,367.600 269.264,367.600 268.957 C 367.600 268.651,367.780 268.400,368.000 268.400 C 368.220 268.400,368.400 268.119,368.400 267.776 C 368.400 267.433,368.580 267.264,368.800 267.400 C 369.020 267.536,369.200 267.356,369.200 267.000 C 369.200 266.613,369.385 266.467,369.662 266.638 C 369.942 266.811,370.015 266.748,369.848 266.478 C 369.697 266.233,370.170 265.350,370.900 264.516 C 374.021 260.953,376.254 254.400,374.349 254.400 C 374.131 254.400,374.050 254.243,374.168 254.051 C 374.422 253.641,372.377 251.459,371.561 251.270 C 371.253 251.199,370.940 250.974,370.867 250.770 C 370.793 250.567,369.658 250.400,368.343 250.400 C 366.851 250.400,366.046 250.550,366.200 250.800 M197.562 261.898 C 196.813 262.612,196.071 263.197,195.913 263.198 C 195.754 263.199,195.729 263.470,195.855 263.800 C 196.001 264.180,195.850 264.400,195.443 264.400 C 195.089 264.400,194.800 264.681,194.800 265.024 C 194.800 265.367,194.620 265.536,194.400 265.400 C 194.180 265.264,194.000 265.433,194.000 265.776 C 194.000 266.119,193.809 266.400,193.576 266.400 C 193.343 266.400,193.264 266.580,193.400 266.800 C 193.536 267.020,193.457 267.200,193.224 267.200 C 192.991 267.200,192.800 267.393,192.800 267.629 C 192.800 267.864,192.566 268.292,192.279 268.578 C 191.993 268.865,191.138 269.869,190.379 270.809 C 189.621 271.750,188.430 273.123,187.733 273.860 C 187.037 274.597,186.587 275.204,186.733 275.209 C 186.880 275.214,186.332 275.821,185.514 276.557 C 184.697 277.293,184.142 278.009,184.281 278.148 C 184.420 278.287,184.313 278.400,184.043 278.400 C 183.773 278.400,183.660 278.574,183.792 278.787 C 183.923 279.000,183.664 279.403,183.216 279.683 C 182.767 279.963,182.400 280.397,182.400 280.647 C 182.400 280.897,181.680 281.866,180.800 282.800 C 179.920 283.734,179.200 284.655,179.200 284.846 C 179.200 285.037,178.840 285.418,178.400 285.693 C 177.960 285.968,177.598 286.374,177.596 286.596 C 177.593 286.818,176.783 287.876,175.796 288.947 C 174.808 290.018,174.000 291.077,174.000 291.301 C 174.000 291.524,173.586 292.088,173.080 292.553 C 172.574 293.019,171.635 294.120,170.994 295.000 C 169.575 296.949,168.947 297.614,168.731 297.398 C 168.641 297.308,168.538 297.629,168.502 298.111 C 168.465 298.594,168.248 299.051,168.018 299.127 C 166.555 299.615,167.978 305.328,169.924 306.786 C 170.516 307.229,171.184 307.742,171.409 307.927 C 172.130 308.517,176.462 308.395,177.091 307.766 C 177.406 307.451,177.830 307.295,178.032 307.420 C 178.235 307.545,178.400 307.406,178.400 307.112 C 178.400 306.817,178.760 306.317,179.200 306.000 C 179.640 305.683,180.000 305.283,180.000 305.113 C 180.000 304.942,180.720 304.037,181.600 303.103 C 182.480 302.169,183.200 301.258,183.200 301.079 C 183.200 300.899,183.408 300.881,183.662 301.038 C 183.943 301.212,184.015 301.148,183.846 300.875 C 183.693 300.628,184.116 299.853,184.784 299.153 C 185.453 298.454,186.000 297.728,186.000 297.541 C 186.000 297.353,186.281 297.200,186.624 297.200 C 186.967 297.200,187.136 297.020,187.000 296.800 C 186.864 296.580,186.954 296.400,187.200 296.400 C 187.446 296.400,187.536 296.220,187.400 296.000 C 187.264 295.780,187.331 295.600,187.549 295.600 C 187.768 295.600,188.060 295.240,188.200 294.800 C 188.340 294.360,188.722 294.000,189.051 294.000 C 189.379 294.000,189.542 293.829,189.412 293.620 C 189.283 293.411,189.541 293.046,189.985 292.808 C 190.429 292.571,190.773 292.246,190.749 292.088 C 190.629 291.295,190.843 290.779,191.200 291.000 C 191.420 291.136,191.600 290.956,191.600 290.600 C 191.600 290.244,191.760 290.052,191.956 290.173 C 192.152 290.294,192.616 289.754,192.986 288.972 C 193.357 288.191,193.917 287.453,194.230 287.333 C 194.544 287.213,194.800 286.876,194.800 286.584 C 194.800 286.293,195.160 285.940,195.600 285.800 C 196.040 285.660,196.400 285.315,196.400 285.032 C 196.400 284.750,196.940 283.954,197.600 283.263 C 198.260 282.572,198.800 281.836,198.800 281.626 C 198.800 281.417,199.200 280.965,199.689 280.623 C 200.178 280.280,200.423 280.000,200.234 280.000 C 200.046 280.000,200.365 279.525,200.945 278.945 C 201.525 278.365,202.000 277.725,202.000 277.522 C 202.000 277.319,202.208 277.281,202.462 277.438 C 202.755 277.619,202.815 277.547,202.626 277.243 C 202.445 276.950,202.902 276.221,203.793 275.381 C 204.598 274.621,205.147 274.000,205.013 274.000 C 204.747 274.000,205.249 273.325,206.800 271.596 C 208.772 269.398,208.765 262.400,206.790 262.400 C 206.575 262.400,206.400 262.130,206.400 261.800 C 206.400 261.470,206.265 261.237,206.100 261.282 C 205.935 261.327,205.170 261.152,204.400 260.893 C 201.828 260.027,199.107 260.427,197.562 261.898 M61.200 301.200 C 60.650 301.630,59.975 301.986,59.700 301.991 C 59.425 301.996,59.200 302.226,59.200 302.502 C 59.200 302.778,58.480 303.769,57.600 304.703 C 56.719 305.638,55.954 306.612,55.900 306.868 C 55.845 307.124,55.170 308.010,54.400 308.838 C 52.358 311.032,52.000 311.512,52.000 312.050 C 52.000 312.316,51.881 312.414,51.736 312.269 C 51.590 312.124,51.261 312.409,51.003 312.902 C 50.745 313.396,50.311 313.751,50.038 313.690 C 49.764 313.630,49.629 313.723,49.736 313.897 C 49.998 314.321,47.790 317.257,47.459 316.926 C 47.317 316.783,47.200 316.977,47.200 317.357 C 47.200 317.768,47.017 317.934,46.748 317.768 C 46.476 317.600,46.368 317.705,46.477 318.031 C 46.577 318.330,46.231 319.202,45.710 319.970 C 44.762 321.368,44.368 327.114,45.259 326.564 C 45.444 326.449,45.786 326.770,46.017 327.277 C 46.434 328.191,48.054 329.200,49.103 329.200 C 49.402 329.200,49.536 329.380,49.400 329.600 C 49.249 329.844,49.855 330.000,50.953 330.000 C 51.943 330.000,52.864 329.820,53.000 329.600 C 53.136 329.380,53.582 329.200,53.992 329.200 C 54.880 329.200,58.800 325.364,58.800 324.495 C 58.800 324.309,59.385 323.498,60.100 322.694 C 60.815 321.889,62.120 320.396,63.000 319.375 C 63.880 318.354,64.876 317.222,65.212 316.859 C 65.549 316.497,66.071 315.711,66.373 315.114 C 66.674 314.516,67.073 314.122,67.260 314.237 C 67.447 314.353,67.600 314.189,67.600 313.873 C 67.600 313.557,68.291 312.565,69.136 311.668 C 70.566 310.149,71.726 302.981,70.410 303.794 C 70.251 303.892,69.896 303.553,69.621 303.040 C 68.363 300.688,63.275 299.577,61.200 301.200 M322.800 305.600 C 322.800 305.820,322.460 306.000,322.044 306.000 C 321.255 306.000,316.800 310.107,316.800 310.834 C 316.800 311.063,316.305 311.793,315.700 312.456 C 315.095 313.119,314.216 314.085,313.746 314.603 C 313.276 315.121,312.647 316.097,312.348 316.772 C 312.049 317.448,311.676 318.000,311.519 318.000 C 311.261 318.000,311.383 320.079,311.730 321.600 C 312.041 322.963,312.947 324.343,313.844 324.824 C 314.370 325.105,314.800 325.485,314.800 325.668 C 314.800 325.850,315.520 326.000,316.400 326.000 C 317.378 326.000,318.000 326.187,318.000 326.480 C 318.000 326.853,318.107 326.853,318.480 326.480 C 318.744 326.216,319.464 326.000,320.080 326.000 C 320.696 326.000,321.200 325.820,321.200 325.600 C 321.200 325.380,321.529 325.200,321.930 325.200 C 322.639 325.200,324.652 323.407,324.549 322.868 C 324.455 322.383,326.305 320.438,326.589 320.722 C 326.742 320.875,326.830 320.820,326.786 320.600 C 326.629 319.822,326.804 319.155,327.115 319.348 C 327.288 319.455,327.660 319.024,327.940 318.390 C 328.221 317.756,328.799 317.127,329.225 316.992 C 329.651 316.857,330.000 316.398,330.000 315.973 C 330.000 315.548,330.154 315.200,330.342 315.200 C 330.529 315.200,330.719 313.850,330.763 312.200 C 330.812 310.317,330.685 309.200,330.421 309.200 C 330.189 309.200,330.000 308.870,330.000 308.468 C 330.000 308.065,329.550 307.494,329.000 307.200 C 328.450 306.906,328.000 306.515,328.000 306.332 C 328.000 306.150,327.561 306.000,327.024 306.000 C 326.487 306.000,325.936 305.820,325.800 305.600 C 325.664 305.380,324.933 305.200,324.176 305.200 C 323.419 305.200,322.800 305.380,322.800 305.600 M232.892 350.980 C 231.605 351.691,229.600 353.532,229.600 354.003 C 229.600 354.221,229.330 354.400,229.000 354.400 C 228.670 354.400,228.400 354.580,228.400 354.800 C 228.400 355.523,228.240 355.786,227.013 357.078 C 225.458 358.716,225.124 359.160,224.432 360.500 C 224.120 361.105,223.715 361.600,223.532 361.600 C 223.350 361.600,223.200 362.774,223.200 364.208 C 223.200 367.001,224.549 370.000,225.805 370.000 C 226.132 370.000,226.400 370.143,226.400 370.317 C 226.400 371.546,232.006 371.369,233.264 370.100 C 233.537 369.825,233.994 369.600,234.280 369.600 C 234.566 369.600,234.800 369.414,234.800 369.186 C 234.800 368.958,235.205 368.322,235.700 367.772 C 236.195 367.223,236.915 366.419,237.300 365.986 C 237.685 365.554,238.000 365.022,238.000 364.803 C 238.000 364.585,238.360 364.182,238.800 363.907 C 239.240 363.632,239.600 363.252,239.600 363.062 C 239.600 362.871,240.050 362.181,240.600 361.527 C 241.150 360.873,241.600 359.913,241.600 359.393 C 241.600 358.873,241.780 358.336,242.000 358.200 C 242.220 358.064,242.400 357.434,242.400 356.800 C 242.400 356.166,242.220 355.536,242.000 355.400 C 241.780 355.264,241.600 354.803,241.600 354.376 C 241.600 353.949,241.420 353.600,241.200 353.600 C 240.980 353.600,240.800 353.373,240.800 353.096 C 240.800 352.605,239.979 351.952,238.054 350.911 C 236.878 350.275,234.101 350.312,232.892 350.980 " stroke="none" fill="#24a4bc" fill-rule="evenodd"></path><path id="path3" d="M184.946 28.887 C 184.678 29.321,185.672 29.269,186.395 28.812 C 186.859 28.518,186.786 28.451,186.065 28.505 C 185.556 28.543,185.052 28.715,184.946 28.887 M188.300 28.689 C 189.015 28.778,190.185 28.778,190.900 28.689 C 191.615 28.601,191.030 28.528,189.600 28.528 C 188.170 28.528,187.585 28.601,188.300 28.689 M193.200 28.793 C 193.879 29.240,195.081 29.347,194.656 28.923 C 194.504 28.771,193.979 28.590,193.490 28.522 C 192.784 28.423,192.724 28.479,193.200 28.793 M206.400 30.400 C 207.188 30.909,208.115 30.909,207.800 30.400 C 207.664 30.180,207.158 30.003,206.676 30.006 C 205.964 30.011,205.912 30.085,206.400 30.400 M126.162 53.300 C 125.406 54.192,125.407 54.194,126.200 53.552 C 126.640 53.196,127.270 52.805,127.600 52.684 C 128.109 52.497,128.104 52.458,127.562 52.432 C 127.211 52.414,126.581 52.805,126.162 53.300 M298.000 57.234 C 298.000 57.435,296.650 57.600,295.000 57.600 C 293.267 57.600,292.000 57.769,292.000 58.000 C 292.000 58.220,291.190 58.400,290.200 58.400 C 289.200 58.400,288.400 58.588,288.400 58.824 C 288.400 59.057,288.220 59.136,288.000 59.000 C 287.780 58.864,287.600 59.002,287.600 59.308 C 287.600 59.638,289.018 60.398,291.100 61.185 C 307.761 67.480,319.734 79.329,325.853 95.578 C 328.449 102.472,329.857 111.743,329.393 118.882 L 329.115 123.163 330.257 123.412 C 342.658 126.107,352.087 132.032,359.365 141.702 C 360.594 143.335,361.600 144.807,361.600 144.974 C 361.600 145.140,361.931 145.754,362.337 146.338 C 363.262 147.673,366.012 154.105,366.461 155.987 C 367.906 162.044,368.114 163.728,368.101 169.273 C 368.087 175.451,367.838 177.042,365.924 183.200 C 360.710 199.971,346.595 211.914,328.300 215.033 C 327.475 215.174,326.800 215.449,326.800 215.645 C 326.800 216.153,360.685 216.109,361.000 215.600 C 361.136 215.380,362.137 215.200,363.224 215.200 C 364.311 215.200,365.200 215.020,365.200 214.800 C 365.200 214.580,365.819 214.400,366.576 214.400 C 367.333 214.400,368.064 214.220,368.200 214.000 C 368.336 213.780,368.807 213.600,369.247 213.600 C 369.687 213.600,369.936 213.420,369.800 213.200 C 369.653 212.962,370.129 212.800,370.976 212.800 C 371.759 212.800,372.400 212.620,372.400 212.400 C 372.400 212.180,372.760 212.000,373.200 212.000 C 373.640 212.000,374.000 211.820,374.000 211.600 C 374.000 211.380,374.270 211.200,374.600 211.200 C 374.930 211.200,375.200 211.020,375.200 210.800 C 375.200 210.580,375.560 210.400,376.000 210.400 C 376.440 210.400,376.800 210.220,376.800 210.000 C 376.800 209.780,377.160 209.600,377.600 209.600 C 378.040 209.600,378.400 209.423,378.400 209.208 C 378.400 208.992,378.887 208.693,379.482 208.544 C 380.077 208.394,380.986 207.851,381.500 207.336 C 382.015 206.821,382.609 206.400,382.821 206.400 C 383.428 206.400,391.200 198.419,391.200 197.796 C 391.200 197.488,391.605 196.815,392.100 196.300 C 392.595 195.785,393.058 195.102,393.130 194.782 C 393.201 194.462,393.426 194.140,393.630 194.067 C 393.833 193.993,394.000 193.628,394.000 193.255 C 394.000 192.882,394.360 192.317,394.800 192.000 C 395.240 191.683,395.600 191.103,395.600 190.712 C 395.600 190.320,395.780 190.000,396.000 190.000 C 396.220 190.000,396.400 189.550,396.400 189.000 C 396.400 188.450,396.580 188.000,396.800 188.000 C 397.020 188.000,397.200 187.640,397.200 187.200 C 397.200 186.760,397.380 186.400,397.600 186.400 C 397.820 186.400,398.000 185.759,398.000 184.976 C 398.000 184.129,398.162 183.653,398.400 183.800 C 398.632 183.944,398.800 183.549,398.800 182.857 C 398.800 182.202,399.025 181.592,399.300 181.500 C 400.010 181.263,400.028 157.311,399.318 156.873 C 399.054 156.710,398.792 155.906,398.737 155.088 C 398.682 154.270,398.493 153.600,398.318 153.600 C 398.143 153.600,398.000 153.240,398.000 152.800 C 398.000 152.360,397.820 152.000,397.600 152.000 C 397.380 152.000,397.200 151.460,397.200 150.800 C 397.200 150.140,397.020 149.600,396.800 149.600 C 396.580 149.600,396.400 149.240,396.400 148.800 C 396.400 148.360,396.220 148.000,396.000 148.000 C 395.780 148.000,395.600 147.640,395.600 147.200 C 395.600 146.760,395.420 146.400,395.200 146.400 C 394.980 146.400,394.800 146.080,394.800 145.688 C 394.800 145.297,394.440 144.717,394.000 144.400 C 393.560 144.083,393.200 143.546,393.200 143.208 C 393.200 142.869,392.840 142.368,392.400 142.093 C 391.960 141.818,391.600 141.331,391.600 141.010 C 391.600 140.689,390.970 139.797,390.200 139.027 C 389.430 138.257,388.800 137.453,388.800 137.240 C 388.800 136.781,385.184 133.200,384.721 133.200 C 384.545 133.200,383.659 132.480,382.752 131.600 C 381.845 130.720,380.855 130.000,380.552 130.000 C 380.248 130.000,380.000 129.820,380.000 129.600 C 380.000 129.380,379.680 129.200,379.288 129.200 C 378.897 129.200,378.317 128.840,378.000 128.400 C 377.683 127.960,377.103 127.600,376.712 127.600 C 376.320 127.600,376.000 127.420,376.000 127.200 C 376.000 126.980,375.865 126.838,375.700 126.885 C 375.535 126.932,374.995 126.745,374.500 126.471 C 374.005 126.196,373.597 126.113,373.594 126.286 C 373.591 126.459,373.456 126.416,373.294 126.192 C 372.886 125.625,370.922 124.800,369.981 124.800 C 369.552 124.800,369.200 124.620,369.200 124.400 C 369.200 124.180,368.480 124.000,367.600 124.000 C 366.720 124.000,366.000 123.820,366.000 123.600 C 366.000 123.380,365.280 123.200,364.400 123.200 C 363.520 123.200,362.800 123.020,362.800 122.800 C 362.800 122.580,362.440 122.400,362.000 122.400 C 361.467 122.400,361.200 122.133,361.200 121.600 C 361.200 121.160,361.380 120.800,361.600 120.800 C 361.847 120.800,362.000 118.733,362.000 115.400 C 362.000 112.067,361.847 110.000,361.600 110.000 C 361.371 110.000,361.200 108.800,361.200 107.200 C 361.200 105.600,361.029 104.400,360.800 104.400 C 360.580 104.400,360.400 103.500,360.400 102.400 C 360.400 101.300,360.220 100.400,360.000 100.400 C 359.780 100.400,359.600 99.860,359.600 99.200 C 359.600 98.540,359.420 98.000,359.200 98.000 C 358.980 98.000,358.800 97.571,358.800 97.046 C 358.800 95.759,357.563 92.000,357.139 92.000 C 356.953 92.000,356.800 91.735,356.800 91.411 C 356.800 90.606,355.118 87.200,354.720 87.200 C 354.544 87.200,354.400 86.840,354.400 86.400 C 354.400 85.960,354.220 85.600,354.000 85.600 C 353.780 85.600,353.600 85.280,353.600 84.888 C 353.600 84.497,353.240 83.917,352.800 83.600 C 352.360 83.283,352.000 82.743,352.000 82.400 C 352.000 82.057,351.640 81.517,351.200 81.200 C 350.760 80.883,350.400 80.395,350.400 80.115 C 350.400 79.836,350.040 79.382,349.600 79.107 C 349.160 78.832,348.800 78.485,348.800 78.335 C 348.800 78.186,348.125 77.363,347.300 76.507 C 346.475 75.651,345.546 74.572,345.236 74.109 C 344.925 73.645,344.205 73.028,343.636 72.736 C 342.502 72.155,341.200 70.874,341.200 70.339 C 341.200 70.152,340.919 70.000,340.576 70.000 C 340.233 70.000,340.064 69.820,340.200 69.600 C 340.336 69.380,340.167 69.200,339.824 69.200 C 339.481 69.200,339.200 69.020,339.200 68.800 C 339.200 68.580,338.970 68.400,338.688 68.400 C 338.407 68.400,337.917 68.040,337.600 67.600 C 337.283 67.160,336.743 66.800,336.400 66.800 C 336.057 66.800,335.517 66.440,335.200 66.000 C 334.883 65.560,334.303 65.200,333.912 65.200 C 333.520 65.200,333.200 65.020,333.200 64.800 C 333.200 64.580,332.840 64.400,332.400 64.400 C 331.960 64.400,331.600 64.252,331.600 64.071 C 331.600 63.710,328.027 62.000,327.272 62.000 C 327.012 62.000,326.800 61.820,326.800 61.600 C 326.800 61.380,326.440 61.200,326.000 61.200 C 325.560 61.200,325.200 61.044,325.200 60.852 C 325.200 60.661,324.615 60.407,323.900 60.287 C 323.185 60.168,322.060 59.847,321.400 59.574 C 319.983 58.988,319.301 58.845,316.500 58.547 C 315.345 58.423,314.400 58.160,314.400 57.961 C 314.400 57.763,313.061 57.600,311.424 57.600 C 309.787 57.600,308.334 57.417,308.196 57.193 C 307.879 56.681,298.000 56.721,298.000 57.234 M118.245 61.388 C 117.880 61.944,117.722 62.400,117.895 62.400 C 118.284 62.400,119.319 60.786,119.082 60.549 C 118.986 60.453,118.610 60.831,118.245 61.388 M115.693 64.400 C 115.418 64.840,115.331 65.200,115.500 65.200 C 115.669 65.200,116.032 64.840,116.307 64.400 C 116.582 63.960,116.669 63.600,116.500 63.600 C 116.331 63.600,115.968 63.960,115.693 64.400 M67.344 93.002 C 67.155 93.494,67.711 95.642,69.414 101.000 C 73.965 115.315,86.076 132.699,97.936 141.936 C 101.210 144.486,101.158 144.586,99.856 138.200 C 98.553 131.805,98.426 130.900,97.986 124.900 C 97.526 118.628,97.939 108.767,98.827 104.800 C 99.048 103.810,99.268 101.830,99.315 100.400 L 99.400 97.800 97.900 97.429 C 97.075 97.226,96.400 96.911,96.400 96.729 C 96.400 96.548,96.128 96.400,95.795 96.400 C 95.462 96.400,94.877 96.238,94.495 96.039 C 94.113 95.840,92.990 95.448,92.000 95.167 C 91.010 94.886,90.020 94.526,89.800 94.366 C 89.458 94.119,85.579 93.498,84.706 93.551 C 84.544 93.560,83.734 93.333,82.906 93.045 C 80.688 92.275,67.637 92.238,67.344 93.002 M28.182 110.915 C 27.189 112.068,27.159 112.520,28.135 111.630 C 28.721 111.097,29.200 110.602,29.200 110.530 C 29.200 110.228,28.569 110.467,28.182 110.915 M12.806 137.300 C 12.811 138.028,12.886 138.085,13.200 137.600 C 13.701 136.824,13.701 136.400,13.200 136.400 C 12.980 136.400,12.803 136.805,12.806 137.300 M10.643 151.033 C 10.294 151.941,10.343 156.800,10.700 156.799 C 10.865 156.798,11.013 155.358,11.028 153.599 C 11.058 150.219,11.029 150.026,10.643 151.033 M230.672 156.517 C 230.857 156.816,229.827 158.336,228.145 160.247 C 227.735 160.712,226.950 161.686,226.400 162.410 C 225.850 163.134,225.220 163.928,225.000 164.173 C 224.780 164.419,223.972 165.425,223.206 166.410 C 222.439 167.394,221.591 168.470,221.321 168.800 C 221.052 169.130,219.472 171.110,217.811 173.200 C 212.863 179.425,211.440 181.200,210.655 182.123 C 210.245 182.605,209.435 183.630,208.855 184.400 C 208.275 185.170,207.572 186.041,207.294 186.335 C 207.016 186.629,206.296 187.529,205.694 188.335 C 205.092 189.141,204.372 190.041,204.094 190.335 C 203.816 190.629,203.096 191.529,202.494 192.335 C 200.919 194.444,196.141 200.425,195.087 201.604 C 194.594 202.157,193.751 203.237,193.214 204.004 C 192.677 204.772,191.951 205.670,191.600 206.000 C 191.249 206.330,190.529 207.230,190.000 208.000 C 189.471 208.770,188.755 209.670,188.409 210.000 C 188.063 210.330,187.475 211.050,187.103 211.600 C 186.731 212.150,186.046 213.095,185.580 213.700 L 184.733 214.800 197.111 214.800 L 209.489 214.800 215.845 206.859 C 219.340 202.492,222.740 198.232,223.400 197.394 C 224.060 196.555,231.144 187.664,239.142 177.635 C 247.141 167.606,254.217 158.730,254.867 157.911 L 256.050 156.422 243.263 156.311 C 236.230 156.250,230.564 156.343,230.672 156.517 M32.514 201.720 C 33.001 202.226,33.474 202.587,33.564 202.523 C 33.798 202.355,32.342 200.800,31.952 200.800 C 31.774 200.800,32.027 201.214,32.514 201.720 M38.861 206.218 C 39.224 206.589,39.740 206.820,40.006 206.731 C 40.273 206.642,39.975 206.339,39.345 206.056 C 38.273 205.576,38.242 205.586,38.861 206.218 M65.843 249.433 C 65.467 250.411,65.549 250.508,66.200 249.857 C 66.880 249.177,66.967 248.800,66.443 248.800 C 66.246 248.800,65.976 249.085,65.843 249.433 M46.860 251.442 C 46.562 251.778,46.399 252.132,46.495 252.229 C 46.592 252.326,46.998 252.044,47.398 251.602 C 47.797 251.161,47.961 250.807,47.762 250.815 C 47.563 250.824,47.157 251.105,46.860 251.442 M44.293 254.508 C 43.912 254.978,43.600 255.530,43.600 255.735 C 43.600 255.940,43.981 255.624,44.446 255.033 C 44.911 254.442,45.223 253.889,45.139 253.806 C 45.055 253.722,44.675 254.038,44.293 254.508 M40.900 259.023 C 40.311 259.663,40.262 260.000,40.757 260.000 C 41.098 260.000,41.737 258.796,41.509 258.583 C 41.449 258.527,41.175 258.725,40.900 259.023 M373.709 260.677 C 372.486 262.442,372.325 262.800,372.749 262.800 C 372.968 262.800,373.260 262.441,373.399 262.002 C 373.538 261.564,373.932 260.925,374.274 260.583 C 374.616 260.242,374.803 259.870,374.691 259.758 C 374.579 259.646,374.137 260.059,373.709 260.677 M38.261 262.240 C 37.228 263.657,37.600 263.742,38.730 262.347 C 39.242 261.716,39.512 261.206,39.330 261.213 C 39.149 261.219,38.667 261.682,38.261 262.240 M196.875 262.016 C 196.394 262.464,196.000 262.946,196.000 263.085 C 196.000 263.225,196.450 262.917,197.000 262.400 C 197.938 261.519,198.171 261.200,197.875 261.200 C 197.807 261.200,197.357 261.567,196.875 262.016 M53.100 265.388 C 52.292 266.498,52.162 267.109,52.900 266.327 C 53.960 265.203,54.484 264.401,54.149 264.413 C 53.957 264.419,53.485 264.858,53.100 265.388 M369.806 265.888 L 369.104 267.000 370.030 266.111 C 370.539 265.622,370.855 265.122,370.732 264.999 C 370.609 264.876,370.192 265.276,369.806 265.888 M351.100 267.357 C 350.369 267.912,350.184 268.400,350.704 268.400 C 350.871 268.400,351.232 268.040,351.507 267.600 C 352.089 266.668,352.044 266.640,351.100 267.357 M366.000 270.600 C 365.483 271.150,365.227 271.594,365.430 271.587 C 365.772 271.576,367.421 269.600,367.088 269.600 C 367.006 269.600,366.517 270.050,366.000 270.600 M31.233 271.100 L 30.737 272.200 31.569 271.317 C 32.460 270.369,32.599 270.000,32.064 270.000 C 31.880 270.000,31.505 270.495,31.233 271.100 M206.429 271.854 C 205.973 272.434,205.600 273.094,205.600 273.321 C 205.600 273.791,205.560 273.833,206.757 272.100 C 207.833 270.542,207.599 270.366,206.429 271.854 M181.075 281.922 C 180.484 282.539,180.000 283.203,180.000 283.397 C 180.000 283.592,180.315 283.400,180.700 282.970 C 182.679 280.763,182.973 279.940,181.075 281.922 M353.835 285.789 C 353.244 286.565,352.871 287.200,353.008 287.200 C 353.402 287.200,354.400 286.098,354.400 285.662 C 354.400 285.445,354.625 285.186,354.900 285.088 C 355.175 284.990,355.290 284.790,355.156 284.644 C 355.021 284.498,354.427 285.013,353.835 285.789 M334.000 295.818 C 334.000 296.212,336.044 298.090,336.248 297.885 C 336.358 297.775,335.979 297.216,335.406 296.642 C 334.377 295.613,334.000 295.392,334.000 295.818 M344.493 297.200 C 344.218 297.640,344.098 298.000,344.225 298.000 C 344.525 298.000,345.600 296.927,345.600 296.629 C 345.600 296.120,344.962 296.449,344.493 297.200 M183.806 300.288 L 183.104 301.400 184.030 300.511 C 184.539 300.022,184.855 299.522,184.732 299.399 C 184.609 299.276,184.192 299.676,183.806 300.288 M180.500 304.198 C 179.931 304.845,179.861 305.200,180.304 305.200 C 180.471 305.200,180.832 304.840,181.107 304.400 C 181.678 303.487,181.251 303.345,180.500 304.198 M68.093 312.800 C 67.818 313.240,67.731 313.600,67.900 313.600 C 68.069 313.600,68.432 313.240,68.707 312.800 C 68.982 312.360,69.069 312.000,68.900 312.000 C 68.731 312.000,68.368 312.360,68.093 312.800 M49.653 314.042 C 48.342 315.700,48.742 315.779,50.139 314.138 C 50.766 313.402,51.126 312.810,50.939 312.822 C 50.753 312.834,50.174 313.383,49.653 314.042 M313.857 314.100 L 313.142 315.400 313.971 314.456 C 314.687 313.640,315.050 312.800,314.686 312.800 C 314.624 312.800,314.251 313.385,313.857 314.100 M61.693 320.800 C 61.418 321.240,61.331 321.600,61.500 321.600 C 61.669 321.600,62.032 321.240,62.307 320.800 C 62.582 320.360,62.669 320.000,62.500 320.000 C 62.331 320.000,61.968 320.360,61.693 320.800 M316.800 326.400 C 316.800 326.620,317.070 326.800,317.400 326.800 C 317.730 326.800,318.000 326.620,318.000 326.400 C 318.000 326.180,317.730 326.000,317.400 326.000 C 317.070 326.000,316.800 326.180,316.800 326.400 M230.400 371.200 L 229.400 371.520 230.500 371.560 C 231.105 371.582,231.600 371.420,231.600 371.200 C 231.600 370.980,231.555 370.818,231.500 370.840 C 231.445 370.862,230.950 371.024,230.400 371.200 " stroke="none" fill="#148ca4" fill-rule="evenodd"></path><path id="path4" d="M164.555 157.300 C 163.910 158.015,162.938 159.228,162.395 159.996 C 161.853 160.763,161.007 161.843,160.515 162.396 C 160.024 162.948,157.260 166.370,154.373 170.000 C 151.487 173.630,148.827 176.964,148.463 177.408 C 148.098 177.852,147.308 178.872,146.706 179.673 C 146.104 180.475,145.384 181.371,145.106 181.665 C 144.828 181.959,144.125 182.830,143.545 183.600 C 142.965 184.370,142.155 185.385,141.745 185.855 C 141.335 186.325,140.460 187.398,139.800 188.240 C 136.529 192.411,128.795 202.129,127.600 203.570 C 127.270 203.968,126.550 204.886,126.000 205.610 C 125.450 206.334,124.817 207.123,124.594 207.363 C 124.371 207.604,123.566 208.610,122.805 209.600 C 122.043 210.590,121.326 211.490,121.210 211.600 C 119.902 212.844,117.640 216.007,118.319 215.643 C 118.786 215.394,119.670 214.517,120.284 213.695 C 120.898 212.873,121.640 211.948,121.932 211.639 C 122.225 211.330,123.167 210.160,124.025 209.039 C 125.788 206.736,125.664 206.893,133.725 196.810 C 136.984 192.735,139.864 189.129,140.125 188.799 C 140.386 188.468,144.832 182.888,150.004 176.399 C 155.176 169.909,160.846 162.764,162.604 160.519 L 165.800 156.438 198.134 156.419 L 230.467 156.400 229.134 158.099 C 228.400 159.033,227.502 160.158,227.138 160.599 C 226.774 161.039,224.834 163.470,222.827 166.000 C 220.820 168.530,218.955 170.870,218.683 171.200 C 218.411 171.530,217.561 172.606,216.794 173.590 C 216.028 174.575,215.172 175.625,214.894 175.925 C 214.616 176.224,213.896 177.129,213.294 177.935 C 212.692 178.741,211.972 179.641,211.694 179.935 C 211.416 180.229,210.696 181.129,210.094 181.935 C 209.492 182.741,208.772 183.641,208.494 183.935 C 208.216 184.229,207.496 185.127,206.894 185.932 C 206.292 186.736,204.572 188.926,203.071 190.797 C 199.709 194.990,199.704 194.995,197.994 197.190 C 197.228 198.175,196.372 199.225,196.094 199.525 C 195.816 199.824,195.096 200.725,194.494 201.527 C 193.892 202.328,193.083 203.358,192.695 203.815 C 189.495 207.585,184.024 214.697,184.013 215.100 C 184.003 215.496,190.293 215.600,214.167 215.600 C 230.759 215.600,244.644 215.719,245.022 215.864 C 245.505 216.049,245.653 215.960,245.521 215.564 C 245.363 215.088,240.624 214.969,215.077 214.800 L 184.820 214.600 186.196 212.800 C 186.952 211.810,187.896 210.640,188.293 210.200 C 188.690 209.760,189.453 208.770,189.989 208.000 C 190.524 207.230,191.249 206.330,191.600 206.000 C 191.951 205.670,192.677 204.772,193.214 204.004 C 193.751 203.237,194.594 202.157,195.087 201.604 C 196.141 200.425,200.919 194.444,202.494 192.335 C 203.096 191.529,203.816 190.629,204.094 190.335 C 204.372 190.041,205.092 189.141,205.694 188.335 C 206.296 187.529,207.016 186.629,207.294 186.335 C 207.572 186.041,208.275 185.170,208.855 184.400 C 209.435 183.630,210.245 182.605,210.655 182.123 C 211.440 181.200,212.863 179.425,217.811 173.200 C 219.472 171.110,221.052 169.130,221.321 168.800 C 221.591 168.470,222.439 167.394,223.206 166.410 C 223.972 165.425,224.780 164.419,225.000 164.173 C 225.220 163.928,225.850 163.134,226.400 162.410 C 226.950 161.686,227.735 160.712,228.145 160.247 C 229.960 158.185,230.849 156.804,230.611 156.417 C 230.435 156.133,220.043 156.000,198.041 156.000 L 165.729 156.000 164.555 157.300 " stroke="none" fill="#60a17d" fill-rule="evenodd"></path></g></svg>